<svg version="1.1" xmlns:xlink="http://www.w3.org/1999/xlink" xmlns="http://www.w3.org/2000/svg"><polyline points="50,50 800,50 800,550 50,550 50,50" stroke="black" stroke-width="1" fill="none"></polyline><path d="M 488.89 379.418 L 480.591 373.838 M 485.621 384.19 L 478.3 377.378 M 482.263 388.877 L 476.098 381.003 M 478.827 393.468 L 473.973 384.725 M 475.332 397.951 L 471.907 388.556 M 471.794 402.318 L 469.883 392.502 M 468.233 406.564 L 467.883 396.57 M 464.667 410.686 L 465.887 400.761 M 461.115 414.686 L 463.875 405.075 M 457.598 418.567 L 461.829 409.507 M 454.132 422.337 L 459.73 414.051 M 450.735 426.004 L 457.562 418.697 M 447.423 429.58 L 455.31 423.433 M 444.207 433.08 L 452.96 428.245 M 441.1 436.521 L 450.502 433.116 M 436.369 440.576 L 446.163 442.594 M 432.424 442.594 L 441.782 446.12 M 428.596 444.654 L 437.285 449.603 M 424.874 446.775 L 432.681 453.024 M 421.25 448.973 L 427.981 456.368 M 417.708 451.263 L 423.199 459.621 M 414.235 453.655 L 418.348 462.77 M 410.813 456.16 L 413.447 465.806 M 407.423 458.783 L 408.514 468.724 M 404.047 461.53 L 403.567 471.518 M 400.666 464.399 L 398.627 474.189 M 397.259 467.39 L 393.712 476.74 M 393.809 470.496 L 388.841 479.175 M 390.298 473.71 L 384.032 481.503 M 386.71 477.02 L 379.301 483.735 M 381.148 483.966 L 371.32 485.813 M 376.328 485.713 L 366.332 485.998 M 371.385 487.464 L 361.468 486.179 M 366.319 489.199 L 356.725 486.377 M 361.134 490.9 L 352.101 486.61 M 355.838 492.548 L 347.589 486.896 M 350.44 494.126 L 343.178 487.252 M 344.952 495.62 L 338.857 487.693 M 339.389 497.016 L 334.61 488.232 M 333.766 498.304 L 330.423 488.88 M 328.102 499.476 L 326.276 489.644 M 322.415 500.526 L 322.152 490.529 M 316.725 501.452 L 318.031 491.538 M 311.05 502.257 L 313.893 492.669 M 305.41 502.943 L 309.72 493.919 M 295.364 502.708 L 303.781 497.309 M 290.09 501.029 L 299.249 497.015 M 284.929 499.3 L 294.604 496.77 M 279.887 497.54 L 289.839 496.557 M 274.969 495.767 L 284.951 496.355 M 270.173 494.001 L 279.94 496.145 M 265.498 492.261 L 274.809 495.909 M 260.938 490.566 L 269.563 495.628 M 256.485 488.934 L 264.21 495.284 M 252.127 487.379 L 258.762 494.861 M 247.852 485.917 L 253.233 494.346 M 243.643 484.559 L 247.637 493.726 M 239.483 483.313 L 241.992 492.993 M 235.355 482.188 L 236.317 492.141 M 231.239 481.185 L 230.63 491.166 M 225.825 480.468 L 220.084 488.656 M 222.283 478.177 L 215.33 485.364 M 218.655 475.974 L 210.662 481.983 M 214.929 473.846 L 206.093 478.529 M 211.093 471.776 L 201.633 475.017 M 207.142 469.746 L 197.29 471.466 M 203.068 467.738 L 193.069 467.893 M 198.871 465.732 L 188.971 464.319 M 194.552 463.709 L 184.996 460.762 M 190.115 461.65 L 181.138 457.243 M 185.566 459.536 L 177.391 453.777 M 180.917 457.352 L 173.745 450.383 M 176.179 455.082 L 170.187 447.076 M 171.367 452.713 L 166.703 443.867 M 166.497 450.235 L 163.276 440.768 M 157.026 445.84 L 159.234 436.087 M 153.512 441.441 L 157.221 432.154 M 150.044 436.928 L 155.161 428.337 M 146.638 432.308 L 153.039 424.625 M 143.312 427.594 L 150.836 421.008 M 140.078 422.798 L 148.541 417.471 M 136.948 417.936 L 146.142 414.001 M 133.932 413.025 L 143.628 410.579 M 131.035 408.083 L 140.995 407.186 M 128.262 403.131 L 138.239 403.805 M 125.611 398.186 L 135.36 400.415 M 123.081 393.269 L 132.36 396.997 M 120.666 388.397 L 129.246 393.533 M 118.356 383.589 L 126.026 390.005 M 116.142 378.859 L 122.712 386.398 M 114.097 370.906 L 115.752 380.768 M 113.924 365.928 L 114.014 375.927 M 113.752 361.073 L 112.275 370.963 M 113.563 356.34 L 110.554 365.877 M 113.336 351.725 L 108.871 360.673 M 113.055 347.221 L 107.243 355.359 M 112.702 342.817 L 105.687 349.944 M 112.262 338.502 L 104.218 344.442 M 111.724 334.26 L 102.848 338.866 M 111.076 330.075 L 101.588 333.234 M 110.311 325.929 L 100.445 327.563 M 109.424 321.804 L 99.4245 321.872 M 108.414 317.68 L 98.5271 316.181 M 107.282 313.538 L 97.7517 310.508 M 106.032 309.358 L 97.0938 304.873 M 102.647 303.377 L 97.3388 294.901 M 102.947 298.839 L 99.0326 289.637 M 103.2 294.188 L 100.775 284.486 M 103.423 289.417 L 102.548 279.455 M 103.635 284.523 L 104.331 274.547 M 103.856 279.506 L 106.107 269.762 M 104.106 274.368 L 107.854 265.097 M 104.401 269.117 L 109.556 260.547 M 104.761 263.759 L 111.194 256.103 M 105.2 258.307 L 112.754 251.754 M 105.733 252.775 L 114.22 247.485 M 106.371 247.177 L 115.581 243.283 M 107.122 241.532 L 116.829 239.128 M 107.994 235.857 L 117.957 235.004 M 108.988 230.172 L 118.962 230.89 M 111.543 219.64 L 119.668 225.469 M 114.851 214.897 L 121.962 221.928 M 118.245 210.242 L 124.168 218.3 M 121.713 205.686 L 126.3 214.572 M 125.237 201.241 L 128.376 210.735 M 128.8 196.912 L 130.412 206.781 M 132.382 192.705 L 132.429 202.705 M 135.965 188.622 L 134.444 198.506 M 139.528 184.661 L 136.478 194.184 M 143.054 180.817 L 138.55 189.745 M 146.524 177.084 L 140.677 185.196 M 149.921 173.45 L 142.876 180.546 M 153.232 169.904 L 145.161 175.809 M 156.442 166.43 L 147.546 170.998 M 159.543 163.013 L 150.041 166.131 M 164.209 158.982 L 154.48 156.668 M 168.139 156.975 L 158.893 153.166 M 171.955 154.921 L 163.42 149.71 M 175.666 152.802 L 168.052 146.319 M 179.283 150.603 L 172.779 143.007 M 182.82 148.31 L 177.586 139.789 M 186.293 145.912 L 182.458 136.676 M 189.718 143.399 L 187.378 133.677 M 193.115 140.767 L 192.326 130.798 M 196.503 138.011 L 197.285 128.042 M 199.9 135.132 L 202.234 125.409 M 203.326 132.134 L 207.155 122.896 M 206.8 129.021 L 212.029 120.497 M 210.339 125.803 L 216.838 118.204 M 213.958 122.492 L 221.568 116.004 M 219.624 115.535 L 229.504 113.986 M 224.476 113.806 L 234.476 113.825 M 229.45 112.078 L 239.324 113.663 M 234.547 110.37 L 244.051 113.482 M 239.761 108.701 L 248.66 113.263 M 245.085 107.088 L 253.159 112.988 M 250.508 105.548 L 257.558 112.64 M 256.018 104.096 L 261.87 112.205 M 261.6 102.745 L 266.11 111.67 M 267.237 101.503 L 270.293 111.025 M 272.912 100.379 L 274.439 110.262 M 278.606 99.3777 L 278.566 109.378 M 284.298 98.4994 L 282.692 108.37 M 289.971 97.7429 L 286.839 107.24 M 295.605 97.1035 L 291.023 105.992 M 305.594 97.4428 L 297.017 102.584 M 310.84 99.1557 L 301.563 102.89 M 315.97 100.914 L 306.224 103.15 M 320.981 102.701 L 311.004 103.381 M 325.868 104.495 L 315.908 103.604 M 330.632 106.278 L 320.935 103.838 M 335.277 108.03 L 326.081 104.102 M 339.808 109.734 L 331.341 104.413 M 344.235 111.372 L 336.706 104.791 M 348.569 112.929 L 342.164 105.249 M 352.824 114.39 L 347.701 105.802 M 357.017 115.746 L 353.302 106.461 M 361.163 116.986 L 358.949 107.234 M 365.283 118.106 L 364.623 108.128 M 369.394 119.103 L 370.306 109.145 M 374.834 119.766 L 380.821 111.756 M 378.382 122.055 L 385.549 115.082 M 382.018 124.257 L 390.189 118.493 M 385.755 126.389 L 394.729 121.976 M 389.604 128.466 L 399.158 125.514 M 393.57 130.508 L 403.468 129.088 M 397.658 132.532 L 407.657 132.68 M 401.87 134.558 L 411.722 136.271 M 406.204 136.605 L 415.666 139.84 M 410.654 138.693 L 419.493 143.37 M 415.213 140.839 L 423.21 146.843 M 419.871 143.059 L 426.829 150.242 M 424.615 145.368 L 430.361 153.552 M 429.429 147.778 L 433.823 156.761 M 434.297 150.299 L 437.229 159.859" stroke="black" stroke-width="1" fill="none"></path><path d="M 300.13 280 L 299.957 320 M 305.261 280.268 L 298.824 319.746 M 310.312 281.022 L 297.77 319.005 M 315.207 282.245 L 296.87 317.794 M 319.875 283.907 L 296.195 316.145 M 324.249 285.966 L 295.812 314.096 M 328.272 288.371 L 295.779 311.7 M 331.892 291.063 L 296.147 309.014 M 335.071 293.976 L 296.955 306.106 M 337.78 297.038 L 298.234 303.047 M 339.999 300.173 L 300 299.913 M 341.725 303.304 L 302.261 296.781 M 342.964 306.353 L 305.009 293.729 M 343.735 309.245 L 308.225 290.831 M 344.068 311.909 L 311.881 288.16 M 344.004 314.279 L 315.935 285.781 M 343.594 316.297 L 320.336 283.754 M 342.898 317.912 L 325.025 282.127 M 341.982 319.084 L 329.935 280.942 M 340.919 319.786 L 334.996 280.227 M 339.783 319.999 L 340.13 280 M 338.653 319.718 L 345.261 280.268 M 337.606 318.95 L 350.312 281.022 M 336.716 317.715 L 355.207 282.245 M 336.056 316.042 L 359.875 283.907 M 335.69 313.973 L 364.249 285.966 M 335.678 311.558 L 368.272 288.371 M 336.069 308.859 L 371.892 291.063 M 336.903 305.941 L 375.071 293.976 M 338.208 302.876 L 377.78 297.038 M 340.002 299.74 L 379.999 300.173 M 342.289 296.61 L 381.725 303.304 M 345.064 293.565 L 382.964 306.353 M 348.305 290.678 L 383.735 309.245 M 351.984 288.021 L 384.068 311.909 M 356.058 285.66 L 384.004 314.279 M 360.477 283.653 L 383.594 316.297 M 365.18 282.05 L 382.898 317.912 M 370.101 280.89 L 381.982 319.084 M 375.167 280.202 L 380.919 319.786 M 380.303 280.002 L 379.783 319.999 M 385.432 280.297 L 378.653 319.718 M 390.476 281.078 L 377.606 318.95 M 395.361 282.326 L 376.716 317.715 M 400.014 284.01 L 376.056 316.042 M 404.37 286.09 L 375.69 313.973 M 408.372 288.512 L 375.678 311.558 M 411.969 291.219 L 376.069 308.859 M 415.123 294.142 L 376.903 305.941 M 417.804 297.21 L 378.208 302.876 M 419.997 300.347 L 380.002 299.74 M 421.696 303.475 L 382.289 296.61 M 422.908 306.517 L 385.064 293.565 M 423.654 309.399 L 388.305 290.678 M 423.964 312.048 L 391.984 288.021 M 423.879 314.4 L 396.058 285.66 M 423.452 316.397 L 400.477 283.653 M 422.742 317.988 L 405.18 282.05 M 421.817 319.136 L 410.101 280.89 M 420.747 319.81 L 415.167 280.202 M 419.61 319.996 L 420.303 280.002 M 418.482 319.688 L 425.432 280.297 M 417.442 318.894 L 430.476 281.078 M 416.563 317.634 L 435.361 282.326 M 415.917 315.938 L 440.014 284.01 M 415.57 313.848 L 444.37 286.09 M 415.579 311.417 L 448.372 288.512 M 415.993 308.703 L 451.969 291.219 M 416.852 305.775 L 455.123 294.142 M 418.184 302.704 L 457.804 297.21 M 420.005 299.567 L 459.997 300.347 M 422.319 296.44 L 461.696 303.475 M 425.12 293.401 L 462.908 306.517 M 428.387 290.525 L 463.654 309.399 M 432.089 287.883 L 463.964 312.048 M 436.183 285.54 L 463.879 314.4 M 440.619 283.554 L 463.452 316.397 M 445.336 281.974 L 462.742 317.988 M 450.266 280.839 L 461.817 319.136 M 455.339 280.178 L 460.747 319.81 M 460.477 280.006 L 459.61 319.996 M 465.603 280.327 L 458.482 319.688 M 470.64 281.134 L 457.442 318.894 M 475.513 282.408 L 456.563 317.634 M 480.152 284.115 L 455.917 315.938 M 484.49 286.215 L 455.57 313.848 M 488.471 288.655 L 455.579 311.417 M 492.045 291.375 L 455.993 308.703 M 495.173 294.308 L 456.852 305.775 M 497.828 297.382 L 458.184 302.704 M 499.993 300.52 L 460.005 299.567 M 501.665 303.645 L 462.319 296.44 M 502.851 306.681 L 465.12 293.401 M 503.572 309.551 L 468.387 290.525 M 503.859 312.186 L 472.089 287.883 M 503.754 314.52 L 476.183 285.54 M 503.31 316.495 L 480.619 283.554 M 502.586 318.063 L 485.336 281.974 M 501.65 319.185 L 490.266 280.839 M 500.575 319.833 L 495.339 280.178 M 499.437 319.992 L 500.477 280.006 M 498.312 319.657 L 505.603 280.327 M 497.278 318.837 L 510.64 281.134 M 496.41 317.551 L 515.513 282.408 M 495.779 315.832 L 520.152 284.115 M 495.45 313.722 L 524.49 286.215 M 495.48 311.274 L 528.471 288.655 M 495.918 308.547 L 532.045 291.375 M 496.803 305.609 L 535.173 294.308 M 498.161 302.532 L 537.828 297.382 M 500.009 299.393 L 539.993 300.52 M 502.351 296.269 L 541.665 303.645 M 505.178 293.237 L 542.851 306.681 M 508.47 290.372 L 543.572 309.551 M 512.194 287.745 L 543.859 312.186 M 516.309 285.421 L 543.754 314.52 M 520.762 283.456 L 543.31 316.495 M 525.492 281.9 L 542.586 318.063 M 530.433 280.79 L 541.65 319.185 M 535.511 280.156 L 540.575 319.833 M 540.65 280.011 L 539.437 319.992 M 545.773 280.359 L 538.312 319.657 M 550.803 281.193 L 537.278 318.837 M 555.666 282.491 L 536.41 317.551 M 560.289 284.221 L 535.779 315.832 M 564.609 286.341 L 535.45 313.722 M 568.568 288.798 L 535.48 311.274 M 572.119 291.532 L 535.918 308.547 M 575.222 294.474 L 536.803 305.609 M 577.85 297.554 L 538.161 302.532 M 579.988 300.693 L 540.009 299.393 M 581.633 303.816 L 542.351 296.269 M 582.792 306.844 L 545.178 293.237 M 583.488 309.703 L 548.47 290.372 M 583.752 312.323 L 552.194 287.745 M 583.628 314.639 L 556.309 285.421 M 583.166 316.593 L 560.762 283.456 M 582.429 318.137 L 565.492 281.9 M 581.484 319.233 L 570.433 280.79 M 580.403 319.855 L 575.511 280.156 M 579.263 319.986 L 580.65 280.011 M 578.142 319.624 L 585.773 280.359 M 577.115 318.778 L 590.803 281.193 M 576.259 317.467 L 595.666 282.491 M 575.643 315.726 L 600.289 284.221 M 575.332 313.596 L 604.609 286.341 M 575.383 311.13 L 608.568 288.798 M 575.845 308.39 L 612.119 291.532 M 576.755 305.442 L 615.222 294.474 M 578.14 302.36 L 617.85 297.554 M 580.015 299.22 L 619.988 300.693 M 582.384 296.099 L 621.633 303.816 M 585.237 293.074 L 622.792 306.844 M 588.554 290.221 L 623.488 309.703 M 592.301 287.609 L 623.752 312.323 M 596.436 285.302 L 623.628 314.639 M 600.906 283.359 L 623.166 316.593 M 605.65 281.827 L 622.429 318.137 M 610.599 280.743 L 621.484 319.233 M 615.683 280.135 L 620.403 319.855 M 620.823 280.017 L 619.263 319.986 M 625.943 280.393 L 618.142 319.624 M 630.966 281.252 L 617.115 318.778 M 635.817 282.575 L 616.259 317.467 M 640.425 284.328 L 615.643 315.726 M 644.727 286.468 L 615.332 313.596 M 648.665 288.942 L 615.383 311.13 M 652.191 291.689 L 615.845 308.39 M 655.269 294.641 L 616.755 305.442 M 657.87 297.726 L 618.14 302.36 M 659.981 300.867 L 620.015 299.22 M 661.599 303.986 L 622.384 296.099 M 662.732 307.007 L 625.237 293.074 M 663.404 309.855 L 628.554 290.221 M 663.645 312.459 L 632.301 287.609 M 663.5 314.756 L 636.436 285.302 M 663.022 316.689 L 640.906 283.359 M 662.272 318.209 L 645.65 281.827 M 661.317 319.28 L 650.599 280.743 M 660.231 319.875 L 655.683 280.135 M 659.09 319.979 L 660.823 280.017 M 657.972 319.59 L 665.943 280.393 M 656.953 318.717 L 670.966 281.252 M 656.108 317.382 L 675.817 282.575 M 655.507 315.618 L 680.425 284.328 M 655.215 313.468 L 684.727 286.468 M 655.287 310.986 L 688.665 288.942 M 655.773 308.232 L 692.191 291.689 M 656.708 305.275 L 695.269 294.641 M 658.12 302.188 L 697.87 297.726 M 660.023 299.047 L 699.981 300.867 M 662.419 295.929 L 701.599 303.986 M 665.298 292.912 L 702.732 307.007 M 668.639 290.07 L 703.404 309.855 M 672.409 287.473 L 703.645 312.459 M 676.564 285.185 L 703.5 314.756 M 681.05 283.264 L 703.022 316.689 M 685.807 281.755 L 702.272 318.209 M 690.767 280.697 L 701.317 319.28 M 695.855 280.115 L 700.231 319.875 M 700.996 280.025 L 699.09 319.979 M 706.113 280.428 L 697.972 319.59 M 711.128 281.313 L 696.953 318.717 M 715.968 282.661 L 696.108 317.382 M 720.561 284.436 L 695.507 315.618 M 724.844 286.596 L 695.215 313.468 M 728.76 289.087 L 695.287 310.986 M 732.263 291.847 L 695.773 308.232 M 735.314 294.808 L 696.708 305.275 M 737.889 297.898 L 698.12 302.188 M 739.973 301.04 L 700.023 299.047 M 741.564 304.156 L 702.419 295.929 M 742.671 307.169 L 705.298 292.912 M 743.318 310.005 L 708.639 290.07 M 743.536 312.594 L 712.409 287.473 M 743.372 314.873 L 716.564 285.185 M 742.877 316.784 L 721.05 283.264 M 742.113 318.28 L 725.807 281.755 M 741.15 319.326 L 730.767 280.697 M 740.059 319.894 L 735.855 280.115 M 738.917 319.971 L 740.996 280.025 M 737.802 319.554 L 746.113 280.428 M 736.791 318.655 L 751.128 281.313 M 735.957 317.296 L 755.968 282.661 M 735.372 315.509 L 760.561 284.436" stroke="black" stroke-width="1" fill="none"></path><path d="M 330.13 310 L 329.957 350 M 328.996 310.227 L 335.09 349.76 M 327.935 310.942 L 340.147 349.032 M 327.025 312.127 L 345.053 347.834 M 326.336 313.754 L 349.735 346.196 M 325.935 315.781 L 354.127 344.157 M 325.881 318.16 L 358.17 341.77 M 326.225 320.831 L 361.814 339.091 M 327.009 323.729 L 365.018 336.189 M 328.261 326.781 L 367.753 333.133 M 330 329.913 L 370 330 M 332.234 333.047 L 371.753 326.867 M 334.955 336.106 L 373.018 323.811 M 338.147 339.014 L 373.814 320.909 M 341.779 341.7 L 374.17 318.23 M 345.812 344.096 L 374.127 315.843 M 350.195 346.145 L 373.735 313.804 M 354.87 347.794 L 373.053 312.166 M 359.77 349.005 L 372.147 310.968 M 364.824 349.746 L 371.09 310.24 M 369.957 350 L 369.957 310 M 375.09 349.76 L 368.824 310.254 M 380.147 349.032 L 367.77 310.995 M 385.053 347.834 L 366.87 312.206 M 389.735 346.196 L 366.195 313.855 M 394.127 344.157 L 365.812 315.904 M 398.17 341.77 L 365.779 318.3 M 401.814 339.091 L 366.147 320.986 M 405.018 336.189 L 366.955 323.894 M 407.753 333.133 L 368.234 326.953 M 410 330 L 370 330.087 M 411.753 326.867 L 372.261 333.219 M 413.018 323.811 L 375.009 336.271 M 413.814 320.909 L 378.225 339.169 M 414.17 318.23 L 381.881 341.84 M 414.127 315.843 L 385.935 344.219 M 413.735 313.804 L 390.336 346.246 M 413.053 312.166 L 395.025 347.873 M 412.147 310.968 L 399.935 349.058 M 411.09 310.24 L 404.996 349.773 M 409.957 310 L 410.13 350 M 408.824 310.254 L 415.261 349.732 M 407.77 310.995 L 420.312 348.978 M 406.87 312.206 L 425.207 347.755 M 406.195 313.855 L 429.875 346.093 M 405.812 315.904 L 434.249 344.034 M 405.779 318.3 L 438.272 341.629 M 406.147 320.986 L 441.892 338.937 M 406.955 323.894 L 445.071 336.024 M 408.234 326.953 L 447.78 332.962 M 410 330.087 L 449.999 329.827 M 412.261 333.219 L 451.725 326.696 M 415.009 336.271 L 452.964 323.647 M 418.225 339.169 L 453.735 320.755 M 421.881 341.84 L 454.068 318.091 M 425.935 344.219 L 454.004 315.721 M 430.336 346.246 L 453.594 313.703 M 435.025 347.873 L 452.898 312.088 M 439.935 349.058 L 451.982 310.916 M 444.996 349.773 L 450.919 310.214 M 450.13 350 L 449.783 310.001 M 455.261 349.732 L 448.653 310.282 M 460.312 348.978 L 447.606 311.05 M 465.207 347.755 L 446.716 312.285 M 469.875 346.093 L 446.056 313.958 M 474.249 344.034 L 445.69 316.027 M 478.272 341.629 L 445.678 318.442 M 481.892 338.937 L 446.069 321.141 M 485.071 336.024 L 446.903 324.059 M 487.78 332.962 L 448.208 327.124 M 489.999 329.827 L 450.002 330.26 M 491.725 326.696 L 452.289 333.39 M 492.964 323.647 L 455.064 336.435 M 493.735 320.755 L 458.305 339.322 M 494.068 318.091 L 461.984 341.979 M 494.004 315.721 L 466.058 344.34 M 493.594 313.703 L 470.477 346.347 M 492.898 312.088 L 475.18 347.95 M 491.982 310.916 L 480.101 349.11 M 490.919 310.214 L 485.167 349.798 M 489.783 310.001 L 490.303 349.998 M 488.653 310.282 L 495.432 349.703 M 487.606 311.05 L 500.476 348.922 M 486.716 312.285 L 505.361 347.674 M 486.056 313.958 L 510.014 345.99 M 485.69 316.027 L 514.37 343.91 M 485.678 318.442 L 518.372 341.488 M 486.069 321.141 L 521.969 338.781 M 486.903 324.059 L 525.123 335.858 M 488.208 327.124 L 527.804 332.79 M 490.002 330.26 L 529.997 329.653 M 492.289 333.39 L 531.696 326.525 M 495.064 336.435 L 532.908 323.483 M 498.305 339.322 L 533.654 320.601 M 501.984 341.979 L 533.964 317.952 M 506.058 344.34 L 533.879 315.6 M 510.477 346.347 L 533.452 313.603 M 515.18 347.95 L 532.742 312.012 M 520.101 349.11 L 531.817 310.864 M 525.167 349.798 L 530.747 310.19 M 530.303 349.998 L 529.61 310.004 M 535.432 349.703 L 528.482 310.312 M 540.476 348.922 L 527.442 311.106 M 545.361 347.674 L 526.563 312.366 M 550.014 345.99 L 525.917 314.062 M 554.37 343.91 L 525.57 316.152 M 558.372 341.488 L 525.579 318.583 M 561.969 338.781 L 525.993 321.297 M 565.123 335.858 L 526.852 324.225 M 567.804 332.79 L 528.184 327.296 M 569.997 329.653 L 530.005 330.433 M 571.696 326.525 L 532.319 333.56 M 572.908 323.483 L 535.12 336.599 M 573.654 320.601 L 538.387 339.475 M 573.964 317.952 L 542.089 342.117 M 573.879 315.6 L 546.183 344.46 M 573.452 313.603 L 550.619 346.446 M 572.742 312.012 L 555.336 348.026 M 571.817 310.864 L 560.266 349.161 M 570.747 310.19 L 565.339 349.822 M 569.61 310.004 L 570.477 349.994 M 568.482 310.312 L 575.603 349.673 M 567.442 311.106 L 580.64 348.866 M 566.563 312.366 L 585.513 347.592 M 565.917 314.062 L 590.152 345.885 M 565.57 316.152 L 594.49 343.785 M 565.579 318.583 L 598.471 341.345 M 565.993 321.297 L 602.045 338.625 M 566.852 324.225 L 605.173 335.692 M 568.184 327.296 L 607.828 332.618 M 570.005 330.433 L 609.993 329.48 M 572.319 333.56 L 611.665 326.355 M 575.12 336.599 L 612.851 323.319 M 578.387 339.475 L 613.572 320.449 M 582.089 342.117 L 613.859 317.814 M 586.183 344.46 L 613.754 315.48 M 590.619 346.446 L 613.31 313.505 M 595.336 348.026 L 612.586 311.937 M 600.266 349.161 L 611.65 310.815 M 605.339 349.822 L 610.575 310.167 M 610.477 349.994 L 609.437 310.008 M 615.603 349.673 L 608.312 310.343 M 620.64 348.866 L 607.278 311.163 M 625.513 347.592 L 606.41 312.449 M 630.152 345.885 L 605.779 314.168 M 634.49 343.785 L 605.45 316.278 M 638.471 341.345 L 605.48 318.726 M 642.045 338.625 L 605.918 321.453 M 645.173 335.692 L 606.803 324.391 M 647.828 332.618 L 608.161 327.468 M 649.993 329.48 L 610.009 330.607 M 651.665 326.355 L 612.351 333.731 M 652.851 323.319 L 615.178 336.763 M 653.572 320.449 L 618.47 339.628 M 653.859 317.814 L 622.194 342.255 M 653.754 315.48 L 626.309 344.579 M 653.31 313.505 L 630.762 346.544 M 652.586 311.937 L 635.492 348.1 M 651.65 310.815 L 640.433 349.21 M 650.575 310.167 L 645.511 349.844 M 649.437 310.008 L 650.65 349.989 M 648.312 310.343 L 655.773 349.641 M 647.278 311.163 L 660.803 348.807 M 646.41 312.449 L 665.666 347.509 M 645.779 314.168 L 670.289 345.779 M 645.45 316.278 L 674.609 343.659 M 645.48 318.726 L 678.568 341.202 M 645.918 321.453 L 682.119 338.468 M 646.803 324.391 L 685.222 335.526 M 648.161 327.468 L 687.85 332.446 M 650.009 330.607 L 689.988 329.307 M 652.351 333.731 L 691.633 326.184 M 655.178 336.763 L 692.792 323.156 M 658.47 339.628 L 693.488 320.297 M 662.194 342.255 L 693.752 317.677 M 666.309 344.579 L 693.628 315.361 M 670.762 346.544 L 693.166 313.407 M 675.492 348.1 L 692.429 311.863 M 680.433 349.21 L 691.484 310.767 M 685.511 349.844 L 690.403 310.145 M 690.65 349.989 L 689.263 310.014 M 695.773 349.641 L 688.142 310.376 M 700.803 348.807 L 687.115 311.222 M 705.666 347.509 L 686.259 312.533 M 710.289 345.779 L 685.643 314.274 M 714.609 343.659 L 685.332 316.404 M 718.568 341.202 L 685.383 318.87 M 722.119 338.468 L 685.845 321.61 M 725.222 335.526 L 686.755 324.558 M 727.85 332.446 L 688.14 327.64 M 729.988 329.307 L 690.015 330.78 M 731.633 326.184 L 692.384 333.901 M 732.792 323.156 L 695.237 336.926 M 733.488 320.297 L 698.554 339.779 M 733.752 317.677 L 702.301 342.391 M 733.628 315.361 L 706.436 344.698 M 733.166 313.407 L 710.906 346.641 M 732.429 311.863 L 715.65 348.173 M 731.484 310.767 L 720.599 349.257 M 730.403 310.145 L 725.683 349.865 M 729.263 310.014 L 730.823 349.983 M 728.142 310.376 L 735.943 349.607 M 727.115 311.222 L 740.966 348.748 M 726.259 312.533 L 745.817 347.425 M 725.643 314.274 L 750.425 345.672 M 725.332 316.404 L 754.727 343.532 M 725.383 318.87 L 758.665 341.058 M 725.845 321.61 L 762.191 338.311 M 726.755 324.558 L 765.269 335.359 M 728.14 327.64 L 767.87 332.274" stroke="black" stroke-width="1" fill="none"></path></svg>
