<svg version="1.1" xmlns:xlink="http://www.w3.org/1999/xlink" xmlns="http://www.w3.org/2000/svg"><polyline points="0,0 340,0 340,240 0,240 0,0" stroke="black" stroke-width="1" fill="none"></polyline><circle cx="20.0008" cy="25.7393" r="5" stroke="black" stroke-width="1" fill="none"></circle><circle cx="29.6663" cy="53.024" r="5" stroke="black" stroke-width="1" fill="none"></circle><circle cx="33.0198" cy="79.3671" r="5" stroke="black" stroke-width="1" fill="none"></circle><circle cx="28.6528" cy="95.6168" r="5" stroke="black" stroke-width="1" fill="none"></circle><circle cx="25.3971" cy="108.461" r="5" stroke="black" stroke-width="1" fill="none"></circle><circle cx="32.3518" cy="139.354" r="5" stroke="black" stroke-width="1" fill="none"></circle><circle cx="22.9653" cy="148.674" r="5" stroke="black" stroke-width="1" fill="none"></circle><circle cx="33.8117" cy="166.597" r="5" stroke="black" stroke-width="1" fill="none"></circle><circle cx="35.4228" cy="188.567" r="5" stroke="black" stroke-width="1" fill="none"></circle><circle cx="33.9249" cy="211.982" r="5" stroke="black" stroke-width="1" fill="none"></circle><circle cx="41.611" cy="35.2421" r="5" stroke="black" stroke-width="1" fill="none"></circle><circle cx="47.4698" cy="45.2878" r="5" stroke="black" stroke-width="1" fill="none"></circle><circle cx="44.6526" cy="73.547" r="5" stroke="black" stroke-width="1" fill="none"></circle><circle cx="43.5088" cy="87.837" r="5" stroke="black" stroke-width="1" fill="none"></circle><circle cx="44.7229" cy="110.802" r="5" stroke="black" stroke-width="1" fill="none"></circle><circle cx="53.0716" cy="127.694" r="5" stroke="black" stroke-width="1" fill="none"></circle><circle cx="53.5079" cy="149.663" r="5" stroke="black" stroke-width="1" fill="none"></circle><circle cx="49.2736" cy="179.506" r="5" stroke="black" stroke-width="1" fill="none"></circle><circle cx="43.9883" cy="193.174" r="5" stroke="black" stroke-width="1" fill="none"></circle><circle cx="54.517" cy="213.594" r="5" stroke="black" stroke-width="1" fill="none"></circle><circle cx="63.2823" cy="21.4054" r="5" stroke="black" stroke-width="1" fill="none"></circle><circle cx="78.4642" cy="50.4703" r="5" stroke="black" stroke-width="1" fill="none"></circle><circle cx="70.5772" cy="78.2339" r="5" stroke="black" stroke-width="1" fill="none"></circle><circle cx="66.6997" cy="94.9707" r="5" stroke="black" stroke-width="1" fill="none"></circle><circle cx="72.6915" cy="112.93" r="5" stroke="black" stroke-width="1" fill="none"></circle><circle cx="62.852" cy="128.334" r="5" stroke="black" stroke-width="1" fill="none"></circle><circle cx="69.0615" cy="151.703" r="5" stroke="black" stroke-width="1" fill="none"></circle><circle cx="74.3353" cy="176.577" r="5" stroke="black" stroke-width="1" fill="none"></circle><circle cx="69.2723" cy="198.327" r="5" stroke="black" stroke-width="1" fill="none"></circle><circle cx="61.2222" cy="214.245" r="5" stroke="black" stroke-width="1" fill="none"></circle><circle cx="85.9985" cy="38.7577" r="5" stroke="black" stroke-width="1" fill="none"></circle><circle cx="84.0707" cy="50.2787" r="5" stroke="black" stroke-width="1" fill="none"></circle><circle cx="88.2287" cy="78.1498" r="5" stroke="black" stroke-width="1" fill="none"></circle><circle cx="93.1223" cy="96.5698" r="5" stroke="black" stroke-width="1" fill="none"></circle><circle cx="80.4986" cy="111.296" r="5" stroke="black" stroke-width="1" fill="none"></circle><circle cx="89.7157" cy="123.936" r="5" stroke="black" stroke-width="1" fill="none"></circle><circle cx="91.109" cy="140.631" r="5" stroke="black" stroke-width="1" fill="none"></circle><circle cx="91.4001" cy="179.79" r="5" stroke="black" stroke-width="1" fill="none"></circle><circle cx="80.5992" cy="192.403" r="5" stroke="black" stroke-width="1" fill="none"></circle><circle cx="80.2128" cy="217.487" r="5" stroke="black" stroke-width="1" fill="none"></circle><circle cx="114.505" cy="38.4064" r="5" stroke="black" stroke-width="1" fill="none"></circle><circle cx="117.533" cy="54.7891" r="5" stroke="black" stroke-width="1" fill="none"></circle><circle cx="108.98" cy="79.8649" r="5" stroke="black" stroke-width="1" fill="none"></circle><circle cx="105.884" cy="90.196" r="5" stroke="black" stroke-width="1" fill="none"></circle><circle cx="109.412" cy="110.855" r="5" stroke="black" stroke-width="1" fill="none"></circle><circle cx="110.456" cy="131.556" r="5" stroke="black" stroke-width="1" fill="none"></circle><circle cx="114.587" cy="147.006" r="5" stroke="black" stroke-width="1" fill="none"></circle><circle cx="104.618" cy="164.65" r="5" stroke="black" stroke-width="1" fill="none"></circle><circle cx="107.442" cy="194.298" r="5" stroke="black" stroke-width="1" fill="none"></circle><circle cx="117.566" cy="203.865" r="5" stroke="black" stroke-width="1" fill="none"></circle><circle cx="121.773" cy="32.1161" r="5" stroke="black" stroke-width="1" fill="none"></circle><circle cx="138.073" cy="52.6042" r="5" stroke="black" stroke-width="1" fill="none"></circle><circle cx="134.825" cy="62.076" r="5" stroke="black" stroke-width="1" fill="none"></circle><circle cx="120.244" cy="89.2431" r="5" stroke="black" stroke-width="1" fill="none"></circle><circle cx="139.551" cy="114.665" r="5" stroke="black" stroke-width="1" fill="none"></circle><circle cx="126.121" cy="128.468" r="5" stroke="black" stroke-width="1" fill="none"></circle><circle cx="130.127" cy="152.012" r="5" stroke="black" stroke-width="1" fill="none"></circle><circle cx="125.1" cy="164.556" r="5" stroke="black" stroke-width="1" fill="none"></circle><circle cx="134.183" cy="198.288" r="5" stroke="black" stroke-width="1" fill="none"></circle><circle cx="121.457" cy="218.575" r="5" stroke="black" stroke-width="1" fill="none"></circle><circle cx="145.683" cy="33.12" r="5" stroke="black" stroke-width="1" fill="none"></circle><circle cx="146.973" cy="41.5834" r="5" stroke="black" stroke-width="1" fill="none"></circle><circle cx="155.698" cy="69.8996" r="5" stroke="black" stroke-width="1" fill="none"></circle><circle cx="145.114" cy="93.6023" r="5" stroke="black" stroke-width="1" fill="none"></circle><circle cx="156.934" cy="109.873" r="5" stroke="black" stroke-width="1" fill="none"></circle><circle cx="155.027" cy="127.014" r="5" stroke="black" stroke-width="1" fill="none"></circle><circle cx="140.399" cy="142.058" r="5" stroke="black" stroke-width="1" fill="none"></circle><circle cx="149.992" cy="163.812" r="5" stroke="black" stroke-width="1" fill="none"></circle><circle cx="149.452" cy="198.239" r="5" stroke="black" stroke-width="1" fill="none"></circle><circle cx="152.451" cy="214.801" r="5" stroke="black" stroke-width="1" fill="none"></circle><circle cx="175.529" cy="27.4316" r="5" stroke="black" stroke-width="1" fill="none"></circle><circle cx="173.421" cy="59.3237" r="5" stroke="black" stroke-width="1" fill="none"></circle><circle cx="176.645" cy="71.6237" r="5" stroke="black" stroke-width="1" fill="none"></circle><circle cx="179.975" cy="92.2391" r="5" stroke="black" stroke-width="1" fill="none"></circle><circle cx="165.891" cy="108.995" r="5" stroke="black" stroke-width="1" fill="none"></circle><circle cx="165.017" cy="124.186" r="5" stroke="black" stroke-width="1" fill="none"></circle><circle cx="165.387" cy="148.959" r="5" stroke="black" stroke-width="1" fill="none"></circle><circle cx="164.292" cy="172.223" r="5" stroke="black" stroke-width="1" fill="none"></circle><circle cx="179.692" cy="189.615" r="5" stroke="black" stroke-width="1" fill="none"></circle><circle cx="165.068" cy="207.385" r="5" stroke="black" stroke-width="1" fill="none"></circle><circle cx="184.4" cy="34.6547" r="5" stroke="black" stroke-width="1" fill="none"></circle><circle cx="183.975" cy="57.2739" r="5" stroke="black" stroke-width="1" fill="none"></circle><circle cx="189.508" cy="74.2227" r="5" stroke="black" stroke-width="1" fill="none"></circle><circle cx="195.042" cy="91.5904" r="5" stroke="black" stroke-width="1" fill="none"></circle><circle cx="197.685" cy="115.529" r="5" stroke="black" stroke-width="1" fill="none"></circle><circle cx="199.932" cy="139.787" r="5" stroke="black" stroke-width="1" fill="none"></circle><circle cx="187.89" cy="154.982" r="5" stroke="black" stroke-width="1" fill="none"></circle><circle cx="181.244" cy="166.272" r="5" stroke="black" stroke-width="1" fill="none"></circle><circle cx="197.411" cy="186.659" r="5" stroke="black" stroke-width="1" fill="none"></circle><circle cx="199.083" cy="212.91" r="5" stroke="black" stroke-width="1" fill="none"></circle><circle cx="203.42" cy="38.9999" r="5" stroke="black" stroke-width="1" fill="none"></circle><circle cx="210.884" cy="50.4414" r="5" stroke="black" stroke-width="1" fill="none"></circle><circle cx="218.683" cy="65.8941" r="5" stroke="black" stroke-width="1" fill="none"></circle><circle cx="208.888" cy="93.7642" r="5" stroke="black" stroke-width="1" fill="none"></circle><circle cx="205.989" cy="107.524" r="5" stroke="black" stroke-width="1" fill="none"></circle><circle cx="205.415" cy="138.739" r="5" stroke="black" stroke-width="1" fill="none"></circle><circle cx="207.1" cy="149.196" r="5" stroke="black" stroke-width="1" fill="none"></circle><circle cx="219.208" cy="161.737" r="5" stroke="black" stroke-width="1" fill="none"></circle><circle cx="219.553" cy="196.204" r="5" stroke="black" stroke-width="1" fill="none"></circle><circle cx="218.553" cy="204.547" r="5" stroke="black" stroke-width="1" fill="none"></circle><circle cx="233.284" cy="32.704" r="5" stroke="black" stroke-width="1" fill="none"></circle><circle cx="229.184" cy="51.1055" r="5" stroke="black" stroke-width="1" fill="none"></circle><circle cx="228.791" cy="70.9415" r="5" stroke="black" stroke-width="1" fill="none"></circle><circle cx="236.95" cy="94.5256" r="5" stroke="black" stroke-width="1" fill="none"></circle><circle cx="231.049" cy="104.832" r="5" stroke="black" stroke-width="1" fill="none"></circle><circle cx="221.39" cy="128.043" r="5" stroke="black" stroke-width="1" fill="none"></circle><circle cx="229.487" cy="155.246" r="5" stroke="black" stroke-width="1" fill="none"></circle><circle cx="224.825" cy="160.658" r="5" stroke="black" stroke-width="1" fill="none"></circle><circle cx="226.814" cy="183.008" r="5" stroke="black" stroke-width="1" fill="none"></circle><circle cx="230.574" cy="201.596" r="5" stroke="black" stroke-width="1" fill="none"></circle><circle cx="240.984" cy="37.4617" r="5" stroke="black" stroke-width="1" fill="none"></circle><circle cx="245.236" cy="41.8598" r="5" stroke="black" stroke-width="1" fill="none"></circle><circle cx="248.824" cy="61.9745" r="5" stroke="black" stroke-width="1" fill="none"></circle><circle cx="241.105" cy="87.8943" r="5" stroke="black" stroke-width="1" fill="none"></circle><circle cx="250.652" cy="109.334" r="5" stroke="black" stroke-width="1" fill="none"></circle><circle cx="244.181" cy="128.53" r="5" stroke="black" stroke-width="1" fill="none"></circle><circle cx="258.983" cy="157.676" r="5" stroke="black" stroke-width="1" fill="none"></circle><circle cx="248.376" cy="164.315" r="5" stroke="black" stroke-width="1" fill="none"></circle><circle cx="248.788" cy="196.06" r="5" stroke="black" stroke-width="1" fill="none"></circle><circle cx="247.455" cy="211.397" r="5" stroke="black" stroke-width="1" fill="none"></circle><circle cx="268.082" cy="37.81" r="5" stroke="black" stroke-width="1" fill="none"></circle><circle cx="277.097" cy="44.3183" r="5" stroke="black" stroke-width="1" fill="none"></circle><circle cx="279.661" cy="75.3166" r="5" stroke="black" stroke-width="1" fill="none"></circle><circle cx="270.234" cy="91.4599" r="5" stroke="black" stroke-width="1" fill="none"></circle><circle cx="266.85" cy="100.648" r="5" stroke="black" stroke-width="1" fill="none"></circle><circle cx="260.195" cy="125.854" r="5" stroke="black" stroke-width="1" fill="none"></circle><circle cx="277.298" cy="148.218" r="5" stroke="black" stroke-width="1" fill="none"></circle><circle cx="262.929" cy="161.623" r="5" stroke="black" stroke-width="1" fill="none"></circle><circle cx="263.116" cy="199.598" r="5" stroke="black" stroke-width="1" fill="none"></circle><circle cx="270.576" cy="219.954" r="5" stroke="black" stroke-width="1" fill="none"></circle><circle cx="297.824" cy="27.2966" r="5" stroke="black" stroke-width="1" fill="none"></circle><circle cx="286.94" cy="46.1421" r="5" stroke="black" stroke-width="1" fill="none"></circle><circle cx="286.567" cy="63.4096" r="5" stroke="black" stroke-width="1" fill="none"></circle><circle cx="288.018" cy="92.2227" r="5" stroke="black" stroke-width="1" fill="none"></circle><circle cx="281.558" cy="113.064" r="5" stroke="black" stroke-width="1" fill="none"></circle><circle cx="282.792" cy="125.794" r="5" stroke="black" stroke-width="1" fill="none"></circle><circle cx="291.15" cy="158.124" r="5" stroke="black" stroke-width="1" fill="none"></circle><circle cx="291.876" cy="173.192" r="5" stroke="black" stroke-width="1" fill="none"></circle><circle cx="292.654" cy="191.735" r="5" stroke="black" stroke-width="1" fill="none"></circle><circle cx="299.645" cy="218.496" r="5" stroke="black" stroke-width="1" fill="none"></circle><circle cx="305.089" cy="39.6514" r="5" stroke="black" stroke-width="1" fill="none"></circle><circle cx="303.529" cy="42.829" r="5" stroke="black" stroke-width="1" fill="none"></circle><circle cx="312.44" cy="79.6054" r="5" stroke="black" stroke-width="1" fill="none"></circle><circle cx="318.302" cy="93.611" r="5" stroke="black" stroke-width="1" fill="none"></circle><circle cx="316.239" cy="107.635" r="5" stroke="black" stroke-width="1" fill="none"></circle><circle cx="311.256" cy="139" r="5" stroke="black" stroke-width="1" fill="none"></circle><circle cx="318.105" cy="149.204" r="5" stroke="black" stroke-width="1" fill="none"></circle><circle cx="313.269" cy="175.545" r="5" stroke="black" stroke-width="1" fill="none"></circle><circle cx="301.037" cy="188.527" r="5" stroke="black" stroke-width="1" fill="none"></circle><circle cx="318.955" cy="216.137" r="5" stroke="black" stroke-width="1" fill="none"></circle><path d="M 20.0008 25.7393 L 29.6663 53.024 M 29.6663 53.024 L 33.0198 79.3671 M 29.6663 53.024 L 20.0008 25.7393 M 33.0198 79.3671 L 29.6663 53.024 M 25.3971 108.461 L 32.3518 139.354 M 32.3518 139.354 L 25.3971 108.461 M 22.9653 148.674 L 53.5079 149.663 M 47.4698 45.2878 L 44.6526 73.547 M 47.4698 45.2878 L 78.4642 50.4703 M 44.6526 73.547 L 47.4698 45.2878 M 44.6526 73.547 L 70.5772 78.2339 M 44.7229 110.802 L 72.6915 112.93 M 53.5079 149.663 L 49.2736 179.506 M 53.5079 149.663 L 22.9653 148.674 M 49.2736 179.506 L 53.5079 149.663 M 63.2823 21.4054 L 78.4642 50.4703 M 63.2823 21.4054 L 85.9985 38.7577 M 78.4642 50.4703 L 70.5772 78.2339 M 78.4642 50.4703 L 63.2823 21.4054 M 78.4642 50.4703 L 47.4698 45.2878 M 70.5772 78.2339 L 78.4642 50.4703 M 70.5772 78.2339 L 44.6526 73.547 M 66.6997 94.9707 L 93.1223 96.5698 M 72.6915 112.93 L 44.7229 110.802 M 62.852 128.334 L 89.7157 123.936 M 85.9985 38.7577 L 114.505 38.4064 M 85.9985 38.7577 L 63.2823 21.4054 M 84.0707 50.2787 L 88.2287 78.1498 M 84.0707 50.2787 L 117.533 54.7891 M 88.2287 78.1498 L 84.0707 50.2787 M 93.1223 96.5698 L 66.6997 94.9707 M 80.4986 111.296 L 109.412 110.855 M 89.7157 123.936 L 62.852 128.334 M 91.109 140.631 L 91.4001 179.79 M 91.4001 179.79 L 91.109 140.631 M 80.5992 192.403 L 107.442 194.298 M 80.2128 217.487 L 117.566 203.865 M 114.505 38.4064 L 85.9985 38.7577 M 117.533 54.7891 L 108.98 79.8649 M 117.533 54.7891 L 84.0707 50.2787 M 108.98 79.8649 L 117.533 54.7891 M 108.98 79.8649 L 134.825 62.076 M 109.412 110.855 L 139.551 114.665 M 109.412 110.855 L 80.4986 111.296 M 104.618 164.65 L 107.442 194.298 M 107.442 194.298 L 104.618 164.65 M 107.442 194.298 L 134.183 198.288 M 107.442 194.298 L 80.5992 192.403 M 117.566 203.865 L 80.2128 217.487 M 121.773 32.1161 L 138.073 52.6042 M 138.073 52.6042 L 121.773 32.1161 M 134.825 62.076 L 120.244 89.2431 M 134.825 62.076 L 108.98 79.8649 M 120.244 89.2431 L 139.551 114.665 M 120.244 89.2431 L 134.825 62.076 M 139.551 114.665 L 120.244 89.2431 M 139.551 114.665 L 109.412 110.855 M 126.121 128.468 L 155.027 127.014 M 125.1 164.556 L 134.183 198.288 M 134.183 198.288 L 125.1 164.556 M 134.183 198.288 L 107.442 194.298 M 121.457 218.575 L 152.451 214.801 M 145.683 33.12 L 175.529 27.4316 M 146.973 41.5834 L 155.698 69.8996 M 146.973 41.5834 L 173.421 59.3237 M 155.698 69.8996 L 146.973 41.5834 M 145.114 93.6023 L 179.975 92.2391 M 155.027 127.014 L 126.121 128.468 M 149.992 163.812 L 149.452 198.239 M 149.452 198.239 L 149.992 163.812 M 149.452 198.239 L 179.692 189.615 M 152.451 214.801 L 121.457 218.575 M 175.529 27.4316 L 173.421 59.3237 M 175.529 27.4316 L 145.683 33.12 M 173.421 59.3237 L 175.529 27.4316 M 173.421 59.3237 L 146.973 41.5834 M 179.975 92.2391 L 145.114 93.6023 M 165.891 108.995 L 197.685 115.529 M 165.017 124.186 L 199.932 139.787 M 179.692 189.615 L 149.452 198.239 M 165.068 207.385 L 199.083 212.91 M 183.975 57.2739 L 210.884 50.4414 M 189.508 74.2227 L 218.683 65.8941 M 197.685 115.529 L 165.891 108.995 M 199.932 139.787 L 165.017 124.186 M 181.244 166.272 L 197.411 186.659 M 181.244 166.272 L 219.208 161.737 M 197.411 186.659 L 199.083 212.91 M 197.411 186.659 L 181.244 166.272 M 199.083 212.91 L 197.411 186.659 M 199.083 212.91 L 165.068 207.385 M 203.42 38.9999 L 233.284 32.704 M 210.884 50.4414 L 183.975 57.2739 M 218.683 65.8941 L 208.888 93.7642 M 218.683 65.8941 L 189.508 74.2227 M 208.888 93.7642 L 218.683 65.8941 M 208.888 93.7642 L 236.95 94.5256 M 205.989 107.524 L 205.415 138.739 M 205.415 138.739 L 205.989 107.524 M 219.208 161.737 L 219.553 196.204 M 219.208 161.737 L 181.244 166.272 M 219.553 196.204 L 219.208 161.737 M 233.284 32.704 L 203.42 38.9999 M 236.95 94.5256 L 208.888 93.7642 M 221.39 128.043 L 229.487 155.246 M 229.487 155.246 L 221.39 128.043 M 229.487 155.246 L 258.983 157.676 M 240.984 37.4617 L 268.082 37.81 M 245.236 41.8598 L 277.097 44.3183 M 248.824 61.9745 L 241.105 87.8943 M 248.824 61.9745 L 279.661 75.3166 M 241.105 87.8943 L 248.824 61.9745 M 241.105 87.8943 L 270.234 91.4599 M 244.181 128.53 L 258.983 157.676 M 258.983 157.676 L 244.181 128.53 M 258.983 157.676 L 229.487 155.246 M 248.376 164.315 L 248.788 196.06 M 248.788 196.06 L 248.376 164.315 M 268.082 37.81 L 297.824 27.2966 M 268.082 37.81 L 240.984 37.4617 M 277.097 44.3183 L 279.661 75.3166 M 277.097 44.3183 L 245.236 41.8598 M 279.661 75.3166 L 277.097 44.3183 M 279.661 75.3166 L 248.824 61.9745 M 270.234 91.4599 L 241.105 87.8943 M 266.85 100.648 L 260.195 125.854 M 260.195 125.854 L 277.298 148.218 M 260.195 125.854 L 266.85 100.648 M 277.298 148.218 L 260.195 125.854 M 262.929 161.623 L 263.116 199.598 M 262.929 161.623 L 291.876 173.192 M 263.116 199.598 L 262.929 161.623 M 263.116 199.598 L 292.654 191.735 M 270.576 219.954 L 299.645 218.496 M 297.824 27.2966 L 268.082 37.81 M 286.567 63.4096 L 288.018 92.2227 M 286.567 63.4096 L 312.44 79.6054 M 288.018 92.2227 L 286.567 63.4096 M 288.018 92.2227 L 318.302 93.611 M 281.558 113.064 L 316.239 107.635 M 282.792 125.794 L 291.15 158.124 M 282.792 125.794 L 311.256 139 M 291.15 158.124 L 282.792 125.794 M 291.15 158.124 L 318.105 149.204 M 291.876 173.192 L 262.929 161.623 M 292.654 191.735 L 299.645 218.496 M 292.654 191.735 L 263.116 199.598 M 299.645 218.496 L 292.654 191.735 M 299.645 218.496 L 270.576 219.954 M 303.529 42.829 L 312.44 79.6054 M 312.44 79.6054 L 303.529 42.829 M 312.44 79.6054 L 286.567 63.4096 M 318.302 93.611 L 288.018 92.2227 M 316.239 107.635 L 311.256 139 M 316.239 107.635 L 281.558 113.064 M 311.256 139 L 316.239 107.635 M 311.256 139 L 282.792 125.794 M 318.105 149.204 L 313.269 175.545 M 318.105 149.204 L 291.15 158.124 M 313.269 175.545 L 318.105 149.204 M 301.037 188.527 L 318.955 216.137 M 318.955 216.137 L 301.037 188.527" stroke="black" stroke-width="1" fill="none"></path></svg>
