<svg version="1.1" xmlns:xlink="http://www.w3.org/1999/xlink" xmlns="http://www.w3.org/2000/svg"><polyline points="0,0 750,0 750,470 0,470 0,0" stroke="black" stroke-width="1" fill="none"></polyline><g stroke="black" stroke-width="1" fill="none"><path d="M 30 230 L 364.13 112.646 M 33 230 L 350.355 96.5187 M 36 230 L 361.468 78.4543 M 39 230 L 382.074 83.4764 M 42 230 L 383.628 104.628 M 45 230 L 152.243 69.7332 M 48 230 L 152.309 76.6555 M 51 230 L 149.866 83.1331 M 54 230 L 145.246 88.2885 M 57 230 L 139.074 91.4237 M 60 230 L 132.186 92.1141 M 63 230 L 125.514 90.2661 M 66 230 L 119.963 86.1301 M 69 230 L 116.284 80.2662 M 72 230 L 114.975 73.4684 M 75 230 L 116.213 66.6574 M 78 230 L 119.831 60.7555 M 81 230 L 125.339 56.562 M 84 230 L 131.991 54.6448 M 87 230 L 138.886 55.2635 M 90 230 L 145.091 58.3344 M 93 230 L 149.764 63.4415 M 96 230 L 332.198 82.8076 M 99 230 L 340.925 86.7627 M 102 230 L 346.122 94.8124 M 105 230 L 346.134 104.394 M 108 230 L 340.959 112.457 M 111 230 L 332.242 116.435 M 114 230 L 322.759 115.062 M 117 230 L 315.529 108.774 M 120 230 L 312.854 99.5733 M 123 230 L 315.585 90.3891 M 126 230 L 322.852 84.145 M 129 230 L 492.056 87.7423 M 132 230 L 489.477 83.5013 M 135 230 L 488.505 78.6333 M 138 230 L 489.26 73.727 M 141 230 L 491.649 69.3759 M 144 230 L 495.384 66.1062 M 147 230 L 500.013 64.3133 M 150 230 L 504.976 64.2141 M 153 230 L 509.673 65.8206 M 156 230 L 513.535 68.9384 M 159 230 L 516.097 73.1906 M 162 230 L 517.047 78.0627 M 165 230 L 516.271 82.9657 M 168 230 L 513.863 87.3064 M 171 230 L 510.114 90.5599 M 174 230 L 505.477 92.3327 M 177 230 L 500.514 92.4104 M 180 230 L 495.824 90.7836 M 183 230 L 491.975 87.649 M 186 230 L 690.325 89.0166 M 189 230 L 681.473 97.0257 M 192 230 L 669.55 96.4165 M 195 230 L 661.561 87.5467 M 198 230 L 662.196 75.6257 M 201 230 L 671.083 67.655 M 204 230 L 683.002 68.3159 M 207 230 L 690.954 77.2203 M 210 230 L 544.806 108.865 M 213 230 L 540.984 105.814 M 216 230 L 538.129 101.845 M 219 230 L 536.452 97.2517 M 222 230 L 536.079 92.3764 M 225 230 L 537.036 87.5814 M 228 230 L 539.253 83.2234 M 231 230 L 542.566 79.6265 M 234 230 L 546.726 77.0582 M 237 230 L 551.426 75.7095 M 240 230 L 556.316 75.6806 M 243 230 L 561.031 76.9738 M 246 230 L 565.222 79.4928 M 249 230 L 568.577 83.0504 M 252 230 L 570.845 87.3819 M 255 230 L 571.859 92.1652 M 258 230 L 571.543 97.0446 M 261 230 L 569.921 101.657 M 264 230 L 567.113 105.66 M 267 230 L 563.328 108.755 M 270 230 L 558.847 110.713 M 273 230 L 554.004 111.387 M 276 230 L 549.159 110.728 M 279 230 L 184.748 76.4601 M 282 230 L 185.301 84.6281 M 285 230 L 180.941 91.5573 M 288 230 L 173.338 94.5939 M 291 230 L 165.404 92.5749 M 294 230 L 160.178 86.2736 M 297 230 L 159.661 78.1033 M 300 230 L 164.05 71.1931 M 303 230 L 171.666 68.1895 M 306 230 L 179.591 70.2428 M 309 230 L 600.954 18.8993 M 312 230 L 604.96 16.9766 M 315 230 L 609.337 16.2079 M 318 230 L 613.759 16.6502 M 321 230 L 617.897 18.2708 M 324 230 L 621.444 20.949 M 327 230 L 624.135 24.4857 M 330 230 L 625.77 28.6179 M 333 230 L 626.228 33.0382 M 336 230 L 625.475 37.418 M 339 230 L 623.567 41.4315 M 342 230 L 620.646 44.7803 M 345 230 L 616.928 47.2152 M 348 230 L 612.691 48.5552 M 351 230 L 608.249 48.7007 M 354 230 L 603.933 47.6409 M 357 230 L 600.064 45.4545 M 360 230 L 596.93 42.3041 M 363 230 L 594.763 38.4241 M 366 230 L 593.725 34.1029 M 369 230 L 593.893 29.6621 M 372 230 L 595.255 25.4317 M 375 230 L 597.708 21.7265 M 378 230 L 655.959 97.3332 M 381 230 L 657.44 101.697 M 384 230 L 657.421 106.306 M 387 230 L 655.905 110.658 M 390 230 L 653.056 114.281 M 393 230 L 649.184 116.78 M 396 230 L 644.71 117.885 M 399 230 L 640.12 117.476 M 402 230 L 635.912 115.596 M 405 230 L 632.545 112.45 M 408 230 L 630.382 108.38 M 411 230 L 629.661 103.828 M 414 230 L 630.459 99.2895 M 417 230 L 632.689 95.2565 M 420 230 L 636.109 92.1677 M 423 230 L 640.348 90.3587 M 426 230 L 644.944 90.0261 M 429 230 L 649.399 91.206 M 432 230 L 653.228 93.7703 M 435 230 L 656.016 97.4402 M 438 230 L 382.477 92.2983 M 441 230 L 378.678 90.6414 M 444 230 L 375.438 88.0565 M 447 230 L 372.979 84.7203 M 450 230 L 371.469 80.8608 M 453 230 L 371.01 76.7418 M 456 230 L 371.635 72.6446 M 459 230 L 373.3 68.8492 M 462 230 L 375.892 65.6151 M 465 230 L 379.233 63.1633 M 468 230 L 383.096 61.6612 M 471 230 L 387.216 61.2115 M 474 230 L 391.312 61.845 M 477 230 L 395.104 63.5184 M 480 230 L 398.332 66.1172 M 483 230 L 400.777 69.464 M 486 230 L 402.27 73.33 M 489 230 L 402.711 77.4511 M 492 230 L 402.069 81.5455 M 495 230 L 400.387 85.3336 M 498 230 L 397.781 88.5564 M 501 230 L 394.429 90.9938 M 504 230 L 390.56 92.4791 M 507 230 L 386.438 92.9109 M 510 230 L 647.033 80.709 M 513 230 L 665.493 73.4121 M 516 230 L 681.025 85.7732 M 519 230 L 678.057 105.4 M 522 230 L 659.566 112.617 M 525 230 L 644.088 100.189 M 528 230 L 647.14 80.5748 M 531 230 L 375.472 94.7053 M 534 230 L 374.386 89.111 M 537 230 L 376.501 83.8196 M 540 230 L 381.144 80.5154 M 543 230 L 386.837 80.2505 M 546 230 L 391.766 83.109 M 549 230 L 394.364 88.1811 M 552 230 L 393.803 93.852 M 555 230 L 390.261 98.3164 M 558 230 L 384.867 100.153 M 561 230 L 379.337 98.7775 M 564 230 L 262.621 20.6599 M 567 230 L 274.965 17.2391 M 570 230 L 286.958 21.7375 M 573 230 L 294.007 32.4324 M 576 230 L 293.413 45.2277 M 579 230 L 285.403 55.223 M 582 230 L 273.044 58.5903 M 585 230 L 261.071 54.0399 M 588 230 L 254.068 43.3146 M 591 230 L 254.717 30.522 M 594 230 L 35.065 52.3527 M 597 230 L 31.7697 49.0059 M 600 230 L 29.6717 44.8036 M 603 230 L 28.977 40.1584 M 606 230 L 29.7537 35.5262 M 609 230 L 31.9257 31.3617 M 612 230 L 35.2797 28.0736 M 615 230 L 39.4865 25.9848 M 618 230 L 44.1332 25.3001 M 621 230 L 48.7637 26.0869 M 624 230 L 52.9235 28.2679 M 627 230 L 56.2042 31.629 M 630 230 L 58.284 35.8403 M 633 230 L 58.9586 40.4885 M 636 230 L 58.1617 45.1172 M 639 230 L 55.9718 49.2723 M 642 230 L 52.6036 52.5458 M 645 230 L 48.3877 54.6164 M 648 230 L 43.7381 55.2809 M 651 230 L 39.1111 54.4741 M 654 230 L 472.365 59.4654 M 657 230 L 471.292 64.8272 M 660 230 L 468.247 69.3686 M 663 230 L 463.693 72.3964 M 666 230 L 458.328 73.4483 M 669 230 L 452.968 72.3639 M 672 230 L 448.433 69.3085 M 675 230 L 445.415 64.7487 M 678 230 L 444.375 59.3806 M 681 230 L 445.471 54.0235 M 684 230 L 448.536 49.4953 M 687 230 L 453.103 46.4873 M 690 230 L 458.473 45.4586 M 693 230 L 463.828 46.5663 M 696 230 L 468.349 49.6413 M 699 230 L 471.347 54.2141 M 702 230 L 378.872 54.2455 M 705 230 L 378.432 58.7818 M 708 230 L 376.381 62.8517 M 711 230 L 372.996 65.904 M 714 230 L 368.737 67.5255 M 717 230 L 364.179 67.4965 M 720 230 L 359.941 65.8209 M 723 230 L 356.596 62.7257 M 726 230 L 354.597 58.63" stroke="black" stroke-width="1" fill="none"></path><path d="M 30 230 L 564.294 362.468 M 33 230 L 563.293 359.094 M 36 230 L 563.201 355.577 M 39 230 L 564.024 352.155 M 42 230 L 565.705 349.064 M 45 230 L 568.129 346.514 M 48 230 L 571.132 344.68 M 51 230 L 574.508 343.686 M 54 230 L 578.025 343.602 M 57 230 L 581.445 344.432 M 60 230 L 584.532 346.119 M 63 230 L 587.077 348.55 M 66 230 L 588.905 351.556 M 69 230 L 589.891 354.934 M 72 230 L 589.968 358.452 M 75 230 L 589.131 361.87 M 78 230 L 587.436 364.954 M 81 230 L 585.001 367.493 M 84 230 L 581.99 369.314 M 87 230 L 578.61 370.293 M 90 230 L 575.092 370.363 M 93 230 L 571.676 369.518 M 96 230 L 568.596 367.817 M 99 230 L 566.062 365.376 M 102 230 L 292.239 346.819 M 105 230 L 300.178 352.332 M 108 230 L 299.359 361.962 M 111 230 L 290.604 366.055 M 114 230 L 282.689 360.508 M 117 230 L 283.55 350.882 M 120 230 L 311.408 367.724 M 123 230 L 306.146 369.307 M 126 230 L 300.66 368.992 M 129 230 L 295.613 366.817 M 132 230 L 291.616 363.046 M 135 230 L 289.153 358.133 M 138 230 L 288.521 352.674 M 141 230 L 289.797 347.329 M 144 230 L 292.826 342.744 M 147 230 L 297.243 339.474 M 150 230 L 302.512 337.914 M 153 230 L 307.997 338.252 M 156 230 L 313.034 340.449 M 159 230 L 317.014 344.238 M 162 230 L 319.456 349.161 M 165 230 L 320.064 354.623 M 168 230 L 318.765 359.962 M 171 230 L 315.716 364.534 M 174 230 L 311.286 367.785 M 177 230 L 496.868 420.258 M 180 230 L 492.09 421.153 M 183 230 L 487.244 420.778 M 186 230 L 482.66 419.16 M 189 230 L 478.652 416.41 M 192 230 L 475.494 412.715 M 195 230 L 473.402 408.327 M 198 230 L 472.518 403.548 M 201 230 L 472.903 398.702 M 204 230 L 474.53 394.122 M 207 230 L 477.29 390.12 M 210 230 L 480.992 386.97 M 213 230 L 485.383 384.887 M 216 230 L 490.165 384.014 M 219 230 L 495.01 384.409 M 222 230 L 499.586 386.047 M 225 230 L 503.582 388.814 M 228 230 L 506.724 392.523 M 231 230 L 508.798 396.92 M 234 230 L 509.661 401.703 M 237 230 L 509.255 406.547 M 240 230 L 507.607 411.12 M 243 230 L 504.831 415.11 M 246 230 L 501.115 418.244 M 249 230 L 330.371 398.118 M 252 230 L 329.191 381.36 M 255 230 L 341.571 370.003 M 258 230 L 358.166 372.622 M 261 230 L 366.447 387.24 M 264 230 L 360.162 402.82 M 267 230 L 344.056 407.601 M 270 230 L 652.667 340.397 M 273 230 L 652.238 334.669 M 276 230 L 653.518 329.069 M 279 230 L 656.395 324.096 M 282 230 L 660.611 320.194 M 285 230 L 665.791 317.71 M 288 230 L 671.473 316.866 M 291 230 L 677.151 317.736 M 294 230 L 682.319 320.243 M 297 230 L 686.518 324.165 M 300 230 L 689.371 329.15 M 303 230 L 690.626 334.756 M 306 230 L 690.171 340.483 M 309 230 L 688.046 345.82 M 312 230 L 684.44 350.292 M 315 230 L 679.675 353.5 M 318 230 L 674.175 355.159 M 321 230 L 668.431 355.121 M 324 230 L 662.953 353.39 M 327 230 L 658.231 350.118 M 330 230 L 654.685 345.599 M 333 230 L 424.167 348.657 M 336 230 L 416.901 349.443 M 339 230 L 410.015 346.994 M 342 230 L 404.876 341.796 M 345 230 L 402.506 334.883 M 348 230 L 403.375 327.626 M 351 230 L 407.31 321.467 M 354 230 L 413.53 317.63 M 357 230 L 420.799 316.875 M 360 230 L 427.675 319.354 M 363 230 L 432.791 324.573 M 366 230 L 435.131 331.497 M 369 230 L 434.231 338.75 M 372 230 L 430.269 344.892 M 375 230 L 486.183 335.277 M 378 230 L 484.336 340.858 M 381 230 L 481.106 345.769 M 384 230 L 476.714 349.676 M 387 230 L 471.459 352.31 M 390 230 L 465.701 353.493 M 393 230 L 459.833 353.143 M 396 230 L 454.256 351.284 M 399 230 L 449.352 348.044 M 402 230 L 445.455 343.643 M 405 230 L 442.832 338.382 M 408 230 L 441.662 332.622 M 411 230 L 442.024 326.755 M 414 230 L 443.895 321.182 M 417 230 L 447.146 316.285 M 420 230 L 451.556 312.397 M 423 230 L 456.822 309.785 M 426 230 L 462.585 308.628 M 429 230 L 468.451 309.003 M 432 230 L 474.02 310.886 M 435 230 L 478.91 314.148 M 438 230 L 482.788 318.566 M 441 230 L 485.388 323.838 M 444 230 L 486.534 329.603 M 447 230 L 532.094 360.473 M 450 230 L 534.685 357.419 M 453 230 L 538.295 355.685 M 456 230 L 542.298 355.572 M 459 230 L 546 357.099 M 462 230 L 548.759 360.001 M 465 230 L 550.098 363.776 M 468 230 L 549.782 367.768 M 471 230 L 547.869 371.286 M 474 230 L 544.688 373.72 M 477 230 L 540.792 374.647 M 480 230 L 536.857 373.907 M 483 230 L 533.563 371.628 M 486 230 L 531.483 368.206 M 489 230 L 530.978 364.234 M 492 230 L 524.271 424.189 M 495 230 L 521.626 418.723 M 498 230 L 523.119 412.837 M 501 230 L 528.049 409.293 M 504 230 L 534.104 409.752 M 507 230 L 538.442 414 M 510 230 L 539.029 420.044 M 513 230 L 535.589 425.048 M 516 230 L 529.736 426.664 M 519 230 L 524.216 424.135 M 522 230 L 373.116 429.26 M 525 230 L 364.537 444.037 M 528 230 L 347.631 446.522 M 531 230 L 335.163 434.838 M 534 230 L 336.545 417.807 M 537 230 L 350.733 408.287 M 540 230 L 367.017 413.464 M 543 230 L 664.22 314.446 M 546 230 L 680.289 316.042 M 549 230 L 691.56 327.605 M 552 230 L 692.747 343.71 M 555 230 L 683.292 356.8 M 558 230 L 667.631 360.735 M 561 230 L 653.111 353.668 M 564 230 L 646.545 338.916 M 567 230 L 651.012 323.398 M 570 230 L 664.418 314.396 M 573 230 L 505.516 429.53 M 576 230 L 499.115 427.809 M 579 230 L 494.098 423.477 M 582 230 L 491.461 417.396 M 585 230 L 491.728 410.773 M 588 230 L 494.845 404.924 M 591 230 L 500.194 401.01 M 594 230 L 506.713 399.808 M 597 230 L 513.106 401.558 M 600 230 L 518.104 405.911 M 603 230 L 520.714 412.003 M 606 230 L 520.419 418.625 M 609 230 L 517.276 424.461 M 612 230 L 511.91 428.352 M 615 230 L 648.831 395.566 M 618 230 L 652.22 380.775 M 621 230 L 665.084 372.726 M 624 230 L 679.868 376.147 M 627 230 L 687.889 389.029 M 630 230 L 684.436 403.806 M 633 230 L 671.537 411.798 M 636 230 L 656.768 408.313 M 639 230 L 484.71 442.201 M 642 230 L 480.626 436.787 M 645 230 L 478.417 430.376 M 648 230 L 478.301 423.596 M 651 230 L 480.288 417.112 M 654 230 L 484.183 411.562 M 657 230 L 489.606 407.489 M 660 230 L 496.022 405.294 M 663 230 L 502.802 405.192 M 666 230 L 509.281 407.194 M 669 230 L 514.823 411.101 M 672 230 L 518.884 416.532 M 675 230 L 521.065 422.953 M 678 230 L 521.152 429.734 M 681 230 L 519.137 436.209 M 684 230 L 515.217 441.742 M 687 230 L 509.778 445.791 M 690 230 L 503.352 447.958 M 693 230 L 496.571 448.031 M 696 230 L 490.101 446.002 M 699 230 L 220.884 383.791 M 702 230 L 215.144 383.443 M 705 230 L 210.708 379.783 M 708 230 L 209.276 374.213 M 711 230 L 211.395 368.868 M 714 230 L 216.255 365.793 M 717 230 L 221.993 366.166 M 720 230 L 226.413 369.845 M 723 230 L 227.821 375.421 M 726 230 L 225.679 380.757" stroke="red" stroke-width="1" fill="none"></path></g></svg>
