<svg version="1.1" xmlns:xlink="http://www.w3.org/1999/xlink" xmlns="http://www.w3.org/2000/svg"><polyline points="20,20 760,20 760,410 20,410 20,20" stroke="black" stroke-width="1" fill="none"></polyline><g stroke="black" stroke-width="1" fill="none"><path d="M 43.3845 387 L 43 386.802 M 47.9101 387 L 43 384.428 M 52.3282 387 L 43 382.039 M 56.6431 387 L 43 379.633 M 60.8585 387 L 43 377.212 M 64.9782 387 L 43 374.773 M 69.0058 387 L 43 372.317 M 72.9446 387 L 43 369.844 M 76.7979 387 L 43 367.353 M 80.5686 387 L 43 364.844 M 84.2597 387 L 43 362.316 M 87 386.47 L 43 359.769 M 87 384.283 L 43 357.202 M 87 382.08 L 43 354.615 M 94.8825 387 L 93 385.825 M 87 379.859 L 43 352.008 M 98.2817 387 L 93 383.657 M 87 377.62 L 43 349.381 M 101.614 387 L 93 381.471 M 87 375.364 L 43 346.731 M 104.882 387 L 93 379.268 M 87 373.089 L 43 344.06 M 108.087 387 L 93 377.047 M 45.4414 343 L 87 370.794 M 111.231 387 L 93 374.807 M 49.4147 343 L 87 368.481 M 114.317 387 L 93 372.548 M 53.3149 343 L 87 366.147 M 117.346 387 L 93 370.27 M 57.1443 343 L 87 363.794 M 120.32 387 L 93 367.972 M 60.9052 343 L 87 361.419 M 123.241 387 L 93 365.654 M 64.5996 343 L 87 359.023 M 126.11 387 L 93 363.315 M 68.2296 343 L 87 356.606 M 128.93 387 L 93 360.955 M 71.7971 343 L 87 354.167 M 131.7 387 L 93 358.574 M 75.3041 343 L 87 351.705 M 134.424 387 L 93 356.17 M 78.7522 343 L 87 349.219 M 137 386.923 L 93 353.744 M 82.1432 343 L 87 346.711 M 137 384.91 L 93 351.294 M 85.4789 343 L 87 344.177 M 137 382.877 L 93 348.821 M 137 380.825 L 93 346.324 M 144.875 387 L 143 385.53 M 137 378.752 L 93 343.802 M 147.383 387 L 143 383.518 M 95.1692 343 L 137 376.659 M 149.852 387 L 143 381.486 M 98.2987 343 L 137 374.544 M 152.283 387 L 143 379.434 M 94.1127 337 L 93 336.081 M 101.38 343 L 137 372.407 M 154.676 387 L 143 377.36 M 97.2401 337 L 93 333.454 M 104.415 343 L 137 370.248 M 157.033 387 L 143 375.265 M 100.321 337 L 93 330.8 M 107.405 343 L 137 368.066 M 159.355 387 L 143 373.148 M 103.356 337 L 93 328.116 M 110.35 343 L 137 365.861 M 161.643 387 L 143 371.008 M 106.347 337 L 93 325.404 M 113.253 343 L 137 363.632 M 163.897 387 L 143 368.844 M 109.295 337 L 93 322.662 M 116.114 343 L 137 361.378 M 166.119 387 L 143 366.657 M 112.201 337 L 93 319.889 M 118.934 343 L 137 359.099 M 168.309 387 L 143 364.446 M 115.067 337 L 93 317.085 M 121.715 343 L 137 356.795 M 170.469 387 L 143 362.21 M 117.892 337 L 93 314.249 M 124.457 343 L 137 354.464 M 172.599 387 L 143 359.948 M 120.679 337 L 93 311.38 M 127.162 343 L 137 352.106 M 174.699 387 L 143 357.66 M 123.429 337 L 93 308.478 M 129.83 343 L 137 349.721 M 176.772 387 L 143 355.345 M 126.142 337 L 93 305.541 M 132.463 343 L 137 347.307 M 178.816 387 L 143 353.002 M 128.819 337 L 93 302.569 M 135.061 343 L 137 344.864 M 180.834 387 L 143 350.632 M 131.461 337 L 93 299.56 M 182.825 387 L 143 348.232 M 134.069 337 L 93 296.515 M 184.791 387 L 143 345.804 M 136.645 337 L 93 293.432 M 186.732 387 L 143 343.344 M 95.6618 293 L 137 334.789 M 145.123 343 L 187 385.333 M 98.7177 293 L 137 332.19 M 147.56 343 L 187 383.374 M 101.736 293 L 137 329.557 M 149.968 343 L 187 381.39 M 104.718 293 L 137 326.889 M 152.346 343 L 187 379.38 M 194.259 387 L 193 385.679 M 107.665 293 L 137 324.187 M 154.696 343 L 187 377.343 M 196.084 387 L 193 383.721 M 110.577 293 L 137 321.448 M 157.019 343 L 187 375.278 M 197.888 387 L 193 381.738 M 113.455 293 L 137 318.671 M 159.314 343 L 187 373.186 M 199.67 387 L 193 379.727 M 116.3 293 L 137 315.856 M 161.583 343 L 187 371.064 M 201.433 387 L 193 377.689 M 119.113 293 L 137 313.002 M 163.827 343 L 187 368.913 M 203.175 387 L 193 375.622 M 121.894 293 L 137 310.107 M 166.045 343 L 187 366.731 M 204.898 387 L 193 373.526 M 124.645 293 L 137 307.171 M 168.239 343 L 187 364.518 M 206.602 387 L 193 371.4 M 127.365 293 L 137 304.192 M 170.409 343 L 187 362.273 M 208.287 387 L 193 369.242 M 130.057 293 L 137 301.169 M 172.555 343 L 187 359.994 M 209.954 387 L 193 367.053 M 43.7647 187 L 43 186.089 M 132.719 293 L 137 298.101 M 174.679 343 L 187 357.682 M 211.603 387 L 193 364.832 M 47.5301 187 L 43 181.532 M 135.354 293 L 137 294.987 M 176.78 343 L 187 355.335 M 213.235 387 L 193 362.577 M 51.2564 187 L 43 176.906 M 178.86 343 L 187 352.952 M 214.85 387 L 193 360.287 M 54.9445 187 L 43 172.208 M 180.918 343 L 187 350.532 M 216.449 387 L 193 357.962 M 58.5953 187 L 43 167.437 M 182.955 343 L 187 348.074 M 218.031 387 L 193 355.6 M 62.2097 187 L 43 162.589 M 184.973 343 L 187 345.576 M 219.598 387 L 193 353.201 M 65.7885 187 L 43 157.664 M 186.97 343 L 187 343.039 M 221.149 387 L 193 350.763 M 69.3325 187 L 43 152.658 M 222.685 387 L 193 348.285 M 72.8424 187 L 43 147.569 M 224.206 387 L 193 345.766 M 43.4523 143 L 76.3191 187 M 225.713 387 L 193 343.205 M 47.3258 143 L 79.7632 187 M 194.769 343 L 227.206 387 M 46.7981 137 L 43 131.78 M 51.1634 143 L 83.1755 187 M 196.673 343 L 228.685 387 M 50.6583 137 L 43 126.333 M 54.9661 143 L 86.5568 187 M 194.252 337 L 193 335.256 M 198.56 343 L 230.151 387 M 54.4837 137 L 43 120.791 M 58.7346 143 L 87 182.896 M 196.179 337 L 193 332.513 M 200.43 343 L 231.603 387 M 58.2752 137 L 43 115.149 M 62.4697 143 L 87 178.09 M 93.2287 187 L 93 186.673 M 198.089 337 L 193 329.72 M 202.283 343 L 233.042 387 M 62.0335 137 L 43 109.405 M 66.172 143 L 87 173.197 M 96.5207 187 L 93 181.896 M 199.982 337 L 193 326.877 M 204.121 343 L 234.469 387 M 65.7593 137 L 43 103.555 M 69.8423 143 L 87 168.213 M 99.7842 187 L 93 177.03 M 201.859 337 L 193 323.982 M 205.942 343 L 235.884 387 M 69.4534 137 L 43 97.5957 M 73.4814 143 L 87 163.137 M 103.02 187 L 93 172.075 M 203.72 337 L 193 321.032 M 207.748 343 L 237 386.574 M 43.9777 93 L 73.1163 137 M 77.0898 143 L 87 157.965 M 106.228 187 L 93 167.025 M 205.565 337 L 193 318.027 M 209.538 343 L 237 384.468 M 44.0875 87 L 43 85.3353 M 48.0068 93 L 76.7489 137 M 80.6683 143 L 87 152.693 M 109.41 187 L 93 161.878 M 207.395 337 L 193 314.964 M 211.314 343 L 237 382.322 M 48.1373 87 L 43 79.0264 M 52.003 93 L 80.3517 137 M 84.2174 143 L 87 147.319 M 112.566 187 L 93 156.631 M 144.781 237 L 143 234.236 M 209.209 337 L 193 311.841 M 213.075 343 L 237 380.134 M 52.1544 87 L 43 72.5932 M 55.9669 93 L 83.9254 137 M 115.696 187 L 93 151.281 M 147.468 237 L 143 229.969 M 211.01 337 L 193 308.657 M 214.822 343 L 237 377.903 M 56.1395 87 L 43 66.0312 M 59.8993 93 L 87 136.249 M 118.802 187 L 93 145.824 M 150.133 237 L 143 225.617 M 212.795 337 L 193 305.409 M 216.555 343 L 237 375.627 M 244.127 387 L 243 385.202 M 60.0934 87 L 43 59.3362 M 63.8007 93 L 87 130.546 M 94.6955 143 L 121.883 187 M 152.778 237 L 143 221.176 M 214.567 337 L 193 302.096 M 218.275 343 L 237 373.305 M 245.462 387 L 243 383.016 M 64.0166 87 L 43 52.5033 M 67.672 93 L 87 124.725 M 94.4783 137 L 93 134.573 M 98.1337 143 L 124.94 187 M 155.402 237 L 143 216.644 M 216.325 337 L 193 298.714 M 219.981 343 L 237 370.936 M 246.787 387 L 243 380.784 M 67.9098 87 L 43 45.5279 M 71.5137 93 L 87 118.783 M 97.9418 137 L 93 128.772 M 101.546 143 L 127.974 187 M 158.006 237 L 143 212.017 M 218.07 337 L 193 295.261 M 221.674 343 L 237 368.516 M 248.102 387 L 243 378.506 M 45.7209 43 L 71.7737 87 M 75.3264 93 L 87 112.715 M 101.379 137 L 93 122.848 M 104.932 143 L 130.985 187 M 160.59 237 L 143 207.292 M 193.749 293 L 219.801 337 M 223.354 343 L 237 366.046 M 249.407 387 L 243 376.179 M 49.9286 43 L 75.609 87 M 79.1108 93 L 87 106.517 M 104.791 137 L 93 116.797 M 108.293 143 L 133.973 187 M 163.156 237 L 143 202.466 M 195.84 293 L 221.52 337 M 225.022 343 L 237 363.523 M 250.702 387 L 243 373.803 M 54.1056 43 L 79.4162 87 M 82.8676 93 L 87 100.184 M 108.178 137 L 93 110.614 M 111.63 143 L 136.94 187 M 165.702 237 L 143 197.534 M 197.916 293 L 223.226 337 M 226.678 343 L 237 360.944 M 251.988 387 L 243 371.375 M 58.2524 43 L 83.1959 87 M 86.5973 93 L 87 93.7104 M 111.541 137 L 93 104.294 M 114.942 143 L 137 181.91 M 143.287 193 L 168.23 237 M 199.977 293 L 224.92 337 M 228.321 343 L 237 358.309 M 253.265 387 L 243 368.893 M 62.3698 43 L 86.9487 87 M 114.879 137 L 93 97.8327 M 118.231 143 L 137 176.599 M 146.162 193 L 170.741 237 M 202.023 293 L 226.602 337 M 229.953 343 L 237 355.614 M 254.532 387 L 243 366.355 M 66.4583 43 L 87 80.3223 M 93.9776 93 L 118.195 137 M 121.497 143 L 137 171.168 M 149.016 193 L 173.233 237 M 204.055 293 L 228.272 337 M 231.574 343 L 237 352.859 M 255.791 387 L 243 363.76 M 70.5186 43 L 87 73.3963 M 97.6294 93 L 121.487 137 M 124.74 143 L 137 165.611 M 151.851 193 L 175.709 237 M 206.073 293 L 229.93 337 M 233.183 343 L 237 350.039 M 257.041 387 L 243 361.105 M 74.5513 43 L 87 66.3077 M 101.256 93 L 124.757 137 M 127.962 143 L 137 159.923 M 154.667 193 L 178.167 237 M 208.077 293 L 231.577 337 M 234.782 343 L 237 347.153 M 258.282 387 L 243 358.387 M 78.557 43 L 87 59.0501 M 104.859 93 L 128.005 137 M 131.161 143 L 137 154.099 M 157.463 193 L 180.609 237 M 210.068 293 L 233.213 337 M 236.37 343 L 237 344.198 M 259.516 387 L 243 355.604 M 82.5362 43 L 87 51.6167 M 108.438 93 L 131.232 137 M 134.34 143 L 137 148.135 M 160.242 193 L 183.035 237 M 212.045 293 L 234.839 337 M 260.741 387 L 243 352.754 M 86.4896 43 L 87 44.0005 M 111.994 93 L 134.437 137 M 163.002 193 L 185.445 237 M 214.01 293 L 236.454 337 M 261.958 387 L 243 349.834 M 115.527 93 L 137 135.761 M 165.744 193 L 187 235.327 M 215.962 293 L 237 334.893 M 263.167 387 L 243 346.841 M 119.037 93 L 137 129.338 M 168.47 193 L 187 230.486 M 217.902 293 L 237 331.635 M 264.368 387 L 243 343.772 M 122.526 93 L 137 122.75 M 143.933 137 L 143 135.082 M 171.178 193 L 187 225.521 M 219.83 293 L 237 328.292 M 244.156 343 L 265.563 387 M 125.994 93 L 137 115.989 M 147.059 137 L 143 128.521 M 173.87 193 L 187 220.425 M 194.935 237 L 193 232.958 M 221.746 293 L 237 324.861 M 245.684 343 L 266.75 387 M 129.441 93 L 137 109.048 M 150.167 137 L 143 121.786 M 176.546 193 L 187 215.194 M 197.272 237 L 193 227.931 M 223.651 293 L 237 321.34 M 244.377 337 L 243 334.077 M 247.203 343 L 267.929 387 M 132.867 93 L 137 101.919 M 153.256 137 L 143 114.867 M 179.205 193 L 187 209.821 M 199.594 237 L 193 222.769 M 225.544 293 L 237 317.723 M 245.933 337 L 243 330.671 M 248.713 343 L 269.102 387 M 136.273 93 L 137 94.5942 M 156.327 137 L 143 107.759 M 181.85 193 L 187 204.3 M 201.903 237 L 193 217.465 M 227.426 293 L 237 314.006 M 247.48 337 L 243 327.171 M 250.214 343 L 270.268 387 M 159.381 137 L 143 100.451 M 184.479 193 L 187 198.625 M 204.199 237 L 193 212.012 M 229.298 293 L 237 310.185 M 249.018 337 L 243 323.572 M 251.707 343 L 271.427 387 M 143.028 93 L 162.417 137 M 206.482 237 L 193 206.404 M 231.159 293 L 237 306.256 M 250.548 337 L 243 319.872 M 253.191 343 L 272.58 387 M 146.378 93 L 165.437 137 M 208.753 237 L 193 200.633 M 233.01 293 L 237 302.212 M 252.069 337 L 243 316.064 M 254.668 343 L 273.727 387 M 149.709 93 L 168.44 137 M 211.011 237 L 193 194.692 M 234.85 293 L 237 298.05 M 253.581 337 L 243 312.144 M 256.136 343 L 274.867 387 M 153.022 93 L 171.427 137 M 194.852 193 L 213.257 237 M 236.681 293 L 237 293.762 M 255.086 337 L 243 308.106 M 257.596 343 L 276.001 387 M 156.318 93 L 174.399 137 M 194.945 187 L 193 182.267 M 197.41 193 L 215.491 237 M 256.583 337 L 243 303.945 M 259.048 343 L 277.129 387 M 159.597 93 L 177.355 137 M 197.534 187 L 193 175.766 M 199.956 193 L 217.713 237 M 258.072 337 L 243 299.655 M 260.494 343 L 278.251 387 M 162.859 93 L 180.296 137 M 200.11 187 L 193 169.058 M 202.488 193 L 219.925 237 M 259.554 337 L 243 295.228 M 261.931 343 L 279.368 387 M 166.105 93 L 183.223 137 M 202.674 187 L 193 162.133 M 205.008 193 L 222.125 237 M 243.911 293 L 261.028 337 M 263.362 343 L 280.479 387 M 169.336 93 L 186.135 137 M 205.225 187 L 193 154.981 M 207.516 193 L 224.315 237 M 245.696 293 L 262.495 337 M 264.785 343 L 281.585 387 M 172.55 93 L 187 131.573 M 207.763 187 L 193 147.589 M 210.011 193 L 226.494 237 M 247.472 293 L 263.955 337 M 266.202 343 L 282.685 387 M 175.75 93 L 187 123.616 M 194.122 143 L 210.29 187 M 212.495 193 L 228.663 237 M 249.24 293 L 265.408 337 M 267.612 343 L 283.78 387 M 178.935 93 L 187 115.383 M 194.789 137 L 193 132.035 M 196.951 143 L 212.805 187 M 214.967 193 L 230.822 237 M 251 293 L 266.854 337 M 269.016 343 L 284.87 387 M 182.105 93 L 187 106.857 M 197.648 137 L 193 123.843 M 199.767 143 L 215.309 187 M 217.429 193 L 232.971 237 M 252.752 293 L 268.294 337 M 270.413 343 L 285.956 387 M 185.262 93 L 187 98.0214 M 200.493 137 L 193 115.354 M 202.57 143 L 217.802 187 M 219.879 193 L 235.11 237 M 254.496 293 L 269.727 337 M 271.804 343 L 287 386.896 M 203.327 137 L 193 106.551 M 205.361 143 L 220.284 187 M 222.318 193 L 237 236.291 M 256.232 293 L 271.155 337 M 273.189 343 L 287 383.722 M 206.148 137 L 193 97.4146 M 208.141 143 L 222.755 187 M 224.748 193 L 237 229.889 M 257.962 293 L 272.576 337 M 274.569 343 L 287 380.428 M 194.65 93 L 208.957 137 M 210.908 143 L 225.216 187 M 227.167 193 L 237 223.24 M 259.684 293 L 273.991 337 M 275.942 343 L 287 377.007 M 197.754 93 L 211.755 137 M 213.665 143 L 227.667 187 M 229.576 193 L 237 216.329 M 243.578 237 L 243 235.184 M 261.398 293 L 275.4 337 M 277.31 343 L 287 373.451 M 200.845 93 L 214.542 137 M 216.41 143 L 230.108 187 M 231.976 193 L 237 209.14 M 245.673 237 L 243 228.413 M 263.107 293 L 276.804 337 M 278.672 343 L 287 369.751 M 203.924 93 L 217.318 137 M 219.145 143 L 232.539 187 M 234.366 193 L 237 201.653 M 247.76 237 L 243 221.363 M 264.808 293 L 278.202 337 M 280.029 343 L 287 365.899 M 293.424 387 L 293 385.609 M 206.991 93 L 220.084 137 M 221.869 143 L 234.962 187 M 236.747 193 L 237 193.851 M 249.839 237 L 243 214.015 M 266.503 293 L 279.595 337 M 281.381 343 L 287 361.884 M 294.473 387 L 293 382.048 M 210.047 93 L 222.839 137 M 224.583 143 L 237 185.711 M 251.911 237 L 243 206.349 M 268.191 293 L 280.983 337 M 282.728 343 L 287 357.696 M 295.519 387 L 293 378.334 M 213.091 93 L 225.583 137 M 227.287 143 L 237 177.211 M 253.975 237 L 243 198.345 M 269.874 293 L 282.366 337 M 284.069 343 L 287 353.322 M 296.561 387 L 293 374.456 M 216.125 93 L 228.319 137 M 229.981 143 L 237 168.327 M 243.838 193 L 256.031 237 M 271.55 293 L 283.744 337 M 285.406 343 L 287 348.751 M 297.6 387 L 293 370.401 M 219.148 93 L 231.044 137 M 232.666 143 L 237 159.029 M 246.185 193 L 258.08 237 M 273.221 293 L 285.117 337 M 286.739 343 L 287 343.966 M 298.635 387 L 293 366.159 M 222.161 93 L 233.761 137 M 235.342 143 L 237 149.288 M 248.523 193 L 260.123 237 M 274.886 293 L 286.485 337 M 299.666 387 L 293 361.714 M 225.164 93 L 236.468 137 M 250.855 193 L 262.158 237 M 276.545 293 L 287 333.697 M 300.694 387 L 293 357.052 M 228.158 93 L 237 128.341 M 253.178 193 L 264.187 237 M 278.199 293 L 287 328.175 M 301.718 387 L 293 352.155 M 231.141 93 L 237 117.057 M 255.495 193 L 266.21 237 M 279.848 293 L 287 322.369 M 302.74 387 L 293 347.006 M 234.116 93 L 237 105.174 M 257.804 193 L 268.226 237 M 281.491 293 L 287 316.255 M 293.335 343 L 303.758 387 M 260.106 193 L 270.237 237 M 283.13 293 L 287 309.807 M 293.261 337 L 293 335.867 M 294.642 343 L 304.773 387 M 262.402 193 L 272.241 237 M 284.764 293 L 287 302.997 M 294.604 337 L 293 329.827 M 295.946 343 L 305.785 387 M 264.691 193 L 274.24 237 M 286.394 293 L 287 295.792 M 295.943 337 L 293 323.438 M 297.245 343 L 306.795 387 M 244.667 87 L 243 79.0807 M 266.974 193 L 276.234 237 M 297.279 337 L 293 316.668 M 298.542 343 L 307.801 387 M 247.639 87 L 243 64.2465 M 269.251 193 L 278.222 237 M 298.611 337 L 293 309.48 M 299.834 343 L 308.805 387 M 250.604 87 L 243 48.4675 M 271.522 193 L 280.205 237 M 299.94 337 L 293 301.835 M 301.124 343 L 309.807 387 M 245.166 43 L 253.562 87 M 273.788 193 L 282.184 237 M 301.265 337 L 293 293.686 M 302.41 343 L 310.806 387 M 248.403 43 L 256.512 87 M 276.048 193 L 284.157 237 M 294.478 293 L 302.587 337 M 303.693 343 L 311.802 387 M 251.633 43 L 259.456 87 M 278.303 193 L 286.126 237 M 296.083 293 L 303.906 337 M 304.973 343 L 312.796 387 M 254.855 43 L 262.393 87 M 280.553 193 L 287 230.634 M 297.684 293 L 305.222 337 M 306.25 343 L 313.788 387 M 258.07 43 L 265.324 87 M 282.798 193 L 287 218.493 M 299.282 293 L 306.536 337 M 307.525 343 L 314.778 387 M 261.279 43 L 268.248 87 M 285.038 193 L 287 205.388 M 300.877 293 L 307.846 337 M 308.797 343 L 315.766 387 M 264.481 43 L 271.167 87 M 302.469 293 L 309.154 337 M 310.066 343 L 316.752 387 M 267.678 43 L 274.08 87 M 304.057 293 L 310.46 337 M 311.333 343 L 317.736 387 M 270.868 43 L 276.988 87 M 305.643 293 L 311.763 337 M 312.598 343 L 318.718 387 M 274.053 43 L 279.891 87 M 307.225 293 L 313.064 337 M 313.86 343 L 319.698 387 M 277.232 43 L 282.789 87 M 308.806 293 L 314.362 337 M 315.12 343 L 320.677 387 M 280.407 43 L 285.683 87 M 310.383 293 L 315.659 337 M 316.379 343 L 321.654 387 M 283.576 43 L 287 73.1564 M 294.248 137 L 293 126.007 M 311.958 293 L 316.954 337 M 317.635 343 L 322.63 387 M 286.742 43 L 287 45.4121 M 296.815 137 L 293 101.403 M 313.532 293 L 318.247 337 M 318.889 343 L 323.605 387 M 294.942 93 L 299.378 137 M 315.102 293 L 319.538 337 M 320.142 343 L 324.578 387 M 297.782 93 L 301.937 137 M 316.671 293 L 320.827 337 M 321.394 343 L 325.549 387 M 300.618 93 L 304.494 137 M 318.238 293 L 322.115 337 M 322.644 343 L 326.52 387 M 303.45 93 L 307.048 137 M 319.804 293 L 323.401 337 M 323.892 343 L 327.49 387 M 306.28 93 L 309.599 137 M 321.367 293 L 324.687 337 M 325.139 343 L 328.458 387 M 309.107 93 L 312.148 137 M 322.93 293 L 325.97 337 M 326.385 343 L 329.426 387 M 311.932 93 L 314.695 137 M 324.49 293 L 327.253 337 M 327.63 343 L 330.393 387 M 314.754 93 L 317.24 137 M 326.05 293 L 328.535 337 M 328.874 343 L 331.359 387 M 317.575 93 L 319.782 137 M 327.609 293 L 329.816 337 M 330.117 343 L 332.324 387 M 320.394 93 L 322.324 137 M 329.166 293 L 331.096 337 M 331.359 343 L 333.289 387 M 323.211 93 L 324.863 137 M 330.723 293 L 332.375 337 M 332.601 343 L 334.253 387 M 326.027 93 L 327.402 137 M 332.279 293 L 333.654 337 M 333.842 343 L 335.217 387 M 328.841 93 L 329.94 137 M 333.834 293 L 334.932 337 M 335.082 343 L 336.181 387 M 331.655 93 L 332.476 137 M 335.389 293 L 336.21 337 M 336.322 343 L 337 379.304 M 334.468 93 L 335.013 137 M 336.943 293 L 337 297.583 M 343.8 243 L 343.237 287 M 345.669 243 L 344.829 287 M 347.538 243 L 346.422 287 M 349.409 243 L 348.015 287 M 351.28 243 L 349.609 287 M 353.151 243 L 351.203 287 M 355.024 243 L 352.798 287 M 356.898 243 L 354.395 287 M 358.774 243 L 355.993 287 M 360.651 243 L 357.591 287 M 362.529 243 L 359.192 287 M 364.41 243 L 360.793 287 M 366.292 243 L 362.397 287 M 368.176 243 L 364.002 287 M 370.063 243 L 365.609 287 M 371.952 243 L 367.218 287 M 373.844 243 L 368.83 287 M 375.738 243 L 370.443 287 M 393.787 93 L 393 99.5444 M 377.635 243 L 372.06 287 M 396.643 93 L 393 121.748 M 379.535 243 L 373.678 287 M 399.503 93 L 393.646 137 M 381.439 243 L 375.3 287 M 402.368 93 L 396.228 137 M 395.391 143 L 393 160.139 M 383.346 243 L 376.924 287 M 405.237 93 L 398.816 137 M 397.94 143 L 393 176.849 M 385.256 243 L 378.551 287 M 408.112 93 L 401.408 137 M 400.494 143 L 393.789 187 M 387 244.069 L 380.182 287 M 410.993 93 L 404.005 137 M 403.052 143 L 396.064 187 M 395.111 193 L 393 206.291 M 387 255.63 L 381.815 287 M 413.879 93 L 406.607 137 M 405.615 143 L 398.343 187 M 397.351 193 L 393 219.328 M 387 266.344 L 383.452 287 M 416.772 93 L 409.215 137 M 408.184 143 L 400.627 187 M 399.597 193 L 393 231.409 M 387 276.3 L 385.093 287 M 419.67 93 L 411.828 137 M 410.758 143 L 402.916 187 M 401.847 193 L 394.005 237 M 387 285.577 L 386.737 287 M 422.575 93 L 414.447 137 M 413.339 143 L 405.21 187 M 404.102 193 L 395.974 237 M 425.487 93 L 417.072 137 M 415.925 143 L 407.51 187 M 406.362 193 L 397.948 237 M 428.406 93 L 419.704 137 M 418.517 143 L 409.815 187 M 408.628 193 L 399.926 237 M 431.332 93 L 422.342 137 M 421.116 143 L 412.126 187 M 410.9 193 L 401.91 237 M 434.266 93 L 424.987 137 M 423.722 143 L 414.443 187 M 413.177 193 L 403.898 237 M 444.81 43 L 443 51.5832 M 437 93.9532 L 427.639 137 M 426.334 143 L 416.765 187 M 415.461 193 L 405.892 237 M 448.081 43 L 443 66.3627 M 437 107.089 L 430.298 137 M 428.954 143 L 419.095 187 M 417.75 193 L 407.892 237 M 451.36 43 L 443 80.3109 M 437 119.507 L 432.965 137 M 431.581 143 L 421.431 187 M 420.047 193 L 409.897 237 M 454.649 43 L 444.499 87 M 437 131.266 L 435.639 137 M 434.215 143 L 423.773 187 M 422.349 193 L 411.907 237 M 457.947 43 L 447.505 87 M 436.858 143 L 426.123 187 M 424.659 193 L 413.924 237 M 461.255 43 L 450.52 87 M 437 153.008 L 428.48 187 M 426.976 193 L 415.947 237 M 464.574 43 L 453.545 87 M 437 163.08 L 430.844 187 M 429.3 193 L 417.977 237 M 467.902 43 L 456.579 87 M 437 172.671 L 433.216 187 M 431.632 193 L 420.013 237 M 471.242 43 L 459.623 87 M 444.835 143 L 443 149.949 M 437 181.816 L 435.596 187 M 433.971 193 L 422.055 237 M 474.593 43 L 462.677 87 M 447.512 143 L 443 159.66 M 436.319 193 L 424.105 237 M 477.955 43 L 465.742 87 M 450.197 143 L 443 168.929 M 437 198.887 L 426.162 237 M 481.329 43 L 468.817 87 M 452.892 143 L 443 177.788 M 437 206.869 L 428.226 237 M 484.715 43 L 471.903 87 M 455.597 143 L 443 186.263 M 437 214.512 L 430.298 237 M 487 46.7354 L 475.001 87 M 458.312 143 L 445.199 187 M 437 221.84 L 432.378 237 M 487 57.84 L 478.11 87 M 461.037 143 L 447.622 187 M 437 228.871 L 434.466 237 M 487 68.4957 L 481.231 87 M 463.772 143 L 450.054 187 M 437 235.624 L 436.562 237 M 487 78.7297 L 484.364 87 M 466.518 143 L 452.496 187 M 469.275 143 L 454.947 187 M 472.044 143 L 457.409 187 M 474.824 143 L 459.881 187 M 477.616 143 L 462.363 187 M 494.947 93 L 493 98.6182 M 480.42 143 L 464.857 187 M 445.05 243 L 443 248.794 M 498.105 93 L 493 107.433 M 483.236 143 L 467.361 187 M 447.157 243 L 443 254.521 M 501.276 93 L 493 115.939 M 486.066 143 L 469.877 187 M 449.273 243 L 443 260.051 M 504.462 93 L 493 124.153 M 487 148.088 L 472.405 187 M 451.4 243 L 443 265.395 M 507.663 93 L 493 132.092 M 487 155.464 L 474.944 187 M 453.537 243 L 443 270.563 M 510.878 93 L 494.058 137 M 487 162.6 L 477.496 187 M 455.684 243 L 443 275.563 M 514.11 93 L 496.971 137 M 487 169.51 L 480.06 187 M 457.841 243 L 443 280.405 M 517.357 93 L 499.899 137 M 487 176.204 L 482.638 187 M 460.009 243 L 443 285.095 M 520.62 93 L 502.841 137 M 487 182.692 L 485.228 187 M 462.189 243 L 444.087 287 M 523.9 93 L 505.798 137 M 544.471 43 L 543 46.5751 M 464.379 243 L 445.953 287 M 527.197 93 L 508.771 137 M 548.137 43 L 543 55.2657 M 466.582 243 L 447.829 287 M 530.512 93 L 511.759 137 M 551.822 43 L 543 63.699 M 468.796 243 L 449.715 287 M 533.844 93 L 514.763 137 M 555.527 43 L 543 71.887 M 471.022 243 L 451.611 287 M 537 93.4415 L 517.784 137 M 559.252 43 L 543 79.8407 M 473.261 243 L 453.518 287 M 537 100.943 L 520.822 137 M 562.998 43 L 543.256 87 M 475.512 243 L 455.436 287 M 537 108.237 L 523.876 137 M 566.766 43 L 546.69 87 M 543.952 93 L 543 95.087 M 477.776 243 L 457.365 287 M 537 115.333 L 526.949 137 M 570.555 43 L 550.143 87 M 547.36 93 L 543 102.399 M 480.054 243 L 459.305 287 M 537 122.239 L 530.039 137 M 574.366 43 L 553.617 87 M 550.788 93 L 543 109.515 M 482.345 243 L 461.257 287 M 537 128.962 L 533.148 137 M 578.2 43 L 557.112 87 M 554.236 93 L 543 116.444 M 484.65 243 L 463.22 287 M 537 135.512 L 536.275 137 M 582.057 43 L 560.627 87 M 557.705 93 L 543 123.193 M 486.969 243 L 465.196 287 M 585.937 43 L 564.164 87 M 561.195 93 L 543 129.77 M 487 247.58 L 467.183 287 M 587 48.6543 L 567.724 87 M 564.707 93 L 543 136.181 M 487 252.108 L 469.184 287 M 587 56.263 L 571.305 87 M 568.242 93 L 545.775 137 M 487 256.526 L 471.197 287 M 587 63.6864 L 574.91 87 M 571.799 93 L 548.982 137 M 487 260.838 L 473.224 287 M 443.735 343 L 443 344.397 M 587 70.9319 L 578.539 87 M 575.379 93 L 552.21 137 M 487 265.048 L 475.264 287 M 445.324 343 L 443 347.347 M 587 78.0063 L 582.192 87 M 578.984 93 L 555.46 137 M 487 269.161 L 477.318 287 M 446.923 343 L 443 350.228 M 587 84.916 L 585.869 87 M 582.612 93 L 558.731 137 M 487 273.179 L 479.385 287 M 448.533 343 L 443 353.044 M 586.266 93 L 562.025 137 M 487 277.106 L 481.468 287 M 450.155 343 L 443 355.795 M 587 98.2664 L 565.342 137 M 487 280.946 L 483.565 287 M 451.787 343 L 443 358.486 M 587 104.719 L 568.682 137 M 593.65 93 L 593 94.1449 M 487 284.702 L 485.677 287 M 453.432 343 L 443 361.117 M 587 111.029 L 572.046 137 M 597.381 93 L 593 100.609 M 455.088 343 L 443 363.692 M 587 117.203 L 575.435 137 M 601.14 93 L 593 106.933 M 456.757 343 L 443 366.212 M 587 123.246 L 578.848 137 M 545.658 193 L 543 197.485 M 604.926 93 L 593 113.122 M 458.438 343 L 443 368.679 M 587 129.161 L 582.287 137 M 548.62 193 L 543 202.347 M 608.741 93 L 593 119.182 M 460.132 343 L 443 371.094 M 587 134.955 L 585.753 137 M 551.603 193 L 543 207.108 M 612.584 93 L 593 125.115 M 643.075 43 L 643 43.1224 M 461.839 343 L 443 373.461 M 554.61 193 L 543 211.772 M 616.457 93 L 593 130.928 M 647.381 43 L 643 50.0838 M 463.56 343 L 443 375.78 M 494.92 293 L 493 296.061 M 557.64 193 L 543 216.342 M 620.361 93 L 593 136.624 M 651.721 43 L 643 56.9049 M 465.293 343 L 443 378.052 M 497.094 293 L 493 299.437 M 560.695 193 L 543 220.821 M 624.295 93 L 596.311 137 M 656.096 43 L 643 63.5906 M 467.041 343 L 443 380.28 M 499.285 293 L 493 302.747 M 563.773 193 L 543 225.213 M 628.261 93 L 599.887 137 M 660.505 43 L 643 70.1452 M 468.804 343 L 443 382.465 M 501.495 293 L 493 305.992 M 566.877 193 L 543 229.519 M 632.26 93 L 603.491 137 M 664.951 43 L 643 76.5732 M 470.58 343 L 443 384.609 M 503.722 293 L 493 309.176 M 570.007 193 L 543 233.744 M 636.291 93 L 607.126 137 M 669.433 43 L 643 82.8787 M 472.372 343 L 443 386.712 M 505.969 293 L 493 312.3 M 573.163 193 L 543.597 237 M 637 97.995 L 610.791 137 M 673.953 43 L 644.388 87 M 474.179 343 L 444.21 387 M 508.234 293 L 493 315.367 M 576.345 193 L 546.376 237 M 637 103.947 L 614.487 137 M 678.511 43 L 648.543 87 M 476.001 343 L 445.625 387 M 510.519 293 L 493 318.377 M 579.555 193 L 549.179 237 M 637 109.79 L 618.215 137 M 683.109 43 L 652.733 87 M 477.839 343 L 447.053 387 M 512.824 293 L 493 321.332 M 582.793 193 L 552.006 237 M 637 115.527 L 621.976 137 M 687 44.067 L 656.96 87 M 479.694 343 L 448.493 387 M 515.149 293 L 493 324.235 M 586.059 193 L 554.859 237 M 637 121.162 L 625.769 137 M 687 50.6507 L 661.225 87 M 481.565 343 L 449.946 387 M 517.495 293 L 493 327.087 M 587 196.278 L 557.737 237 M 637 126.698 L 629.597 137 M 687 57.1187 L 665.527 87 M 483.453 343 L 451.413 387 M 519.862 293 L 493 329.889 M 587 200.802 L 560.641 237 M 637 132.138 L 633.46 137 M 687 63.4743 L 669.869 87 M 485.358 343 L 452.893 387 M 522.251 293 L 493 332.644 M 587 205.248 L 563.572 237 M 687 69.7211 L 674.251 87 M 487 343.377 L 454.386 387 M 524.663 293 L 493 335.351 M 587 209.62 L 566.53 237 M 687 75.8622 L 678.673 87 M 487 345.935 L 455.894 387 M 527.097 293 L 493.768 337 M 587 213.918 L 569.516 237 M 687 81.9008 L 683.138 87 M 487 348.451 L 457.416 387 M 529.555 293 L 495.788 337 M 587 218.145 L 572.531 237 M 644.669 143 L 643 145.174 M 487 350.926 L 458.953 387 M 532.036 293 L 497.827 337 M 587 222.304 L 575.574 237 M 648.657 143 L 643 150.276 M 487 353.361 L 460.506 387 M 534.542 293 L 499.887 337 M 587 226.396 L 578.648 237 M 652.684 143 L 643 155.296 M 487 355.758 L 462.073 387 M 537 293.091 L 501.966 337 M 587 230.423 L 581.753 237 M 656.752 143 L 643 160.236 M 487 358.117 L 463.657 387 M 537 296.253 L 504.067 337 M 587 234.388 L 584.889 237 M 660.861 143 L 643 165.099 M 487 360.44 L 465.256 387 M 537 299.365 L 506.19 337 M 665.011 143 L 643 169.887 M 487 362.727 L 466.872 387 M 537 302.431 L 508.334 337 M 669.205 143 L 643 174.602 M 487 364.98 L 468.506 387 M 537 305.45 L 510.501 337 M 673.443 143 L 643 179.245 M 487 367.2 L 470.156 387 M 537 308.424 L 512.691 337 M 677.725 143 L 643 183.82 M 487 369.387 L 471.824 387 M 537 311.355 L 514.904 337 M 682.054 143 L 644.144 187 M 487 371.542 L 473.511 387 M 537 314.243 L 517.142 337 M 686.43 143 L 648.035 187 M 487 373.666 L 475.216 387 M 537 317.09 L 519.404 337 M 687 147.361 L 651.969 187 M 487 375.76 L 476.94 387 M 537 319.896 L 521.692 337 M 687 152.305 L 655.947 187 M 695.328 143 L 693 145.601 M 487 377.825 L 478.684 387 M 537 322.664 L 524.005 337 M 687 157.179 L 659.969 187 M 699.852 143 L 693 150.56 M 487 379.862 L 480.447 387 M 537 325.393 L 526.345 337 M 687 161.986 L 664.039 187 M 704.429 143 L 693 155.45 M 487 381.87 L 482.231 387 M 537 328.085 L 528.712 337 M 687 166.728 L 668.155 187 M 709.058 143 L 693 160.274 M 487 383.852 L 484.037 387 M 537 330.741 L 531.107 337 M 687 171.406 L 672.32 187 M 713.742 143 L 693 165.033 M 487 385.808 L 485.863 387 M 537 333.361 L 533.531 337 M 687 176.022 L 676.534 187 M 718.482 143 L 693 169.729 M 537 335.948 L 535.984 337 M 687 180.578 L 680.8 187 M 723.279 143 L 693 174.363 M 687 185.074 L 685.117 187 M 728.134 143 L 693 178.937 M 733.05 143 L 693 183.453 M 737 144.025 L 693.914 187 M 737 148.977 L 698.396 187 M 645.359 243 L 643 245.294 M 737 153.868 L 702.935 187 M 696.766 193 L 693 196.663 M 545.111 343 L 543 345.027 M 649.228 243 L 643 248.982 M 737 158.699 L 707.534 187 M 701.287 193 L 693 200.959 M 547.711 343 L 543 347.468 M 653.148 243 L 643 252.625 M 737 163.472 L 712.193 187 M 705.867 193 L 693 205.203 M 550.346 343 L 543 349.88 M 657.121 243 L 643 256.225 M 737 168.189 L 716.914 187 M 710.508 193 L 693 209.397 M 553.017 343 L 543 352.263 M 661.147 243 L 643 259.782 M 737 172.85 L 721.7 187 M 715.212 193 L 693 213.542 M 555.724 343 L 543 354.619 M 665.228 243 L 643 263.299 M 737 177.458 L 726.551 187 M 719.981 193 L 693 217.639 M 558.469 343 L 543 356.949 M 669.366 243 L 643 266.775 M 737 182.013 L 731.469 187 M 724.815 193 L 693 221.689 M 561.252 343 L 543 359.251 M 673.563 243 L 643 270.212 M 737 186.516 L 736.456 187 M 729.718 193 L 693 225.693 M 564.075 343 L 543 361.528 M 677.818 243 L 643 273.611 M 734.69 193 L 693 229.653 M 566.938 343 L 543 363.78 M 682.136 243 L 643 276.973 M 737 195.374 L 693 233.569 M 569.844 343 L 543 366.008 M 686.516 243 L 643 280.298 M 737 199.73 L 693.516 237 M 572.792 343 L 543 368.212 M 687 246.352 L 643 283.587 M 737 204.04 L 698.051 237 M 575.785 343 L 543 370.392 M 687 250.079 L 643 286.841 M 737 208.304 L 702.654 237 M 695.473 243 L 693 245.066 M 578.823 343 L 543 372.55 M 687 253.767 L 646.712 287 M 737 212.523 L 707.327 237 M 700.053 243 L 693 248.818 M 581.908 343 L 543 374.685 M 687 257.417 L 650.673 287 M 737 216.699 L 712.071 237 M 704.703 243 L 693 252.531 M 585.04 343 L 543 376.798 M 687 261.03 L 654.697 287 M 737 220.832 L 716.89 237 M 709.426 243 L 693 256.206 M 587 343.97 L 543 378.891 M 687 264.606 L 658.783 287 M 737 224.924 L 721.784 237 M 714.224 243 L 693 259.844 M 587 346.491 L 543 380.962 M 687 268.147 L 662.935 287 M 737 228.975 L 726.757 237 M 719.098 243 L 693 263.446 M 587 348.986 L 543 383.013 M 687 271.653 L 667.155 287 M 737 232.986 L 731.81 237 M 724.051 243 L 693 267.013 M 587 351.458 L 543 385.044 M 687 275.125 L 671.443 287 M 737 236.959 L 736.946 237 M 729.086 243 L 693 270.545 M 587 353.906 L 543.075 387 M 687 278.564 L 675.803 287 M 734.204 243 L 693 274.043 M 587 356.331 L 545.756 387 M 687 281.97 L 680.236 287 M 737 244.79 L 693 277.509 M 587 358.733 L 548.482 387 M 687 285.345 L 684.745 287 M 737 248.651 L 693 280.942 M 587 361.113 L 551.256 387 M 737 252.477 L 693 284.344 M 587 363.471 L 554.079 387 M 737 256.268 L 693.999 287 M 587 365.809 L 556.951 387 M 737 260.025 L 698.75 287 M 587 368.126 L 559.876 387 M 737 263.748 L 703.585 287 M 694.963 293 L 693 294.366 M 587 370.422 L 562.853 387 M 737 267.44 L 708.509 287 M 699.77 293 L 693 297.648 M 587 372.699 L 565.886 387 M 737 271.099 L 713.524 287 M 704.666 293 L 693 300.902 M 587 374.956 L 568.976 387 M 737 274.728 L 718.633 287 M 709.654 293 L 693 304.128 M 587 377.195 L 572.124 387 M 737 278.326 L 723.84 287 M 714.737 293 L 693 307.327 M 587 379.415 L 575.333 387 M 737 281.894 L 729.146 287 M 719.917 293 L 693 310.5 M 587 381.617 L 578.605 387 M 737 285.433 L 734.556 287 M 725.199 293 L 693 313.647 M 587 383.801 L 581.942 387 M 730.586 293 L 693 316.769 M 587 385.968 L 585.346 387 M 736.081 293 L 693 319.866 M 737 295.883 L 693 322.938 M 737 299.312 L 693 325.988 M 737 302.715 L 693 329.013 M 737 306.092 L 693 332.017 M 737 309.445 L 693 334.998 M 737 312.773 L 694.672 337 M 737 316.077 L 699.906 337 M 737 319.358 L 705.257 337 M 737 322.616 L 710.732 337 M 737 325.852 L 716.333 337 M 737 329.066 L 722.067 337 M 737 332.258 L 727.938 337 M 737 335.43 L 733.953 337" stroke="black" stroke-width="1" fill="none"></path><path d="M 43.5202 337 L 43 336.787 M 52.3023 337 L 43 333.128 M 60.8229 337 L 43 329.449 M 69.094 337 L 43 325.751 M 77.1272 337 L 43 322.033 M 84.9331 337 L 43 318.294 M 87 334.495 L 43 314.534 M 87 331.048 L 43 310.753 M 87 327.582 L 43 306.949 M 87 324.094 L 43 303.123 M 87 320.586 L 43 299.274 M 87 317.056 L 43 295.402 M 45.9896 293 L 87 313.505 M 53.6638 293 L 87 309.931 M 49.5182 287 L 43 283.638 M 61.1502 293 L 87 306.334 M 146.451 337 L 143 335.22 M 57.0017 287 L 43 279.666 M 68.4562 293 L 87 302.713 M 152.456 337 L 143 332.047 M 64.3075 287 L 43 275.667 M 75.5887 293 L 87 299.069 M 158.318 337 L 143 328.853 M 71.4424 287 L 43 271.642 M 82.5545 293 L 87 295.4 M 164.043 337 L 143 325.638 M 78.413 287 L 43 267.59 M 169.636 337 L 143 322.401 M 85.2254 287 L 43 263.509 M 175.102 337 L 143 319.141 M 87 284.242 L 43 259.4 M 180.446 337 L 143 315.859 M 87 280.47 L 43 255.261 M 98.3986 287 L 93 283.907 M 185.672 337 L 143 312.553 M 87 276.67 L 43 251.093 M 104.77 287 L 93 280.158 M 187 334.8 L 143 309.223 M 87 272.843 L 43 246.894 M 111.006 287 L 93 276.381 M 187 331.818 L 143 305.869 M 43.5629 243 L 87 268.987 M 117.109 287 L 93 272.576 M 187 328.813 L 143 302.49 M 50.5789 243 L 87 265.102 M 123.086 287 L 93 268.743 M 187 325.786 L 143 299.085 M 47.7023 237 L 43 234.106 M 57.4508 243 L 87 261.187 M 128.94 287 L 93 264.88 M 187 322.735 L 143 295.654 M 54.5712 237 L 43 229.777 M 64.1837 243 L 87 257.242 M 134.675 287 L 93 260.987 M 144.287 293 L 187 319.661 M 61.303 237 L 43 225.415 M 70.7822 243 L 87 253.265 M 137 284.914 L 93 257.063 M 149.775 293 L 187 316.562 M 67.9023 237 L 43 221.017 M 77.2508 243 L 87 249.257 M 137 281.348 L 93 253.108 M 145.806 287 L 143 285.199 M 155.155 293 L 187 313.439 M 74.3735 237 L 43 216.584 M 83.5938 243 L 87 245.217 M 137 277.753 L 93 249.121 M 151.21 287 L 143 281.658 M 160.43 293 L 187 310.29 M 80.7207 237 L 43 212.115 M 137 274.129 L 93 245.101 M 156.509 287 L 143 278.088 M 165.604 293 L 187 307.116 M 86.9479 237 L 43 207.608 M 95.9193 243 L 137 270.475 M 161.709 287 L 143 274.487 M 170.68 293 L 187 303.915 M 87 232.892 L 43 203.063 M 93.0591 237 L 93 236.96 M 101.909 243 L 137 266.789 M 166.812 287 L 143 270.857 M 175.662 293 L 187 300.686 M 87 228.714 L 43 198.479 M 99.058 237 L 93 232.837 M 107.789 243 L 137 263.072 M 171.821 287 L 143 267.195 M 180.552 293 L 187 297.431 M 87 224.5 L 43 193.855 M 104.948 237 L 93 228.679 M 113.563 243 L 137 259.323 M 176.739 287 L 143 263.502 M 185.354 293 L 187 294.147 M 48.3965 193 L 87 220.248 M 110.732 237 L 93 224.484 M 119.233 243 L 137 255.541 M 181.569 287 L 143 259.776 M 54.9039 193 L 87 215.959 M 116.415 237 L 93 220.251 M 124.802 243 L 137 251.725 M 186.313 287 L 143 256.017 M 61.2979 193 L 87 211.631 M 121.998 237 L 93 215.98 M 130.275 243 L 137 247.875 M 187 284.119 L 143 252.224 M 67.5818 193 L 87 207.263 M 127.485 237 L 93 211.67 M 135.654 243 L 137 243.989 M 187 280.715 L 143 248.396 M 195.557 287 L 193 285.122 M 73.7589 193 L 87 202.855 M 132.879 237 L 93 207.32 M 187 277.28 L 143 244.533 M 200.061 287 L 193 281.745 M 79.8325 193 L 87 198.405 M 137 236.108 L 93 202.929 M 146.139 243 L 187 273.812 M 204.489 287 L 193 278.337 M 85.8056 193 L 87 193.913 M 137 232.112 L 93 198.496 M 151.251 243 L 187 270.312 M 208.844 287 L 193 274.895 M 137 228.077 L 93 194.021 M 156.28 243 L 187 266.777 M 213.128 287 L 193 271.421 M 97.4618 193 L 137 224.002 M 161.228 243 L 187 263.208 M 217.342 287 L 193 267.913 M 344.875 387 L 343 385.53 M 103.15 193 L 137 219.887 M 166.097 243 L 187 259.604 M 221.49 287 L 193 264.37 M 347.383 387 L 343 383.518 M 108.75 193 L 137 215.731 M 170.89 243 L 187 255.963 M 225.573 287 L 193 260.791 M 349.852 387 L 343 381.486 M 114.262 193 L 137 211.533 M 175.608 243 L 187 252.285 M 229.592 287 L 193 257.176 M 352.283 387 L 343 379.434 M 119.69 193 L 137 207.291 M 180.254 243 L 187 248.57 M 233.549 287 L 193 253.523 M 354.676 387 L 343 377.36 M 125.036 193 L 137 203.005 M 184.829 243 L 187 244.815 M 237 286.626 L 193 249.833 M 357.033 387 L 343 375.265 M 130.302 193 L 137 198.673 M 237 283.37 L 193 246.103 M 359.355 387 L 343 373.148 M 135.49 193 L 137 194.295 M 193.777 243 L 237 280.078 M 245.069 287 L 243 285.225 M 361.643 387 L 343 371.008 M 198.153 243 L 237 276.751 M 248.797 287 L 243 281.963 M 363.897 387 L 343 368.844 M 202.466 243 L 237 273.387 M 252.471 287 L 243 278.666 M 366.119 387 L 343 366.657 M 143.877 187 L 143 186.218 M 206.718 243 L 237 269.985 M 256.093 287 L 243 275.332 M 368.309 387 L 343 364.446 M 148.86 187 L 143 181.712 M 210.91 243 L 237 266.546 M 259.664 287 L 243 271.961 M 370.469 387 L 343 362.21 M 153.773 187 L 143 177.153 M 215.045 243 L 237 263.067 M 263.186 287 L 243 268.551 M 372.599 387 L 343 359.948 M 158.62 187 L 143 172.542 M 219.122 243 L 237 259.547 M 266.66 287 L 243 265.101 M 374.699 387 L 343 357.66 M 163.401 187 L 143 167.877 M 223.145 243 L 237 255.987 M 270.086 287 L 243 261.611 M 376.772 387 L 343 355.345 M 168.118 187 L 143 163.157 M 227.114 243 L 237 252.384 M 273.467 287 L 243 258.08 M 378.816 387 L 343 353.002 M 172.774 187 L 143 158.38 M 231.031 243 L 237 248.738 M 276.804 287 L 243 254.506 M 380.834 387 L 343 350.632 M 177.368 187 L 143 153.545 M 234.896 243 L 237 245.048 M 280.097 287 L 243 250.888 M 382.825 387 L 343 348.232 M 181.904 187 L 143 148.65 M 283.348 287 L 243 247.227 M 384.791 387 L 343 345.804 M 186.382 187 L 143 143.694 M 286.557 287 L 243 243.519 M 386.732 387 L 343 343.344 M 147.278 143 L 187 183.154 M 246.201 243 L 287 284.244 M 345.123 343 L 387 385.333 M 97.4862 87 L 93 82.4075 M 152.19 143 L 187 178.635 M 249.875 243 L 287 281.005 M 347.56 343 L 387 383.374 M 103.022 87 L 93 76.6103 M 157.042 143 L 187 174.057 M 253.505 243 L 287 277.723 M 295.948 287 L 293 283.943 M 344.18 337 L 343 335.777 M 349.968 343 L 387 381.39 M 108.492 87 L 93 70.7369 M 161.835 143 L 187 169.419 M 257.09 243 L 287 274.399 M 299.003 287 L 293 280.698 M 346.631 337 L 343 333.188 M 352.346 343 L 387 379.38 M 394.259 387 L 393 385.679 M 113.896 87 L 93 64.7855 M 166.571 143 L 187 164.719 M 260.634 243 L 287 271.031 M 302.021 287 L 293 277.409 M 349.053 337 L 343 330.565 M 354.696 343 L 387 377.343 M 396.084 387 L 393 383.721 M 119.236 87 L 93 58.7539 M 171.251 143 L 187 159.956 M 264.135 243 L 287 267.617 M 305.004 287 L 293 274.077 M 351.446 337 L 343 327.907 M 357.019 343 L 387 375.278 M 397.888 387 L 393 381.738 M 124.514 87 L 93 52.64 M 175.877 143 L 187 155.127 M 267.596 243 L 287 264.156 M 307.952 287 L 293 270.698 M 353.811 337 L 343 325.213 M 359.314 343 L 387 373.186 M 399.67 387 L 393 379.727 M 129.732 87 L 93 46.4417 M 180.45 143 L 187 150.232 M 271.017 243 L 287 260.648 M 310.866 287 L 293 267.273 M 356.149 337 L 343 322.481 M 361.583 343 L 387 371.064 M 401.433 387 L 393 377.689 M 95.5427 43 L 134.891 87 M 184.971 143 L 187 145.269 M 274.399 243 L 287 257.091 M 313.747 287 L 293 263.8 M 358.461 337 L 343 319.711 M 363.827 343 L 387 368.913 M 403.175 387 L 393 375.622 M 101.139 43 L 137 83.6116 M 277.743 243 L 287 253.483 M 316.596 287 L 293 260.278 M 360.747 337 L 343 316.902 M 366.045 343 L 387 366.731 M 404.898 387 L 393 373.526 M 106.674 43 L 137 77.7824 M 145.037 87 L 143 84.664 M 281.051 243 L 287 249.824 M 319.413 287 L 293 256.705 M 363.008 337 L 343 314.052 M 368.239 343 L 387 364.518 M 406.602 387 L 393 371.4 M 112.148 43 L 137 71.8685 M 150.026 87 L 143 78.8382 M 284.322 243 L 287 246.111 M 322.2 287 L 293 253.081 M 365.244 337 L 343 311.162 M 370.409 343 L 387 362.273 M 408.287 387 L 393 369.242 M 117.563 43 L 137 65.8675 M 154.962 87 L 143 72.9265 M 324.957 287 L 293 249.403 M 367.455 337 L 343 308.228 M 372.555 343 L 387 359.994 M 409.954 387 L 393 367.053 M 122.921 43 L 137 59.777 M 159.845 87 L 143 66.9267 M 243.765 187 L 243 186.089 M 327.684 287 L 293 245.67 M 369.644 337 L 343 305.251 M 374.679 343 L 387 357.682 M 411.603 387 L 393 364.832 M 128.222 43 L 137 53.5944 M 164.677 87 L 143 60.8362 M 247.53 187 L 243 181.532 M 293.928 243 L 330.383 287 M 371.809 337 L 343 302.229 M 376.78 343 L 387 355.335 M 413.235 387 L 393 362.577 M 133.469 43 L 137 47.3173 M 169.459 87 L 143 54.6525 M 251.256 187 L 243 176.906 M 297.063 243 L 333.053 287 M 373.952 337 L 343 299.16 M 378.86 343 L 387 352.952 M 414.85 387 L 393 360.287 M 174.192 87 L 143 48.373 M 254.944 187 L 243 172.208 M 295.321 237 L 293 234.126 M 300.166 243 L 335.697 287 M 376.073 337 L 343 296.044 M 380.918 343 L 387 350.532 M 416.449 387 L 393 357.962 M 143.801 43 L 178.877 87 M 258.595 187 L 243 167.437 M 298.454 237 L 293 230.158 M 303.237 243 L 337 285.352 M 343.096 293 L 378.172 337 M 382.955 343 L 387 348.074 M 418.031 387 L 393 355.6 M 148.89 43 L 183.516 87 M 262.21 187 L 243 162.589 M 301.557 237 L 293 226.127 M 306.278 243 L 337 282.039 M 345.625 293 L 380.251 337 M 384.973 343 L 387 345.576 M 419.598 387 L 393 353.201 M 153.929 43 L 187 85.5734 M 265.788 187 L 243 157.664 M 304.629 237 L 293 222.03 M 309.289 243 L 337 278.673 M 348.13 293 L 382.309 337 M 386.97 343 L 387 343.039 M 421.149 387 L 393 350.763 M 158.919 43 L 187 79.6234 M 269.332 187 L 243 152.658 M 307.671 237 L 293 217.867 M 312.271 243 L 337 275.251 M 350.609 293 L 384.347 337 M 422.685 387 L 393 348.285 M 163.86 43 L 187 73.5749 M 197.16 87 L 193 81.5028 M 272.842 187 L 243 147.569 M 310.683 237 L 293 213.635 M 315.224 243 L 337 271.773 M 353.065 293 L 386.365 337 M 424.206 387 L 393 345.766 M 168.755 43 L 187 67.4251 M 201.622 87 L 193 75.4575 M 243.452 143 L 276.319 187 M 313.668 237 L 293 209.331 M 318.149 243 L 337 268.236 M 355.498 293 L 387 335.173 M 425.713 387 L 393 343.205 M 173.604 43 L 187 61.1707 M 206.042 87 L 193 69.3095 M 247.326 143 L 279.763 187 M 316.624 237 L 293 204.955 M 321.047 243 L 337 264.639 M 357.908 293 L 387 332.462 M 394.769 343 L 427.206 387 M 178.409 43 L 187 54.8087 M 210.421 87 L 193 63.0556 M 246.798 137 L 243 131.78 M 251.163 143 L 283.176 187 M 319.553 237 L 293 200.504 M 323.918 243 L 337 260.981 M 360.296 293 L 387 329.705 M 396.673 343 L 428.685 387 M 183.169 43 L 187 48.3356 M 214.76 87 L 193 56.6925 M 250.658 137 L 243 126.333 M 254.966 143 L 286.557 187 M 322.455 237 L 293 195.974 M 326.763 243 L 337 257.258 M 362.662 293 L 387 326.899 M 394.252 337 L 393 335.256 M 398.56 343 L 430.151 387 M 219.06 87 L 193 50.217 M 254.484 137 L 243 120.791 M 258.735 143 L 287 182.896 M 294.158 193 L 325.331 237 M 329.582 243 L 337 253.47 M 365.006 293 L 387 324.044 M 396.179 337 L 393 332.513 M 400.43 343 L 431.603 387 M 223.322 87 L 193 43.6255 M 258.275 137 L 243 115.149 M 262.47 143 L 287 178.09 M 293.229 187 L 293 186.673 M 297.423 193 L 328.182 237 M 332.377 243 L 337 249.614 M 367.33 293 L 387 321.137 M 398.089 337 L 393 329.72 M 402.283 343 L 433.042 387 M 197.198 43 L 227.546 87 M 262.034 137 L 243 109.405 M 266.172 143 L 287 173.197 M 296.521 187 L 293 181.896 M 300.659 193 L 331.008 237 M 335.146 243 L 337 245.688 M 369.633 293 L 387 318.178 M 399.982 337 L 393 326.877 M 404.121 343 L 434.469 387 M 201.793 43 L 231.734 87 M 265.759 137 L 243 103.555 M 269.842 143 L 287 168.213 M 299.784 187 L 293 177.03 M 303.867 193 L 333.809 237 M 371.917 293 L 387 315.165 M 401.859 337 L 393 323.982 M 405.942 343 L 435.884 387 M 206.348 43 L 235.887 87 M 269.453 137 L 243 97.5957 M 273.481 143 L 287 163.137 M 303.02 187 L 293 172.075 M 307.048 193 L 336.587 237 M 374.181 293 L 387 312.095 M 403.72 337 L 393 321.032 M 407.748 343 L 437 386.574 M 210.866 43 L 237 82.4636 M 243.978 93 L 273.116 137 M 277.09 143 L 287 157.965 M 306.228 187 L 293 167.025 M 310.202 193 L 337 233.466 M 376.426 293 L 387 308.967 M 405.565 337 L 393 318.027 M 409.538 343 L 437 384.468 M 215.345 43 L 237 76.1501 M 248.007 93 L 276.749 137 M 280.668 143 L 287 152.693 M 309.41 187 L 293 161.878 M 313.33 193 L 337 229.236 M 378.653 293 L 387 305.779 M 407.395 337 L 393 314.964 M 411.314 343 L 437 382.322 M 219.789 43 L 237 69.7138 M 252.003 93 L 280.352 137 M 284.217 143 L 287 147.319 M 312.566 187 L 293 156.631 M 316.432 193 L 337 224.924 M 344.781 237 L 343 234.236 M 380.861 293 L 387 302.529 M 409.209 337 L 393 311.841 M 413.075 343 L 437 380.134 M 224.196 43 L 237 63.1506 M 255.967 93 L 283.925 137 M 315.696 187 L 293 151.281 M 319.509 193 L 337 220.527 M 347.468 237 L 343 229.969 M 383.051 293 L 387 299.215 M 411.01 337 L 393 308.657 M 414.822 343 L 437 377.903 M 228.568 43 L 237 56.4561 M 259.899 93 L 287 136.249 M 318.802 187 L 293 145.824 M 322.562 193 L 337 216.042 M 350.133 237 L 343 225.617 M 385.224 293 L 387 295.834 M 412.795 337 L 393 305.409 M 416.555 343 L 437 375.627 M 232.906 43 L 237 49.6258 M 263.801 93 L 287 130.546 M 294.696 143 L 321.883 187 M 325.59 193 L 337 211.465 M 352.778 237 L 343 221.176 M 414.567 337 L 393 302.096 M 418.275 343 L 437 373.305 M 267.672 93 L 287 124.725 M 298.134 143 L 324.94 187 M 328.595 193 L 337 206.795 M 355.402 237 L 343 216.644 M 416.325 337 L 393 298.714 M 419.981 343 L 437 370.936 M 271.514 93 L 287 118.783 M 301.546 143 L 327.974 187 M 331.578 193 L 337 202.028 M 358.006 237 L 343 212.017 M 418.07 337 L 393 295.261 M 421.674 343 L 437 368.516 M 275.326 93 L 287 112.715 M 304.932 143 L 330.985 187 M 334.537 193 L 337 197.159 M 360.59 237 L 343 207.292 M 393.749 293 L 419.801 337 M 423.354 343 L 437 366.046 M 279.111 93 L 287 106.517 M 308.293 143 L 333.973 187 M 363.156 237 L 343 202.466 M 395.84 293 L 421.52 337 M 425.022 343 L 437 363.523 M 282.868 93 L 287 100.184 M 311.63 143 L 336.94 187 M 365.702 237 L 343 197.534 M 394.464 287 L 393 284.455 M 397.916 293 L 423.226 337 M 426.678 343 L 437 360.944 M 286.597 93 L 287 93.7104 M 314.942 143 L 337 181.91 M 343.287 193 L 368.23 237 M 396.575 287 L 393 280.693 M 399.977 293 L 424.92 337 M 428.321 343 L 437 358.309 M 318.231 143 L 337 176.599 M 346.162 193 L 370.741 237 M 398.671 287 L 393 276.848 M 402.023 293 L 426.602 337 M 429.953 343 L 437 355.614 M 321.497 143 L 337 171.168 M 345.714 187 L 343 182.069 M 349.016 193 L 373.233 237 M 400.752 287 L 393 272.915 M 404.055 293 L 428.272 337 M 431.574 343 L 437 352.859 M 294.376 87 L 293 84.462 M 324.74 143 L 337 165.611 M 348.598 187 L 343 176.676 M 351.851 193 L 375.709 237 M 402.819 287 L 393 268.89 M 406.073 293 L 429.93 337 M 433.183 343 L 437 350.039 M 298.052 87 L 293 77.5415 M 327.962 143 L 337 159.923 M 351.462 187 L 343 171.157 M 354.667 193 L 378.167 237 M 404.872 287 L 393 264.772 M 408.077 293 L 431.577 337 M 434.782 343 L 437 347.153 M 301.703 87 L 293 70.456 M 331.161 143 L 337 154.099 M 354.307 187 L 343 165.505 M 357.463 193 L 380.609 237 M 406.911 287 L 393 260.555 M 410.068 293 L 433.213 337 M 436.37 343 L 437 344.198 M 305.33 87 L 293 63.1989 M 334.34 143 L 337 148.135 M 357.133 187 L 343 159.717 M 360.242 193 L 383.035 237 M 408.937 287 L 393 256.236 M 412.045 293 L 434.839 337 M 308.933 87 L 293 55.7634 M 359.941 187 L 343 153.787 M 363.002 193 L 385.445 237 M 410.949 287 L 393 251.811 M 414.01 293 L 436.454 337 M 312.514 87 L 293 48.1421 M 362.731 187 L 343 147.708 M 365.744 193 L 387 235.327 M 412.949 287 L 393 247.275 M 415.962 293 L 437 334.893 M 294.321 43 L 316.071 87 M 343.753 143 L 365.504 187 M 368.47 193 L 387 230.486 M 393.186 243 L 414.936 287 M 417.902 293 L 437 331.635 M 298.2 43 L 319.607 87 M 343.933 137 L 343 135.082 M 346.852 143 L 368.259 187 M 371.178 193 L 387 225.521 M 395.504 243 L 416.911 287 M 419.83 293 L 437 328.292 M 302.056 43 L 323.121 87 M 347.059 137 L 343 128.521 M 349.932 143 L 370.997 187 M 373.87 193 L 387 220.425 M 397.808 243 L 418.873 287 M 421.746 293 L 437 324.861 M 305.888 43 L 326.614 87 M 350.167 137 L 343 121.786 M 352.993 143 L 373.719 187 M 376.546 193 L 387 215.194 M 400.098 243 L 420.824 287 M 423.651 293 L 437 321.34 M 444.377 337 L 443 334.077 M 309.698 43 L 330.087 87 M 353.256 137 L 343 114.867 M 356.036 143 L 376.425 187 M 379.205 193 L 387 209.821 M 402.375 243 L 422.764 287 M 425.544 293 L 437 317.723 M 445.933 337 L 443 330.671 M 313.485 43 L 333.539 87 M 356.327 137 L 343 107.759 M 359.062 143 L 379.115 187 M 381.85 193 L 387 204.3 M 404.638 243 L 424.692 287 M 427.426 293 L 437 314.006 M 447.48 337 L 443 327.171 M 317.251 43 L 336.971 87 M 359.381 137 L 343 100.451 M 362.07 143 L 381.79 187 M 384.479 193 L 387 198.625 M 406.888 243 L 426.609 287 M 429.298 293 L 437 310.185 M 449.018 337 L 443 323.572 M 320.996 43 L 337 79.3194 M 343.028 93 L 362.417 137 M 365.061 143 L 384.45 187 M 409.126 243 L 428.515 287 M 431.159 293 L 437 306.256 M 450.548 337 L 443 319.872 M 324.72 43 L 337 71.3505 M 343.779 87 L 343 85.2022 M 346.378 93 L 365.437 137 M 368.036 143 L 387 186.781 M 411.352 243 L 430.411 287 M 433.01 293 L 437 302.212 M 452.069 337 L 443 316.064 M 328.423 43 L 337 63.1466 M 347.155 87 L 343 77.2408 M 349.709 93 L 368.44 137 M 370.994 143 L 387 180.598 M 413.565 243 L 432.296 287 M 434.85 293 L 437 298.05 M 453.581 337 L 443 312.144 M 332.107 43 L 337 54.6966 M 350.512 87 L 343 69.0405 M 353.022 93 L 371.427 137 M 373.937 143 L 387 174.229 M 415.766 243 L 434.171 287 M 436.681 293 L 437 293.762 M 455.086 337 L 443 308.106 M 335.772 43 L 337 45.9885 M 353.853 87 L 343 60.5898 M 356.318 93 L 374.399 137 M 376.864 143 L 387 167.666 M 417.956 243 L 436.037 287 M 456.583 337 L 443 303.945 M 357.175 87 L 343 51.8762 M 359.597 93 L 377.355 137 M 379.776 143 L 387 160.899 M 420.135 243 L 437 284.788 M 458.072 337 L 443 299.655 M 343.045 43 L 360.482 87 M 362.859 93 L 380.296 137 M 382.674 143 L 387 153.917 M 422.302 243 L 437 280.088 M 459.554 337 L 443 295.228 M 346.654 43 L 363.771 87 M 366.105 93 L 383.223 137 M 385.557 143 L 387 146.71 M 424.459 243 L 437 275.236 M 443.911 293 L 461.028 337 M 350.246 43 L 367.045 87 M 369.336 93 L 386.135 137 M 426.606 243 L 437 270.225 M 445.696 293 L 462.495 337 M 353.82 43 L 370.303 87 M 372.55 93 L 387 131.573 M 428.742 243 L 437 265.046 M 447.472 293 L 463.955 337 M 357.378 43 L 373.545 87 M 375.75 93 L 387 123.616 M 430.867 243 L 437 259.689 M 449.24 293 L 465.408 337 M 360.919 43 L 376.773 87 M 378.935 93 L 387 115.383 M 432.984 243 L 437 254.147 M 451 293 L 466.854 337 M 364.444 43 L 379.986 87 M 382.105 93 L 387 106.857 M 435.09 243 L 437 248.407 M 452.752 293 L 468.294 337 M 367.953 43 L 383.185 87 M 385.262 93 L 387 98.0214 M 454.496 293 L 469.727 337 M 371.447 43 L 386.37 87 M 456.232 293 L 471.155 337 M 374.927 43 L 387 79.3499 M 457.962 293 L 472.576 337 M 378.392 43 L 387 69.4737 M 459.684 293 L 473.991 337 M 381.842 43 L 387 59.2078 M 395.844 87 L 393 78.0624 M 443.578 237 L 443 235.184 M 461.398 293 L 475.4 337 M 385.279 43 L 387 48.5278 M 398.977 87 L 393 67.8012 M 445.673 237 L 443 228.413 M 463.107 293 L 476.804 337 M 402.097 87 L 393 57.1167 M 447.76 237 L 443 221.363 M 464.808 293 L 478.202 337 M 493.424 387 L 493 385.609 M 405.206 87 L 393 45.9811 M 449.839 237 L 443 214.015 M 466.503 293 L 479.595 337 M 494.473 387 L 493 382.048 M 395.511 43 L 408.302 87 M 451.911 237 L 443 206.349 M 468.191 293 L 480.983 337 M 495.519 387 L 493 378.334 M 398.896 43 L 411.388 87 M 453.975 237 L 443 198.345 M 469.874 293 L 482.366 337 M 496.561 387 L 493 374.456 M 402.269 43 L 414.462 87 M 443.838 193 L 456.031 237 M 471.55 293 L 483.744 337 M 497.6 387 L 493 370.401 M 405.63 43 L 417.526 87 M 446.185 193 L 458.08 237 M 473.221 293 L 485.117 337 M 498.635 387 L 493 366.159 M 408.98 43 L 420.58 87 M 448.523 193 L 460.123 237 M 474.886 293 L 486.485 337 M 499.666 387 L 493 361.714 M 412.319 43 L 423.623 87 M 450.855 193 L 462.158 237 M 476.545 293 L 487 333.697 M 500.694 387 L 493 357.052 M 415.647 43 L 426.656 87 M 453.178 193 L 464.187 237 M 478.199 293 L 487 328.175 M 501.718 387 L 493 352.155 M 418.965 43 L 429.68 87 M 455.495 193 L 466.21 237 M 479.848 293 L 487 322.369 M 502.74 387 L 493 347.006 M 422.272 43 L 432.695 87 M 444.539 137 L 443 130.504 M 457.804 193 L 468.226 237 M 481.491 293 L 487 316.255 M 493.335 343 L 503.758 387 M 425.57 43 L 435.701 87 M 447.213 137 L 443 118.703 M 460.106 193 L 470.237 237 M 483.13 293 L 487 309.807 M 494.642 343 L 504.773 387 M 428.858 43 L 437 79.4087 M 449.879 137 L 443 106.239 M 462.402 193 L 472.241 237 M 484.764 293 L 487 302.997 M 495.946 343 L 505.785 387 M 432.137 43 L 437 65.4075 M 452.538 137 L 443 93.0537 M 464.691 193 L 474.24 237 M 486.394 293 L 487 295.792 M 497.245 343 L 506.795 387 M 435.407 43 L 437 50.5702 M 445.929 93 L 455.189 137 M 466.974 193 L 476.234 237 M 498.542 343 L 507.801 387 M 448.862 93 L 457.834 137 M 469.251 193 L 478.222 237 M 499.834 343 L 508.805 387 M 451.788 93 L 460.471 137 M 471.522 193 L 480.205 237 M 501.124 343 L 509.807 387 M 454.707 93 L 463.102 137 M 473.788 193 L 482.184 237 M 502.41 343 L 510.806 387 M 457.618 93 L 465.727 137 M 476.048 193 L 484.157 237 M 493.372 287 L 493 284.981 M 503.693 343 L 511.802 387 M 460.523 93 L 468.346 137 M 478.303 193 L 486.126 237 M 495.016 287 L 493 275.661 M 504.973 343 L 512.796 387 M 463.421 93 L 470.959 137 M 480.553 193 L 487 230.634 M 496.656 287 L 493 265.657 M 506.25 343 L 513.788 387 M 466.313 93 L 473.566 137 M 482.798 193 L 487 218.493 M 498.293 287 L 493 254.89 M 507.525 343 L 514.778 387 M 469.199 93 L 476.168 137 M 485.038 193 L 487 205.388 M 499.927 287 L 493 243.269 M 508.797 343 L 515.766 387 M 472.079 93 L 478.765 137 M 493.959 237 L 493 230.686 M 494.871 243 L 501.557 287 M 510.066 343 L 516.752 387 M 474.953 93 L 481.356 137 M 495.908 237 L 493 217.016 M 496.781 243 L 503.184 287 M 511.333 343 L 517.736 387 M 477.823 93 L 483.943 137 M 497.853 237 L 493 202.11 M 498.688 243 L 504.808 287 M 512.598 343 L 518.718 387 M 480.687 93 L 486.526 137 M 493.16 187 L 493 185.792 M 493.956 193 L 499.795 237 M 500.591 243 L 506.429 287 M 513.86 343 L 519.698 387 M 483.547 93 L 487 120.342 M 495.419 187 L 493 167.85 M 496.176 193 L 501.733 237 M 502.491 243 L 508.048 287 M 515.12 343 L 520.677 387 M 486.402 93 L 487 97.987 M 497.673 187 L 493 148.026 M 498.393 193 L 503.668 237 M 504.388 243 L 509.664 287 M 516.379 343 L 521.654 387 M 494.929 143 L 499.924 187 M 500.606 193 L 505.601 237 M 506.282 243 L 511.277 287 M 517.635 343 L 522.63 387 M 497.458 143 L 502.173 187 M 502.816 193 L 507.531 237 M 508.174 243 L 512.889 287 M 518.889 343 L 523.605 387 M 494.338 87 L 493 73.7302 M 499.982 143 L 504.418 187 M 505.022 193 L 509.458 237 M 510.062 243 L 514.498 287 M 520.142 343 L 524.578 387 M 493.059 43 L 497.215 87 M 502.504 143 L 506.66 187 M 507.226 193 L 511.382 237 M 511.949 243 L 516.105 287 M 521.394 343 L 525.549 387 M 496.212 43 L 500.089 87 M 505.023 143 L 508.899 187 M 509.428 193 L 513.305 237 M 513.833 243 L 517.71 287 M 522.644 343 L 526.52 387 M 499.362 43 L 502.96 87 M 507.539 143 L 511.136 187 M 511.627 193 L 515.225 237 M 515.715 243 L 519.313 287 M 523.892 343 L 527.49 387 M 502.508 43 L 505.828 87 M 510.052 143 L 513.371 187 M 513.824 193 L 517.143 237 M 517.596 243 L 520.915 287 M 525.139 343 L 528.458 387 M 505.652 43 L 508.693 87 M 512.563 143 L 515.604 187 M 516.018 193 L 519.059 237 M 519.474 243 L 522.515 287 M 526.385 343 L 529.426 387 M 508.792 43 L 511.555 87 M 515.072 143 L 517.834 187 M 518.211 193 L 520.974 237 M 521.351 243 L 524.114 287 M 527.63 343 L 530.393 387 M 511.931 43 L 514.416 87 M 517.578 143 L 520.063 187 M 520.402 193 L 522.887 237 M 523.226 243 L 525.711 287 M 528.874 343 L 531.359 387 M 515.067 43 L 517.274 87 M 520.083 143 L 522.291 187 M 522.592 193 L 524.799 237 M 525.1 243 L 527.308 287 M 530.117 343 L 532.324 387 M 518.201 43 L 520.13 87 M 522.587 143 L 524.517 187 M 524.78 193 L 526.71 237 M 526.973 243 L 528.903 287 M 531.359 343 L 533.289 387 M 521.333 43 L 522.985 87 M 525.089 143 L 526.741 187 M 526.967 193 L 528.619 237 M 528.845 243 L 530.497 287 M 532.601 343 L 534.253 387 M 524.464 43 L 525.839 87 M 527.59 143 L 528.965 187 M 529.153 193 L 530.528 237 M 530.716 243 L 532.091 287 M 533.842 343 L 535.217 387 M 527.593 43 L 528.691 87 M 530.089 143 L 531.188 187 M 531.338 193 L 532.436 237 M 532.586 243 L 533.684 287 M 535.082 343 L 536.181 387 M 530.722 43 L 531.543 87 M 532.589 143 L 533.41 187 M 533.522 193 L 534.343 237 M 534.455 243 L 535.277 287 M 536.322 343 L 537 379.304 M 533.849 43 L 534.394 87 M 535.087 143 L 535.631 187 M 535.706 193 L 536.25 237 M 536.325 243 L 536.869 287 M 536.977 43 L 537 46.819 M 545.079 143 L 544.516 187 M 543.8 243 L 543.237 287 M 543.16 293 L 543 305.504 M 547.577 143 L 546.738 187 M 545.669 243 L 544.829 287 M 544.714 293 L 543.875 337 M 550.077 143 L 548.96 187 M 547.538 243 L 546.422 287 M 546.269 293 L 545.153 337 M 552.576 143 L 551.183 187 M 549.409 243 L 548.015 287 M 547.825 293 L 546.431 337 M 555.077 143 L 553.406 187 M 551.28 243 L 549.609 287 M 549.381 293 L 547.71 337 M 557.579 143 L 555.631 187 M 553.151 243 L 551.203 287 M 550.937 293 L 548.989 337 M 560.083 143 L 557.857 187 M 555.024 243 L 552.798 287 M 552.495 293 L 550.269 337 M 562.588 143 L 560.085 187 M 556.898 243 L 554.395 287 M 554.054 293 L 551.55 337 M 565.095 143 L 562.314 187 M 558.774 243 L 555.993 287 M 555.613 293 L 552.832 337 M 567.604 143 L 564.544 187 M 560.651 243 L 557.591 287 M 557.174 293 L 554.115 337 M 570.115 143 L 566.777 187 M 562.529 243 L 559.192 287 M 558.736 293 L 555.399 337 M 572.628 143 L 569.012 187 M 564.41 243 L 560.793 287 M 560.3 293 L 556.684 337 M 575.144 143 L 571.249 187 M 566.292 243 L 562.397 287 M 561.866 293 L 557.971 337 M 577.663 143 L 573.489 187 M 568.176 243 L 564.002 287 M 563.433 293 L 559.259 337 M 580.185 143 L 575.731 187 M 570.063 243 L 565.609 287 M 565.002 293 L 560.548 337 M 582.71 143 L 577.977 187 M 571.952 243 L 567.218 287 M 566.573 293 L 561.839 337 M 593.469 43 L 593 47.3556 M 585.239 143 L 580.225 187 M 573.844 243 L 568.83 287 M 568.146 293 L 563.132 337 M 596.634 43 L 593 74.8908 M 587 149.407 L 582.476 187 M 575.738 243 L 570.443 287 M 569.721 293 L 564.427 337 M 599.804 43 L 594.509 87 M 587 169.097 L 584.731 187 M 577.635 243 L 572.06 287 M 571.299 293 L 565.724 337 M 602.979 43 L 597.403 87 M 587 186.924 L 586.99 187 M 579.535 243 L 573.678 287 M 572.88 293 L 567.023 337 M 606.159 43 L 600.301 87 M 581.439 243 L 575.3 287 M 574.463 293 L 568.324 337 M 609.344 43 L 603.205 87 M 595.391 143 L 593 160.139 M 583.346 243 L 576.924 287 M 576.048 293 L 569.627 337 M 612.535 43 L 606.113 87 M 597.94 143 L 593 176.849 M 585.256 243 L 578.551 287 M 577.637 293 L 570.932 337 M 615.731 43 L 609.027 87 M 600.494 143 L 593.789 187 M 587 244.069 L 580.182 287 M 579.229 293 L 572.241 337 M 618.934 43 L 611.946 87 M 603.052 143 L 596.064 187 M 595.111 193 L 593 206.291 M 587 255.63 L 581.815 287 M 580.824 293 L 573.551 337 M 622.143 43 L 614.871 87 M 605.615 143 L 598.343 187 M 597.351 193 L 593 219.328 M 587 266.344 L 583.452 287 M 582.422 293 L 574.865 337 M 625.359 43 L 617.802 87 M 608.184 143 L 600.627 187 M 599.597 193 L 593 231.409 M 587 276.3 L 585.093 287 M 584.024 293 L 576.181 337 M 628.582 43 L 620.74 87 M 610.758 143 L 602.916 187 M 601.847 193 L 594.005 237 M 587 285.577 L 586.737 287 M 585.629 293 L 577.501 337 M 631.812 43 L 623.684 87 M 613.339 143 L 605.21 187 M 604.102 193 L 595.974 237 M 594.865 243 L 593 253.098 M 587 294.244 L 578.823 337 M 635.049 43 L 626.635 87 M 615.925 143 L 607.51 187 M 606.362 193 L 597.948 237 M 596.8 243 L 593 262.87 M 587 302.358 L 580.149 337 M 637 49.5467 L 629.593 87 M 618.517 143 L 609.815 187 M 608.628 193 L 599.926 237 M 598.74 243 L 593 272.02 M 587 309.971 L 581.477 337 M 637 65.2602 L 632.558 87 M 621.116 143 L 612.126 187 M 610.9 193 L 601.91 237 M 600.684 243 L 593 280.606 M 587 317.13 L 582.81 337 M 637 80.0347 L 635.531 87 M 623.722 143 L 614.443 187 M 613.177 193 L 603.898 237 M 602.633 243 L 593.354 287 M 587 323.874 L 584.146 337 M 626.334 143 L 616.765 187 M 615.461 193 L 605.892 237 M 604.587 243 L 595.019 287 M 593.714 293 L 593 296.284 M 587 330.239 L 585.485 337 M 628.954 143 L 619.095 187 M 617.75 193 L 607.892 237 M 606.547 243 L 596.688 287 M 595.344 293 L 593 303.461 M 587 336.256 L 586.828 337 M 631.581 143 L 621.431 187 M 620.047 193 L 609.897 237 M 608.512 243 L 598.362 287 M 596.978 293 L 593 310.246 M 643.115 93 L 643 93.4972 M 634.215 143 L 623.773 187 M 622.349 193 L 611.907 237 M 610.483 243 L 600.041 287 M 598.618 293 L 593 316.671 M 646.081 93 L 643 105.983 M 636.858 143 L 626.123 187 M 624.659 193 L 613.924 237 M 612.46 243 L 601.725 287 M 600.262 293 L 593 322.764 M 649.056 93 L 643 117.824 M 637 153.008 L 628.48 187 M 626.976 193 L 615.947 237 M 614.443 243 L 603.415 287 M 601.911 293 L 593 328.551 M 652.041 93 L 643 129.07 M 637 163.08 L 630.844 187 M 629.3 193 L 617.977 237 M 616.433 243 L 605.109 287 M 603.565 293 L 593 334.054 M 655.035 93 L 643.712 137 M 637 172.671 L 633.216 187 M 631.632 193 L 620.013 237 M 618.428 243 L 606.809 287 M 605.225 293 L 593.606 337 M 658.039 93 L 646.42 137 M 637 181.816 L 635.596 187 M 633.971 193 L 622.055 237 M 620.431 243 L 608.515 287 M 606.89 293 L 594.974 337 M 593.35 343 L 593 344.291 M 661.052 93 L 649.136 137 M 636.319 193 L 624.105 237 M 622.44 243 L 610.226 287 M 608.561 293 L 596.348 337 M 594.682 343 L 593 349.061 M 664.076 93 L 651.863 137 M 637 198.887 L 626.162 237 M 624.456 243 L 611.944 287 M 610.238 293 L 597.726 337 M 596.02 343 L 593 353.619 M 667.111 93 L 654.599 137 M 637 206.869 L 628.226 237 M 626.479 243 L 613.668 287 M 611.921 293 L 599.109 337 M 597.362 343 L 593 357.98 M 670.156 93 L 657.344 137 M 637 214.512 L 630.298 237 M 628.51 243 L 615.398 287 M 613.61 293 L 600.497 337 M 598.709 343 L 593 362.156 M 673.212 93 L 660.1 137 M 643.411 193 L 643 194.379 M 637 221.84 L 632.378 237 M 630.549 243 L 617.134 287 M 615.305 293 L 601.89 337 M 600.061 343 L 593 366.16 M 676.28 93 L 662.866 137 M 645.793 193 L 643 202.16 M 637 228.871 L 634.466 237 M 632.595 243 L 618.877 287 M 617.007 293 L 603.289 337 M 601.418 343 L 593 370.002 M 679.36 93 L 665.643 137 M 648.184 193 L 643 209.626 M 694.949 43 L 693 49.2506 M 637 235.624 L 636.562 237 M 634.649 243 L 620.627 287 M 618.715 293 L 604.693 337 M 602.781 343 L 593 373.692 M 682.452 93 L 668.43 137 M 650.584 193 L 643 216.797 M 698.387 43 L 693 59.9023 M 636.712 243 L 622.384 287 M 620.431 293 L 606.103 337 M 604.149 343 L 593 377.239 M 685.557 93 L 671.229 137 M 652.994 193 L 643 223.69 M 701.838 43 L 693 70.1416 M 637 248.361 L 624.149 287 M 622.153 293 L 607.518 337 M 605.523 343 L 593 380.651 M 687 98.0322 L 674.039 137 M 655.413 193 L 643 230.322 M 705.304 43 L 693 79.9927 M 637 254.375 L 625.92 287 M 623.883 293 L 608.94 337 M 606.902 343 L 593 383.937 M 687 107.146 L 676.861 137 M 657.843 193 L 643 236.707 M 708.784 43 L 693.842 87 M 637 260.17 L 627.7 287 M 625.62 293 L 610.368 337 M 608.288 343 L 593.036 387 M 687 115.927 L 679.695 137 M 660.284 193 L 645.032 237 M 712.279 43 L 697.027 87 M 694.947 93 L 693 98.6182 M 637 265.758 L 629.487 287 M 627.364 293 L 611.802 337 M 609.679 343 L 594.116 387 M 687 124.396 L 682.542 137 M 662.735 193 L 647.172 237 M 715.79 43 L 700.227 87 M 698.105 93 L 693 107.433 M 637 271.151 L 631.282 287 M 629.117 293 L 613.242 337 M 611.077 343 L 595.202 387 M 687 132.569 L 685.401 137 M 665.197 193 L 649.321 237 M 719.316 43 L 703.441 87 M 701.276 93 L 693 115.939 M 637 276.359 L 633.085 287 M 630.877 293 L 614.689 337 M 612.481 343 L 596.292 387 M 667.67 193 L 651.481 237 M 722.858 43 L 706.67 87 M 704.462 93 L 693 124.153 M 637 281.391 L 634.896 287 M 632.646 293 L 616.142 337 M 613.892 343 L 597.388 387 M 670.154 193 L 653.651 237 M 726.417 43 L 709.913 87 M 707.663 93 L 693 132.092 M 637 286.258 L 636.716 287 M 634.423 293 L 617.603 337 M 615.309 343 L 598.489 387 M 672.651 193 L 655.83 237 M 729.992 43 L 713.172 87 M 710.878 93 L 694.058 137 M 636.208 293 L 619.07 337 M 616.733 343 L 599.595 387 M 675.159 193 L 658.021 237 M 733.585 43 L 716.447 87 M 714.11 93 L 696.971 137 M 637 295.527 L 620.545 337 M 618.164 343 L 600.706 387 M 677.68 193 L 660.222 237 M 737 43.4927 L 719.738 87 M 717.357 93 L 699.899 137 M 637 299.944 L 622.027 337 M 619.602 343 L 601.823 387 M 680.213 193 L 662.434 237 M 737 52.4634 L 723.045 87 M 720.62 93 L 702.841 137 M 637 304.226 L 623.516 337 M 621.048 343 L 602.946 387 M 682.759 193 L 664.657 237 M 737 61.1591 L 726.369 87 M 723.9 93 L 705.798 137 M 637 308.378 L 625.014 337 M 622.501 343 L 604.074 387 M 685.319 193 L 666.892 237 M 643.44 293 L 643 294.051 M 737 69.5929 L 729.71 87 M 727.197 93 L 708.771 137 M 637 312.408 L 626.519 337 M 623.962 343 L 605.209 387 M 687 195.092 L 669.139 237 M 645.272 293 L 643 298.33 M 737 77.7769 L 733.069 87 M 730.512 93 L 711.759 137 M 637 316.32 L 628.032 337 M 625.43 343 L 606.349 387 M 687 201.022 L 671.398 237 M 647.113 293 L 643 302.485 M 737 85.7228 L 736.446 87 M 733.844 93 L 714.763 137 M 637 320.121 L 629.554 337 M 626.907 343 L 607.496 387 M 687 206.781 L 673.669 237 M 648.964 293 L 643 306.52 M 737 93.4415 L 717.784 137 M 637 323.815 L 631.084 337 M 628.392 343 L 608.649 387 M 687 212.379 L 675.953 237 M 650.826 293 L 643 310.442 M 737 100.943 L 720.822 137 M 637 327.406 L 632.623 337 M 629.885 343 L 609.809 387 M 687 217.822 L 678.25 237 M 652.698 293 L 643 314.256 M 737 108.237 L 723.876 137 M 637 330.9 L 634.17 337 M 631.387 343 L 610.976 387 M 687 223.116 L 680.559 237 M 654.581 293 L 643 317.966 M 737 115.333 L 726.949 137 M 637 334.3 L 635.727 337 M 632.898 343 L 612.149 387 M 687 228.269 L 682.883 237 M 656.476 293 L 643 321.577 M 737 122.239 L 730.039 137 M 634.417 343 L 613.329 387 M 687 233.287 L 685.22 237 M 658.381 293 L 643 325.092 M 737 128.962 L 733.148 137 M 635.946 343 L 614.516 387 M 660.298 293 L 643 328.516 M 737 135.512 L 736.275 137 M 637 343.979 L 615.711 387 M 662.226 293 L 643 331.854 M 637 347.042 L 616.913 387 M 664.167 293 L 643 335.107 M 637 350.03 L 618.123 387 M 666.12 293 L 643.653 337 M 637 352.946 L 619.341 387 M 668.086 293 L 645.269 337 M 637 355.791 L 620.566 387 M 670.064 293 L 646.895 337 M 643.735 343 L 643 344.397 M 637 358.569 L 621.8 387 M 672.056 293 L 648.532 337 M 645.324 343 L 643 347.347 M 637 361.283 L 623.042 387 M 674.061 293 L 650.18 337 M 646.923 343 L 643 350.228 M 637 363.934 L 624.292 387 M 676.08 293 L 651.839 337 M 648.533 343 L 643 353.044 M 637 366.526 L 625.552 387 M 678.113 293 L 653.51 337 M 650.155 343 L 643 355.795 M 637 369.06 L 626.82 387 M 680.16 293 L 655.192 337 M 651.787 343 L 643 358.486 M 637 371.538 L 628.097 387 M 682.222 293 L 656.887 337 M 653.432 343 L 643 361.117 M 637 373.962 L 629.383 387 M 684.299 293 L 658.594 337 M 655.088 343 L 643 363.692 M 637 376.335 L 630.679 387 M 686.391 293 L 660.313 337 M 656.757 343 L 643 366.212 M 637 378.659 L 631.985 387 M 687 295.493 L 662.046 337 M 658.438 343 L 643 368.679 M 637 380.934 L 633.301 387 M 687 298.941 L 663.791 337 M 660.132 343 L 643 371.094 M 637 383.162 L 634.626 387 M 687 302.318 L 665.55 337 M 661.839 343 L 643 373.461 M 637 385.346 L 635.962 387 M 687 305.627 L 667.323 337 M 663.56 343 L 643 375.78 M 687 308.871 L 669.11 337 M 665.293 343 L 643 378.052 M 687 312.051 L 670.911 337 M 667.041 343 L 643 380.28 M 687 315.169 L 672.726 337 M 668.804 343 L 643 382.465 M 687 318.228 L 674.557 337 M 670.58 343 L 643 384.609 M 687 321.23 L 676.403 337 M 672.372 343 L 643 386.712 M 687 324.176 L 678.265 337 M 674.179 343 L 644.21 387 M 687 327.068 L 680.143 337 M 676.001 343 L 645.625 387 M 687 329.907 L 682.037 337 M 677.839 343 L 647.053 387 M 687 332.696 L 683.948 337 M 679.694 343 L 648.493 387 M 687 335.436 L 685.876 337 M 681.565 343 L 649.946 387 M 683.453 343 L 651.413 387 M 685.358 343 L 652.893 387 M 687 343.377 L 654.386 387 M 687 345.935 L 655.894 387 M 687 348.451 L 657.416 387 M 687 350.926 L 658.953 387 M 693.162 343 L 693 343.209 M 687 353.361 L 660.506 387 M 695.161 343 L 693 345.743 M 687 355.758 L 662.073 387 M 697.179 343 L 693 348.238 M 687 358.117 L 663.657 387 M 699.218 343 L 693 350.694 M 687 360.44 L 665.256 387 M 701.278 343 L 693 353.111 M 687 362.727 L 666.872 387 M 703.359 343 L 693 355.492 M 687 364.98 L 668.506 387 M 705.461 343 L 693 357.837 M 687 367.2 L 670.156 387 M 707.587 343 L 693 360.147 M 687 369.387 L 671.824 387 M 709.735 343 L 693 362.423 M 687 371.542 L 673.511 387 M 711.906 343 L 693 364.666 M 687 373.666 L 675.216 387 M 714.101 343 L 693 366.877 M 687 375.76 L 676.94 387 M 716.321 343 L 693 369.057 M 687 377.825 L 678.684 387 M 718.567 343 L 693 371.206 M 687 379.862 L 680.447 387 M 720.837 343 L 693 373.325 M 687 381.87 L 682.231 387 M 723.135 343 L 693 375.416 M 687 383.852 L 684.037 387 M 725.459 343 L 693 377.479 M 687 385.808 L 685.863 387 M 727.811 343 L 693 379.514 M 730.191 343 L 693 381.523 M 732.601 343 L 693 383.505 M 735.04 343 L 693 385.462 M 737 343.509 L 693.396 387 M 737 345.966 L 695.339 387 M 737 348.393 L 697.306 387 M 737 350.79 L 699.299 387 M 737 353.159 L 701.319 387 M 737 355.499 L 703.365 387 M 737 357.812 L 705.439 387 M 737 360.099 L 707.542 387 M 737 362.359 L 709.674 387 M 737 364.594 L 711.835 387 M 737 366.803 L 714.028 387 M 737 368.989 L 716.252 387 M 737 371.151 L 718.508 387 M 737 373.289 L 720.798 387 M 737 375.405 L 723.122 387 M 737 377.499 L 725.482 387 M 737 379.571 L 727.878 387 M 737 381.622 L 730.311 387 M 737 383.652 L 732.782 387 M 737 385.663 L 735.293 387" stroke="red" stroke-width="1" fill="none"></path></g></svg>
