<svg version="1.1" xmlns:xlink="http://www.w3.org/1999/xlink" xmlns="http://www.w3.org/2000/svg"><polyline points="30,30 750,30 750,570 30,570 30,30" stroke="black" stroke-width="1" fill="none"></polyline><path d="M 277.908 455.125 L 225.582 154.65 M 300.897 454.334 L 251.188 168.883 M 323.887 453.544 L 276.794 183.117 M 346.876 452.754 L 302.399 197.35 M 369.866 451.964 L 328.005 211.584 M 392.855 451.173 L 353.611 225.817 M 415.845 450.383 L 379.217 240.051 M 438.834 449.593 L 404.823 254.284 M 461.824 448.803 L 430.428 268.518 M 484.813 448.012 L 456.034 282.751 M 507.803 447.222 L 481.64 296.985 M 530.792 446.432 L 507.246 311.218 M 553.782 445.642 L 532.851 325.452 M 576.771 444.851 L 558.457 339.685 M 599.761 444.061 L 584.063 353.919 M 622.75 443.271 L 609.669 368.152 M 645.74 442.481 L 635.274 382.386 M 668.729 441.69 L 660.88 396.619 M 691.719 440.9 L 686.486 410.853 M 714.708 440.11 L 712.092 425.086 M 737.697 439.32 L 277.908 455.125 L 225.582 154.65 L 737.697 439.32" stroke="black" stroke-width="1" fill="none"></path><path d="M 97.1383 382.375 L 288.264 51.7189 M 122.282 383.042 L 303.851 68.9184 M 147.427 383.709 L 319.439 86.118 M 172.571 384.375 L 335.027 103.318 M 197.715 385.042 L 350.615 120.517 M 222.859 385.709 L 366.203 137.717 M 248.003 386.376 L 381.791 154.916 M 273.147 387.042 L 397.379 172.116 M 298.292 387.709 L 412.967 189.315 M 323.436 388.376 L 428.555 206.515 M 348.58 389.043 L 444.142 223.714 M 373.724 389.709 L 459.73 240.914 M 398.868 390.376 L 475.318 258.114 M 424.012 391.043 L 490.906 275.313 M 449.156 391.71 L 506.494 292.513 M 474.301 392.376 L 522.082 309.712 M 499.445 393.043 L 537.67 326.912 M 524.589 393.71 L 553.258 344.111 M 549.733 394.377 L 568.846 361.311 M 574.877 395.043 L 584.434 378.51 M 600.021 395.71 L 97.1383 382.375 L 288.264 51.7189 L 600.021 395.71" stroke="black" stroke-width="1" fill="none"></path><path d="M 204.582 416.144 L 205.508 252.16 M 223.376 418.239 L 224.256 262.454 M 242.169 420.334 L 243.003 272.749 M 260.963 422.429 L 261.75 283.043 M 279.757 424.524 L 280.497 293.337 M 298.55 426.619 L 299.245 303.631 M 317.344 428.714 L 317.992 313.926 M 336.137 430.809 L 336.739 324.22 M 354.931 432.904 L 355.486 334.514 M 373.724 434.999 L 374.234 344.808 M 392.518 437.094 L 392.981 355.102 M 411.312 439.189 L 411.728 365.397 M 430.105 441.284 L 430.476 375.691 M 448.899 443.379 L 449.223 385.985 M 467.692 445.474 L 467.97 396.279 M 486.486 447.569 L 486.717 406.574 M 505.279 449.665 L 505.465 416.868 M 524.073 451.76 L 524.212 427.162 M 542.867 453.855 L 542.959 437.456 M 561.66 455.95 L 561.706 447.75 M 580.454 458.045 L 204.582 416.144 L 205.508 252.16 L 580.454 458.045" stroke="black" stroke-width="1" fill="none"></path><path d="M 738.398 405.995 L 189.59 379.348 M 714.287 399.439 L 192.919 374.124 M 690.175 392.883 L 196.248 368.901 M 666.064 386.327 L 199.578 363.677 M 641.953 379.771 L 202.907 358.454 M 617.842 373.215 L 206.236 353.23 M 593.73 366.66 L 209.565 348.007 M 569.619 360.104 L 212.894 342.783 M 545.508 353.548 L 216.223 337.56 M 521.397 346.992 L 219.553 332.336 M 497.286 340.436 L 222.882 327.112 M 473.174 333.88 L 226.211 321.889 M 449.063 327.324 L 229.54 316.665 M 424.952 320.768 L 232.869 311.442 M 400.841 314.212 L 236.198 306.218 M 376.729 307.656 L 239.527 300.995 M 352.618 301.1 L 242.857 295.771 M 328.507 294.544 L 246.186 290.547 M 304.396 287.989 L 249.515 285.324 M 280.285 281.433 L 252.844 280.1 M 256.173 274.877 L 738.398 405.995 L 189.59 379.348 L 256.173 274.877" stroke="black" stroke-width="1" fill="none"></path><path d="M 238.898 261.515 L 145.591 386.979 M 244.24 260.29 L 155.598 379.481 M 249.582 259.065 L 165.605 371.982 M 254.924 257.84 L 175.613 364.484 M 260.266 256.615 L 185.62 356.986 M 265.608 255.39 L 195.627 349.488 M 270.95 254.165 L 205.635 341.99 M 276.292 252.94 L 215.642 334.491 M 281.634 251.715 L 225.649 326.993 M 286.976 250.49 L 235.657 319.495 M 292.318 249.265 L 245.664 311.997 M 297.66 248.04 L 255.671 304.499 M 303.002 246.815 L 265.679 297.001 M 308.344 245.59 L 275.686 289.502 M 313.685 244.365 L 285.693 282.004 M 319.027 243.14 L 295.701 274.506 M 324.369 241.915 L 305.708 267.008 M 329.711 240.69 L 315.715 259.51 M 335.053 239.465 L 325.723 252.011 M 340.395 238.24 L 335.73 244.513 M 345.737 237.015 L 238.898 261.515 L 145.591 386.979 L 345.737 237.015" stroke="black" stroke-width="1" fill="none"></path><path d="M 534.999 342.63 L 567.458 182.319 M 535.855 335.039 L 566.691 182.745 M 536.712 327.449 L 565.924 183.17 M 537.568 319.859 L 565.158 183.595 M 538.424 312.269 L 564.391 184.02 M 539.281 304.678 L 563.625 184.446 M 540.137 297.088 L 562.858 184.871 M 540.993 289.498 L 562.091 185.296 M 541.849 281.907 L 561.325 185.721 M 542.706 274.317 L 560.558 186.147 M 543.562 266.727 L 559.791 186.572 M 544.418 259.137 L 559.025 186.997 M 545.275 251.546 L 558.258 187.422 M 546.131 243.956 L 557.491 187.848 M 546.987 236.366 L 556.725 188.273 M 547.844 228.776 L 555.958 188.698 M 548.7 221.185 L 555.192 189.123 M 549.556 213.595 L 554.425 189.549 M 550.412 206.005 L 553.658 189.974 M 551.269 198.415 L 552.892 190.399 M 552.125 190.824 L 534.999 342.63 L 567.458 182.319 L 552.125 190.824" stroke="black" stroke-width="1" fill="none"></path><path d="M 512.074 548.12 L 722.949 464.621 M 495.085 524.677 L 695.417 445.353 M 478.096 501.235 L 667.884 426.086 M 461.107 477.792 L 640.351 406.818 M 444.118 454.349 L 612.818 387.55 M 427.129 430.907 L 585.286 368.283 M 410.141 407.464 L 557.753 349.015 M 393.152 384.021 L 530.22 329.747 M 376.163 360.579 L 502.688 310.479 M 359.174 337.136 L 475.155 291.212 M 342.185 313.693 L 447.622 271.944 M 325.196 290.251 L 420.09 252.676 M 308.207 266.808 L 392.557 233.408 M 291.218 243.365 L 365.024 214.141 M 274.229 219.923 L 337.492 194.873 M 257.24 196.48 L 309.959 175.605 M 240.251 173.037 L 282.426 156.338 M 223.262 149.595 L 254.894 137.07 M 206.273 126.152 L 227.361 117.802 M 189.284 102.709 L 199.828 98.5344 M 172.296 79.2667 L 512.074 548.12 L 722.949 464.621 L 172.296 79.2667" stroke="black" stroke-width="1" fill="none"></path><path d="M 510.3 192.257 L 251.114 461.172 M 500.857 190.28 L 254.63 445.75 M 491.413 188.304 L 258.145 430.328 M 481.969 186.328 L 261.661 414.906 M 472.525 184.352 L 265.176 399.484 M 463.081 182.376 L 268.692 384.062 M 453.637 180.4 L 272.207 368.64 M 444.193 178.424 L 275.722 353.219 M 434.75 176.448 L 279.238 337.797 M 425.306 174.472 L 282.753 322.375 M 415.862 172.495 L 286.269 306.953 M 406.418 170.519 L 289.784 291.531 M 396.974 168.543 L 293.3 276.109 M 387.53 166.567 L 296.815 260.687 M 378.086 164.591 L 300.33 245.265 M 368.642 162.615 L 303.846 229.844 M 359.199 160.639 L 307.361 214.422 M 349.755 158.663 L 310.877 199 M 340.311 156.687 L 314.392 183.578 M 330.867 154.71 L 317.908 168.156 M 321.423 152.734 L 510.3 192.257 L 251.114 461.172 L 321.423 152.734" stroke="black" stroke-width="1" fill="none"></path><path d="M 153.786 266.853 L 323.497 252.264 M 157.762 272.51 L 318.987 258.65 M 161.737 278.167 L 314.476 265.037 M 165.712 283.824 L 309.966 271.424 M 169.688 289.482 L 305.456 277.81 M 173.663 295.139 L 300.946 284.197 M 177.639 300.796 L 296.436 290.583 M 181.614 306.453 L 291.926 296.97 M 185.59 312.11 L 287.416 303.357 M 189.565 317.767 L 282.906 309.743 M 193.541 323.424 L 278.396 316.13 M 197.516 329.082 L 273.886 322.517 M 201.492 334.739 L 269.376 328.903 M 205.467 340.396 L 264.866 335.29 M 209.443 346.053 L 260.356 341.676 M 213.418 351.71 L 255.846 348.063 M 217.394 357.367 L 251.336 354.45 M 221.369 363.024 L 246.826 360.836 M 225.345 368.682 L 242.316 367.223 M 229.32 374.339 L 237.806 373.609 M 233.295 379.996 L 153.786 266.853 L 323.497 252.264 L 233.295 379.996" stroke="black" stroke-width="1" fill="none"></path><path d="M 450.262 395.246 L 510.199 290.233 M 461.723 395.527 L 518.662 295.764 M 473.184 395.807 L 527.126 301.295 M 484.644 396.087 L 535.59 306.826 M 496.105 396.367 L 544.054 312.357 M 507.565 396.648 L 552.517 317.888 M 519.026 396.928 L 560.981 323.419 M 530.486 397.208 L 569.445 328.95 M 541.947 397.489 L 577.909 334.481 M 553.408 397.769 L 586.372 340.011 M 564.868 398.049 L 594.836 345.542 M 576.329 398.329 L 603.3 351.073 M 587.789 398.61 L 611.764 356.604 M 599.25 398.89 L 620.227 362.135 M 610.71 399.17 L 628.691 367.666 M 622.171 399.45 L 637.155 373.197 M 633.631 399.731 L 645.619 378.728 M 645.092 400.011 L 654.082 384.259 M 656.553 400.291 L 662.546 389.79 M 668.013 400.572 L 671.01 395.321 M 679.474 400.852 L 450.262 395.246 L 510.199 290.233 L 679.474 400.852" stroke="black" stroke-width="1" fill="none"></path></svg>
