<svg version="1.1" xmlns:xlink="http://www.w3.org/1999/xlink" xmlns="http://www.w3.org/2000/svg"><polyline points="0,0 700,0 700,220 0,220 0,0" stroke="black" stroke-width="1" fill="none"></polyline><path d="M 41.8588 84.7436 L 40.4788 84.3083 M 55.5301 86.5489 L 35.7792 80.1582 M 30.7998 75.7609 L 49.1663 81.8566 M 25.513 71.0922 L 39.6244 75.8966 M 19.8876 66.1244 L 29.1704 69.3669 M 13.8879 60.8262 L 17.6631 62.1792" stroke="black" stroke-width="1" fill="none"></path><path d="M 57.0478 86.5466 L 55.307 86.5194 M 57.2166 86.0113 L 50.4767 85.8816 M 57.3852 85.4763 L 45.318 85.2004 M 57.5538 84.9413 L 40.9431 84.5015 M 57.7224 84.4064 L 41.6489 83.9224 M 57.891 83.8713 L 42.3506 83.3467 M 58.0598 83.3357 L 43.0484 82.7743 M 58.2288 82.7997 L 43.7425 82.2048 M 58.3979 82.2629 L 44.4333 81.6381 M 58.5674 81.7252 L 45.1209 81.074 M 58.7372 81.1865 L 45.8056 80.5122 M 58.9074 80.6465 L 46.4876 79.9527 M 59.078 80.1052 L 47.1672 79.3952 M 59.2491 79.5622 L 47.8445 78.8395 M 59.4208 79.0175 L 48.5198 78.2855 M 59.5931 78.4708 L 49.1934 77.7329 M 59.7661 77.922 L 49.8654 77.1816 M 59.9398 77.3709 L 50.536 76.6313 M 60.1143 76.8172 L 51.2056 76.0821 M 60.2896 76.2609 L 51.8742 75.5335 M 60.4659 75.7016 L 52.5421 74.9855 M 60.6431 75.1392 L 53.2096 74.4379 M 60.8214 74.5736 L 53.8768 73.8906 M 61.0008 74.0044 L 54.5439 73.3433 M 61.1814 73.4315 L 55.2111 72.7959 M 61.3632 72.8546 L 55.8788 72.2481 M 61.5463 72.2735 L 56.547 71.6999 M 61.7308 71.688 L 57.216 71.1511 M 61.9168 71.0979 L 57.886 70.6014 M 62.1044 70.5029 L 58.5572 70.0508 M 62.2935 69.9027 L 59.2298 69.4989 M 62.4844 69.2971 L 59.9041 68.9457 M 62.677 68.6858 L 60.5802 68.391 M 62.8716 68.0686 L 61.2585 67.8346 M 63.0681 67.4452 L 61.9391 67.2762 M 63.2666 66.8152 L 62.6222 66.7158 M 63.4673 66.1784 L 63.3081 66.1531" stroke="black" stroke-width="1" fill="none"></path><path d="M 57.3184 85.6882 L 69.4543 84.9506 M 57.829 84.0682 L 68.9807 83.4323 M 58.3358 82.4602 L 68.5085 81.918 M 58.839 80.8636 L 68.0373 80.4075 M 59.3388 79.2777 L 67.5671 78.9001 M 59.8354 77.7019 L 67.0978 77.3954 M 60.3291 76.1356 L 66.6292 75.8928 M 60.8199 74.5783 L 66.1611 74.392 M 61.3081 73.0294 L 65.6933 72.8924 M 61.7938 71.4883 L 65.2258 71.3936 M 62.2772 69.9545 L 64.7584 69.895 M 62.7585 68.4275 L 64.291 68.3962 M 63.2378 66.9066 L 63.8233 66.8968" stroke="black" stroke-width="1" fill="none"></path><path d="M 75.9384 118.467 L 75.4986 118.618 M 75.6475 116.943 L 74.7083 117.257 M 75.3642 115.458 L 73.9345 115.924 M 75.088 114.011 L 73.1765 114.619 M 74.8187 112.601 L 72.4336 113.34 M 74.5559 111.224 L 71.7051 112.086 M 74.2994 109.88 L 70.9904 110.855 M 74.0487 108.566 L 70.2889 109.647 M 73.8036 107.282 L 69.6 108.461 M 73.5639 106.027 L 68.9231 107.295 M 73.3294 104.798 L 68.2578 106.15 M 73.0997 103.594 L 67.6035 105.023 M 72.8747 102.416 L 66.9597 103.914 M 72.6541 101.26 L 66.3261 102.823 M 72.4378 100.127 L 65.7021 101.749 M 72.2255 99.0147 L 65.0874 100.69 M 72.0172 97.9231 L 64.4815 99.6471 M 71.8125 96.8509 L 63.8842 98.6185 M 71.6114 95.7974 L 63.2949 97.6038 M 71.4137 94.7617 L 62.7134 96.6026 M 71.2193 93.743 L 62.1394 95.6141 M 71.028 92.7406 L 61.5725 94.6379 M 70.8396 91.7539 L 61.0124 93.6735 M 70.6541 90.7821 L 60.4588 92.7202 M 70.4714 89.8246 L 59.9115 91.7777 M 70.2912 88.8808 L 59.3701 90.8455 M 70.1136 87.9501 L 58.8344 89.923 M 69.9384 87.032 L 58.3041 89.01 M 69.7654 86.1259 L 57.779 88.1058 M 63.7489 86.1691 L 57.2589 87.2102" stroke="black" stroke-width="1" fill="none"></path><path d="M 85.6614 151.971 L 79.2948 152.875 M 84.9426 149.529 L 41.3362 155.527 M 84.2306 147.111 L 35.2343 153.634 M 83.5252 144.714 L 39.1102 150.435 M 82.826 142.339 L 42.895 147.31 M 82.1327 139.984 L 46.5932 144.257 M 81.4451 137.648 L 50.2087 141.273 M 80.7629 135.331 L 53.7455 138.353 M 80.0858 133.031 L 57.2071 135.496 M 79.4135 130.747 L 60.597 132.697 M 78.7457 128.479 L 63.9184 129.955 M 78.0823 126.225 L 67.1745 127.268 M 77.4229 123.985 L 70.368 124.631 M 76.7673 121.758 L 73.5019 122.044" stroke="black" stroke-width="1" fill="none"></path><path d="M 68.8194 82.9148 L 71.0135 83.8614 M 67.7182 79.3845 L 72.6929 81.5905 M 66.563 75.6808 L 74.4155 79.2612 M 65.3493 71.7893 L 76.1836 76.8703 M 64.072 67.6941 L 77.9995 74.4147 M 65.8944 64.9513 L 79.866 71.8908 M 69.9109 63.2213 L 81.7857 69.295 M 73.9798 61.4689 L 83.7615 66.6232 M 78.1035 59.6928 L 85.7966 63.8712 M 82.2844 57.8921 L 87.8945 61.0345 M 86.525 56.0656 L 90.0586 58.108 M 90.8281 54.2123 L 92.2931 55.0866" stroke="black" stroke-width="1" fill="none"></path><path d="M 77.8564 125.458 L 78.8482 121.382 M 79.4262 130.79 L 81.6567 123.036 M 80.7766 135.378 L 84.348 124.622 M 81.9509 139.367 L 86.9301 126.143 M 82.9817 142.868 L 89.4104 127.604 M 83.8942 145.968 L 91.7954 129.009 M 84.7077 148.731 L 94.0912 130.361 M 85.4379 151.212 L 96.3035 131.665 M 88.1016 150.116 L 98.4374 132.922 M 93.9287 144.295 L 100.498 134.135 M 101.51 136.722 L 102.489 135.308" stroke="black" stroke-width="1" fill="none"></path><path d="M 70.8378 84.099 L 74.4634 84.84 M 72.5804 81.7426 L 81.5234 83.6194 M 74.343 79.3592 L 88.5101 82.4115 M 76.1264 76.9475 L 95.4267 81.2157 M 77.9318 74.5063 L 102.277 80.0314 M 79.7599 72.0342 L 109.063 78.8581 M 110.525 76.4377 L 81.6119 69.5299 M 108.124 73.0297 L 83.4889 66.9919 M 105.644 69.5101 L 85.3918 64.4186 M 103.081 65.8722 L 87.322 61.8086 M 100.43 62.1086 L 89.2806 59.1602 M 97.6841 58.2115 L 91.2688 56.4716 M 94.8385 54.1723 L 93.288 53.7411" stroke="black" stroke-width="1" fill="none"></path><path d="M 102.77 135.426 L 102.793 135.425 M 102.804 135.217 L 102.932 135.211 M 102.837 135.009 L 103.071 135 M 102.87 134.802 L 103.208 134.79 M 102.903 134.596 L 103.344 134.582 M 102.936 134.391 L 103.479 134.376 M 102.968 134.186 L 103.613 134.171 M 103.001 133.982 L 103.746 133.967 M 103.033 133.779 L 103.878 133.765 M 103.066 133.576 L 104.009 133.564 M 103.098 133.374 L 104.14 133.364 M 103.13 133.172 L 104.27 133.165 M 103.163 132.971 L 104.399 132.968 M 103.195 132.769 L 104.527 132.771 M 103.227 132.568 L 104.655 132.575 M 103.259 132.367 L 104.783 132.38 M 103.291 132.166 L 104.91 132.186 M 103.323 131.966 L 105.036 131.992 M 103.355 131.765 L 105.162 131.8 M 103.387 131.564 L 105.288 131.607 M 103.42 131.363 L 105.413 131.416 M 103.452 131.161 L 105.538 131.224 M 103.484 130.96 L 105.663 131.033 M 103.516 130.758 L 105.787 130.843 M 103.549 130.555 L 105.912 130.652 M 103.581 130.352 L 106.036 130.462 M 103.613 130.149 L 106.16 130.272 M 103.646 129.945 L 106.285 130.082 M 103.679 129.74 L 106.409 129.892 M 103.712 129.534 L 106.533 129.702 M 103.745 129.328 L 106.657 129.512 M 103.778 129.12 L 106.781 129.322 M 103.811 128.912 L 106.906 129.132 M 103.845 128.703 L 107.03 128.941 M 103.878 128.492 L 107.155 128.75 M 103.912 128.28 L 107.28 128.558 M 103.946 128.067 L 107.406 128.366 M 103.98 127.853 L 107.532 128.174 M 104.015 127.637 L 107.658 127.981 M 104.05 127.42 L 107.785 127.787 M 104.084 127.201 L 107.912 127.593 M 104.12 126.98 L 108.039 127.397 M 104.155 126.758 L 108.167 127.201 M 104.191 126.533 L 108.296 127.004 M 104.227 126.307 L 108.426 126.806 M 104.264 126.078 L 108.556 126.607 M 104.301 125.848 L 108.686 126.407 M 104.338 125.615 L 108.818 126.205 M 104.375 125.38 L 108.951 126.003 M 104.413 125.142 L 109.084 125.799 M 104.452 124.901 L 109.218 125.593 M 104.491 124.658 L 109.354 125.386 M 104.53 124.412 L 109.49 125.177 M 104.57 124.163 L 109.627 124.967 M 104.61 123.911 L 109.766 124.755 M 104.651 123.656 L 109.906 124.541 M 104.692 123.397 L 110.047 124.325 M 104.734 123.134 L 110.19 124.107 M 104.777 122.868 L 110.333 123.887 M 104.82 122.598 L 110.479 123.664 M 104.864 122.324 L 110.626 123.44 M 104.908 122.045 L 110.774 123.212 M 104.953 121.762 L 110.925 122.982 M 104.999 121.475 L 111.077 122.75 M 105.046 121.182 L 111.23 122.514 M 105.094 120.884 L 111.386 122.276 M 105.142 120.582 L 111.544 122.035 M 105.191 120.273 L 111.704 121.79 M 105.241 119.959 L 111.866 121.542 M 105.293 119.639 L 112.031 121.29 M 105.345 119.312 L 112.197 121.035 M 105.398 118.979 L 112.367 120.776 M 105.453 118.638 L 112.539 120.512 M 105.508 118.291 L 112.714 120.245 M 105.565 117.935 L 112.891 119.973 M 105.623 117.572 L 113.072 119.697 M 105.682 117.2 L 113.256 119.415 M 105.743 116.82 L 113.443 119.129 M 105.805 116.43 L 113.633 118.838 M 105.869 116.03 L 113.827 118.541 M 105.935 115.62 L 114.025 118.238 M 106.002 115.199 L 114.227 117.929 M 106.071 114.767 L 114.433 117.614 M 106.142 114.323 L 114.643 117.293 M 106.215 113.867 L 114.858 116.964 M 106.29 113.397 L 115.077 116.629 M 106.367 112.912 L 115.302 116.285 M 106.447 112.413 L 115.531 115.934 M 106.529 111.899 L 115.766 115.574 M 106.614 111.367 L 116.007 115.206 M 106.702 110.818 L 116.254 114.828 M 106.793 110.25 L 116.507 114.441 M 106.887 109.662 L 116.766 114.044 M 106.984 109.053 L 117.033 113.635 M 107.085 108.422 L 117.307 113.216 M 107.19 107.766 L 117.589 112.784 M 107.298 107.085 L 117.88 112.34 M 107.412 106.376 L 118.178 111.883 M 107.53 105.638 L 118.487 111.412 M 107.652 104.869 L 118.804 110.926 M 107.781 104.065 L 119.132 110.424 M 107.915 103.226 L 119.471 109.905 M 108.055 102.347 L 119.822 109.369 M 108.203 101.426 L 120.185 108.814 M 108.357 100.459 L 120.56 108.239 M 120.507 107.35 L 108.519 99.4428 M 120.169 106.213 L 108.69 98.3728 M 119.803 104.984 L 108.871 97.2444 M 119.406 103.65 L 109.061 96.0521 M 118.974 102.197 L 109.263 94.79 M 118.501 100.607 L 109.477 93.4514 M 117.982 98.8607 L 109.704 92.0285 M 117.408 96.9316 L 109.946 90.5128 M 116.771 94.7894 L 110.205 88.8943 M 116.059 92.3959 L 110.482 87.1616 M 115.257 89.7031 L 110.779 85.3014 M 114.349 86.6501 L 111.099 83.2987 M 113.311 83.1584 L 111.444 81.1357 M 112.111 79.1246 L 111.819 78.7914" stroke="black" stroke-width="1" fill="none"></path><path d="M 120.672 107.904 L 120.731 107.901 M 120.32 106.722 L 120.992 106.692 M 119.97 105.543 L 121.253 105.489 M 119.62 104.366 L 121.512 104.293 M 119.27 103.191 L 121.77 103.103 M 118.92 102.016 L 122.026 101.919 M 118.571 100.842 L 122.282 100.74 M 118.222 99.6687 L 122.536 99.5652 M 117.873 98.4951 L 122.789 98.395 M 117.524 97.3212 L 123.042 97.2287 M 117.174 96.1464 L 123.294 96.0659 M 116.824 94.9706 L 123.545 94.9064 M 116.474 93.7931 L 123.796 93.7496 M 116.123 92.6138 L 124.046 92.5952 M 115.772 91.4323 L 124.295 91.4428 M 115.42 90.248 L 124.545 90.2921 M 115.066 89.0607 L 124.794 89.1427 M 114.712 87.87 L 125.042 87.9943 M 114.357 86.6754 L 125.291 86.8464 M 114 85.4766 L 125.539 85.6987 M 113.642 84.2732 L 125.788 84.5509 M 113.283 83.0648 L 126.037 83.4025 M 112.922 81.8509 L 126.286 82.2533 M 112.559 80.6311 L 126.535 81.1028 M 112.194 79.4049 L 126.784 79.9507 M 113.353 78.2347 L 127.034 78.7966 M 122.245 77.4146 L 127.285 77.6401" stroke="black" stroke-width="1" fill="none"></path><path d="M 121.699 107.17 L 120.876 107.229 M 122.998 106.063 L 121.1 106.193 M 124.276 104.974 L 121.323 105.164 M 125.535 103.901 L 121.544 104.143 M 126.775 102.844 L 121.764 103.129 M 127.998 101.802 L 121.982 102.122 M 129.203 100.774 L 122.199 101.122 M 130.392 99.7606 L 122.414 100.127 M 131.566 98.7603 L 122.629 99.1376 M 132.725 97.7728 L 122.842 98.1537 M 133.869 96.7973 L 123.054 97.1746 M 123.265 96.2002 L 133.804 95.8709 M 123.475 95.2299 L 133.495 94.9533 M 123.684 94.2636 L 133.187 94.0357 M 123.893 93.3008 L 132.878 93.1178 M 124.101 92.3413 L 132.569 92.1993 M 124.308 91.3846 L 132.26 91.28 M 124.515 90.4306 L 131.951 90.3595 M 124.721 89.4788 L 131.641 89.4376 M 124.926 88.5291 L 131.33 88.514 M 125.132 87.581 L 131.019 87.5883 M 125.337 86.6343 L 130.707 86.6602 M 125.542 85.6886 L 130.394 85.7295 M 125.746 84.7437 L 130.08 84.7959 M 125.951 83.7993 L 129.765 83.859 M 126.155 82.8551 L 129.449 82.9185 M 126.36 81.9107 L 129.132 81.9741 M 126.565 80.9659 L 128.813 81.0255 M 126.769 80.0204 L 128.492 80.0723 M 126.974 79.0738 L 128.17 79.1142 M 127.18 78.126 L 127.846 78.1509 M 127.385 77.1764 L 127.52 77.182" stroke="black" stroke-width="1" fill="none"></path><path d="M 141.094 194.566 L 141.398 194.534 M 139.957 193.699 L 140.797 193.616 M 138.819 192.833 L 140.199 192.701 M 137.681 191.965 L 139.602 191.789 M 136.541 191.096 L 139.008 190.88 M 135.399 190.226 L 138.415 189.974 M 134.256 189.354 L 137.824 189.07 M 133.109 188.481 L 137.234 188.168 M 131.96 187.605 L 136.645 187.267 M 130.808 186.727 L 136.057 186.368 M 129.652 185.846 L 135.469 185.471 M 128.492 184.962 L 134.883 184.574 M 127.328 184.075 L 134.296 183.677 M 126.159 183.184 L 133.71 182.781 M 124.984 182.289 L 133.124 181.885 M 123.804 181.389 L 132.538 180.989 M 122.618 180.486 L 131.951 180.092 M 121.426 179.577 L 131.364 179.194 M 120.227 178.663 L 130.776 178.295 M 119.02 177.743 L 130.187 177.394 M 117.806 176.818 L 129.597 176.492 M 116.583 175.886 L 129.005 175.588 M 115.352 174.948 L 128.412 174.682 M 114.111 174.002 L 127.818 173.773 M 112.861 173.049 L 127.221 172.861 M 111.601 172.089 L 126.622 171.945 M 110.33 171.12 L 126.022 171.027 M 109.047 170.143 L 125.418 170.104 M 107.753 169.156 L 124.812 169.177 M 106.446 168.16 L 124.203 168.246 M 105.126 167.155 L 123.591 167.31 M 103.793 166.138 L 122.975 166.369 M 102.445 165.111 L 122.356 165.423 M 101.083 164.073 L 121.733 164.47 M 99.7043 163.022 L 121.106 163.512 M 98.3096 161.959 L 120.474 162.546 M 96.8978 160.883 L 119.839 161.574 M 95.4681 159.794 L 119.198 160.595 M 94.0197 158.69 L 118.552 159.608 M 92.5518 157.571 L 117.901 158.612 M 91.0636 156.437 L 117.245 157.609 M 89.554 155.287 L 116.582 156.596 M 88.0222 154.119 L 115.913 155.573 M 86.4671 152.934 L 115.238 154.541 M 86.3953 151.82 L 114.556 153.499 M 87.4455 150.771 L 113.867 152.446 M 88.4941 149.724 L 113.171 151.381 M 89.5415 148.678 L 112.467 150.304 M 90.5879 147.632 L 111.754 149.215 M 91.6337 146.588 L 111.033 148.113 M 92.6793 145.543 L 110.304 146.998 M 93.7249 144.499 L 109.565 145.868 M 94.7709 143.454 L 108.816 144.723 M 95.8177 142.408 L 108.057 143.563 M 96.8655 141.361 L 107.287 142.386 M 97.9148 140.313 L 106.507 141.193 M 98.9657 139.263 L 105.715 139.982 M 100.019 138.212 L 104.91 138.752 M 101.074 137.157 L 104.094 137.504 M 102.132 136.1 L 103.264 136.235" stroke="black" stroke-width="1" fill="none"></path><path d="M 149.739 130.944 L 150.351 130.909 M 148.152 129.691 L 149.732 129.607 M 146.559 128.433 L 149.114 128.306 M 144.958 127.169 L 148.496 127.007 M 143.35 125.899 L 147.879 125.708 M 141.734 124.623 L 147.262 124.41 M 140.109 123.34 L 146.645 123.112 M 138.474 122.049 L 146.027 121.813 M 136.83 120.75 L 145.41 120.513 M 135.175 119.443 L 144.791 119.212 M 133.508 118.127 L 144.172 117.91 M 131.83 116.802 L 143.552 116.605 M 130.139 115.466 L 142.931 115.298 M 128.435 114.12 L 142.308 113.988 M 126.716 112.764 L 141.684 112.674 M 124.983 111.395 L 141.058 111.357 M 123.235 110.014 L 140.43 110.036 M 121.47 108.621 L 139.8 108.709 M 121.628 107.23 L 139.167 107.378 M 123.239 105.857 L 138.532 106.041 M 124.838 104.494 L 137.893 104.698 M 126.426 103.141 L 137.252 103.349 M 128.004 101.796 L 136.607 101.993 M 129.572 100.46 L 135.959 100.629 M 131.131 99.1312 L 135.307 99.2569 M 132.681 97.8101 L 134.651 97.8766" stroke="black" stroke-width="1" fill="none"></path><path d="M 152.496 132.895 L 153.041 128.997 M 148.374 126.751 L 149.174 122.403 M 145.004 119.66 L 145.721 116.516 M 142.028 113.398 L 142.619 111.227 M 139.379 107.825 L 139.816 106.447 M 137.007 102.833 L 137.27 102.106 M 134.868 98.3341 L 134.946 98.1436" stroke="black" stroke-width="1" fill="none"></path><path d="M 127.663 76.5717 L 126.785 76.4673 M 128.037 75.9654 L 125.682 75.6753 M 128.414 75.3556 L 124.55 74.8631 M 128.793 74.7418 L 123.39 74.0297 M 129.175 74.124 L 122.197 73.1739 M 129.559 73.5019 L 120.973 72.2945 M 129.947 72.8753 L 119.713 71.3903 M 130.337 72.2438 L 118.417 70.4598 M 130.73 71.6072 L 117.082 69.5017 M 131.127 70.9653 L 115.707 68.5143 M 131.527 70.3178 L 114.289 67.496 M 131.931 69.6644 L 112.825 66.4449 M 132.338 69.0048 L 111.312 65.3592 M 132.75 68.3387 L 109.748 64.2366 M 133.166 67.6658 L 108.13 63.0749 M 133.586 66.9859 L 106.454 61.8717 M 134.011 66.2984 L 104.717 60.6242 M 134.44 65.6032 L 102.913 59.3296 M 134.875 64.8998 L 101.04 57.9847 M 135.315 64.1879 L 99.0917 56.586 M 135.76 63.4671 L 97.0635 55.1299 M 136.212 62.737 L 94.9494 53.6122 M 136.669 61.9972 L 94.6875 52.4696 M 137.132 61.2472 L 96.1258 51.698 M 137.602 60.4867 L 97.5713 50.9225 M 138.079 59.715 L 99.0244 50.1429 M 138.563 58.9317 L 100.486 49.359 M 139.055 58.1364 L 101.956 48.5703 M 139.554 57.3284 L 103.435 47.7767 M 140.061 56.5072 L 104.924 46.9778 M 140.577 55.6723 L 106.424 46.1733 M 141.102 54.8229 L 107.934 45.3629 M 141.636 53.9584 L 109.457 44.5463 M 142.18 53.0782 L 110.991 43.7232 M 142.734 52.1815 L 112.538 42.8931 M 143.299 51.2676 L 114.099 42.0558 M 143.875 50.3357 L 115.674 41.2108 M 144.463 49.3849 L 117.264 40.3579 M 145.062 48.4143 L 118.87 39.4966 M 145.675 47.423 L 120.491 38.6265 M 146.301 46.41 L 122.13 37.7472 M 146.941 45.3743 L 123.787 36.8583 M 147.596 44.3147 L 125.463 35.9592 M 148.266 43.23 L 127.159 35.0497 M 148.952 42.1191 L 128.875 34.1291 M 149.656 40.9805 L 130.612 33.1971 M 150.378 39.8129 L 132.372 32.253 M 151.118 38.6147 L 134.155 31.2963 M 151.878 37.3843 L 135.963 30.3265 M 152.66 36.12 L 137.796 29.3429 M 153.463 34.82 L 139.656 28.3451 M 154.29 33.4823 L 141.544 27.3322 M 155.141 32.1048 L 143.461 26.3038 M 156.018 30.6852 L 145.409 25.2589 M 156.923 29.2211 L 147.388 24.1971 M 157.857 27.71 L 149.401 23.1174 M 158.821 26.1489 L 151.448 22.019 M 159.819 24.5348 L 153.532 20.9012 M 160.851 22.8646 L 155.654 19.763 M 161.92 21.1345 L 157.815 18.6035 M 163.028 19.3408 L 160.018 17.4217 M 164.179 17.4794 L 162.264 16.2166 M 165.374 15.5455 L 164.556 14.9871" stroke="black" stroke-width="1" fill="none"></path><path d="M 155.365 134.789 L 157.928 134.202 M 152.862 133.137 L 159.07 131.753 M 151.046 131.35 L 160.183 129.366 M 153.037 128.779 L 161.268 127.037 M 154.971 126.281 L 162.327 124.765 M 156.852 123.853 L 163.361 122.546 M 158.681 121.49 L 164.372 120.379 M 160.462 119.19 L 165.36 118.259 M 162.196 116.95 L 166.326 116.186 M 163.888 114.766 L 167.272 114.157 M 165.537 112.636 L 168.198 112.17 M 167.147 110.556 L 169.106 110.223 M 168.719 108.526 L 169.996 108.315 M 170.256 106.541 L 170.868 106.443" stroke="black" stroke-width="1" fill="none"></path><path d="M 157.098 136.011 L 157.163 136.044 M 156.631 137.809 L 158.443 138.754 M 156.145 139.677 L 159.81 141.647 M 155.639 141.622 L 161.273 144.744 M 155.112 143.648 L 162.844 148.068 M 154.563 145.761 L 164.534 151.646 M 153.989 147.968 L 166.36 155.51 M 153.389 150.277 L 168.338 159.697 M 152.76 152.694 L 170.489 164.25 M 152.101 155.229 L 172.838 169.222 M 151.408 157.891 L 175.414 174.675 M 150.68 160.691 L 178.253 180.684 M 176.088 183.344 L 149.913 163.641 M 172.065 184.717 L 149.103 166.754 M 167.983 186.109 L 148.247 170.046 M 163.839 187.523 L 147.341 173.533 M 159.631 188.958 L 146.378 177.235 M 155.356 190.416 L 145.354 181.172 M 151.011 191.898 L 144.262 185.371 M 146.593 193.405 L 143.095 189.859 M 142.098 194.939 L 141.844 194.668" stroke="black" stroke-width="1" fill="none"></path><path d="M 185.515 148.868 L 187.326 149.841 M 171.983 142.71 L 187.019 151.043 M 161.947 138.143 L 186.7 152.295 M 157.373 136.49 L 186.367 153.601 M 158.046 137.913 L 186.018 154.966 M 158.774 139.455 L 185.654 156.393 M 159.566 141.132 L 185.273 157.888 M 160.432 142.963 L 184.873 159.456 M 161.38 144.971 L 184.453 161.103 M 162.426 147.184 L 184.011 162.835 M 163.584 149.635 L 183.545 164.661 M 164.875 152.367 L 183.053 166.588 M 166.322 155.432 L 182.533 168.626 M 167.958 158.894 L 181.982 170.785 M 169.822 162.839 L 181.398 173.078 M 171.966 167.377 L 180.775 175.518 M 174.459 172.653 L 180.111 178.12 M 177.394 178.867 L 179.402 180.902" stroke="black" stroke-width="1" fill="none"></path><path d="M 173.331 109.444 L 185.318 119.607 M 193.44 131.534 L 175.498 115.664 M 192.048 135.696 L 177.933 122.652 M 190.569 140.116 L 180.689 130.561 M 188.994 144.822 L 183.835 139.591" stroke="black" stroke-width="1" fill="none"></path><path d="M 192.67 127.642 L 194.592 127.296 M 191.026 125.845 L 195.027 125.145 M 189.394 124.062 L 195.454 123.031 M 187.773 122.291 L 195.874 120.953 M 186.164 120.533 L 196.287 118.909 M 184.566 118.786 L 196.693 116.898 M 182.977 117.05 L 197.093 114.917 M 181.398 115.324 L 197.488 112.967 M 179.828 113.608 L 197.876 111.045 M 178.266 111.901 L 198.259 109.151 M 176.711 110.203 L 198.636 107.283 M 175.164 108.512 L 199.008 105.441 M 173.623 106.828 L 199.376 103.622 M 172.089 105.151 L 199.739 101.826 M 174.114 103.067 L 200.097 100.052 M 177.366 100.882 L 200.451 98.2998 M 180.539 98.7503 L 200.801 96.5673 M 183.637 96.6691 L 201.148 94.8541 M 186.663 94.6362 L 201.49 93.1594 M 189.62 92.6492 L 201.829 91.4822 M 192.512 90.7061 L 202.164 89.8219 M 195.342 88.8047 L 202.497 88.1775 M 198.113 86.9432 L 202.826 86.5485 M 200.827 85.1197 L 203.152 84.934" stroke="black" stroke-width="1" fill="none"></path><path d="M 202.484 88.2432 L 204.6 88.2432 M 202.384 88.7368 L 204.715 88.7452 M 202.284 89.2299 L 204.83 89.2482 M 202.185 89.7226 L 204.946 89.7524 M 202.085 90.215 L 205.062 90.2578 M 201.986 90.7073 L 205.179 90.7648 M 201.886 91.1997 L 205.295 91.2734 M 201.787 91.6923 L 205.413 91.7838 M 201.687 92.1853 L 205.53 92.2963 M 201.587 92.6789 L 205.648 92.8109 M 201.487 93.1731 L 205.767 93.3278 M 201.387 93.6682 L 205.886 93.8473 M 201.287 94.1643 L 206.006 94.3694 M 201.187 94.6615 L 206.127 94.8945 M 201.086 95.1601 L 206.248 95.4227 M 200.985 95.6602 L 206.37 95.9541 M 200.883 96.1619 L 206.493 96.4891 M 200.782 96.6655 L 206.616 97.0277 M 200.679 97.1711 L 206.741 97.5702 M 200.577 97.6788 L 206.866 98.1169 M 200.474 98.1889 L 206.993 98.6679 M 200.37 98.7016 L 207.121 99.2234 M 200.266 99.2169 L 207.249 99.7838 M 200.161 99.7352 L 207.379 100.349 M 200.056 100.256 L 207.51 100.92 M 199.95 100.781 L 207.642 101.496 M 199.843 101.309 L 207.776 102.078 M 199.736 101.841 L 207.911 102.667 M 199.628 102.377 L 208.048 103.261 M 199.518 102.916 L 208.186 103.862 M 199.409 103.46 L 208.325 104.471 M 199.298 104.009 L 208.467 105.086 M 199.186 104.563 L 208.61 105.709 M 199.073 105.121 L 208.755 106.341 M 198.959 105.685 L 208.901 106.98 M 198.844 106.254 L 209.05 107.628 M 198.728 106.829 L 209.201 108.286 M 198.61 107.41 L 209.354 108.953 M 198.492 107.998 L 209.51 109.629 M 198.372 108.592 L 209.667 110.317 M 198.25 109.193 L 209.828 111.015 M 198.127 109.801 L 209.99 111.724 M 198.003 110.417 L 210.156 112.445 M 197.877 111.041 L 210.324 113.179 M 197.749 111.674 L 210.496 113.925 M 197.619 112.315 L 210.67 114.685 M 197.488 112.964 L 210.848 115.459 M 197.355 113.624 L 211.029 116.248 M 211.186 117.047 L 197.22 114.293 M 210.339 117.657 L 197.082 114.973 M 209.486 118.272 L 196.943 115.663 M 208.629 118.89 L 196.801 116.365 M 207.765 119.513 L 196.657 117.078 M 206.895 120.14 L 196.51 117.804 M 206.018 120.772 L 196.361 118.543 M 205.135 121.409 L 196.209 119.295 M 204.244 122.051 L 196.054 120.061 M 203.346 122.698 L 195.896 120.842 M 202.44 123.351 L 195.735 121.638 M 201.525 124.011 L 195.571 122.45 M 200.601 124.677 L 195.404 123.279 M 199.668 125.349 L 195.233 124.126 M 198.726 126.029 L 195.058 124.992 M 197.773 126.715 L 194.879 125.876 M 196.809 127.41 L 194.696 126.781 M 195.835 128.112 L 194.509 127.708 M 194.849 128.823 L 194.317 128.657 M 203.424 83.5909 L 203.531 83.5873 M 203.321 84.0975 L 203.646 84.0878 M 203.219 84.602 L 203.76 84.5878 M 203.118 85.1046 L 203.875 85.0874 M 203.016 85.6055 L 203.99 85.5869 M 202.916 86.1048 L 204.104 86.0863 M 202.815 86.6026 L 204.219 86.5859 M 202.715 87.0993 L 204.334 87.0858 M 202.615 87.5948 L 204.449 87.5862 M 202.515 88.0894 L 204.564 88.0871" stroke="black" stroke-width="1" fill="none"></path><path d="M 211.145 162.33 L 215.308 166.764 M 197.63 155.157 L 210.01 169.039 M 187.111 150.683 L 204.59 171.366 M 185.54 156.841 L 199.042 173.748 M 183.834 163.527 L 193.36 176.188 M 181.975 170.814 L 187.538 178.688 M 179.94 178.79 L 181.567 181.252" stroke="black" stroke-width="1" fill="none"></path><path d="M 224.944 182.439 L 224.397 183.247 M 223.629 179.444 L 220.933 183.178 M 222.408 176.664 L 217.457 183.108 M 221.271 174.073 L 213.968 183.038 M 220.209 171.654 L 210.465 182.968 M 219.214 169.388 L 206.947 182.898 M 218.28 167.261 L 203.412 182.827 M 216.339 166.321 L 199.86 182.756 M 211.127 168.559 L 196.288 182.684 M 205.467 170.989 L 192.696 182.613 M 199.294 173.64 L 189.083 182.54 M 192.534 176.543 L 185.446 182.467 M 185.096 179.736 L 181.786 182.394" stroke="black" stroke-width="1" fill="none"></path><path d="M 233.597 144.337 L 217.183 162.414 M 216.494 157.18 L 232.804 140.106 M 215.858 152.35 L 230.55 137.698 M 215.27 147.878 L 228.389 135.389 M 214.723 143.723 L 226.315 133.172 M 214.213 139.852 L 224.321 131.041 M 213.737 136.235 L 222.403 128.992 M 213.291 132.848 L 220.555 127.017 M 212.873 129.669 L 218.774 125.114 M 212.479 126.677 L 217.054 123.277 M 212.107 123.855 L 215.394 121.502 M 211.756 121.19 L 213.788 119.787 M 211.424 118.667 L 212.235 118.127" stroke="black" stroke-width="1" fill="none"></path><path d="M 243.484 187.573 L 243.497 187.573 M 242.431 187.323 L 243.244 187.359 M 241.332 187.062 L 242.987 187.143 M 240.184 186.79 L 242.726 186.923 M 238.984 186.506 L 242.462 186.7 M 237.726 186.208 L 242.194 186.474 M 236.408 185.896 L 241.922 186.245 M 235.023 185.568 L 241.646 186.012 M 233.567 185.222 L 241.365 185.776 M 232.032 184.859 L 241.08 185.535 M 230.412 184.475 L 240.79 185.291 M 228.699 184.069 L 240.495 185.043 M 226.884 183.639 L 240.195 184.79 M 225.283 183.212 L 239.889 184.532 M 225.15 182.909 L 239.578 184.27 M 225.015 182.601 L 239.26 184.002 M 224.879 182.29 L 238.937 183.73 M 224.74 181.975 L 238.607 183.452 M 224.6 181.656 L 238.27 183.168 M 224.458 181.333 L 237.926 182.878 M 224.314 181.004 L 237.574 182.581 M 224.168 180.672 L 237.215 182.279 M 224.02 180.334 L 236.847 181.969 M 223.869 179.991 L 236.471 181.652 M 223.716 179.642 L 236.086 181.327 M 223.561 179.288 L 235.691 180.994 M 223.403 178.928 L 235.286 180.653 M 223.242 178.562 L 234.87 180.302 M 223.078 178.189 L 234.443 179.943 M 222.912 177.81 L 234.005 179.573 M 222.742 177.423 L 233.554 179.193 M 222.569 177.03 L 233.09 178.802 M 222.393 176.628 L 232.613 178.4 M 222.213 176.218 L 232.121 177.985 M 222.029 175.8 L 231.613 177.558 M 221.842 175.373 L 231.09 177.116 M 221.65 174.937 L 230.549 176.66 M 221.454 174.491 L 229.99 176.189 M 221.254 174.034 L 229.411 175.702 M 221.049 173.567 L 228.812 175.197 M 220.839 173.089 L 228.191 174.673 M 220.624 172.599 L 227.546 174.13 M 220.403 172.096 L 226.876 173.565 M 220.177 171.581 L 226.18 172.979 M 219.944 171.051 L 225.455 172.368 M 219.705 170.507 L 224.7 171.731 M 219.46 169.948 L 223.912 171.067 M 219.207 169.373 L 223.089 170.373 M 218.947 168.78 L 222.228 169.648 M 218.679 168.17 L 221.325 168.887 M 218.403 167.54 L 220.379 168.09 M 218.117 166.891 L 219.385 167.252 M 217.823 166.22 L 218.339 166.371" stroke="black" stroke-width="1" fill="none"></path><path d="M 235.343 141.678 L 234.407 141.819 M 236.169 139.805 L 232.962 140.275 M 236.98 137.964 L 231.524 138.738 M 237.778 136.153 L 230.094 137.21 M 238.563 134.372 L 228.671 135.689 M 239.336 132.619 L 227.253 134.175 M 240.097 130.892 L 225.842 132.667 M 240.847 129.191 L 224.436 131.164 M 241.585 127.515 L 223.035 129.667 M 242.314 125.862 L 221.638 128.175 M 243.032 124.232 L 220.246 126.687 M 243.742 122.623 L 218.856 125.202 M 244.442 121.034 L 217.47 123.721 M 245.133 119.466 L 216.086 122.242 M 245.816 117.916 L 214.705 120.766 M 246.491 116.385 L 213.325 119.292 M 247.158 114.87 L 211.947 117.819 M 247.819 113.372 L 213.979 116.074 M 248.472 111.89 L 219.788 114.07 M 249.118 110.423 L 225.396 112.135 M 249.759 108.97 L 230.813 110.265 M 250.393 107.531 L 236.053 108.457 M 251.021 106.105 L 241.124 106.707 M 251.644 104.692 L 246.037 105.012 M 252.262 103.29 L 250.8 103.368" stroke="black" stroke-width="1" fill="none"></path><path d="M 257.903 182.405 L 257.07 181.667 M 254.606 183.589 L 252.761 181.884 M 251.251 184.794 L 248.466 182.1 M 247.836 186.02 L 244.183 182.316 M 244.359 187.269 L 239.911 182.531 M 239.007 186.512 L 235.648 182.745 M 233.241 185.145 L 231.394 182.959 M 227.666 183.824 L 227.146 183.173" stroke="black" stroke-width="1" fill="none"></path><path d="M 260.789 180.646 L 244.973 186.215 M 262.127 177.5 L 249.832 181.719 M 263.414 174.474 L 254.405 177.487 M 264.653 171.56 L 258.719 173.495 M 265.847 168.752 L 262.797 169.722 M 266.999 166.043 L 266.658 166.149" stroke="black" stroke-width="1" fill="none"></path><path d="M 235.457 141.421 L 237.611 140.622 M 236.27 139.575 L 242.108 137.465 M 237.051 137.804 L 246.231 134.572 M 237.8 136.104 L 250.027 131.908 M 238.52 134.469 L 253.533 129.447 M 239.214 132.896 L 256.783 127.166 M 239.882 131.38 L 259.804 125.045 M 240.526 129.918 L 262.622 123.068 M 241.148 128.507 L 265.256 121.219 M 241.749 127.143 L 267.724 119.486 M 242.33 125.825 L 270.044 117.858 M 242.893 124.549 L 272.227 116.326 M 243.438 123.312 L 274.288 114.88 M 243.966 122.114 L 276.235 113.513 M 276.328 112.673 L 244.478 120.951 M 275.137 112.179 L 244.976 119.822 M 273.948 111.687 L 245.46 118.724 M 272.764 111.195 L 245.93 117.658 M 271.582 110.705 L 246.388 116.619 M 270.402 110.216 L 246.833 115.608 M 269.225 109.728 L 247.267 114.623 M 268.049 109.241 L 247.691 113.663 M 266.875 108.754 L 248.104 112.726 M 265.702 108.267 L 248.507 111.811 M 264.529 107.781 L 248.901 110.917 M 263.357 107.295 L 249.286 110.044 M 262.185 106.809 L 249.662 109.19 M 261.012 106.323 L 250.03 108.354 M 259.838 105.836 L 250.391 107.536 M 258.663 105.349 L 250.744 106.734 M 257.487 104.861 L 251.091 105.949 M 256.308 104.373 L 251.43 105.178 M 255.127 103.883 L 251.763 104.423 M 253.944 103.392 L 252.09 103.681 M 252.757 102.9 L 252.411 102.952" stroke="black" stroke-width="1" fill="none"></path><path d="M 275.6 112.371 L 277.057 112.617 M 268.562 109.453 L 277.228 110.956 M 261.118 106.367 L 277.401 109.271 M 253.229 103.096 L 277.577 107.561 M 253.282 101.212 L 277.756 105.825 M 254.169 99.4578 L 277.937 104.062 M 255.068 97.6825 L 278.121 102.27 M 255.978 95.8847 L 278.309 100.449 M 256.9 94.0633 L 278.499 98.5961 M 257.835 92.2173 L 278.693 96.7112 M 258.783 90.3456 L 278.891 94.7924 M 259.744 88.447 L 279.092 92.838 M 260.719 86.5204 L 279.297 90.8466 M 261.709 84.5645 L 279.505 88.8163 M 262.715 82.5779 L 279.718 86.7454 M 263.737 80.5594 L 279.936 84.6319 M 264.776 78.5075 L 280.158 82.4739 M 265.832 76.4207 L 280.385 80.2691 M 266.907 74.2974 L 280.616 78.0155 M 268.001 72.1359 L 280.854 75.7104 M 269.116 69.9345 L 281.096 73.3515 M 270.251 67.6915 L 281.345 70.9361 M 271.409 65.4048 L 281.599 68.4613 M 272.59 63.0723 L 281.86 65.924 M 273.795 60.6921 L 282.128 63.321 M 275.025 58.2618 L 282.403 60.649 M 276.282 55.779 L 282.685 57.9042 M 277.567 53.2412 L 282.976 55.0827 M 278.881 50.6457 L 283.274 52.1803 M 280.226 47.9897 L 283.582 49.1925 M 281.602 45.2701 L 283.898 46.1145 M 283.013 42.4838 L 284.225 42.9412 M 284.459 39.6274 L 284.561 39.667" stroke="black" stroke-width="1" fill="none"></path><path d="M 288.507 21.4524 L 282.541 29.0595 M 285.606 34.7268 L 275.049 47.4366 M 278.452 51.4921 L 269.006 62.2606 M 270.198 67.7968 L 264.026 74.4746 M 263.572 80.8857 L 259.851 84.715 M 258.133 91.6279 L 256.3 93.4271 M 253.588 100.605 L 253.24 100.931" stroke="black" stroke-width="1" fill="none"></path><path d="M 298.452 197.685 L 298.665 197.599 M 295.395 196.384 L 296.888 195.801 M 292.367 195.094 L 295.145 194.037 M 289.364 193.816 L 293.436 192.307 M 286.387 192.549 L 291.758 190.609 M 283.434 191.292 L 290.111 188.941 M 280.504 190.045 L 288.493 187.303 M 277.595 188.807 L 286.902 185.693 M 274.707 187.577 L 285.338 184.11 M 271.838 186.356 L 283.799 182.553 M 268.987 185.142 L 282.284 181.02 M 266.153 183.936 L 280.793 179.51 M 263.336 182.736 L 279.324 178.023 M 260.533 181.543 L 277.876 176.558 M 261.341 179.348 L 276.449 175.113 M 262.263 177.181 L 275.041 173.688 M 263.156 175.08 L 273.652 172.282 M 264.024 173.041 L 272.281 170.895 M 264.866 171.06 L 270.927 169.524 M 265.685 169.135 L 269.589 168.17 M 266.481 167.262 L 268.267 166.832" stroke="black" stroke-width="1" fill="none"></path><path d="M 267.425 164.209 L 271.683 161.16 M 268.154 160.313 L 282.297 150.546 M 268.834 156.686 L 290.809 142.034 M 269.468 153.3 L 297.788 135.055 M 270.061 150.13 L 303.616 129.227 M 270.618 147.156 L 308.558 124.285 M 307.034 123.407 L 271.142 144.358 M 305.167 122.757 L 271.636 141.722 M 303.32 122.114 L 272.102 139.233 M 301.493 121.478 L 272.543 136.877 M 299.685 120.849 L 272.961 134.644 M 297.895 120.226 L 273.358 132.524 M 296.122 119.609 L 273.736 130.508 M 294.366 118.998 L 274.095 128.588 M 292.625 118.392 L 274.438 126.756 M 290.898 117.791 L 274.766 125.007 M 289.186 117.195 L 275.079 123.333 M 287.488 116.604 L 275.379 121.73 M 285.802 116.017 L 275.667 120.193 M 284.128 115.434 L 275.944 118.718 M 282.465 114.855 L 276.209 117.3 M 280.813 114.28 L 276.465 115.935 M 279.171 113.709 L 276.711 114.621 M 277.539 113.141 L 276.948 113.355" stroke="black" stroke-width="1" fill="none"></path><path d="M 308.788 124.232 L 308.862 124.263 M 308.361 127.439 L 309.589 127.978 M 307.918 130.762 L 310.348 131.859 M 307.458 134.209 L 311.142 135.92 M 306.981 137.788 L 311.975 140.174 M 306.485 141.508 L 312.848 144.637 M 305.969 145.379 L 313.765 149.327 M 305.431 149.412 L 314.731 154.262 M 304.87 153.618 L 315.749 159.465 M 304.285 158.01 L 316.824 164.959 M 303.672 162.602 L 317.961 170.772 M 317.721 176.08 L 303.031 167.41 M 314.486 179.844 L 302.359 172.451 M 311.148 183.728 L 301.653 177.744" stroke="black" stroke-width="1" fill="none"></path><path d="M 318.874 175.03 L 318.628 175.025 M 319.164 175.448 L 318.281 175.428 M 319.456 175.868 L 317.936 175.83 M 319.75 176.293 L 317.592 176.23 M 320.046 176.72 L 317.249 176.629 M 320.344 177.151 L 316.908 177.026 M 320.646 177.585 L 316.567 177.423 M 320.949 178.023 L 316.227 177.818 M 321.256 178.465 L 315.888 178.212 M 321.565 178.912 L 315.55 178.606 M 321.878 179.363 L 315.212 178.999 M 322.193 179.818 L 314.875 179.391 M 322.512 180.278 L 314.538 179.783 M 322.835 180.743 L 314.202 180.175 M 323.161 181.214 L 313.865 180.567 M 323.491 181.69 L 313.528 180.958 M 323.825 182.172 L 313.192 181.35 M 324.163 182.66 L 312.855 181.742 M 324.506 183.154 L 312.518 182.134 M 324.853 183.655 L 312.18 182.527 M 311.842 182.92 L 324.988 184.143 M 311.503 183.314 L 324.221 184.548 M 311.164 183.709 L 323.458 184.951 M 310.824 184.105 L 322.699 185.353 M 310.482 184.503 L 321.941 185.753 M 310.14 184.901 L 321.187 186.152 M 309.797 185.301 L 320.434 186.55 M 309.452 185.702 L 319.684 186.947 M 309.105 186.105 L 318.935 187.343 M 308.758 186.509 L 318.188 187.738 M 308.408 186.916 L 317.442 188.133 M 308.057 187.325 L 316.697 188.526 M 307.704 187.736 L 315.953 188.92 M 307.349 188.149 L 315.21 189.313 M 306.991 188.565 L 314.467 189.706 M 306.632 188.983 L 313.724 190.099 M 306.269 189.405 L 312.98 190.492 M 305.905 189.829 L 312.237 190.885 M 305.537 190.256 L 311.493 191.279 M 305.167 190.687 L 310.747 191.673 M 304.794 191.122 L 310.001 192.068 M 304.417 191.56 L 309.254 192.463 M 304.037 192.002 L 308.505 192.859 M 303.654 192.448 L 307.754 193.256 M 303.267 192.898 L 307.001 193.654 M 302.876 193.353 L 306.245 194.054 M 302.481 193.813 L 305.487 194.454 M 302.082 194.277 L 304.727 194.857 M 301.678 194.747 L 303.963 195.261 M 301.27 195.222 L 303.196 195.666 M 300.857 195.702 L 302.425 196.074 M 300.439 196.189 L 301.651 196.483 M 300.015 196.682 L 300.872 196.895 M 299.586 197.181 L 300.089 197.309 M 299.152 197.687 L 299.301 197.726" stroke="black" stroke-width="1" fill="none"></path><path d="M 329.579 150.533 L 327.406 144.251 M 326.37 157.753 L 319.808 135.985 M 322.763 165.868 L 313.242 128.842" stroke="black" stroke-width="1" fill="none"></path><path d="M 320.425 177.267 L 321.035 177.605 M 326.146 185.165 L 328.366 186.434 M 336.078 195.999 L 336.528 196.264" stroke="black" stroke-width="1" fill="none"></path><path d="M 329.99 147.061 L 331.093 146.933 M 328.753 145.716 L 331.639 145.393 M 327.521 144.375 L 332.178 143.873 M 326.291 143.038 L 332.71 142.372 M 325.065 141.703 L 333.236 140.889 M 323.84 140.371 L 333.755 139.424 M 322.618 139.042 L 334.269 137.975 M 321.398 137.714 L 334.777 136.541 M 320.178 136.388 L 335.28 135.123 M 318.96 135.062 L 335.777 133.719 M 317.742 133.737 L 336.27 132.329 M 316.524 132.412 L 336.758 130.953 M 315.306 131.087 L 337.242 129.588 M 314.087 129.761 L 337.722 128.236 M 312.867 128.434 L 338.197 126.895 M 311.646 127.106 L 338.669 125.565 M 310.423 125.775 L 339.137 124.245 M 309.197 124.442 L 339.601 122.934 M 310.622 122.984 L 340.062 121.633 M 313.203 121.494 L 340.521 120.341 M 315.74 120.029 L 340.976 119.057 M 318.234 118.589 L 341.428 117.78 M 320.687 117.173 L 341.878 116.511 M 323.101 115.779 L 342.326 115.248 M 325.478 114.407 L 342.771 113.992 M 327.819 113.056 L 343.215 112.742 M 330.125 111.724 L 343.656 111.497 M 332.399 110.411 L 344.095 110.258 M 334.641 109.117 L 344.533 109.022 M 336.853 107.84 L 344.97 107.792 M 339.036 106.579 L 345.405 106.564 M 341.192 105.335 L 345.839 105.341 M 343.321 104.106 L 346.271 104.12 M 345.425 102.891 L 346.703 102.902" stroke="black" stroke-width="1" fill="none"></path><path d="M 331.244 146.507 L 331.577 146.536 M 331.741 145.106 L 332.411 145.166 M 332.24 143.697 L 333.246 143.792 M 332.742 142.28 L 334.086 142.412 M 333.248 140.855 L 334.928 141.027 M 333.756 139.421 L 335.774 139.636 M 334.268 137.977 L 336.625 138.238 M 334.783 136.524 L 337.479 136.833 M 335.302 135.059 L 338.338 135.42 M 335.825 133.584 L 339.202 134 M 336.353 132.097 L 340.071 132.571 M 336.884 130.597 L 340.946 131.133 M 337.421 129.085 L 341.827 129.685 M 337.962 127.558 L 342.713 128.227 M 338.508 126.018 L 343.607 126.758 M 339.059 124.462 L 344.507 125.277 M 339.617 122.891 L 345.415 123.785 M 340.18 121.303 L 346.33 122.28 M 340.749 119.697 L 347.254 120.762 M 341.324 118.074 L 348.185 119.23 M 341.907 116.431 L 349.126 117.683 M 342.496 114.769 L 350.076 116.121 M 343.093 113.086 L 351.036 114.543 M 343.697 111.382 L 352.006 112.948 M 344.309 109.654 L 352.987 111.335 M 344.93 107.904 L 353.979 109.704 M 353.843 107.821 L 345.559 106.128 M 350.941 105.322 L 346.198 104.327 M 347.935 102.733 L 346.846 102.499" stroke="black" stroke-width="1" fill="none"></path><path d="M 348.752 103.437 L 348.614 103.387 M 350.593 105.023 L 350.301 104.913 M 352.574 106.728 L 352.11 106.55 M 354.707 108.567 L 354.056 108.31 M 356.645 110.408 L 356.154 110.209 M 358.734 112.392 L 358.425 112.264 M 360.994 114.539 L 360.892 114.495" stroke="black" stroke-width="1" fill="none"></path><path d="M 368.402 70.0951 L 368.412 70.0954 M 368.036 70.6412 L 368.215 70.647 M 367.67 71.1863 L 368.018 71.1988 M 367.306 71.7305 L 367.821 71.751 M 366.941 72.2739 L 367.623 72.3036 M 366.577 72.8169 L 367.426 72.8569 M 366.213 73.3595 L 367.228 73.4111 M 365.85 73.9019 L 367.03 73.9664 M 365.486 74.4444 L 366.831 74.5228 M 365.122 74.987 L 366.632 75.0807 M 364.758 75.5299 L 366.432 75.6401 M 364.394 76.0733 L 366.232 76.2013 M 364.029 76.6174 L 366.031 76.7645 M 363.663 77.1624 L 365.829 77.3298 M 363.297 77.7084 L 365.626 77.8975 M 362.931 78.2556 L 365.423 78.4677 M 362.563 78.8042 L 365.218 79.0406 M 362.194 79.3544 L 365.012 79.6165 M 361.824 79.9063 L 364.806 80.1955 M 361.452 80.4602 L 364.598 80.7778 M 361.08 81.0161 L 364.389 81.3637 M 360.705 81.5744 L 364.178 81.9535 M 360.329 82.1352 L 363.966 82.5472 M 359.952 82.6986 L 363.753 83.1452 M 359.572 83.265 L 363.537 83.7476 M 359.19 83.8345 L 363.321 84.3548 M 358.806 84.4072 L 363.102 84.967 M 358.42 84.9835 L 362.882 85.5843 M 358.031 85.5635 L 362.659 86.2072 M 357.639 86.1475 L 362.435 86.8359 M 357.245 86.7356 L 362.208 87.4706 M 356.848 87.3282 L 361.979 88.1117 M 356.447 87.9254 L 361.748 88.7594 M 356.043 88.5275 L 361.514 89.4141 M 355.636 89.1348 L 361.278 90.0761 M 355.225 89.7475 L 361.039 90.7456 M 354.811 90.3659 L 360.797 91.4232 M 354.392 90.9902 L 360.552 92.1091 M 353.969 91.6209 L 360.304 92.8037 M 353.542 92.258 L 360.053 93.5074 M 353.11 92.902 L 359.798 94.2206 M 352.674 93.5532 L 359.54 94.9437 M 352.232 94.2119 L 359.278 95.6772 M 351.785 94.8784 L 359.012 96.4215 M 351.333 95.5532 L 358.743 97.1772 M 350.875 96.2365 L 358.469 97.9447 M 350.411 96.9288 L 358.19 98.7245 M 349.94 97.6305 L 357.907 99.5172 M 349.463 98.3419 L 357.619 100.323 M 348.979 99.0635 L 357.326 101.144 M 348.488 99.7959 L 357.028 101.979 M 347.99 100.539 L 356.725 102.829 M 347.484 101.294 L 356.415 103.696 M 347.242 102.137 L 356.1 104.579 M 348.85 103.521 L 355.778 105.48 M 350.539 104.976 L 355.45 106.4 M 352.317 106.507 L 355.115 107.339 M 354.191 108.121 L 354.772 108.298" stroke="black" stroke-width="1" fill="none"></path><path d="M 361.639 80.1816 L 358.91 80.1816 M 361.056 81.0507 L 358.441 81.0413 M 360.476 81.9159 L 357.974 81.8979 M 359.899 82.7775 L 357.509 82.7518 M 359.323 83.6359 L 357.044 83.6031 M 358.75 84.4912 L 356.582 84.4521 M 358.178 85.3437 L 356.12 85.2992 M 357.608 86.1938 L 355.659 86.1447 M 357.04 87.0418 L 355.199 86.9887 M 356.472 87.8878 L 354.739 87.8315 M 355.906 88.7323 L 354.28 88.6735 M 355.341 89.5754 L 353.822 89.5149 M 354.776 90.4174 L 353.363 90.3559 M 354.212 91.2586 L 352.905 91.1969 M 353.649 92.0992 L 352.446 92.0381 M 353.085 92.9396 L 351.987 92.8797 M 352.522 93.78 L 351.528 93.722 M 351.958 94.6206 L 351.068 94.5654 M 351.394 95.4617 L 350.608 95.41 M 350.83 96.3037 L 350.147 96.2561 M 350.265 97.1466 L 349.684 97.104 M 349.698 97.991 L 349.221 97.9541 M 349.131 98.8369 L 348.756 98.8064 M 348.563 99.6847 L 348.29 99.6615 M 347.993 100.535 L 347.823 100.519 M 347.421 101.387 L 347.353 101.381 M 376.938 47.3862 L 376.777 47.4067 M 376.503 48.5436 L 376.132 48.5892 M 376.075 49.6846 L 375.498 49.7532 M 375.652 50.8101 L 374.873 50.8994 M 375.235 51.9206 L 374.257 52.0286 M 374.824 53.0168 L 373.65 53.1415 M 374.417 54.0993 L 373.052 54.2389 M 374.016 55.1687 L 372.462 55.3213 M 373.619 56.2256 L 371.88 56.3894 M 373.226 57.2705 L 371.305 57.4439 M 372.838 58.304 L 370.737 58.4853 M 372.454 59.3265 L 370.176 59.5142 M 372.074 60.3385 L 369.622 60.5311 M 371.698 61.3406 L 369.074 61.5365 M 371.326 62.3332 L 368.532 62.531 M 370.956 63.3166 L 367.995 63.5151 M 370.59 64.2915 L 367.464 64.4892 M 370.227 65.2581 L 366.939 65.4537 M 369.867 66.2169 L 366.418 66.4092 M 369.51 67.1682 L 365.902 67.356 M 369.156 68.1126 L 365.39 68.2945 M 368.804 69.0502 L 364.883 69.2252 M 368.454 69.9816 L 364.379 70.1484 M 367.851 70.9165 L 363.88 71.0646 M 367.229 71.8447 L 363.384 71.974 M 366.612 72.7656 L 362.892 72.8771 M 365.999 73.6794 L 362.403 73.7742 M 365.391 74.5866 L 361.917 74.6656 M 364.786 75.4876 L 361.434 75.5517 M 364.186 76.3826 L 360.953 76.4328 M 363.59 77.2721 L 360.476 77.3092 M 362.997 78.1563 L 360 78.1812 M 362.408 79.0356 L 359.527 79.0492 M 361.821 79.9103 L 359.056 79.9134" stroke="black" stroke-width="1" fill="none"></path><path d="M 382.858 139.988 L 382.822 140.086 M 379.103 135.575 L 379.007 135.81 M 375.595 131.454 L 375.436 131.807 M 372.31 127.594 L 372.084 128.05 M 369.226 123.971 L 368.932 124.516 M 366.325 120.561 L 365.96 121.185 M 363.589 117.347 L 363.153 118.039 M 360.906 114.456 L 360.497 115.061 M 358.22 111.905 L 357.979 112.239 M 355.657 109.469 L 355.588 109.558" stroke="black" stroke-width="1" fill="none"></path><path d="M 368.478 69.9181 L 368.554 69.8822 M 369.009 68.5038 L 369.81 68.1351 M 369.513 67.1614 L 370.984 66.5034 M 369.992 65.8853 L 372.083 64.9755 M 370.448 64.6703 L 373.114 63.5413 M 370.883 63.5117 L 374.085 62.1921 M 371.298 62.4054 L 375 60.9203 M 371.696 61.3476 L 375.864 59.7188 M 372.076 60.3348 L 376.682 58.5817 M 372.44 59.3639 L 377.457 57.5037 M 372.79 58.4321 L 378.194 56.4799 M 373.126 57.5368 L 378.894 55.506 M 373.45 56.6756 L 379.561 54.5782 M 373.761 55.8464 L 380.198 53.693 M 374.061 55.0471 L 380.806 52.8473 M 374.351 54.2759 L 381.388 52.0382 M 374.63 53.5312 L 381.946 51.2632 M 374.901 52.8114 L 382.48 50.52 M 375.162 52.115 L 382.994 49.8063 M 375.415 51.4406 L 383.487 49.1203 M 375.661 50.7872 L 383.962 48.4602 M 375.899 50.1534 L 384.419 47.8243 M 376.13 49.5383 L 384.86 47.2112 M 376.354 48.9408 L 385.286 46.6194 M 376.572 48.36 L 385.697 46.0477 M 376.784 47.795 L 386.095 45.4949 M 376.991 47.2451 L 386.48 44.9599 M 377.192 46.7095 L 386.852 44.4417 M 378.115 46.0209 L 387.214 43.9394 M 379.443 45.2626 L 387.564 43.4521 M 380.702 44.5434 L 387.904 42.979 M 381.899 43.86 L 388.235 42.5193 M 383.037 43.2097 L 388.557 42.0723 M 384.122 42.59 L 388.869 41.6375 M 385.158 41.9985 L 389.174 41.214 M 386.147 41.4333 L 389.471 40.8015 M 387.095 40.8923 L 389.76 40.3993 M 388.002 40.374 L 390.042 40.007 M 388.873 39.8767 L 390.318 39.624 M 389.709 39.3991 L 390.587 39.2499 M 390.513 38.9399 L 390.85 38.8843" stroke="black" stroke-width="1" fill="none"></path><path d="M 362.536 116.109 L 366.65 116.228 M 363.044 116.706 L 371.926 116.995 M 363.557 117.309 L 377.571 117.816 M 364.076 117.918 L 383.625 118.696 M 364.599 118.533 L 390.136 119.643 M 365.128 119.154 L 397.163 120.665 M 400.307 121.544 L 365.662 119.782 M 399.815 122.252 L 366.202 120.417 M 399.324 122.959 L 366.749 121.06 M 398.832 123.667 L 367.302 121.71 M 398.34 124.374 L 367.862 122.368 M 397.848 125.083 L 368.429 123.034 M 397.355 125.792 L 369.004 123.709 M 396.862 126.502 L 369.586 124.393 M 396.368 127.213 L 370.176 125.087 M 395.872 127.926 L 370.775 125.791 M 395.376 128.64 L 371.383 126.505 M 394.878 129.357 L 372 127.23 M 394.379 130.075 L 372.627 127.966 M 393.878 130.796 L 373.263 128.714 M 393.375 131.52 L 373.911 129.475 M 392.87 132.246 L 374.569 130.248 M 392.363 132.975 L 375.239 131.035 M 391.854 133.708 L 375.921 131.836 M 391.342 134.445 L 376.615 132.653 M 390.828 135.185 L 377.323 133.484 M 390.31 135.93 L 378.044 134.332 M 389.79 136.679 L 378.78 135.196 M 389.266 137.433 L 379.531 136.079 M 388.739 138.191 L 380.298 136.98 M 388.208 138.955 L 381.081 137.9 M 387.673 139.725 L 381.882 138.841 M 387.134 140.501 L 382.7 139.803 M 386.591 141.282 L 383.538 140.788 M 386.043 142.071 L 384.396 141.796 M 385.491 142.866 L 385.276 142.829" stroke="black" stroke-width="1" fill="none"></path><path d="M 385.732 142.518 L 386.009 142.491 M 386.467 141.461 L 387.365 141.379 M 387.191 140.418 L 388.696 140.287 M 387.906 139.39 L 390.002 139.215 M 388.611 138.375 L 391.285 138.162 M 389.307 137.373 L 392.546 137.127 M 389.995 136.383 L 393.786 136.11 M 390.675 135.405 L 395.005 135.11 M 391.347 134.439 L 396.204 134.125 M 392.011 133.483 L 397.385 133.156 M 392.668 132.537 L 398.549 132.202 M 393.319 131.601 L 399.695 131.261 M 393.962 130.674 L 400.824 130.334 M 394.6 129.757 L 401.938 129.42 M 395.232 128.848 L 403.037 128.518 M 395.858 127.947 L 404.122 127.628 M 396.479 127.054 L 405.193 126.75 M 405.888 125.893 L 397.094 126.168 M 404.984 125.088 L 397.705 125.289 M 404.074 124.278 L 398.311 124.417 M 403.16 123.464 L 398.913 123.551 M 402.24 122.645 L 399.51 122.691 M 401.314 121.82 L 400.104 121.836" stroke="black" stroke-width="1" fill="none"></path><path d="M 379.172 45.4176 L 378.991 45.2403 M 381.656 43.9985 L 381.252 43.5815 M 384.211 42.5393 L 383.59 41.8657 M 386.84 41.0377 L 386.01 40.0896 M 389.547 39.4914 L 388.518 38.2493 M 392.17 37.6845 L 391.118 36.3406 M 394.703 35.56 L 393.819 34.3589 M 397.346 33.3434 L 396.625 32.2994 M 400.107 31.028 L 399.545 30.1567 M 402.994 28.6061 L 402.586 27.9249 M 406.019 26.0694 L 405.757 25.5976 M 409.191 23.4088 L 409.068 23.1677" stroke="black" stroke-width="1" fill="none"></path><path d="M 402.239 118.957 L 402.686 123.043 M 405.383 114.798 L 406.11 125.928 M 408.881 110.169 L 409.086 119.767 M 412.8 104.985 L 412.63 112.427 M 417.22 99.1365 L 416.926 103.533 M 422.246 92.4861 L 422.242 92.5265" stroke="black" stroke-width="1" fill="none"></path><path d="M 427.367 146.621 L 427.366 146.621 M 425.512 144.83 L 425.491 144.839 M 423.695 143.076 L 423.653 143.093 M 421.915 141.357 L 421.852 141.382 M 420.169 139.671 L 420.086 139.703 M 418.457 138.018 L 418.354 138.057 M 416.776 136.395 L 416.653 136.441 M 415.126 134.801 L 414.982 134.853 M 413.505 133.236 L 413.341 133.293 M 411.911 131.697 L 411.727 131.76 M 410.344 130.184 L 410.14 130.252 M 408.803 128.695 L 408.579 128.769 M 407.286 127.23 L 407.042 127.308 M 405.775 125.793 L 405.528 125.87 M 404.211 124.4 L 404.037 124.453 M 402.668 123.026 L 402.567 123.056 M 401.146 121.671 L 401.118 121.679" stroke="black" stroke-width="1" fill="none"></path><path d="M 401.745 119.612 L 402.203 119.476 M 403.769 116.934 L 405.008 116.577 M 405.715 114.359 L 407.69 113.805 M 407.588 111.88 L 410.259 111.15 M 409.392 109.493 L 412.721 108.606 M 411.133 107.19 L 415.084 106.163 M 412.813 104.967 L 417.354 103.816 M 414.436 102.819 L 419.539 101.559 M 416.007 100.742 L 421.642 99.3845 M 417.526 98.7309 L 423.67 97.2888 M 418.999 96.783 L 425.626 95.2668 M 420.426 94.8944 L 427.515 93.3139 M 421.811 93.0619 L 429.341 91.4262 M 424.974 90.8979 L 431.108 89.5999 M 428.949 88.629 L 432.819 87.8313 M 432.737 86.4667 L 434.478 86.1174" stroke="black" stroke-width="1" fill="none"></path><path d="M 440.768 124.402 L 425.302 124.402 M 440.031 125.628 L 425.413 125.576 M 439.298 126.85 L 425.524 126.751 M 438.567 128.066 L 425.634 127.927 M 437.838 129.279 L 425.746 129.105 M 437.112 130.488 L 425.857 130.286 M 436.387 131.694 L 425.968 131.469 M 435.665 132.897 L 426.08 132.655 M 434.943 134.097 L 426.192 133.845 M 434.224 135.296 L 426.305 135.038 M 433.505 136.492 L 426.418 136.236 M 432.786 137.687 L 426.531 137.438 M 432.069 138.882 L 426.645 138.646 M 431.352 140.076 L 426.759 139.859 M 430.635 141.269 L 426.874 141.078 M 429.917 142.463 L 426.99 142.303 M 429.2 143.657 L 427.106 143.535 M 428.482 144.852 L 427.223 144.774 M 427.763 146.049 L 427.34 146.021 M 422.308 92.6507 L 422.445 92.6373 M 422.429 93.9334 L 423.363 93.8455 M 422.549 95.2065 L 424.279 95.0505 M 422.669 96.4705 L 425.193 96.2527 M 422.787 97.7258 L 426.105 97.4525 M 422.905 98.973 L 427.015 98.6502 M 423.021 100.212 L 427.924 99.8464 M 423.138 101.445 L 428.833 101.041 M 423.253 102.67 L 429.74 102.235 M 423.368 103.889 L 430.647 103.429 M 423.482 105.102 L 431.555 104.622 M 423.596 106.31 L 432.462 105.816 M 423.71 107.513 L 433.37 107.01 M 423.823 108.71 L 434.278 108.205 M 423.935 109.904 L 435.188 109.402 M 424.047 111.094 L 436.099 110.601 M 424.159 112.28 L 437.011 111.801 M 424.271 113.464 L 437.926 113.004 M 424.382 114.644 L 438.843 114.21 M 424.493 115.822 L 439.762 115.42 M 424.604 116.999 L 440.684 116.633 M 424.715 118.174 L 441.61 117.85 M 424.826 119.347 L 442.538 119.072 M 443.231 120.302 L 424.936 120.52 M 442.483 121.547 L 425.047 121.692 M 441.739 122.786 L 425.157 122.865 M 440.998 124.02 L 425.268 124.037" stroke="black" stroke-width="1" fill="none"></path><path d="M 436.322 83.5869 L 435.322 83.1889 M 437.274 81.2876 L 434.153 80.012 M 438.253 78.9224 L 432.929 76.6872 M 439.261 76.4877 L 431.647 73.2027 M 440.299 73.9795 L 430.301 69.5457 M 441.37 71.3936 L 428.887 65.7018 M 442.474 68.7256 L 427.397 61.6549 M 443.615 65.9706 L 425.827 57.3872 M 444.794 63.1232 L 424.168 52.8785 M 446.013 60.1779 L 422.412 48.1064 M 447.276 57.1285 L 420.549 43.0453 M 448.584 53.9684 L 418.57 37.6666 M 449.941 50.6903 L 416.462 31.9373 M 451.35 47.2866 L 414.211 25.8202" stroke="black" stroke-width="1" fill="none"></path><path d="M 458.16 182.46 L 458.363 182.237 M 457.712 181.938 L 458.174 181.455 M 457.284 181.439 L 457.998 180.727 M 456.874 180.962 L 457.834 180.049 M 456.481 180.505 L 457.68 179.414 M 456.104 180.066 L 457.536 178.819 M 455.742 179.645 L 457.401 178.259 M 455.394 179.24 L 457.273 177.732 M 455.06 178.85 L 457.153 177.234 M 454.737 178.475 L 457.039 176.764 M 454.426 178.112 L 456.931 176.318 M 454.125 177.763 L 456.829 175.895 M 453.835 177.425 L 456.732 175.493 M 453.554 177.098 L 456.639 175.11 M 453.282 176.781 L 456.551 174.745 M 453.019 176.475 L 456.466 174.397 M 452.764 176.178 L 456.386 174.063 M 452.516 175.889 L 456.309 173.744 M 452.276 175.609 L 456.235 173.439 M 452.042 175.337 L 456.164 173.145 M 451.814 175.073 L 456.095 172.863 M 451.593 174.815 L 456.03 172.592 M 451.378 174.565 L 455.967 172.33 M 451.168 174.32 L 455.906 172.079 M 450.963 174.082 L 455.847 171.836 M 450.764 173.85 L 455.79 171.601 M 450.569 173.623 L 455.735 171.374 M 450.378 173.401 L 455.682 171.155 M 450.192 173.184 L 455.631 170.943 M 450.01 172.972 L 455.581 170.737 M 449.832 172.765 L 455.533 170.537 M 449.657 172.562 L 455.486 170.344 M 449.487 172.363 L 455.44 170.155 M 449.319 172.168 L 455.396 169.972 M 449.155 171.977 L 455.353 169.795 M 448.994 171.789 L 455.311 169.621 M 448.836 171.605 L 455.27 169.453 M 448.68 171.425 L 455.231 169.288 M 448.528 171.247 L 455.192 169.128 M 448.378 171.072 L 455.154 168.971 M 448.23 170.901 L 455.117 168.819 M 448.085 170.732 L 455.081 168.669 M 447.942 170.565 L 455.046 168.523 M 447.802 170.402 L 455.011 168.381 M 447.663 170.24 L 454.977 168.241 M 447.526 170.081 L 454.944 168.104 M 447.392 169.924 L 454.912 167.97 M 447.259 169.77 L 454.88 167.838 M 447.128 169.617 L 454.849 167.71 M 446.998 169.466 L 454.818 167.583 M 446.87 169.318 L 454.788 167.459 M 446.744 169.17 L 454.759 167.337 M 446.619 169.025 L 454.73 167.217 M 446.496 168.881 L 454.701 167.099 M 446.374 168.739 L 454.673 166.983 M 446.253 168.599 L 454.646 166.869 M 446.133 168.459 L 454.618 166.757 M 446.015 168.322 L 454.592 166.646 M 445.897 168.185 L 454.565 166.537 M 445.781 168.05 L 454.539 166.43 M 445.666 167.916 L 454.514 166.324 M 445.552 167.782 L 454.488 166.219 M 445.438 167.65 L 454.463 166.116 M 445.326 167.52 L 454.439 166.014 M 445.214 167.39 L 454.414 165.914 M 445.103 167.26 L 454.39 165.814 M 444.993 167.132 L 454.367 165.716 M 444.883 167.005 L 454.343 165.619 M 444.775 166.878 L 454.32 165.523 M 444.666 166.752 L 454.297 165.427 M 444.559 166.627 L 454.274 165.333 M 444.452 166.502 L 454.251 165.24 M 444.345 166.378 L 454.229 165.147 M 444.239 166.254 L 454.207 165.056 M 444.133 166.131 L 454.185 164.965 M 444.028 166.009 L 454.163 164.875 M 443.923 165.887 L 454.142 164.786 M 443.818 165.765 L 454.12 164.697 M 443.714 165.643 L 454.099 164.609 M 443.61 165.522 L 454.078 164.521 M 443.506 165.401 L 454.057 164.435 M 443.402 165.28 L 454.036 164.348 M 443.298 165.16 L 454.015 164.262 M 443.195 165.039 L 453.994 164.177 M 443.092 164.919 L 453.974 164.092 M 442.988 164.799 L 453.953 164.007 M 442.885 164.678 L 453.933 163.923 M 442.782 164.558 L 453.913 163.84 M 442.678 164.438 L 453.893 163.756 M 442.575 164.317 L 453.872 163.673 M 442.471 164.197 L 453.852 163.59 M 442.367 164.076 L 453.832 163.507 M 442.263 163.955 L 453.812 163.425 M 442.159 163.834 L 453.793 163.343 M 442.055 163.712 L 453.773 163.261 M 441.95 163.59 L 453.753 163.179 M 441.845 163.468 L 453.733 163.097 M 441.74 163.346 L 453.713 163.015 M 441.634 163.223 L 453.694 162.933 M 441.528 163.099 L 453.674 162.852 M 441.422 162.975 L 453.654 162.77 M 441.315 162.85 L 453.634 162.688 M 441.207 162.725 L 453.614 162.607 M 441.099 162.599 L 453.595 162.525 M 440.99 162.473 L 453.575 162.443 M 440.881 162.345 L 453.555 162.361 M 440.77 162.217 L 453.535 162.279 M 440.66 162.088 L 453.515 162.196 M 440.548 161.958 L 453.495 162.114 M 440.435 161.827 L 453.475 162.031 M 440.322 161.695 L 453.455 161.948 M 440.208 161.562 L 453.435 161.864 M 440.093 161.428 L 453.415 161.781 M 439.976 161.293 L 453.394 161.697 M 439.859 161.156 L 453.374 161.612 M 439.741 161.018 L 453.353 161.528 M 439.621 160.879 L 453.333 161.442 M 439.501 160.739 L 453.312 161.357 M 439.379 160.597 L 453.291 161.271 M 439.255 160.453 L 453.27 161.184 M 439.13 160.308 L 453.249 161.097 M 439.004 160.161 L 453.228 161.009 M 438.876 160.012 L 453.207 160.92 M 438.747 159.862 L 453.185 160.831 M 438.616 159.709 L 453.163 160.741 M 438.483 159.555 L 453.141 160.651 M 438.349 159.398 L 453.119 160.559 M 438.212 159.239 L 453.097 160.467 M 438.074 159.078 L 453.074 160.374 M 437.933 158.914 L 453.052 160.28 M 437.79 158.748 L 453.029 160.186 M 437.645 158.579 L 453.006 160.09 M 437.498 158.408 L 452.982 159.993 M 437.348 158.233 L 452.959 159.895 M 437.196 158.056 L 452.935 159.796 M 437.04 157.875 L 452.91 159.696 M 436.882 157.691 L 452.886 159.594 M 436.722 157.504 L 452.861 159.492 M 436.557 157.313 L 452.836 159.388 M 436.39 157.118 L 452.81 159.282 M 436.22 156.92 L 452.784 159.175 M 436.045 156.717 L 452.758 159.067 M 435.867 156.51 L 452.732 158.957 M 435.686 156.298 L 452.705 158.845 M 435.5 156.082 L 452.677 158.732 M 435.309 155.86 L 452.649 158.616 M 435.115 155.634 L 452.621 158.499 M 434.915 155.401 L 452.592 158.38 M 434.711 155.164 L 452.563 158.259 M 434.501 154.92 L 452.533 158.135 M 434.286 154.669 L 452.502 158.01 M 434.065 154.412 L 452.471 157.881 M 433.839 154.148 L 452.44 157.751 M 433.605 153.876 L 452.408 157.618 M 433.365 153.597 L 452.375 157.482 M 433.118 153.309 L 452.341 157.343 M 432.863 153.012 L 452.307 157.201 M 432.6 152.706 L 452.272 157.057 M 432.329 152.39 L 452.236 156.908 M 432.049 152.064 L 452.199 156.757 M 431.759 151.727 L 452.162 156.602 M 431.459 151.378 L 452.123 156.443 M 431.148 151.016 L 452.084 156.28 M 430.826 150.642 L 452.044 156.112 M 430.492 150.253 L 452.002 155.941 M 430.145 149.848 L 451.959 155.765 M 429.784 149.428 L 451.916 155.583 M 429.408 148.99 L 451.871 155.397 M 429.016 148.534 L 451.824 155.205 M 428.607 148.058 L 451.776 155.008 M 428.18 147.561 L 451.727 154.804 M 427.733 147.041 L 451.676 154.594 M 427.457 146.558 L 451.624 154.377 M 427.661 146.218 L 451.57 154.153 M 427.87 145.871 L 451.513 153.921 M 428.083 145.517 L 451.455 153.681 M 428.3 145.155 L 451.395 153.433 M 428.523 144.785 L 451.333 153.175 M 428.75 144.406 L 451.268 152.907 M 428.983 144.018 L 451.201 152.629 M 429.222 143.621 L 451.131 152.339 M 429.467 143.213 L 451.058 152.038 M 429.718 142.795 L 450.982 151.723 M 429.975 142.366 L 450.902 151.395 M 430.24 141.926 L 450.819 151.052 M 430.512 141.473 L 450.732 150.692 M 430.792 141.007 L 450.641 150.316 M 431.08 140.528 L 450.546 149.921 M 431.377 140.034 L 450.445 149.505 M 431.683 139.525 L 450.339 149.067 M 431.998 139 L 450.228 148.606 M 432.324 138.458 L 450.11 148.118 M 432.66 137.897 L 449.985 147.601 M 433.009 137.318 L 449.852 147.053 M 433.369 136.718 L 449.711 146.471 M 433.742 136.096 L 449.561 145.85 M 434.13 135.452 L 449.401 145.187 M 434.532 134.782 L 449.229 144.477 M 434.95 134.087 L 449.044 143.714 M 435.385 133.363 L 448.846 142.893 M 435.837 132.609 L 448.631 142.005 M 436.31 131.823 L 448.398 141.043 M 436.803 131.003 L 448.145 139.996 M 437.318 130.145 L 447.868 138.852 M 437.858 129.247 L 447.565 137.597 M 438.423 128.305 L 447.23 136.212 M 439.017 127.317 L 446.858 134.677 M 439.641 126.278 L 446.444 132.964 M 440.299 125.184 L 445.979 131.04 M 440.992 124.03 L 445.452 128.864 M 441.725 122.81 L 444.851 126.38 M 442.501 121.518 L 444.159 123.519 M 443.324 120.148 L 443.353 120.185" stroke="black" stroke-width="1" fill="none"></path><path d="M 427.506 146.776 L 427.535 146.783 M 428.465 147.893 L 428.76 147.958 M 429.455 149.046 L 430.028 149.174 M 430.478 150.236 L 431.342 150.435 M 431.535 151.466 L 432.705 151.743 M 432.628 152.739 L 434.121 153.101 M 433.76 154.057 L 435.592 154.513 M 434.934 155.423 L 437.123 155.982 M 436.151 156.84 L 438.718 157.513 M 437.415 158.311 L 440.382 159.109 M 438.729 159.841 L 442.119 160.776 M 440.097 161.433 L 443.936 162.519 M 441.522 163.092 L 445.838 164.344 M 443.009 164.823 L 447.832 166.257 M 444.562 166.63 L 449.926 168.266 M 446.186 168.521 L 452.128 170.379 M 447.886 170.5 L 454.448 172.605 M 449.669 172.576 L 456.896 174.953 M 451.542 174.756 L 459.483 177.436 M 453.512 177.049 L 462.224 180.065 M 455.588 179.465 L 465.132 182.856 M 467.501 185.56 L 457.779 182.015" stroke="black" stroke-width="1" fill="none"></path><path d="M 427.442 146.582 L 427.568 146.601 M 428.039 145.59 L 429.903 145.869 M 428.64 144.59 L 432.222 145.143 M 429.246 143.581 L 434.527 144.421 M 429.857 142.563 L 436.818 143.703 M 430.474 141.536 L 439.097 142.989 M 431.097 140.499 L 441.363 142.279 M 431.726 139.452 L 443.618 141.573 M 432.362 138.394 L 445.863 140.87 M 433.005 137.324 L 448.099 140.169 M 433.654 136.243 L 450.325 139.472 M 434.312 135.149 L 452.544 138.777 M 434.976 134.042 L 454.755 138.084 M 435.65 132.922 L 456.959 137.394 M 436.331 131.787 L 459.157 136.705 M 437.022 130.638 L 461.351 136.018 M 437.722 129.473 L 463.54 135.333 M 438.431 128.292 L 465.725 134.648 M 439.151 127.094 L 467.907 133.965 M 439.881 125.879 L 470.086 133.282 M 440.622 124.645 L 472.264 132.6 M 441.375 123.391 L 474.441 131.918 M 442.14 122.118 L 476.618 131.236 M 456.788 124.585 L 442.918 120.824" stroke="black" stroke-width="1" fill="none"></path><path d="M 414.158 21.8907 L 415.261 20.5629 M 417.499 23.9769 L 420.825 20.1855 M 420.736 25.9986 L 426.462 19.8032 M 423.875 27.9592 L 432.175 19.4157 M 426.921 29.862 L 437.968 19.0228 M 429.881 31.7102 L 443.844 18.6242 M 432.757 33.5066 L 449.808 18.2197 M 435.555 35.254 L 455.862 17.8091 M 438.278 36.9547 L 462.012 17.392 M 440.93 38.6113 L 468.261 16.9681 M 443.515 40.2258 L 474.613 16.5373 M 446.036 41.8005 L 481.074 16.099 M 476.31 23.6704 L 448.497 43.3371 M 458.956 39.3407 L 450.899 44.8375" stroke="black" stroke-width="1" fill="none"></path><path d="M 487.545 106.906 L 473.875 130.252 M 469.377 128.76 L 487.027 100.784 M 464.969 127.298 L 481.144 103.388 M 460.648 125.865 L 474.88 106.161 M 456.411 124.46 L 468.197 109.12 M 452.252 123.081 L 461.046 112.285 M 448.169 121.727 L 453.376 115.681 M 444.159 120.397 L 445.124 119.334" stroke="black" stroke-width="1" fill="none"></path><path d="M 490.896 99.3749 L 491.128 99.2661 M 489.5 102.512 L 491.661 101.528 M 488.177 105.484 L 492.176 103.712 M 486.923 108.303 L 492.673 105.824 M 485.731 110.982 L 493.154 107.868 M 484.596 113.532 L 493.621 109.847 M 483.514 115.963 L 494.072 111.765 M 482.481 118.283 L 494.51 113.625 M 481.494 120.501 L 494.936 115.431 M 480.549 122.624 L 495.349 117.185 M 479.644 124.659 L 495.751 118.891 M 478.775 126.611 L 496.142 120.55 M 477.94 128.487 L 496.522 122.165 M 477.137 130.29 L 496.893 123.739 M 478.061 131.478 L 497.254 125.273 M 480.83 132.057 L 497.606 126.769 M 483.606 132.638 L 497.95 128.229 M 486.391 133.221 L 498.286 129.656 M 489.184 133.805 L 498.615 131.049 M 491.988 134.392 L 498.936 132.412 M 494.802 134.981 L 499.25 133.745 M 497.629 135.572 L 499.557 135.05" stroke="black" stroke-width="1" fill="none"></path><path d="M 499.373 134.27 L 500.303 132.683 M 497.995 128.418 L 501.926 122.188 M 496.748 123.126 L 503.272 113.483 M 495.615 118.315 L 504.407 106.143 M 494.58 113.922 L 505.377 99.8694 M 502.68 98.7841 L 493.631 109.892 M 499.072 98.8499 L 492.757 106.183 M 495.435 98.9163 L 491.95 102.755 M 491.768 98.9832 L 491.202 99.5767" stroke="black" stroke-width="1" fill="none"></path><path d="M 511.76 70.3102 L 511.657 70.3374 M 511.076 73.4385 L 509.054 73.9596 M 510.411 76.4874 L 506.539 77.46 M 509.761 79.4609 L 504.106 80.8457 M 509.128 82.3625 L 501.751 84.1234 M 508.509 85.1957 L 499.469 87.299 M 507.904 87.9639 L 497.257 90.3782 M 507.313 90.6699 L 495.11 93.3664 M 506.735 93.3169 L 493.025 96.2682 M 506.17 95.9074 L 491.475 98.9886 M 505.616 98.4441 L 504.075 98.7586" stroke="black" stroke-width="1" fill="none"></path><path d="M 511.707 69.9639 L 511.83 69.9722 M 511.349 69.2378 L 511.968 69.2818 M 510.987 68.5043 L 512.107 68.5881 M 510.621 67.7631 L 512.246 67.8909 M 510.251 67.0137 L 512.386 67.1899 M 509.877 66.2558 L 512.527 66.4848 M 509.499 65.4891 L 512.668 65.7755 M 509.116 64.713 L 512.811 65.0616 M 508.728 63.9272 L 512.955 64.3429 M 508.335 63.1313 L 513.099 63.6191 M 507.937 62.3248 L 513.245 62.8899 M 507.533 61.5072 L 513.392 62.155 M 507.124 60.678 L 513.54 61.414 M 506.709 59.8367 L 513.689 60.6668 M 506.287 58.9828 L 513.84 59.913 M 505.859 58.1157 L 513.992 59.1522 M 505.424 57.2348 L 514.145 58.3841 M 504.983 56.3395 L 514.3 57.6083 M 504.533 55.4292 L 514.456 56.8245 M 504.076 54.5031 L 514.615 56.0324 M 503.611 53.5607 L 514.775 55.2314 M 503.137 52.601 L 514.937 54.4213 M 502.655 51.6233 L 515.1 53.6015 M 502.163 50.6269 L 515.266 52.7718 M 501.661 49.6108 L 515.434 51.9315 M 501.15 48.5741 L 515.604 51.0802 M 500.627 47.5158 L 515.776 50.2175 M 500.094 46.435 L 515.951 49.3428 M 499.549 45.3304 L 516.128 48.4556 M 498.991 44.2011 L 516.308 47.5553 M 498.421 43.0457 L 516.491 46.6414 M 497.837 41.863 L 516.676 45.7133 M 497.239 40.6516 L 516.864 44.7702 M 496.626 39.4101 L 517.056 43.8116 M 495.998 38.1368 L 517.251 42.8367 M 495.353 36.8302 L 517.449 41.8449 M 494.691 35.4885 L 517.65 40.8352 M 494.01 34.1098 L 517.856 39.807 M 493.311 32.6922 L 518.065 38.7594 M 492.59 31.2334 L 518.278 37.6914 M 491.849 29.7311 L 518.496 36.6022 M 491.085 28.183 L 518.718 35.4907 M 490.297 26.5863 L 518.945 34.3559 M 489.483 24.9382 L 519.176 33.1966 M 488.643 23.2357 L 519.413 32.0118 M 487.774 21.4754 L 519.655 30.8001 M 486.875 19.6537 L 519.903 29.5602 M 485.943 17.7667 L 520.156 28.2907 M 485.094 15.8471 L 520.416 26.9902 M 493.874 16.9829 L 520.682 25.657 M 502.176 18.0568 L 520.956 24.2895 M 510.04 19.074 L 521.236 22.8859 M 517.502 20.0393 L 521.524 21.4442" stroke="black" stroke-width="1" fill="none"></path><path d="M 522.697 22.9221 L 521.077 23.6811 M 523.777 25.4469 L 520.419 26.9765 M 524.823 27.8946 L 519.79 30.1247 M 525.839 30.2694 L 519.188 33.1361 M 526.825 32.5752 L 518.612 36.0204 M 527.783 34.8158 L 518.06 38.7863 M 528.715 36.9944 L 517.529 41.4418 M 517.019 43.9942 L 528.404 39.5859 M 516.529 46.4502 L 526.773 42.586 M 516.056 48.8157 L 525.217 45.4491 M 515.601 51.0965 L 523.73 48.1853 M 515.161 53.2976 L 522.307 50.8037 M 514.736 55.424 L 520.944 53.3124 M 514.326 57.4798 L 519.636 55.719 M 513.928 59.4693 L 518.379 58.0303 M 513.543 61.3962 L 517.172 60.2525 M 513.17 63.2639 L 516.009 62.3913 M 512.808 65.0757 L 514.889 64.4521 M 512.457 66.8347 L 513.809 66.4396 M 512.116 68.5436 L 512.766 68.3582" stroke="black" stroke-width="1" fill="none"></path><path d="M 532.561 177.037 L 533.006 182.574 M 524.404 166.83 L 524.993 182.967 M 517.141 157.741 L 516.946 183.362 M 510.629 149.592 L 508.865 183.758 M 504.756 142.243 L 500.745 184.156 M 499.251 136.865 L 492.584 184.556 M 490.775 150.191 L 484.38 184.959 M 480.449 166.423 L 476.129 185.363" stroke="black" stroke-width="1" fill="none"></path><path d="M 537.291 180.11 L 535.844 181.146 M 537.853 177.304 L 534.58 179.565 M 538.376 174.695 L 533.361 178.039 M 538.864 172.26 L 532.183 176.565 M 539.32 169.983 L 531.044 175.139 M 539.748 167.848 L 529.942 173.76 M 540.15 165.842 L 528.874 172.424 M 540.528 163.952 L 527.839 171.129 M 540.886 162.168 L 526.835 169.872 M 541.224 160.481 L 525.86 168.653 M 541.544 158.883 L 524.914 167.468 M 541.848 157.367 L 523.993 166.316 M 542.136 155.925 L 523.097 165.195 M 542.411 154.553 L 522.225 164.103 M 542.673 153.244 L 521.375 163.04 M 542.924 151.994 L 520.547 162.003 M 543.163 150.8 L 519.739 160.992 M 543.392 149.656 L 518.95 160.005 M 543.612 148.56 L 518.18 159.041 M 517.427 158.099 L 543.04 147.821 M 516.691 157.178 L 541.624 147.435 M 515.971 156.276 L 540.212 147.05 M 515.265 155.394 L 538.804 146.666 M 514.575 154.53 L 537.4 146.283 M 513.898 153.683 L 536 145.901 M 513.235 152.853 L 534.602 145.52 M 512.584 152.038 L 533.206 145.139 M 511.945 151.239 L 531.813 144.759 M 511.317 150.454 L 530.421 144.379 M 510.701 149.682 L 529.03 144 M 510.096 148.924 L 527.64 143.621 M 509.5 148.179 L 526.25 143.242 M 508.914 147.446 L 524.859 142.862 M 508.337 146.724 L 523.468 142.483 M 507.77 146.014 L 522.076 142.103 M 507.21 145.314 L 520.682 141.723 M 506.659 144.624 L 519.286 141.342 M 506.116 143.944 L 517.888 140.961 M 505.579 143.273 L 516.487 140.579 M 505.051 142.611 L 515.082 140.195 M 504.529 141.958 L 513.673 139.811 M 504.013 141.313 L 512.26 139.426 M 503.504 140.675 L 510.843 139.039 M 503 140.046 L 509.42 138.651 M 502.503 139.423 L 507.991 138.261 M 502.011 138.807 L 506.557 137.87 M 501.524 138.198 L 505.115 137.477 M 501.042 137.594 L 503.666 137.082 M 500.564 136.997 L 502.21 136.684 M 500.092 136.406 L 500.745 136.285" stroke="black" stroke-width="1" fill="none"></path><path d="M 528.618 39.1915 L 529.587 38.8063 M 526.397 43.2785 L 531.099 41.4576 M 524.28 47.1733 L 532.575 44.0446 M 522.26 50.8904 L 534.015 46.5704 M 520.329 54.4427 L 535.423 49.0377 M 518.482 57.8419 L 536.798 51.4495 M 516.712 61.0989 L 538.144 53.8083 M 515.014 64.2232 L 539.46 56.1165 M 513.383 67.2239 L 540.749 58.3765 M 511.815 70.1089 L 542.012 60.5905 M 517.274 70.7441 L 543.25 62.7604 M 522.875 71.3584 L 544.463 64.8884 M 528.535 71.9792 L 545.654 66.9763 M 534.257 72.6067 L 546.823 69.0257 M 540.044 73.2414 L 547.971 71.0385 M 545.898 73.8835 L 549.099 73.0162" stroke="black" stroke-width="1" fill="none"></path><path d="M 543.512 149.058 L 544.036 149.118 M 543.192 150.656 L 544.513 150.811 M 542.869 152.267 L 544.997 152.526 M 542.544 153.892 L 545.488 154.263 M 542.215 155.533 L 545.985 156.024 M 541.883 157.19 L 546.489 157.811 M 541.547 158.865 L 547 159.623 M 541.208 160.556 L 547.519 161.462 M 540.866 162.267 L 548.046 163.33 M 540.519 163.996 L 548.581 165.227 M 540.169 165.746 L 549.126 167.156 M 539.814 167.518 L 549.679 169.116 M 539.455 169.311 L 550.242 171.111 M 539.091 171.127 L 550.814 173.14 M 538.722 172.968 L 551.397 175.207 M 538.348 174.834 L 551.991 177.312 M 537.969 176.726 L 552.597 179.458 M 537.584 178.646 L 553.214 181.646 M 537.194 180.595 L 553.844 183.878 M 537.393 182.694 L 554.487 186.156 M 543.485 186.059 L 555.144 188.483 M 549.892 189.596 L 555.815 190.861" stroke="black" stroke-width="1" fill="none"></path><path d="M 544.082 143.68 L 562.026 115.237 M 544.664 136.662 L 561.149 112.293 M 545.166 130.617 L 560.347 109.599 M 545.603 125.355 L 559.61 107.124 M 545.987 120.732 L 558.931 104.843 M 546.327 116.637 L 558.302 102.731 M 546.63 112.983 L 557.718 100.772 M 546.903 109.701 L 557.175 98.947 M 547.149 106.737 L 556.668 97.2435 M 547.372 104.046 L 556.193 95.649 M 547.576 101.59 L 555.747 94.1529 M 547.763 99.3403 L 555.328 92.7459 M 547.935 97.2706 L 554.934 91.4199 M 548.093 95.3596 L 554.561 90.1677 M 548.24 93.5893 L 554.208 88.9829 M 548.377 91.9441 L 553.873 87.8599 M 548.504 90.4108 L 553.556 86.7936 M 548.623 88.9779 L 553.254 85.7796 M 548.734 87.6355 L 552.966 84.8138 M 548.839 86.3748 L 552.692 83.8926 M 548.938 85.1882 L 552.43 83.0126 M 549.031 84.0691 L 552.179 82.1709 M 549.118 83.0114 L 551.939 81.3648 M 549.201 82.0101 L 551.709 80.5918 M 549.28 81.0604 L 551.488 79.8498 M 549.355 80.1581 L 551.276 79.1366 M 549.426 79.2996 L 551.071 78.4504 M 549.494 78.4814 L 550.875 77.7896 M 549.559 77.7005 L 550.685 77.1524 M 549.621 76.9542 L 550.502 76.5376 M 549.68 76.2401 L 550.325 75.9436 M 549.737 75.5558 L 550.154 75.3694 M 549.792 74.8994 L 549.988 74.8138" stroke="black" stroke-width="1" fill="none"></path><path d="M 566.75 121.679 L 564.068 125.931 M 566.037 120.802 L 558.427 132.052 M 565.363 119.973 L 550.16 141.022 M 564.725 119.189 L 547.372 141.774 M 564.119 118.445 L 553.141 131.922 M 563.544 117.737 L 556.988 125.35 M 562.997 117.065 L 559.739 120.652 M 562.475 116.423 L 561.803 117.127" stroke="black" stroke-width="1" fill="none"></path><path d="M 550.111 75.2253 L 551.831 75.5123 M 550.6 76.8666 L 555.479 77.7043 M 551.097 78.538 L 559.267 79.981 M 551.605 80.2409 L 563.206 82.3482 M 552.122 81.9768 L 567.307 84.8122 M 552.649 83.7472 L 571.58 87.38 M 575.823 90.0168 L 553.187 85.5538 M 574.959 91.696 L 553.736 87.3981 M 574.083 93.3969 L 554.297 89.2822 M 573.196 95.1204 L 554.87 91.2077 M 572.296 96.8675 L 555.457 93.1768 M 571.384 98.6393 L 556.057 95.1917 M 570.459 100.437 L 556.671 97.2545 M 569.519 102.261 L 557.3 99.3677 M 568.565 104.114 L 557.945 101.534 M 567.597 105.996 L 558.607 103.756 M 566.612 107.909 L 559.286 106.036 M 565.611 109.853 L 559.983 108.378 M 564.592 111.832 L 560.7 110.785 M 563.556 113.845 L 561.437 113.261 M 562.5 115.895 L 562.196 115.809" stroke="black" stroke-width="1" fill="none"></path><path d="M 582.572 43.7567 L 584.318 43.4278 M 579.068 47.0282 L 583.822 46.1572 M 575.666 50.2041 L 583.334 48.8378 M 572.361 53.2895 L 582.855 51.4718 M 569.148 56.2892 L 582.384 54.061 M 566.023 59.2074 L 581.921 56.6075 M 562.98 62.0485 L 581.465 59.1131 M 560.015 64.8163 L 581.017 61.5796 M 557.125 67.5145 L 580.575 64.0085 M 554.306 70.1464 L 580.14 66.4016 M 551.555 72.7153 L 579.711 68.7603 M 550.893 74.9487 L 579.288 71.0861 M 553.78 76.6835 L 578.871 73.3805 M 556.668 78.4189 L 578.459 75.6447 M 559.558 80.1554 L 578.053 77.8801 M 562.45 81.8935 L 577.651 80.0879 M 565.346 83.6338 L 577.254 82.2692 M 568.246 85.3769 L 576.862 84.4254 M 571.152 87.1232 L 576.474 86.5573 M 574.065 88.8734 L 576.091 88.6662" stroke="black" stroke-width="1" fill="none"></path><path d="M 576.295 89.9417 L 575.783 90.0952 M 582.538 89.8137 L 574.757 92.0877 M 588.962 89.682 L 573.766 94.0124 M 572.808 95.8732 L 592.233 90.475 M 571.881 97.6737 L 589.382 92.9315 M 570.983 99.4175 L 586.661 95.2751 M 570.113 101.108 L 584.061 97.5142 M 569.269 102.747 L 581.574 99.6563 M 568.45 104.339 L 579.192 101.708 M 567.654 105.885 L 576.907 103.676 M 566.88 107.388 L 574.714 105.565 M 566.127 108.851 L 572.605 107.382 M 565.394 110.274 L 570.576 109.129 M 564.68 111.661 L 568.622 110.813 M 563.984 113.013 L 566.737 112.436 M 563.305 114.332 L 564.918 114.003 M 562.642 115.62 L 563.161 115.517" stroke="black" stroke-width="1" fill="none"></path><path d="M 597.602 105.482 L 580.697 105.482 M 597.691 105.806 L 580.489 105.745 M 597.78 106.132 L 580.283 106.006 M 597.869 106.458 L 580.077 106.266 M 597.958 106.786 L 579.872 106.525 M 598.048 107.114 L 579.668 106.783 M 598.138 107.444 L 579.465 107.04 M 598.229 107.775 L 579.263 107.296 M 598.32 108.107 L 579.061 107.551 M 598.411 108.441 L 578.86 107.805 M 598.503 108.776 L 578.66 108.059 M 598.595 109.113 L 578.46 108.312 M 598.688 109.452 L 578.26 108.564 M 598.781 109.793 L 578.061 108.816 M 598.875 110.137 L 577.862 109.068 M 598.969 110.482 L 577.664 109.319 M 599.064 110.83 L 577.465 109.57 M 599.16 111.18 L 577.267 109.821 M 599.257 111.533 L 577.068 110.072 M 599.354 111.889 L 576.87 110.323 M 599.452 112.248 L 576.672 110.574 M 599.551 112.609 L 576.473 110.825 M 599.651 112.975 L 576.274 111.077 M 599.752 113.343 L 576.075 111.329 M 599.854 113.715 L 575.876 111.581 M 599.956 114.091 L 575.676 111.834 M 600.06 114.471 L 575.476 112.087 M 600.165 114.855 L 575.275 112.341 M 600.272 115.243 L 575.073 112.596 M 600.379 115.636 L 574.871 112.852 M 600.488 116.033 L 574.668 113.108 M 600.598 116.436 L 574.465 113.366 M 600.709 116.843 L 574.26 113.624 M 600.822 117.256 L 574.055 113.884 M 600.937 117.675 L 573.848 114.145 M 601.053 118.099 L 573.641 114.408 M 601.17 118.53 L 573.432 114.672 M 601.29 118.967 L 573.222 114.937 M 601.411 119.41 L 573.011 115.205 M 601.535 119.861 L 572.798 115.474 M 601.66 120.319 L 572.584 115.745 M 601.787 120.785 L 572.369 116.017 M 601.917 121.258 L 572.151 116.292 M 602.049 121.74 L 571.932 116.569 M 602.183 122.231 L 571.711 116.849 M 571.489 117.131 L 599.644 122.245 M 571.264 117.415 L 597.188 122.256 M 571.037 117.702 L 594.822 122.267 M 570.808 117.992 L 592.54 122.277 M 570.576 118.285 L 590.337 122.287 M 570.342 118.581 L 588.209 122.297 M 570.106 118.88 L 586.15 122.306 M 569.866 119.183 L 584.158 122.315 M 569.624 119.489 L 582.228 122.324 M 569.38 119.799 L 580.356 122.332 M 569.132 120.112 L 578.54 122.341 M 568.881 120.43 L 576.777 122.349 M 568.626 120.752 L 575.064 122.356 M 568.368 121.078 L 573.398 122.364 M 568.107 121.409 L 571.777 122.371 M 567.841 121.745 L 570.198 122.378 M 567.572 122.086 L 568.659 122.385 M 593.295 89.7362 L 593.118 89.7686 M 593.408 90.1487 L 592.721 90.2711 M 593.519 90.5558 L 592.334 90.7612 M 593.629 90.9577 L 591.956 91.2395 M 593.738 91.3548 L 591.586 91.7067 M 593.845 91.7472 L 591.225 92.1632 M 593.951 92.135 L 590.873 92.6096 M 594.056 92.5186 L 590.527 93.0462 M 594.16 92.8981 L 590.189 93.4737 M 594.263 93.2736 L 589.859 93.8923 M 594.365 93.6454 L 589.534 94.3025 M 594.465 94.0137 L 589.216 94.7046 M 594.565 94.3785 L 588.905 95.0991 M 594.664 94.7401 L 588.599 95.4862 M 594.762 95.0985 L 588.298 95.8664 M 594.859 95.4541 L 588.003 96.2398 M 594.956 95.8068 L 587.713 96.6067 M 595.051 96.1569 L 587.428 96.9676 M 595.146 96.5045 L 587.147 97.3225 M 595.241 96.8498 L 586.871 97.6718 M 595.335 97.1928 L 586.599 98.0158 M 595.428 97.5336 L 586.331 98.3545 M 595.521 97.8725 L 586.067 98.6884 M 595.613 98.2096 L 585.807 99.0175 M 595.705 98.5448 L 585.55 99.3421 M 595.796 98.8785 L 585.297 99.6623 M 595.887 99.2107 L 585.047 99.9784 M 595.977 99.5415 L 584.801 100.291 M 596.067 99.871 L 584.557 100.599 M 596.157 100.199 L 584.316 100.904 M 596.247 100.527 L 584.078 101.205 M 596.336 100.853 L 583.842 101.503 M 596.425 101.178 L 583.609 101.798 M 596.514 101.503 L 583.379 102.089 M 596.602 101.827 L 583.151 102.378 M 596.691 102.151 L 582.924 102.664 M 596.779 102.474 L 582.7 102.948 M 596.867 102.797 L 582.478 103.228 M 596.956 103.12 L 582.258 103.507 M 597.044 103.442 L 582.04 103.783 M 597.132 103.765 L 581.823 104.057 M 597.22 104.087 L 581.608 104.329 M 597.309 104.41 L 581.394 104.6 M 597.397 104.733 L 581.182 104.868 M 597.485 105.057 L 580.972 105.134 M 597.574 105.381 L 580.762 105.399" stroke="black" stroke-width="1" fill="none"></path><path d="M 602.018 121.629 L 602.301 121.629 M 602.177 122.21 L 602.188 122.21 M 593.261 89.5962 L 593.257 89.597 M 594.506 90.1793 L 593.474 90.3901 M 595.749 90.7614 L 593.688 91.1712 M 596.99 91.3426 L 593.898 91.9409 M 598.229 91.9231 L 594.106 92.6996 M 599.468 92.5031 L 594.31 93.4479 M 600.705 93.0827 L 594.512 94.1861 M 601.942 93.6623 L 594.712 94.9148 M 603.18 94.2418 L 594.908 95.6342 M 604.418 94.8216 L 595.103 96.3449 M 605.656 95.4018 L 595.295 97.0471 M 606.896 95.9826 L 595.485 97.7413 M 595.673 98.4278 L 607.152 96.7116 M 595.858 99.107 L 607 97.4919 M 596.042 99.7791 L 606.85 98.261 M 596.224 100.445 L 606.702 99.0192 M 596.404 101.104 L 606.557 99.7671 M 596.583 101.757 L 606.413 100.505 M 596.76 102.404 L 606.271 101.234 M 596.935 103.045 L 606.131 101.953 M 597.109 103.682 L 605.993 102.664 M 597.282 104.313 L 605.856 103.366 M 597.453 104.94 L 605.721 104.061 M 597.624 105.562 L 605.587 104.747 M 597.793 106.18 L 605.455 105.427 M 597.961 106.793 L 605.324 106.1 M 598.127 107.404 L 605.194 106.766 M 598.293 108.01 L 605.066 107.426 M 598.458 108.613 L 604.939 108.079 M 598.622 109.213 L 604.813 108.727 M 598.786 109.811 L 604.687 109.37 M 598.948 110.405 L 604.563 110.007 M 599.11 110.997 L 604.44 110.64 M 599.272 111.587 L 604.318 111.268 M 599.432 112.174 L 604.197 111.891 M 599.592 112.76 L 604.076 112.51 M 599.752 113.344 L 603.956 113.126 M 599.912 113.927 L 603.837 113.737 M 600.07 114.508 L 603.719 114.345 M 600.229 115.088 L 603.601 114.95 M 600.388 115.667 L 603.484 115.552 M 600.546 116.246 L 603.367 116.151 M 600.704 116.824 L 603.251 116.747 M 600.862 117.401 L 603.136 117.341 M 601.02 117.978 L 603.02 117.933 M 601.178 118.556 L 602.906 118.523 M 601.335 119.133 L 602.791 119.11 M 601.493 119.711 L 602.677 119.697 M 601.652 120.289 L 602.563 120.281 M 601.81 120.868 L 602.45 120.865 M 601.969 121.448 L 602.336 121.447" stroke="black" stroke-width="1" fill="none"></path><path d="M 595.162 90.4866 L 595.957 87.7235 M 599.247 92.3999 L 602.246 83.3678 M 603.197 94.2499 L 609.076 78.6382 M 611.068 86.4275 L 607.02 96.0403" stroke="black" stroke-width="1" fill="none"></path><path d="M 609.105 129.644 L 618.979 129.644 M 609.329 129.884 L 619.075 129.919 M 609.555 130.125 L 619.172 130.194 M 609.782 130.369 L 619.268 130.471 M 610.011 130.614 L 619.366 130.748 M 610.242 130.861 L 619.463 131.027 M 610.475 131.11 L 619.561 131.307 M 610.71 131.362 L 619.659 131.588 M 610.947 131.616 L 619.758 131.87 M 611.187 131.872 L 619.857 132.154 M 611.428 132.131 L 619.957 132.439 M 611.673 132.392 L 620.058 132.726 M 611.919 132.657 L 620.159 133.015 M 612.169 132.924 L 620.26 133.305 M 612.421 133.194 L 620.363 133.598 M 612.677 133.468 L 620.466 133.893 M 612.935 133.744 L 620.57 134.19 M 613.197 134.025 L 620.674 134.489 M 613.462 134.309 L 620.78 134.79 M 613.731 134.596 L 620.886 135.095 M 614.004 134.888 L 620.994 135.402 M 614.28 135.184 L 621.102 135.711 M 614.56 135.484 L 621.212 136.024 M 614.845 135.789 L 621.322 136.34 M 615.134 136.098 L 621.434 136.659 M 615.428 136.413 L 621.547 136.982 M 615.727 136.733 L 621.661 137.308 M 616.03 137.058 L 621.776 137.638 M 616.339 137.388 L 621.893 137.972 M 616.654 137.725 L 622.011 138.31 M 616.974 138.068 L 622.131 138.652 M 617.3 138.417 L 622.252 138.999 M 617.632 138.773 L 622.375 139.35 M 617.972 139.136 L 622.5 139.707 M 618.318 139.507 L 622.627 140.068 M 618.671 139.885 L 622.755 140.435 M 619.032 140.271 L 622.885 140.807 M 619.401 140.666 L 623.018 141.185 M 619.778 141.07 L 623.152 141.57 M 620.164 141.483 L 623.289 141.96 M 620.559 141.906 L 623.428 142.358 M 620.964 142.34 L 623.569 142.762 M 621.379 142.784 L 623.713 143.173 M 621.804 143.239 L 623.86 143.592 M 622.241 143.707 L 624.009 144.019 M 622.69 144.187 L 624.161 144.455 M 623.151 144.681 L 624.317 144.899 M 623.625 145.189 L 624.475 145.352 M 624.113 145.711 L 624.637 145.814 M 624.616 146.249 L 624.803 146.287 M 607.161 96.6644 L 607.397 96.5437 M 606.956 97.7191 L 607.682 97.3585 M 606.76 98.7225 L 607.957 98.1453 M 606.574 99.6784 L 608.224 98.9056 M 606.397 100.59 L 608.481 99.641 M 606.227 101.462 L 608.73 100.353 M 606.065 102.296 L 608.971 101.043 M 605.909 103.094 L 609.205 101.712 M 605.76 103.86 L 609.432 102.361 M 605.617 104.596 L 609.653 102.991 M 605.479 105.303 L 609.867 103.604 M 605.347 105.983 L 610.076 104.199 M 605.219 106.638 L 610.279 104.779 M 605.096 107.27 L 610.476 105.344 M 604.977 107.88 L 610.669 105.894 M 604.863 108.47 L 610.857 106.431 M 604.752 109.04 L 611.04 106.954 M 604.644 109.591 L 611.219 107.466 M 604.54 110.125 L 611.394 107.965 M 604.44 110.643 L 611.564 108.453 M 604.342 111.146 L 611.731 108.931 M 604.247 111.633 L 611.895 109.398 M 604.155 112.107 L 612.055 109.856 M 604.065 112.568 L 612.212 110.304 M 603.978 113.017 L 612.366 110.744 M 603.893 113.453 L 612.516 111.174 M 603.81 113.878 L 612.664 111.597 M 603.729 114.293 L 612.81 112.012 M 603.65 114.698 L 612.952 112.42 M 603.573 115.093 L 613.092 112.82 M 603.498 115.479 L 613.23 113.214 M 603.425 115.856 L 613.366 113.601 M 603.353 116.224 L 613.499 113.982 M 603.283 116.585 L 613.63 114.358 M 603.214 116.938 L 613.76 114.727 M 603.147 117.284 L 613.887 115.091 M 603.081 117.623 L 614.012 115.45 M 603.016 117.955 L 614.136 115.803 M 602.953 118.281 L 614.258 116.152 M 602.89 118.601 L 614.379 116.497 M 602.829 118.916 L 614.498 116.837 M 602.769 119.224 L 614.615 117.172 M 602.71 119.528 L 614.731 117.504 M 602.652 119.826 L 614.846 117.832 M 602.595 120.12 L 614.96 118.157 M 602.538 120.409 L 615.072 118.477 M 602.483 120.693 L 615.183 118.795 M 602.429 120.974 L 615.293 119.109 M 602.375 121.25 L 615.402 119.42 M 602.322 121.522 L 615.51 119.728 M 602.269 121.791 L 615.616 120.034 M 602.218 122.056 L 615.722 120.337 M 602.252 122.307 L 615.828 120.637 M 602.465 122.535 L 615.932 120.935 M 602.677 122.762 L 616.035 121.231 M 602.888 122.988 L 616.138 121.524 M 603.099 123.213 L 616.24 121.816 M 603.309 123.438 L 616.341 122.105 M 603.518 123.663 L 616.442 122.393 M 603.728 123.887 L 616.542 122.679 M 603.937 124.11 L 616.642 122.964 M 604.145 124.334 L 616.741 123.247 M 604.354 124.557 L 616.839 123.528 M 604.563 124.78 L 616.937 123.809 M 604.771 125.004 L 617.035 124.088 M 604.979 125.227 L 617.132 124.366 M 605.188 125.45 L 617.229 124.643 M 605.397 125.673 L 617.326 124.919 M 605.606 125.897 L 617.422 125.194 M 605.815 126.121 L 617.518 125.469 M 606.024 126.346 L 617.614 125.743 M 606.235 126.57 L 617.71 126.016 M 606.445 126.796 L 617.805 126.289 M 606.656 127.022 L 617.9 126.561 M 606.868 127.248 L 617.996 126.834 M 607.08 127.476 L 618.091 127.106 M 607.293 127.704 L 618.186 127.377 M 607.507 127.933 L 618.281 127.649 M 607.722 128.163 L 618.376 127.921 M 607.938 128.395 L 618.471 128.193 M 608.155 128.627 L 618.567 128.465 M 608.374 128.86 L 618.662 128.738 M 608.593 129.095 L 618.758 129.011 M 608.814 129.332 L 618.853 129.284 M 609.036 129.569 L 618.949 129.558" stroke="black" stroke-width="1" fill="none"></path><path d="M 602.502 122.574 L 602.392 122.565 M 603.309 123.438 L 602.918 123.403 M 604.128 124.315 L 603.451 124.252 M 604.961 125.207 L 603.992 125.113 M 605.809 126.114 L 604.54 125.986 M 606.671 127.037 L 605.096 126.872 M 607.548 127.977 L 605.661 127.771 M 608.442 128.933 L 606.234 128.683 M 609.352 129.908 L 606.816 129.61 M 610.28 130.901 L 607.407 130.552 M 611.226 131.915 L 608.008 131.509 M 612.192 132.949 L 608.62 132.483 M 613.178 134.004 L 609.242 133.474 M 614.185 135.082 L 609.876 134.483 M 615.214 136.184 L 610.521 135.511 M 616.267 137.311 L 611.179 136.558 M 617.344 138.464 L 611.849 137.625 M 618.447 139.645 L 612.533 138.714 M 619.576 140.854 L 613.231 139.826 M 620.734 142.094 L 613.944 140.961 M 621.922 143.365 L 614.672 142.12 M 623.141 144.67 L 615.416 143.306 M 624.392 146.01 L 616.178 144.518 M 625.149 147.289 L 616.957 145.759 M 625.576 148.531 L 617.755 147.03 M 626.012 149.799 L 618.573 148.332 M 626.457 151.094 L 619.411 149.667 M 626.912 152.418 L 620.271 151.036 M 627.378 153.771 L 621.154 152.443 M 627.854 155.157 L 622.061 153.887 M 628.342 156.575 L 622.993 155.372 M 628.841 158.028 L 623.953 156.899 M 629.353 159.517 L 624.94 158.472 M 629.879 161.045 L 625.958 160.092 M 630.418 162.613 L 627.007 161.763 M 630.972 164.223 L 628.089 163.487 M 631.541 165.879 L 629.207 165.267 M 632.126 167.581 L 630.363 167.107 M 632.729 169.333 L 631.558 169.01 M 633.349 171.138 L 632.796 170.981" stroke="black" stroke-width="1" fill="none"></path><path d="M 638.963 142.892 L 641.241 143.353 M 634.746 143.987 L 640.77 145.24 M 630.551 145.077 L 640.291 147.157 M 626.376 146.162 L 639.804 149.105 M 625.376 147.951 L 639.31 151.085 M 626.142 150.177 L 638.806 153.1 M 626.926 152.458 L 638.294 155.15 M 627.731 154.798 L 637.773 157.237 M 628.556 157.199 L 637.241 159.364 M 629.405 159.666 L 636.7 161.531 M 630.276 162.201 L 636.148 163.741 M 631.173 164.809 L 635.585 165.995 M 632.096 167.493 L 635.01 168.296 M 633.046 170.257 L 634.423 170.646" stroke="black" stroke-width="1" fill="none"></path><path d="M 644.971 127.679 L 638.975 127.679 M 644.698 128.83 L 638.134 128.806 M 644.426 129.979 L 637.297 129.927 M 644.154 131.126 L 636.464 131.043 M 643.882 132.273 L 635.635 132.154 M 643.61 133.42 L 634.809 133.261 M 643.339 134.566 L 633.986 134.364 M 643.067 135.712 L 633.166 135.462 M 642.795 136.859 L 632.348 136.558 M 642.523 138.007 L 631.533 137.65 M 642.251 139.157 L 630.72 138.74 M 641.978 140.308 L 629.908 139.827 M 641.704 141.461 L 629.098 140.913 M 640.241 142.56 L 628.289 141.996 M 636.481 143.537 L 627.482 143.079 M 632.794 144.495 L 626.674 144.161 M 629.175 145.434 L 625.868 145.242 M 625.623 146.357 L 625.061 146.322 M 647.545 116.822 L 647.065 116.838 M 647.264 118.005 L 646.17 118.038 M 646.985 119.184 L 645.281 119.229 M 646.707 120.357 L 644.4 120.41 M 646.43 121.526 L 643.525 121.582 M 646.153 122.692 L 642.656 122.746 M 645.878 123.853 L 641.793 123.902 M 645.603 125.012 L 640.936 125.051 M 645.329 126.168 L 640.084 126.192 M 645.056 127.321 L 639.237 127.327" stroke="black" stroke-width="1" fill="none"></path><path d="M 641.631 142.347 L 641.499 142.321 M 642.417 143.216 L 641.331 142.996 M 643.227 144.11 L 641.16 143.68 M 644.062 145.033 L 640.986 144.376 M 644.923 145.985 L 640.809 145.083 M 645.813 146.968 L 640.63 145.802 M 646.732 147.984 L 640.447 146.533 M 647.683 149.035 L 640.261 147.278 M 648.668 150.124 L 640.072 148.035 M 649.689 151.252 L 639.879 148.807 M 650.748 152.422 L 639.682 149.594 M 651.847 153.638 L 639.482 150.396 M 652.991 154.901 L 639.277 151.214 M 639.069 152.05 L 652.748 155.821 M 638.856 152.903 L 651.892 156.589 M 638.638 153.774 L 651.026 157.366 M 638.415 154.666 L 650.148 158.154 M 638.187 155.577 L 649.258 158.953 M 637.954 156.51 L 648.356 159.763 M 637.716 157.466 L 647.44 160.585 M 637.471 158.445 L 646.511 161.419 M 637.22 159.45 L 645.567 162.267 M 636.962 160.48 L 644.608 163.127 M 636.698 161.538 L 643.634 164.002 M 636.426 162.625 L 642.643 164.891 M 636.147 163.743 L 641.635 165.796 M 635.86 164.893 L 640.609 166.717 M 635.564 166.078 L 639.564 167.655 M 635.259 167.298 L 638.5 168.61 M 634.945 168.556 L 637.415 169.584 M 634.62 169.855 L 636.309 170.577 M 634.285 171.197 L 635.18 171.59 M 633.939 172.583 L 634.028 172.624" stroke="black" stroke-width="1" fill="none"></path><path d="M 651.442 156.993 L 653.567 157.208 M 649.494 158.742 L 653.801 159.194 M 647.543 160.493 L 654.038 161.201 M 645.59 162.246 L 654.277 163.23 M 643.634 164.002 L 654.518 165.281 M 641.673 165.762 L 654.763 167.355 M 639.708 167.526 L 655.01 169.454 M 637.737 169.295 L 655.26 171.578 M 635.76 171.069 L 655.514 173.729 M 634.043 172.886 L 655.771 175.908 M 636.389 175.297 L 656.031 178.117 M 638.79 177.763 L 656.294 180.355 M 641.247 180.288 L 656.562 182.626 M 643.764 182.874 L 656.833 184.93 M 646.344 185.524 L 657.109 187.269 M 648.989 188.242 L 657.389 189.644 M 651.705 191.032 L 657.673 192.057 M 654.493 193.897 L 657.962 194.51 M 657.358 196.841 L 658.256 197.004" stroke="black" stroke-width="1" fill="none"></path><path d="M 664.902 150.442 L 660.581 148.047 M 660.809 152.158 L 645.639 143.484 M 656.659 153.898 L 646.838 148.101" stroke="black" stroke-width="1" fill="none"></path><path d="M 668.14 77.6224 L 618.845 77.6224 M 667.407 79 L 619.756 78.8287 M 666.676 80.3728 L 620.673 80.042 M 665.948 81.7413 L 621.595 81.2627 M 665.221 83.1058 L 622.523 82.4912 M 664.497 84.4669 L 623.457 83.7282 M 663.774 85.825 L 624.398 84.974 M 663.052 87.1805 L 625.346 86.229 M 662.332 88.5338 L 626.302 87.494 M 661.612 89.8854 L 627.265 88.7692 M 660.894 91.2358 L 628.237 90.0554 M 660.175 92.5853 L 629.217 91.353 M 659.457 93.9343 L 630.206 92.6626 M 658.739 95.2834 L 631.205 93.9849 M 658.021 96.6329 L 632.214 95.3203 M 657.302 97.9833 L 633.233 96.6696 M 656.582 99.3349 L 634.263 98.0333 M 655.862 100.688 L 635.305 99.4123 M 655.14 102.044 L 636.358 100.807 M 654.417 103.402 L 637.424 102.218 M 653.693 104.763 L 638.503 103.647 M 652.966 106.128 L 639.596 105.094 M 652.238 107.496 L 640.704 106.56 M 651.507 108.869 L 641.826 108.045 M 650.774 110.247 L 642.963 109.551 M 650.038 111.63 L 644.117 111.079 M 649.298 113.018 L 645.289 112.63 M 648.556 114.413 L 646.477 114.203 M 647.81 115.815 L 647.685 115.802 M 675.913 63.0207 L 674.064 63.0896 M 675.138 64.4766 L 664.678 64.8284 M 674.368 65.9225 L 655.759 66.4806 M 673.604 67.3589 L 647.271 68.053 M 672.844 68.7863 L 639.18 69.5518 M 672.088 70.2054 L 631.458 70.9824 M 671.337 71.6166 L 624.076 72.3499 M 670.59 73.0204 L 617.011 73.6587 M 669.846 74.4174 L 616.758 74.8586 M 669.106 75.8079 L 617.658 76.0505 M 668.369 77.1926 L 618.563 77.2483" stroke="black" stroke-width="1" fill="none"></path><path d="M 676.656 63.1161 L 675.675 63.4673 M 679.995 65.4073 L 673.421 67.7016 M 671.261 71.7598 L 680.274 68.6936 M 669.188 75.6539 L 677.344 72.9495 M 667.197 79.3949 L 674.54 77.021 M 665.281 82.9927 L 671.854 80.9211 M 663.438 86.4565 L 669.278 84.6615 M 661.661 89.7946 L 666.805 88.253 M 659.947 93.0147 L 664.427 91.7054 M 658.291 96.1241 L 662.139 95.0275 M 656.692 99.1291 L 659.935 98.2278 M 655.144 102.036 L 657.81 101.314 M 653.646 104.85 L 655.759 104.292 M 652.195 107.577 L 653.778 107.169 M 650.787 110.221 L 651.862 109.952 M 649.421 112.788 L 650.007 112.644 M 648.094 115.28 L 648.211 115.252" stroke="black" stroke-width="1" fill="none"></path><path d="M 673.989 142.159 L 662.179 142.159 M 671.709 144.456 L 663.424 144.426 M 669.444 146.738 L 664.674 146.703 M 667.194 149.005 L 665.93 148.991 M 648.339 116.955 L 650.608 116.862 M 649.552 119.165 L 656.659 118.9 M 650.766 121.375 L 662.81 120.97 M 651.982 123.588 L 669.065 123.076 M 653.198 125.804 L 675.428 125.218 M 654.417 128.024 L 681.905 127.399 M 686.394 129.659 L 655.638 130.247 M 684.016 132.055 L 656.862 132.476 M 681.659 134.43 L 658.089 134.71 M 679.322 136.785 L 659.319 136.951 M 677.003 139.122 L 660.553 139.199 M 674.701 141.441 L 661.792 141.455" stroke="black" stroke-width="1" fill="none"></path><path d="M 666.283 150.434 L 666.908 150.526 M 666.047 151.843 L 668.115 152.158 M 665.809 153.269 L 669.347 153.825 M 665.568 154.712 L 670.607 155.529 M 665.324 156.175 L 671.895 157.271 M 665.076 157.656 L 673.213 159.053 M 664.825 159.158 L 674.562 160.877 M 664.571 160.68 L 675.944 162.746 M 664.313 162.225 L 677.36 164.662 M 664.051 163.793 L 678.813 166.626 M 663.785 165.385 L 680.303 168.642 M 663.515 167.002 L 681.834 170.712 M 663.24 168.645 L 683.407 172.839 M 662.961 170.316 L 685.025 175.027 M 662.677 172.015 L 686.689 177.278 M 662.388 173.744 L 688.404 179.596 M 662.094 175.505 L 690.17 181.985 M 661.795 177.298 L 691.993 184.45 M 661.489 179.125 L 693.874 186.993 M 661.178 180.989 L 695.817 189.621 M 692.007 190.851 L 660.86 182.889 M 687.272 191.839 L 660.536 184.83 M 682.56 192.821 L 660.205 186.811 M 677.87 193.799 L 659.867 188.835 M 673.201 194.772 L 659.521 190.904 M 668.551 195.742 L 659.168 193.021 M 663.918 196.708 L 658.806 195.188 M 659.302 197.671 L 658.435 197.406" stroke="black" stroke-width="1" fill="none"></path></svg>
