<svg version="1.1" xmlns:xlink="http://www.w3.org/1999/xlink" xmlns="http://www.w3.org/2000/svg"><path d="M 312.66 300 L 312.439 300.311 L 310.283 301.781 L 309.361 306.505 L 308.175 306.796 L 306.96 313.553 L 304.695 310.548 L 300.138 311.615 L 295.223 315.651 L 292.551 309.05 L 290.717 310.27 L 291.812 306.547 L 290.753 305.787 L 289.376 302.249 L 288.299 297.722 L 287.122 292.849 L 293.459 290.945 L 296.871 289.378 L 299.039 288.763 L 299.862 289.737 L 301.622 284.284 L 304.89 290.01 L 306.713 290.373 L 310.969 287.333 L 310.187 293.759 L 309.798 294.745 L 312.66 300 M 313.044 300 L 314.984 300.375 L 321.391 303.705 L 309.883 306.867 L 310.005 308.318 L 307.061 313.75 L 307.27 316.332 L 300.145 312.145 L 294.791 317.066 L 289.577 312.663 L 290.031 311.029 L 289.26 308.588 L 290.25 306.102 L 288.499 302.435 L 286.094 297.293 L 286.435 292.468 L 290.919 287.429 L 296.842 289.282 L 299.004 288.35 L 299.781 283.678 L 301.638 284.125 L 305.033 289.718 L 308.5 287.812 L 311.712 286.475 L 311.952 292.679 L 312.697 293.19 L 313.044 300 M 316.232 300 L 318.098 300.453 L 322.622 303.918 L 310.071 306.999 L 311.525 309.581 L 307.484 314.573 L 307.603 317.081 L 300.188 315.78 L 294.017 319.6 L 286.219 316.743 L 288.992 312.178 L 289.06 308.748 L 290.022 306.244 L 284.153 303.355 L 282.274 296.549 L 285.207 291.786 L 290.08 286.267 L 296.829 289.239 L 298.963 287.871 L 299.728 279.735 L 301.641 284.096 L 305.148 289.483 L 310.374 285.124 L 314.243 283.552 L 314.353 291.208 L 314.188 292.39 L 316.232 300 M 317.49 300 L 318.224 300.456 L 326.509 304.591 L 311.062 307.687 L 312.862 310.693 L 309.641 318.774 L 308.616 319.357 L 300.252 321.124 L 293.543 321.156 L 285.464 317.661 L 288.464 312.763 L 289.041 308.763 L 289.946 306.292 L 283.141 303.569 L 277.451 295.61 L 285.091 291.722 L 288.902 284.637 L 296.777 289.062 L 298.613 283.778 L 299.64 273.173 L 301.795 282.607 L 305.285 289.204 L 310.892 284.381 L 314.963 282.721 L 317.832 289.076 L 316.411 291.198 L 317.49 300 M 317.887 300 L 322.291 300.558 L 329.039 305.029 L 311.407 307.927 L 313.388 311.131 L 309.667 318.823 L 309.077 320.391 L 300.262 322.022 L 293.275 322.032 L 283.569 319.962 L 286.545 314.885 L 285.787 311.365 L 288.183 307.395 L 283.014 303.596 L 276.084 295.344 L 284.369 291.321 L 288.765 284.448 L 296.159 286.963 L 298.034 277.017 L 299.626 272.159 L 301.893 281.657 L 305.492 288.78 L 311.454 283.575 L 314.978 282.702 L 319.976 287.763 L 316.679 291.054 L 317.887 300 M 325.277 300 L 323.806 300.596 L 329.838 305.167 L 313.294 309.238 L 313.883 311.542 L 309.99 319.453 L 309.276 320.839 L 300.266 322.348 L 292.741 323.782 L 282.848 320.839 L 286.452 314.988 L 281.863 314.502 L 286.216 308.626 L 282.868 303.627 L 271.515 294.454 L 280.863 289.374 L 288.652 284.292 L 295.498 284.718 L 297.735 273.514 L 299.59 269.472 L 301.903 281.564 L 305.622 288.514 L 313.516 280.618 L 316.016 281.504 L 321.253 286.981 L 318.711 289.964 L 325.277 300 M 327.568 300 L 325.542 300.639 L 330.456 305.274 L 313.649 309.485 L 320.194 316.788 L 310.944 321.31 L 309.396 321.108 L 300.28 323.461 L 292.411 324.863 L 281.782 322.133 L 285.837 315.669 L 279.057 316.746 L 285.714 308.94 L 282.042 303.802 L 271.513 294.454 L 278.073 287.825 L 285.734 280.252 L 295.27 283.945 L 297.638 272.387 L 299.589 269.422 L 302.107 279.582 L 305.666 288.424 L 313.724 280.32 L 316.284 281.195 L 322.09 286.468 L 319.072 289.77 L 327.568 300 M 328.213 300 L 327.364 300.685 L 332.384 305.608 L 314.158 309.839 L 321.862 318.175 L 311.716 322.814 L 311.934 326.81 L 300.294 324.632 L 291.181 328.894 L 279.471 324.942 L 282.732 319.104 L 278.075 317.531 L 283.882 310.087 L 279.656 304.307 L 268.326 293.833 L 277.194 287.337 L 285.285 279.63 L 295.022 283.103 L 297.407 269.678 L 299.514 263.809 L 302.168 278.992 L 305.925 287.896 L 313.925 280.032 L 316.363 281.103 L 324.01 285.292 L 321.016 288.728 L 328.213 300 M 329.792 300 L 329.941 300.749 L 333.96 305.881 L 315.174 310.545 L 323.853 319.83 L 312.276 323.904 L 312.61 328.328 L 300.294 324.705 L 291.047 329.33 L 279.108 325.382 L 279.985 322.144 L 277.054 318.348 L 283.136 310.553 L 279.504 304.339 L 268.029 293.775 L 276.539 286.973 L 284.869 279.054 L 294.895 282.673 L 297.328 268.764 L 299.494 262.337 L 302.476 276.005 L 307.32 285.046 L 314.173 279.676 L 316.454 280.998 L 326.036 284.051 L 322.962 287.684 L 329.792 300 M 330.138 300 L 331.706 300.793 L 336.621 306.342 L 319.818 313.772 L 324.357 320.249 L 312.621 324.577 L 312.855 328.879 L 300.309 325.95 L 290.575 330.877 L 275.595 329.651 L 279.447 322.739 L 271.745 322.593 L 277.068 314.351 L 274.696 305.357 L 265.382 293.26 L 275.405 286.344 L 283.002 276.469 L 293.873 279.204 L 297.156 266.752 L 299.469 260.466 L 302.49 275.871 L 307.563 284.55 L 314.441 279.292 L 318.771 278.323 L 328.889 282.303 L 323.582 287.351 L 330.138 300 M 332.165 300 L 333.237 300.832 L 337.426 306.481 L 322.059 315.329 L 324.524 320.388 L 313.163 325.631 L 313.372 330.04 L 300.43 336.042 L 290.06 332.566 L 272.781 333.07 L 276.968 325.482 L 268.656 325.062 L 275.404 315.392 L 274.49 305.401 L 263.863 292.964 L 275.071 286.158 L 280.973 273.661 L 291.374 270.721 L 296.437 258.338 L 299.467 260.333 L 302.548 275.305 L 307.952 283.755 L 315.117 278.323 L 323.454 272.915 L 333.104 279.721 L 323.814 287.227 L 332.165 300 M 335.951 300 L 334.67 300.868 L 337.593 306.51 L 322.996 315.981 L 324.592 320.445 L 319.12 337.232 L 313.435 330.183 L 300.445 337.357 L 289.727 333.655 L 272.159 333.825 L 275.624 326.968 L 267.971 325.61 L 273.667 316.479 L 274.112 305.481 L 262.149 292.63 L 273.512 285.292 L 279.85 272.106 L 290.11 266.432 L 296.231 255.937 L 299.447 258.816 L 302.782 273.042 L 308.57 282.492 L 315.545 277.709 L 324.212 272.04 L 335.357 278.341 L 328.055 284.952 L 335.951 300 M 345.65 300 L 335.716 300.894 L 341.778 307.235 L 323.449 316.295 L 324.596 320.448 L 319.587 338.14 L 314.622 332.848 L 300.461 338.651 L 289.561 334.201 L 271.447 334.69 L 274.071 328.686 L 265.526 327.565 L 272.787 317.03 L 270.902 306.16 L 260.422 292.294 L 271.181 283.998 L 279.354 271.42 L 289.387 263.978 L 296.136 254.823 L 299.422 256.983 L 302.839 272.491 L 308.91 281.799 L 316.119 276.886 L 327.153 268.643 L 335.653 278.159 L 331.219 283.255 L 345.65 300 M 347.066 300 L 347.58 301.191 L 342.706 307.396 L 324.866 317.28 L 326.046 321.653 L 319.682 338.325 L 318.042 340.532 L 300.473 339.734 L 288.536 337.559 L 270.832 335.438 L 273.945 328.826 L 265.138 327.876 L 270.615 318.389 L 266.356 307.123 L 258.209 291.863 L 270.441 283.587 L 278.873 270.754 L 288.111 259.645 L 295.84 251.359 L 299.397 255.144 L 302.995 270.982 L 309.344 280.911 L 316.359 276.541 L 327.674 268.042 L 339.388 275.872 L 331.492 283.108 L 347.066 300 M 351.028 300 L 352.728 301.319 L 344.236 307.661 L 325.082 317.43 L 326.518 322.046 L 320.006 338.957 L 318.139 340.749 L 300.481 340.364 L 288.242 338.52 L 270.792 335.485 L 269.377 333.88 L 262.622 329.887 L 270.288 318.594 L 264.259 307.567 L 254.859 291.211 L 269.092 282.838 L 278.63 270.418 L 287.66 258.117 L 295.703 249.76 L 299.348 251.445 L 303.244 268.561 L 310.477 278.598 L 317.214 275.316 L 328.317 267.298 L 342.534 273.945 L 337.314 279.986 L 351.028 300 M 353.86 300 L 357.638 301.442 L 344.697 307.741 L 326.485 318.405 L 328.766 323.915 L 324.216 347.154 L 318.658 341.916 L 300.552 346.341 L 287.79 340.003 L 270.625 335.689 L 266.241 337.349 L 260.633 331.478 L 269.658 318.988 L 261.696 308.109 L 252.813 290.813 L 264.835 280.474 L 278.167 269.777 L 284.88 248.678 L 295.368 245.843 L 299.316 249.079 L 303.422 266.843 L 311.832 275.828 L 319.549 271.967 L 328.495 267.093 L 343.764 273.191 L 338.711 279.236 L 353.86 300 M 358.315 300 L 359.671 301.493 L 345.929 307.954 L 327.464 319.085 L 330.788 325.596 L 326.248 351.112 L 318.744 342.109 L 300.552 346.343 L 287.644 340.481 L 270.623 335.692 L 265.704 337.943 L 259.717 332.21 L 268.594 319.654 L 258.834 308.715 L 249.688 290.204 L 264.69 280.394 L 273.278 263.009 L 283.958 245.55 L 295.209 243.989 L 299.287 246.91 L 303.473 266.35 L 312.947 273.551 L 320.333 270.843 L 328.819 266.719 L 345.757 271.97 L 338.928 279.12 L 358.315 300 M 359.205 300 L 362.242 301.558 L 345.992 307.965 L 328.915 320.093 L 332.456 326.983 L 327.139 352.847 L 319.076 342.854 L 300.569 347.77 L 287.635 340.508 L 270.304 336.078 L 265.497 338.172 L 259.633 332.278 L 259.432 325.387 L 254.986 309.53 L 249.502 290.168 L 264.661 280.378 L 272.044 261.301 L 283.658 244.531 L 295.182 243.668 L 299.281 246.477 L 303.693 264.214 L 314.026 271.347 L 320.705 270.309 L 328.95 266.567 L 346.245 271.672 L 340.064 278.511 L 359.205 300 M 359.854 300 L 362.305 301.559 L 348.237 308.354 L 329.751 320.674 L 332.81 327.277 L 327.146 352.86 L 321.59 348.502 L 300.572 348.03 L 286.398 344.563 L 269.619 336.911 L 265.229 338.469 L 259.023 332.765 L 257.221 326.771 L 253.204 309.907 L 247.412 289.761 L 264.221 280.133 L 270.754 259.516 L 283.241 243.115 L 295.102 242.737 L 299.261 245.033 L 303.697 264.172 L 314.551 270.274 L 321.245 269.535 L 333.431 261.393 L 348.587 270.237 L 341.131 277.939 L 359.854 300 M 360.883 300 L 363.634 301.592 L 348.796 308.451 L 332.106 322.311 L 335.047 329.136 L 328.214 354.94 L 324.684 355.454 L 300.579 348.549 L 286.143 345.397 L 268.957 337.716 L 263.947 339.887 L 257.352 334.101 L 256.533 327.202 L 251.196 310.332 L 247.208 289.721 L 262.694 279.285 L 269.48 257.752 L 282.55 240.772 L 295.089 242.579 L 299.221 242.015 L 303.828 262.905 L 315.122 269.108 L 324.056 265.504 L 336.07 258.346 L 350.288 269.195 L 343.073 276.897 L 360.883 300 M 366.956 300 L 363.924 301.6 L 351.848 308.979 L 333.274 323.123 L 335.206 329.269 L 329.286 357.027 L 325.048 356.272 L 300.601 350.424 L 285.792 346.55 L 268.542 338.22 L 261.56 342.528 L 253.915 336.85 L 255.903 327.596 L 250.238 310.535 L 246.366 289.558 L 262.649 279.261 L 269.25 257.433 L 281.797 238.217 L 295.073 242.397 L 299.22 241.957 L 304.078 260.485 L 315.378 268.584 L 326.482 262.025 L 336.225 258.166 L 350.368 269.146 L 344.038 276.379 L 366.956 300 M 367.722 300 L 363.959 301.601 L 353.219 309.217 L 334.073 323.678 L 337.33 331.034 L 329.542 357.526 L 325.106 356.402 L 300.619 351.907 L 285.451 347.665 L 267.255 339.784 L 258.935 345.432 L 249.647 340.262 L 255.865 327.619 L 248.983 310.801 L 245.992 289.485 L 261.218 278.466 L 269.109 257.238 L 281.514 237.256 L 294.998 241.516 L 299.216 241.669 L 304.56 255.813 L 316.451 266.393 L 326.704 261.707 L 336.329 258.046 L 350.897 268.822 L 344.371 276.201 L 367.722 300 M 368.131 300 L 364.98 301.626 L 353.314 309.233 L 334.479 323.96 L 337.51 331.184 L 331.145 360.647 L 326.121 358.681 L 300.629 352.789 L 285.271 348.255 L 265.574 341.825 L 258.027 346.437 L 246.698 342.621 L 255.486 327.857 L 248.843 310.83 L 243.463 288.992 L 259.277 277.388 L 267.91 255.579 L 281.107 235.874 L 294.864 239.955 L 299.198 240.324 L 304.673 254.716 L 318.109 263.006 L 327.127 261.1 L 337.941 256.184 L 352.356 267.928 L 352.039 272.088 L 368.131 300 M 368.157 300 L 366.818 301.672 L 359.521 310.308 L 337.739 326.225 L 338.435 331.954 L 332.282 362.862 L 326.983 360.617 L 300.64 353.673 L 283.668 353.508 L 262.187 345.941 L 257.418 347.11 L 243.451 345.217 L 251.461 330.376 L 248.686 310.863 L 241.656 288.64 L 258.828 277.139 L 267.566 255.103 L 280.81 234.864 L 294.595 236.803 L 299.166 237.92 L 304.963 251.907 L 318.173 262.876 L 327.511 260.55 L 337.969 256.153 L 356.786 265.214 L 352.908 271.622 L 368.157 300 M 369.036 300 L 370.294 301.759 L 362.93 310.898 L 341.586 328.898 L 340.157 333.384 L 333.372 364.984 L 327.573 361.944 L 300.642 353.845 L 283.129 355.272 L 261.666 346.574 L 253.512 351.432 L 242.482 345.992 L 251.353 330.443 L 248.487 310.906 L 238.027 287.934 L 258.55 276.985 L 264.588 250.98 L 279.972 232.02 L 294.282 233.147 L 299.156 237.194 L 305.553 246.192 L 318.442 262.324 L 329.205 258.121 L 339.805 254.032 L 358.985 263.867 L 352.927 271.612 L 369.036 300 M 373.75 300 L 370.382 301.761 L 363.558 311.007 L 344.261 330.758 L 343.123 335.85 L 333.438 365.112 L 327.843 362.551 L 300.648 354.4 L 282.588 357.046 L 261.417 346.876 L 253.058 351.935 L 240.599 347.497 L 241.59 336.553 L 246.498 311.327 L 235.585 287.458 L 257.947 276.65 L 263.72 249.778 L 279.714 231.146 L 294.204 232.234 L 299.142 236.173 L 305.992 241.936 L 318.466 262.277 L 330.907 255.679 L 341.212 252.407 L 362.922 261.455 L 353.74 271.176 L 373.75 300 M 376.097 300 L 372.685 301.819 L 367.312 311.657 L 344.719 331.076 L 345.479 337.809 L 334.034 366.274 L 329.77 366.879 L 300.651 354.669 L 282.582 357.066 L 257.289 351.892 L 250.585 354.67 L 239.589 348.304 L 239.007 338.169 L 245.329 311.574 L 235.428 287.428 L 254.667 274.829 L 263.184 249.036 L 279.701 231.101 L 293.707 226.425 L 299.109 233.702 L 306.128 240.618 L 318.55 262.105 L 331.134 255.354 L 341.238 252.378 L 363.187 261.293 L 355.28 270.349 L 376.097 300 M 377.463 300 L 373.322 301.835 L 369.902 312.106 L 346.516 332.324 L 349.633 341.263 L 334.134 366.468 L 330.873 369.358 L 300.653 354.796 L 282.457 357.475 L 253.629 356.337 L 245.133 360.702 L 238.317 349.322 L 238.989 338.181 L 245.038 311.636 L 235.38 287.419 L 253.55 274.209 L 262.772 248.466 L 278.568 227.255 L 293.542 224.499 L 299.068 230.61 L 306.337 238.591 L 318.645 261.91 L 331.157 255.321 L 342.946 250.405 L 363.844 260.89 L 355.773 270.085 L 377.463 300 M 381.033 300 L 375.422 301.887 L 372.535 312.562 L 346.912 332.6 L 351.876 343.127 L 337.186 372.412 L 330.929 369.484 L 300.663 355.621 L 282.364 357.778 L 253.626 356.342 L 244.542 361.355 L 235.135 351.866 L 238.212 338.667 L 242.97 312.074 L 234.484 287.244 L 251.891 273.287 L 262.575 248.193 L 278.274 226.257 L 293.497 223.973 L 299.033 228.018 L 307.151 230.708 L 319.042 261.1 L 331.197 255.264 L 343.553 249.704 L 364.201 260.672 L 358.105 268.834 L 381.033 300 M 381.741 300 L 377.315 301.935 L 374.267 312.862 L 347.763 333.191 L 353.99 344.885 L 340.717 379.287 L 331.569 370.921 L 300.7 358.74 L 281.675 360.036 L 253.473 356.527 L 243.052 363.005 L 234.555 352.33 L 237.453 339.142 L 238.55 313.009 L 232.62 286.881 L 250.774 272.667 L 261.64 246.898 L 278.105 225.683 L 293.362 222.386 L 298.984 224.407 L 307.275 229.505 L 320.069 259.002 L 331.306 255.108 L 345.002 248.031 L 365.295 260.002 L 361.568 266.977 L 381.741 300 M 383.547 300 L 377.662 301.943 L 381.219 314.066 L 350.394 335.019 L 354.245 345.097 L 341.593 380.993 L 332.042 371.983 L 300.701 358.79 L 279.662 366.632 L 253.038 357.056 L 242.973 363.092 L 232.445 354.017 L 235.999 340.052 L 236.206 313.506 L 228.285 286.037 L 250.772 272.666 L 261.603 246.847 L 277.945 225.141 L 293.202 220.513 L 298.911 218.916 L 307.293 229.332 L 322.244 254.558 L 332.101 253.967 L 346.054 246.815 L 365.394 259.941 L 362.233 266.62 L 383.547 300 M 384.981 300 L 383.153 302.081 L 385.503 314.808 L 352.583 336.541 L 361.235 350.908 L 342.074 381.928 L 333.107 374.376 L 300.722 360.601 L 279.457 367.304 L 252.947 357.167 L 242.06 364.101 L 230.467 355.598 L 235.71 340.232 L 235.882 313.574 L 227.45 285.875 L 249.446 271.93 L 258.349 242.344 L 276.878 221.519 L 292.347 210.524 L 298.886 217.088 L 307.576 226.59 L 322.538 253.957 L 332.545 253.33 L 349.167 243.22 L 366.061 259.532 L 362.476 266.49 L 384.981 300 M 386.507 300 L 383.607 302.092 L 386.443 314.97 L 354.075 337.577 L 361.801 351.378 L 342.301 382.371 L 333.981 376.34 L 300.734 361.587 L 279.371 367.583 L 250.803 359.772 L 239.036 367.448 L 222.77 361.753 L 234.117 341.229 L 233.492 314.08 L 226.134 285.618 L 247.915 271.079 L 257.634 241.354 L 276.155 219.065 L 292.205 208.857 L 298.809 211.376 L 307.635 226.011 L 323.234 252.536 L 333.748 251.606 L 349.962 242.302 L 366.576 259.217 L 365.701 264.76 L 386.507 300 M 392.46 300 L 383.649 302.093 L 390.61 315.692 L 357.409 339.894 L 362.894 352.287 L 343.145 384.014 L 334.379 377.233 L 300.742 362.279 L 278.624 370.033 L 249.832 360.951 L 239.001 367.486 L 218.793 364.933 L 233.184 341.813 L 232.664 314.256 L 225.187 285.434 L 244.252 269.045 L 256.589 239.907 L 276.019 218.605 L 292.094 207.565 L 298.765 208.11 L 307.728 225.117 L 324.203 250.557 L 335.623 248.917 L 350.857 241.269 L 366.692 259.146 L 372.156 261.298 L 392.46 300 M 393.746 300 L 384.84 302.123 L 390.733 315.713 L 360.273 341.884 L 362.922 352.311 L 344.228 386.124 L 337.658 384.598 L 300.763 364.052 L 278.516 370.385 L 248.898 362.086 L 238.383 368.17 L 217.949 365.608 L 231.669 342.761 L 228.564 315.123 L 225.041 285.406 L 243.776 268.781 L 256.256 239.446 L 275.71 217.554 L 292.009 206.572 L 298.765 208.057 L 308.12 221.317 L 324.691 249.56 L 336.151 248.159 L 351.316 240.739 L 370.508 256.809 L 373.503 260.575 L 393.746 300 M 397.16 300 L 388.369 302.211 L 392.948 316.097 L 361.103 342.461 L 366.006 354.875 L 346.91 391.347 L 338.508 386.508 L 300.779 365.331 L 278.408 370.739 L 247.859 363.348 L 238.131 368.448 L 216.128 367.065 L 231.228 343.037 L 227.805 315.284 L 224.33 285.267 L 243.197 268.459 L 255.249 238.052 L 273.228 209.129 L 291.88 205.064 L 298.626 197.71 L 308.255 220.007 L 325.174 248.572 L 337.91 245.637 L 351.475 240.555 L 372.857 255.369 L 373.553 260.549 L 397.16 300 M 397.58 300 L 393.211 302.333 L 395.331 316.509 L 364.978 345.154 L 366.92 355.634 L 347.797 393.073 L 338.764 387.084 L 300.792 366.428 L 278.401 370.762 L 246.501 364.998 L 237.252 369.421 L 214.649 368.247 L 231.101 343.117 L 226.35 315.592 L 222.167 284.846 L 241.648 267.6 L 254.704 237.298 L 273.124 208.777 L 291.879 205.045 L 298.597 195.573 L 308.324 219.339 L 327.089 244.661 L 339.981 242.668 L 352.477 239.399 L 373.279 255.111 L 374.125 260.241 L 397.58 300 M 403.031 300 L 395.143 302.381 L 395.585 316.554 L 366.412 346.15 L 369.536 357.809 L 347.847 393.171 L 338.831 387.235 L 300.817 368.531 L 277.97 372.175 L 245.683 365.992 L 234.587 372.37 L 213.27 369.349 L 230.841 343.279 L 225.492 315.774 L 220.659 284.552 L 238.745 265.988 L 253.711 235.923 L 272.7 207.339 L 291.785 203.952 L 298.593 195.249 L 308.688 215.809 L 328.312 242.161 L 341.442 240.573 L 352.686 239.157 L 375.204 253.932 L 383.209 255.369 L 403.031 300 M 403.372 300 L 395.594 302.392 L 396.183 316.657 L 366.467 346.189 L 370.28 358.428 L 348.082 393.628 L 341.692 393.662 L 300.828 369.458 L 276.122 378.23 L 244.021 368.011 L 231.832 375.417 L 213.265 369.353 L 230.531 343.474 L 223.581 316.178 L 217.529 283.943 L 236.054 264.493 L 252.109 233.706 L 272.594 206.977 L 291.741 203.439 L 298.559 192.766 L 308.962 213.157 L 329.689 239.35 L 341.626 240.309 L 352.994 238.801 L 377.8 252.342 L 383.651 255.132 L 403.372 300 M 406.17 300 L 397.649 302.444 L 398.215 317.009 L 367.084 346.617 L 370.745 358.814 L 348.156 393.772 L 342.446 395.356 L 300.832 369.838 L 276.066 378.412 L 242.054 370.401 L 230.4 377.002 L 211.912 370.435 L 228.421 344.794 L 222.271 316.456 L 216.302 283.704 L 235.428 264.146 L 251.743 233.199 L 272.101 205.305 L 291.734 203.36 L 298.553 192.27 L 309.352 209.379 L 329.697 239.334 L 346.316 233.584 L 354.176 237.436 L 378.587 251.859 L 383.748 255.08 L 406.17 300 M 407.962 300 L 398.715 302.47 L 399.723 317.27 L 368.786 347.8 L 370.765 358.831 L 349.227 395.859 L 343.142 396.919 L 300.883 374.111 L 275.964 378.747 L 241.574 370.984 L 228.26 379.369 L 210.963 371.194 L 220.906 349.497 L 217.571 317.451 L 215.932 283.632 L 233.043 262.821 L 251.377 232.693 L 272.006 204.983 L 291.532 200.99 L 298.509 189.04 L 309.376 209.145 L 329.921 238.875 L 347.61 231.728 L 356.164 235.14 L 383.759 248.691 L 384.433 254.713 L 407.962 300 M 412.858 300 L 402.277 302.559 L 403.897 317.993 L 370.164 348.758 L 371.085 359.097 L 350.401 398.144 L 343.41 397.521 L 300.902 375.694 L 275.881 379.018 L 240.326 372.5 L 227.588 380.112 L 209.965 371.992 L 220.189 349.946 L 217.492 317.468 L 214.623 283.377 L 230.895 261.629 L 250.694 231.747 L 271.638 203.734 L 291.389 199.325 L 298.5 188.383 L 309.39 209.007 L 332.109 234.406 L 348.073 231.064 L 357.159 233.992 L 384.246 248.393 L 386.62 253.54 L 412.858 300 M 414.176 300 L 402.863 302.574 L 405.458 318.263 L 371.706 349.83 L 379.614 366.187 L 350.535 398.404 L 343.765 398.32 L 300.926 377.727 L 275.536 380.149 L 238.62 374.573 L 227.266 380.469 L 208.674 373.024 L 217.253 351.783 L 212.187 318.591 L 208.887 282.26 L 218.042 254.492 L 250.396 231.334 L 271.468 203.158 L 291.244 197.63 L 298.47 186.096 L 309.551 207.451 L 332.213 234.194 L 348.484 230.474 L 357.417 233.693 L 384.745 248.087 L 388.592 252.482 L 414.176 300 M 415.757 300 L 403.153 302.581 L 407.359 318.593 L 375.296 352.324 L 382.141 368.288 L 350.782 398.885 L 344.077 399.02 L 300.977 381.992 L 275.081 381.638 L 238.245 375.028 L 227.017 380.744 L 208.421 373.226 L 216.749 352.098 L 208.71 319.327 L 208.457 282.177 L 217.91 254.419 L 248.813 229.143 L 270.967 201.457 L 291.175 196.822 L 298.463 185.595 L 309.976 203.326 L 332.631 233.339 L 348.705 230.158 L 358.179 232.813 L 385.729 247.484 L 388.688 252.43 L 415.757 300 M 415.848 300 L 404.022 302.603 L 408.61 318.809 L 377.591 353.919 L 382.921 368.937 L 350.823 398.966 L 345.083 401.279 L 300.995 383.501 L 274.972 381.998 L 236.593 377.035 L 226.448 381.374 L 208.082 373.497 L 215.451 352.91 L 206.968 319.696 L 205.913 281.681 L 217.904 254.415 L 246.702 226.22 L 270.508 199.9 L 291.171 196.769 L 298.463 185.576 L 310.211 201.051 L 332.73 233.137 L 350.249 227.944 L 358.198 232.791 L 387.764 246.237 L 389.67 251.903 L 415.848 300 M 417.084 300 L 408.591 302.717 L 409.884 319.03 L 377.714 354.004 L 386.059 371.546 L 351.379 400.048 L 345.331 401.838 L 301.031 386.526 L 274.301 384.196 L 236.235 377.471 L 224.895 383.092 L 205.694 375.407 L 215.419 352.931 L 205.474 320.012 L 203.127 281.139 L 217.52 254.202 L 246.13 225.429 L 269.028 194.874 L 291.034 195.172 L 298.445 184.23 L 310.292 200.265 L 333.261 232.052 L 352.486 224.735 L 358.616 232.308 L 390.958 244.281 L 391.039 251.169 L 417.084 300 M 418.16 300 L 408.645 302.719 L 411.077 319.236 L 378.324 354.428 L 387.832 373.019 L 351.405 400.099 L 345.698 402.662 L 301.069 389.69 L 272.746 389.291 L 236.11 377.622 L 223.557 384.572 L 205.101 375.882 L 214.393 353.573 L 204.778 320.159 L 202.957 281.106 L 217.357 254.112 L 245.446 224.482 L 268.63 193.524 L 290.852 193.038 L 298.421 182.455 L 310.534 197.922 L 333.62 231.319 L 353.113 223.837 L 359.429 231.37 L 391.536 243.927 L 395.15 248.964 L 418.16 300 M 418.426 300 L 410.502 302.765 L 411.254 319.267 L 379.655 355.353 L 388.453 373.536 L 353.298 403.784 L 345.86 403.026 L 301.079 390.511 L 271.677 392.793 L 235.155 378.782 L 221.648 386.685 L 204.593 376.288 L 212.137 354.984 L 203.164 320.501 L 199.872 280.505 L 215.862 253.282 L 244.675 223.415 L 268.617 193.481 L 290.798 192.407 L 298.395 180.502 L 310.556 197.706 L 336.993 224.428 L 353.342 223.508 L 359.534 231.248 L 392.397 243.4 L 397.387 247.765 L 418.426 300 M 422.256 300 L 410.992 302.778 L 412.11 319.415 L 380.695 356.076 L 393.844 378.018 L 355.589 408.246 L 347.236 406.116 L 301.1 392.34 L 270.487 396.691 L 230.426 384.528 L 220.789 387.635 L 199.823 380.102 L 211.006 355.692 L 203.159 320.502 L 199.468 280.427 L 215.107 252.863 L 243.509 221.801 L 268.527 193.173 L 290.678 191.011 L 298.392 180.314 L 310.782 195.52 L 337.768 222.846 L 353.536 223.23 L 359.969 230.746 L 392.804 243.15 L 400.708 245.983 L 422.256 300 M 423.269 300 L 414.666 302.869 L 414.305 319.796 L 381.555 356.673 L 394.84 378.846 L 356.011 409.069 L 352.546 418.046 L 301.115 393.574 L 269.994 398.306 L 230.069 384.962 L 219.59 388.961 L 199.001 380.759 L 209.091 356.891 L 201.155 320.926 L 199.211 280.377 L 213.8 252.137 L 243.502 221.791 L 266.237 185.402 L 290.509 189.027 L 298.334 175.966 L 311.001 193.399 L 338.944 220.442 L 355.127 220.949 L 361.305 229.204 L 393.298 242.848 L 405.375 243.48 L 423.269 300 M 425.539 300 L 416.592 302.918 L 414.873 319.894 L 383.699 358.163 L 395.149 379.103 L 356.215 409.464 L 352.914 418.872 L 301.233 403.5 L 269.738 399.143 L 229.309 385.885 L 218.754 389.886 L 196.248 382.96 L 208.738 357.112 L 198.882 321.407 L 197.756 280.093 L 213.666 252.063 L 240.75 217.981 L 266.198 185.268 L 290.498 188.906 L 298.309 174.174 L 311.128 192.164 L 339.591 219.121 L 356.039 219.64 L 361.871 228.55 L 393.337 242.824 L 408.132 242.001 L 425.539 300 M 425.904 300 L 419.813 302.998 L 421.891 321.109 L 383.742 358.193 L 396.462 380.194 L 357.302 411.582 L 353.456 420.09 L 301.267 406.348 L 269.383 400.307 L 228.527 386.835 L 218.58 390.079 L 195.893 383.244 L 203.491 360.395 L 198.481 321.492 L 196.187 279.788 L 211.866 251.063 L 238.149 214.38 L 265.301 182.224 L 290.307 186.675 L 298.272 171.375 L 311.949 184.212 L 342.187 213.817 L 356.806 218.541 L 363.917 226.186 L 395.144 241.717 L 411.832 240.017 L 425.904 300 M 425.92 300 L 419.847 302.999 L 423.21 321.338 L 383.939 358.33 L 399.547 382.759 L 357.831 412.613 L 353.678 420.589 L 301.276 407.038 L 269.361 400.379 L 228.312 387.097 L 218.018 390.701 L 195.173 383.82 L 202.31 361.134 L 198.102 321.572 L 189.362 278.459 L 205.912 247.757 L 236.499 212.097 L 265.12 181.611 L 289.98 182.842 L 298.27 171.259 L 311.997 183.745 L 342.662 212.847 L 357.711 217.243 L 364.353 225.683 L 396.298 241.01 L 415.091 238.269 L 425.92 300 M 427.655 300 L 420.266 303.01 L 424.119 321.495 L 387.815 361.024 L 400.344 383.422 L 358.058 413.053 L 354.405 422.221 L 301.317 410.514 L 268.922 401.817 L 227.505 388.077 L 216.586 392.285 L 194.934 384.011 L 196.736 364.622 L 197.675 321.663 L 187.715 278.138 L 204.977 247.237 L 235.769 211.087 L 264.007 177.833 L 289.935 182.32 L 298.27 171.248 L 312.022 183.505 L 343.492 211.152 L 357.939 216.917 L 364.484 225.532 L 396.549 240.856 L 415.233 238.192 L 427.655 300 M 430.793 300 L 421.062 303.03 L 424.418 321.547 L 388.424 361.447 L 401.316 384.229 L 360.031 416.897 L 354.555 422.56 L 301.32 410.79 L 268.739 402.415 L 227.47 388.119 L 214.765 394.3 L 192.721 385.78 L 196.359 364.859 L 197.56 321.687 L 187.669 278.129 L 202.334 245.77 L 232.086 205.988 L 262.737 173.523 L 289.916 182.094 L 298.267 170.979 L 312.179 181.98 L 343.502 211.131 L 360.008 213.949 L 365.275 224.618 L 397.287 240.404 L 415.965 237.8 L 430.793 300 M 430.829 300 L 421.954 303.052 L 429.208 322.376 L 388.538 361.526 L 404.118 386.559 L 360.159 417.146 L 356.4 426.704 L 301.378 415.612 L 267.196 407.473 L 226.571 389.212 L 214.098 395.038 L 192.135 386.249 L 195.114 365.638 L 194.204 322.398 L 186.897 277.979 L 201.319 245.207 L 232.058 205.949 L 262.699 173.391 L 289.91 182.033 L 298.259 170.422 L 312.675 177.174 L 345.188 207.686 L 361.232 212.194 L 365.668 224.165 L 399.245 239.204 L 417.318 237.074 L 430.829 300 M 431.446 300 L 422.4 303.063 L 432.549 322.955 L 389.424 362.142 L 405.139 387.408 L 360.279 417.379 L 356.579 427.106 L 301.38 415.796 L 266.811 408.732 L 225.662 390.316 L 213.422 395.786 L 191.86 386.469 L 194.059 366.298 L 191.328 323.007 L 177.233 276.097 L 201.112 245.092 L 230.932 204.391 L 262.49 172.683 L 289.334 175.295 L 298.258 170.344 L 312.828 175.688 L 345.92 206.191 L 361.808 211.368 L 369.146 220.148 L 399.802 238.863 L 419.446 235.933 L 431.446 300 M 433.745 300 L 424.76 303.122 L 433.57 323.132 L 390.641 362.988 L 407.142 389.073 L 361.613 419.977 L 357.752 429.741 L 301.392 416.83 L 266.544 409.607 L 225.387 390.65 L 212.901 396.362 L 191.602 386.675 L 193.726 366.506 L 189.877 323.314 L 175.074 275.677 L 201.103 245.087 L 230.776 204.174 L 262.292 172.012 L 289.264 174.477 L 298.232 168.371 L 313.066 173.388 L 346.008 206.012 L 362.187 210.825 L 374.77 213.654 L 404.64 235.9 L 419.562 235.871 L 433.745 300 M 436.586 300 L 424.907 303.126 L 437.735 323.853 L 391.26 363.418 L 408.941 390.569 L 362.034 420.796 L 358.884 432.284 L 301.415 418.761 L 265.379 413.423 L 223.92 392.433 L 207.948 401.842 L 188.035 389.527 L 192.417 367.325 L 188.971 323.506 L 174.543 275.574 L 200.542 244.775 L 230.591 203.919 L 261.808 170.367 L 289.1 172.556 L 298.226 167.993 L 313.2 172.085 L 346.857 204.277 L 362.506 210.367 L 376.844 211.259 L 406.142 234.98 L 421.77 234.686 L 436.586 300 M 437.45 300 L 426.637 303.169 L 437.83 323.87 L 391.957 363.902 L 410.564 391.918 L 362.456 421.619 L 358.889 432.296 L 301.488 424.894 L 265.227 413.922 L 220.134 397.032 L 206.441 403.509 L 187.393 390.041 L 192.243 367.434 L 188.738 323.555 L 173.825 275.434 L 199.604 244.254 L 230.022 203.131 L 259.47 162.434 L 289.068 172.189 L 298.182 164.673 L 313.27 171.408 L 347.148 203.683 L 365.856 205.564 L 378.051 209.865 L 406.145 234.978 L 424.569 233.185 L 437.45 300 M 438.484 300 L 428.113 303.206 L 438.897 324.054 L 393.825 365.2 L 414.216 394.954 L 362.706 422.105 L 358.908 432.337 L 301.495 425.46 L 264.902 414.986 L 219.393 397.932 L 205.285 404.788 L 186.747 390.557 L 192.242 367.435 L 187.386 323.841 L 173.219 275.316 L 199.438 244.162 L 227.179 199.195 L 258.588 159.439 L 288.938 170.669 L 298.174 164.113 L 313.38 170.346 L 349.804 198.257 L 368.84 201.285 L 379.212 208.524 L 411.516 231.688 L 425.942 232.448 L 438.484 300 M 440.699 300 L 428.544 303.217 L 439.702 324.194 L 397.245 367.577 L 415.011 395.615 L 362.898 422.479 L 359.1 432.769 L 301.504 426.225 L 264.271 417.055 L 219.38 397.949 L 204.062 406.141 L 186.728 390.572 L 186.273 371.17 L 180.914 325.211 L 172.526 275.181 L 193.024 240.601 L 226.024 197.596 L 258.102 157.791 L 288.87 169.869 L 298.126 160.485 L 313.57 168.504 L 350.402 197.035 L 369.904 199.759 L 382.194 205.08 L 413.775 230.304 L 426.974 231.895 L 440.699 300 M 440.879 300 L 428.805 303.223 L 439.771 324.206 L 397.73 367.914 L 416.383 396.756 L 364.327 425.261 L 359.79 434.32 L 301.527 428.112 L 263.815 418.549 L 219.065 398.331 L 200.048 410.582 L 184.626 392.253 L 185.305 371.776 L 175.623 326.332 L 172.039 275.086 L 191.056 239.508 L 225.298 196.591 L 258.055 157.63 L 288.597 166.675 L 298.106 159.052 L 313.935 164.962 L 351.439 194.916 L 372.133 196.563 L 382.678 204.522 L 413.931 230.208 L 426.975 231.895 L 440.879 300 M 442.215 300 L 430.151 303.257 L 440.117 324.266 L 397.916 368.043 L 420.403 400.098 L 364.903 426.383 L 359.977 434.739 L 301.531 428.435 L 262.282 423.573 L 217.952 399.683 L 196.26 414.772 L 183.637 393.044 L 180.393 374.85 L 174.417 326.587 L 170.099 274.708 L 190.124 238.991 L 224.921 196.069 L 256.689 152.992 L 288.542 166.034 L 298.024 152.918 L 313.943 164.887 L 352.367 193.021 L 372.404 196.174 L 383.912 203.096 L 414.402 229.92 L 432.354 229.009 L 442.215 300 M 445.021 300 L 433.373 303.338 L 443.411 324.836 L 399.666 369.259 L 420.779 400.41 L 364.985 426.544 L 360.357 435.593 L 301.538 429.059 L 262.245 423.692 L 217.866 399.787 L 195.555 415.553 L 182.405 394.029 L 180.088 375.041 L 171.047 327.3 L 167.704 274.242 L 189.714 238.763 L 224.727 195.801 L 256.317 151.733 L 288.393 164.293 L 298.013 152.102 L 313.994 164.395 L 353.109 191.506 L 373.41 194.731 L 385.895 200.806 L 415.826 229.047 L 434.647 227.78 L 445.021 300 M 445.681 300 L 434.854 303.375 L 447.183 325.489 L 400.146 369.593 L 422.309 401.682 L 365.15 426.864 L 361.519 438.204 L 301.544 429.564 L 261.938 424.697 L 216.621 401.3 L 195.484 415.631 L 180.715 395.38 L 177.364 376.745 L 170.261 327.467 L 167.074 274.12 L 188.921 238.322 L 224.618 195.651 L 252.755 139.642 L 288.199 162.02 L 297.994 150.671 L 314.005 164.285 L 353.272 191.172 L 373.98 193.914 L 388.848 197.395 L 420.214 226.359 L 435.815 227.153 L 445.681 300 M 448.862 300 L 437.876 303.45 L 447.685 325.576 L 400.931 370.138 L 426.296 404.997 L 366.618 429.722 L 362.302 439.963 L 301.582 432.731 L 261.795 425.167 L 216.076 401.962 L 194.408 416.822 L 173.726 400.969 L 174.731 378.393 L 170.255 327.468 L 166.987 274.102 L 188.219 237.933 L 224.299 195.208 L 252.745 139.606 L 288.14 161.34 L 297.987 150.145 L 314.128 163.096 L 355.351 186.925 L 373.987 193.904 L 389.318 196.853 L 420.337 226.284 L 436.91 226.565 L 448.862 300 M 451.201 300 L 440.473 303.515 L 448.487 325.715 L 402.018 370.893 L 427.124 405.685 L 367.058 430.58 L 363.825 443.384 L 301.583 432.876 L 260.783 428.481 L 215.732 402.38 L 194.3 416.941 L 172.489 401.958 L 173.745 379.01 L 170.2 327.48 L 166.822 274.07 L 183.848 235.506 L 223.632 194.285 L 251.874 136.65 L 288.094 160.793 L 297.924 145.502 L 314.399 160.469 L 357.212 183.124 L 377.611 188.707 L 389.346 196.821 L 421.302 225.693 L 437.464 226.269 L 451.201 300 M 452.501 300 L 442.126 303.557 L 450.948 326.141 L 404.025 372.288 L 429.775 407.889 L 368.356 433.108 L 364.118 444.042 L 301.588 433.256 L 259.891 431.405 L 215.33 402.868 L 193.885 417.4 L 171.619 402.653 L 167.493 382.923 L 169.052 327.723 L 166.768 274.06 L 183.368 235.239 L 223.278 193.795 L 251.378 134.966 L 287.895 158.464 L 297.885 142.602 L 314.9 155.618 L 358.757 179.968 L 378.351 187.646 L 389.464 196.685 L 423.636 224.263 L 437.654 226.166 L 452.501 300 M 454.452 300 L 443.104 303.581 L 453.005 326.498 L 405.765 373.498 L 430.358 408.374 L 370.837 437.937 L 364.252 444.343 L 301.601 434.388 L 259.758 431.839 L 215.109 403.137 L 192.927 418.46 L 171.108 403.062 L 167.459 382.944 L 163.816 328.831 L 165.925 273.896 L 180.047 233.395 L 220.13 189.437 L 250.689 132.627 L 287.892 158.434 L 297.885 142.554 L 314.997 154.669 L 358.838 179.802 L 380.829 184.092 L 390.331 195.683 L 428.74 221.137 L 438.455 225.737 L 454.452 300 M 456.288 300 L 446.004 303.654 L 454.387 326.737 L 409.128 375.835 L 430.996 408.905 L 372.712 441.589 L 364.641 445.217 L 301.62 435.926 L 258.797 434.988 L 215.068 403.187 L 192.77 418.634 L 170.96 403.181 L 167.14 383.144 L 162.001 329.215 L 157.098 272.177 L 179.165 232.906 L 220.1 189.395 L 250.476 131.905 L 287.665 155.779 L 297.867 141.236 L 315.272 152.011 L 359.057 179.354 L 382.399 181.84 L 393.248 192.315 L 429.563 220.632 L 440.396 224.696 L 456.288 300 M 459.775 300 L 446.723 303.672 L 456.121 327.037 L 414.368 379.476 L 431.402 409.242 L 376.821 449.591 L 364.772 445.512 L 301.673 440.409 L 258.179 437.014 L 213.125 405.547 L 190.864 420.742 L 170.496 403.552 L 164.316 384.911 L 161.377 329.348 L 156.046 271.972 L 179.078 232.857 L 218.682 187.433 L 248.208 124.208 L 287.627 155.331 L 297.843 139.448 L 315.277 151.958 L 359.321 178.814 L 383.273 180.588 L 393.336 192.212 L 434.609 217.542 L 441.336 224.192 L 459.775 300 M 460.155 300 L 448.068 303.705 L 459.467 327.617 L 415.223 380.07 L 431.825 409.594 L 377.007 449.954 L 365.974 448.212 L 301.683 441.233 L 258.133 437.164 L 212.931 405.783 L 189.524 422.224 L 170.156 403.823 L 164.031 385.089 L 160.686 329.494 L 149.228 270.645 L 177.297 231.868 L 217.332 185.564 L 248.192 124.153 L 287.615 155.192 L 297.82 137.762 L 315.538 149.428 L 359.751 177.937 L 383.452 180.331 L 393.867 191.6 L 436.146 216.6 L 442.23 223.712 L 460.155 300 M 461.451 300 L 448.772 303.723 L 459.659 327.65 L 417.198 381.442 L 433.317 410.834 L 378.257 452.387 L 366.027 448.331 L 301.751 446.936 L 256.951 441.037 L 211.708 407.269 L 182.483 430.015 L 168.851 404.867 L 158.97 388.256 L 158.838 329.885 L 148.153 270.436 L 175.108 230.653 L 216.645 184.613 L 247.147 120.607 L 287.171 150.005 L 297.811 137.081 L 315.728 147.591 L 360.314 176.787 L 386.039 176.622 L 396.758 188.261 L 436.5 216.383 L 446.556 221.392 L 461.451 300 M 464.398 300 L 452.412 303.814 L 460.396 327.778 L 419.445 383.004 L 433.656 411.116 L 378.778 453.401 L 366.576 449.565 L 301.773 448.786 L 256.845 441.383 L 211.42 407.619 L 181.658 430.927 L 168.71 404.979 L 156.851 389.583 L 157.478 330.173 L 147.475 270.304 L 173.641 229.838 L 215.56 183.112 L 246.518 118.471 L 287.14 149.639 L 297.799 136.152 L 315.729 147.575 L 360.5 176.406 L 386.13 176.491 L 401.537 182.742 L 439.126 214.775 L 447.581 220.842 L 464.398 300 M 465.034 300 L 453.201 303.834 L 462.521 328.146 L 419.766 383.227 L 435.047 412.272 L 381.27 458.253 L 367.619 451.907 L 301.79 450.171 L 256.741 441.725 L 210.645 408.56 L 180.944 431.717 L 168.193 405.393 L 155.652 390.333 L 157.295 330.212 L 147.286 270.267 L 173.505 229.762 L 214.762 182.007 L 246.344 117.882 L 287.089 149.043 L 297.76 133.262 L 316.117 143.815 L 362.032 173.276 L 386.508 175.949 L 402.127 182.061 L 445.372 210.948 L 449.568 219.776 L 465.034 300 M 467.552 300 L 454.832 303.875 L 463.075 328.242 L 420.394 383.664 L 435.79 412.89 L 383.456 462.511 L 369.439 455.996 L 301.79 450.192 L 256.394 442.863 L 210.096 409.227 L 179.227 433.617 L 165.368 407.652 L 154.685 390.938 L 155.278 330.639 L 146.652 270.143 L 173.087 229.531 L 213.422 180.151 L 245.892 116.346 L 285.915 135.325 L 297.727 130.844 L 316.142 143.576 L 363.836 169.592 L 387.721 174.21 L 403.265 180.747 L 446.22 210.429 L 449.995 219.547 L 467.552 300 M 468.643 300 L 455.248 303.885 L 464.865 328.552 L 423.557 385.861 L 437.959 414.693 L 384.707 464.947 L 370.584 458.569 L 301.816 452.421 L 256.192 443.525 L 208.499 411.168 L 177.642 435.37 L 165.181 407.802 L 152.168 392.513 L 147.64 332.256 L 145.309 269.882 L 172.473 229.19 L 213.049 179.635 L 245.082 113.596 L 285.693 132.723 L 297.726 130.781 L 316.42 140.885 L 363.926 169.408 L 388.572 172.989 L 406 177.588 L 447.007 209.946 L 450.131 219.474 L 468.643 300 M 471.625 300 L 462.741 304.073 L 465.711 328.698 L 423.979 386.154 L 439.7 416.14 L 384.814 465.154 L 370.905 459.288 L 301.854 455.576 L 255.277 446.521 L 207.323 412.597 L 177.049 436.027 L 164.622 408.248 L 152.032 392.598 L 145.004 332.814 L 143.978 269.623 L 170.804 228.263 L 212.037 178.234 L 243.553 108.408 L 285.687 132.654 L 297.709 129.466 L 316.45 140.598 L 365.25 166.703 L 389.184 172.111 L 407.104 176.313 L 452.233 206.745 L 451.666 218.651 L 471.625 300 M 472.747 300 L 462.938 304.077 L 465.88 328.727 L 426.194 387.694 L 440.379 416.705 L 385.347 466.193 L 371.177 459.9 L 301.856 455.776 L 255.056 447.244 L 206.985 413.007 L 176.776 436.328 L 163.866 408.853 L 150.874 393.323 L 142.144 333.419 L 140.322 268.911 L 169.769 227.688 L 210.983 176.776 L 243.107 106.893 L 285.346 128.67 L 297.7 128.824 L 316.527 139.849 L 366.008 165.155 L 391.169 169.265 L 407.587 175.756 L 456.98 203.837 L 456.71 215.946 L 472.747 300 M 472.8 300 L 465.586 304.144 L 467.111 328.941 L 427.882 388.867 L 441.952 418.013 L 385.874 467.219 L 372.218 462.239 L 301.862 456.254 L 254.494 449.085 L 206.622 413.448 L 174.737 438.585 L 160.596 411.467 L 149.423 394.231 L 140.826 333.698 L 139.467 268.744 L 167.741 226.562 L 210.904 176.666 L 242.832 105.962 L 285.256 127.613 L 297.683 127.547 L 316.612 139.023 L 366.045 165.079 L 391.388 168.951 L 407.961 175.323 L 457.128 203.746 L 460.166 214.092 L 472.8 300 M 473.395 300 L 468.747 304.223 L 469.531 329.36 L 428.511 389.304 L 443.242 419.085 L 387.781 470.932 L 372.839 463.635 L 301.892 458.74 L 253.846 451.209 L 206.175 413.991 L 174.311 439.056 L 159.273 412.526 L 144.691 397.192 L 138.328 334.227 L 139.252 268.703 L 167.372 226.357 L 210.518 176.132 L 241.876 102.715 L 285.187 126.809 L 297.625 123.252 L 316.633 138.822 L 368.572 159.915 L 391.42 168.905 L 408.572 174.618 L 458.631 202.826 L 461.526 213.362 L 473.395 300 M 474 300 L 471.318 304.287 L 470.763 329.573 L 430.155 390.446 L 445.091 420.622 L 388.995 473.296 L 373.075 464.165 L 301.97 465.286 L 253.183 453.381 L 206.019 414.181 L 173.083 440.414 L 158.998 412.745 L 144.528 397.294 L 138.2 334.254 L 133.696 267.621 L 166.28 225.751 L 208.267 173.016 L 241.768 102.349 L 284.951 124.053 L 297.513 114.915 L 316.677 138.392 L 368.718 159.619 L 392.134 167.882 L 410.937 171.887 L 460.829 201.479 L 461.963 213.128 L 474 300 M 474.029 300 L 475.993 304.404 L 472.034 329.793 L 433.41 392.708 L 446.149 421.502 L 389.673 474.618 L 373.149 464.331 L 302.004 468.128 L 251.734 458.129 L 205.944 414.272 L 171.911 441.711 L 158.625 413.044 L 144.042 397.598 L 136.117 334.695 L 131.827 267.257 L 165.3 225.207 L 208.163 172.873 L 241.628 101.874 L 284.743 121.617 L 297.494 113.454 L 317.234 132.992 L 370.133 156.727 L 392.243 167.725 L 412.057 170.594 L 463.317 199.955 L 465.059 211.467 L 474.029 300 M 474.674 300 L 477.706 304.447 L 472.334 329.845 L 433.783 392.967 L 449.664 424.424 L 389.864 474.989 L 373.516 465.155 L 302.049 471.97 L 250.197 463.163 L 205.507 414.803 L 171.145 442.558 L 158.464 413.172 L 143.619 397.863 L 134.461 335.046 L 129.366 266.778 L 163.73 224.335 L 206.94 171.179 L 241.288 100.719 L 284.627 120.264 L 297.469 111.581 L 317.342 131.948 L 371.991 152.932 L 392.955 166.705 L 414.796 167.431 L 463.81 199.654 L 466.994 210.429 L 474.674 300 M 478.848 300 L 479.973 304.504 L 473.287 330.01 L 434.092 393.182 L 452.16 426.499 L 391.581 478.332 L 373.813 465.823 L 302.064 473.217 L 249.789 464.5 L 200.307 421.121 L 168.433 445.558 L 155.771 415.326 L 142.397 398.628 L 131.24 335.728 L 128.987 266.704 L 163.391 224.147 L 199.284 160.582 L 240.57 98.2808 L 284.569 119.582 L 297.457 110.711 L 317.493 130.488 L 372.387 152.122 L 394.462 164.544 L 416.911 164.988 L 466.339 198.104 L 471.475 208.026 L 478.848 300 M 479.337 300 L 481.996 304.554 L 477.496 330.739 L 436.062 394.551 L 454.092 428.106 L 392.463 480.05 L 374.723 467.867 L 302.066 473.389 L 249.262 466.226 L 200.103 421.368 L 164.906 449.461 L 155.533 415.516 L 141.769 399.021 L 128.062 336.401 L 128.336 266.577 L 163.247 224.067 L 198.769 159.868 L 238.578 91.5215 L 284.272 116.112 L 297.442 109.598 L 318.185 123.78 L 374.454 147.901 L 395.69 162.782 L 419.956 161.471 L 467.423 197.44 L 473.165 207.12 L 479.337 300 M 479.931 300 L 487.725 304.698 L 482.117 331.539 L 436.274 394.698 L 454.116 428.125 L 392.509 480.139 L 375.155 468.837 L 302.089 475.317 L 249.132 466.654 L 198.245 423.625 L 163.759 450.73 L 155.254 415.739 L 140.611 399.745 L 127.686 336.48 L 128.184 266.548 L 162.092 223.426 L 196.291 156.437 L 238.491 91.2267 L 283.78 110.362 L 297.437 109.25 L 318.363 122.053 L 374.764 147.268 L 398.949 158.109 L 420.432 160.922 L 467.935 197.127 L 473.787 206.786 L 479.931 300 M 482.646 300 L 491.51 304.792 L 482.986 331.69 L 439.154 396.7 L 454.888 428.767 L 392.731 480.572 L 375.23 469.005 L 302.153 480.669 L 248.912 467.375 L 197.97 423.959 L 163.62 450.883 L 155.131 415.838 L 139.422 400.489 L 126.315 336.77 L 127.256 266.367 L 151.303 217.435 L 194.663 154.184 L 237.529 87.9595 L 283.774 110.292 L 297.43 108.713 L 318.444 121.274 L 376.617 143.482 L 400.756 155.518 L 422.597 158.422 L 468.075 197.041 L 476.016 205.59 L 482.646 300 M 484.061 300 L 493.123 304.833 L 484.945 332.029 L 444.361 400.318 L 456.911 430.449 L 393.719 482.495 L 375.61 469.858 L 302.172 482.277 L 248.133 469.925 L 197.189 424.909 L 163.103 451.455 L 152.405 418.017 L 138.952 400.784 L 123.876 337.287 L 124.626 265.855 L 150.18 216.811 L 194.523 153.99 L 237.3 87.1819 L 283.756 110.072 L 297.402 106.596 L 319.401 111.995 L 379.446 137.703 L 401.171 154.923 L 423.942 156.868 L 469.058 196.439 L 476.132 205.528 L 484.061 300 M 487.289 300 L 494.948 304.879 L 488.393 332.626 L 444.643 400.514 L 457.377 430.836 L 393.779 482.612 L 375.98 470.691 L 302.176 482.597 L 248.126 469.949 L 197.166 424.937 L 162.497 452.126 L 151.624 418.642 L 136.677 402.207 L 116.079 338.937 L 122.416 265.425 L 149.471 216.418 L 192.547 151.255 L 237.188 86.8021 L 283.654 108.884 L 297.39 105.709 L 319.854 107.609 L 382.346 131.779 L 401.869 153.922 L 425.426 155.155 L 469.924 195.908 L 477.05 205.036 L 487.289 300 M 488.067 300 L 497.213 304.935 L 489.023 332.735 L 445.022 400.778 L 459.745 432.805 L 394.019 483.079 L 376.397 471.628 L 302.184 483.233 L 247.261 472.784 L 196.44 425.819 L 161.548 453.176 L 146.96 422.371 L 133.352 404.288 L 113.2 339.547 L 121.178 265.184 L 147.234 215.175 L 192.478 151.16 L 236.768 85.3763 L 283.179 103.327 L 297.353 102.96 L 319.97 106.479 L 383.198 130.036 L 406.837 146.798 L 425.892 154.616 L 469.929 195.905 L 478.065 204.491 L 488.067 300 M 488.731 300 L 497.782 304.949 L 490.892 333.059 L 449.421 403.835 L 460.171 433.159 L 396.437 487.789 L 376.502 471.862 L 302.257 489.359 L 247.128 473.22 L 195.173 427.358 L 161.423 453.314 L 142.484 425.95 L 130.204 406.258 L 111.897 339.823 L 120.574 265.066 L 145.965 214.471 L 191.084 149.229 L 236.609 84.8385 L 282.72 97.9603 L 297.287 98.0368 L 320.063 105.583 L 383.513 129.394 L 407.676 145.594 L 426.019 154.469 L 470.058 195.826 L 481.262 202.776 L 488.731 300 M 489.191 300 L 497.968 304.954 L 492.258 333.295 L 452.219 405.779 L 462.416 435.026 L 397.7 490.248 L 376.858 472.664 L 302.285 491.705 L 245.11 479.829 L 194.768 427.85 L 160.708 454.105 L 141.976 426.356 L 129.732 406.554 L 111.69 339.867 L 120.515 265.055 L 145.805 214.382 L 189.625 147.21 L 236.119 83.1746 L 282.705 97.7834 L 297.245 94.9379 L 320.323 103.066 L 383.754 128.901 L 408.84 143.925 L 426.87 153.487 L 472.328 194.435 L 483.41 201.625 L 489.191 300 M 491.311 300 L 500.513 305.018 L 500.803 334.775 L 452.821 406.197 L 462.684 435.249 L 397.781 490.406 L 377.251 473.546 L 302.301 493.103 L 244.852 480.676 L 192.749 430.303 L 157.393 457.772 L 141.674 426.598 L 128.55 407.293 L 111.115 339.988 L 113.184 263.627 L 143.512 213.109 L 186.169 142.426 L 235.407 80.759 L 282.649 97.133 L 297.243 94.7779 L 320.651 99.8873 L 385.53 125.274 L 409.759 142.607 L 428.682 151.394 L 474.309 193.222 L 484.89 200.831 L 491.311 300 M 491.463 300 L 501.394 305.04 L 501.314 334.864 L 454.224 407.172 L 463.454 435.888 L 397.894 490.626 L 378.674 476.743 L 302.312 493.978 L 243.964 483.585 L 192.337 430.804 L 157.349 457.822 L 140.778 427.314 L 127.26 408.1 L 111.107 339.99 L 111.203 263.241 L 140.858 211.635 L 186.012 142.208 L 235.25 80.2241 L 282.619 96.7857 L 297.238 94.3871 L 320.657 99.8274 L 385.718 124.89 L 410.734 141.209 L 428.762 151.302 L 475.681 192.382 L 485.789 200.349 L 491.463 300 M 492.344 300 L 504.047 305.106 L 504.656 335.443 L 454.503 407.366 L 465.152 437.3 L 397.953 490.74 L 381.132 482.265 L 302.327 495.267 L 243.944 483.65 L 186.194 438.267 L 157.219 457.965 L 139.962 427.966 L 127.053 408.23 L 109.418 340.348 L 102.093 261.468 L 140.557 211.468 L 184.061 139.508 L 234.967 79.265 L 282.452 94.8332 L 297.202 91.7281 L 321.027 96.2391 L 387.025 122.219 L 410.795 141.122 L 429.169 150.832 L 476.627 191.802 L 486.478 199.979 L 492.344 300 M 493.316 300 L 504.048 305.106 L 508.529 336.113 L 455.894 408.333 L 465.774 437.818 L 398.047 490.923 L 381.714 483.572 L 302.359 497.934 L 242.57 488.153 L 185.108 439.586 L 155.143 460.262 L 137.858 429.649 L 122.05 411.361 L 109.232 340.387 L 101.924 261.435 L 140.338 211.347 L 183.27 138.413 L 234.576 77.9369 L 282.266 92.6559 L 297.179 90.0149 L 321.064 95.8867 L 387.149 121.966 L 411.571 140.008 L 429.811 150.09 L 478.094 190.903 L 488.427 198.934 L 493.316 300 M 494.864 300 L 510.69 305.272 L 508.61 336.127 L 455.901 408.338 L 465.779 437.821 L 398.463 491.734 L 382.179 484.618 L 302.379 499.668 L 242.281 489.1 L 179.68 446.181 L 154.282 461.215 L 134.802 432.092 L 121.132 411.935 L 109.161 340.402 L 101.78 261.407 L 138.818 210.502 L 182.315 137.091 L 234.419 77.4035 L 282.024 89.8235 L 297.113 85.1551 L 321.183 94.7244 L 387.666 120.911 L 414.013 136.508 L 431.39 148.268 L 480.643 189.342 L 490.534 197.803 L 494.864 300 M 495.316 300 L 512.487 305.317 L 509.863 336.344 L 462.997 413.269 L 468.457 440.048 L 398.921 492.625 L 382.931 486.306 L 302.385 500.154 L 242.156 489.506 L 178.534 447.573 L 154.066 461.453 L 134.264 432.522 L 118.825 413.379 L 108.282 340.588 L 101.747 261.4 L 134.117 207.892 L 181.533 136.008 L 234.218 76.7223 L 281.89 88.2593 L 297.092 83.5796 L 321.206 94.5081 L 387.678 120.886 L 417.503 131.502 L 435.672 143.322 L 482.128 188.432 L 491.071 197.515 L 495.316 300 M 497.134 300 L 517.99 305.455 L 510.411 336.439 L 464.105 414.039 L 470.791 441.988 L 399.066 492.908 L 384.612 490.082 L 302.422 503.281 L 240.62 494.54 L 177.321 449.047 L 153.702 461.856 L 133.459 433.166 L 117.046 414.493 L 105.955 341.081 L 98.782 260.823 L 133.392 207.489 L 178.698 132.083 L 234.175 76.5768 L 281.805 87.2714 L 297.005 77.0945 L 321.331 93.2949 L 389.289 117.594 L 417.548 131.438 L 436.267 142.635 L 483.322 187.701 L 494.325 195.77 L 497.134 300 M 500.526 300 L 521.601 305.545 L 512.791 336.851 L 467.114 416.13 L 471.641 442.695 L 399.517 493.786 L 385.79 492.729 L 302.451 505.713 L 240.438 495.136 L 177.037 449.393 L 153.668 461.894 L 132.795 433.697 L 115.438 415.499 L 103.908 341.514 L 98.4815 260.765 L 133.273 207.424 L 177.688 130.686 L 233.919 75.7067 L 281.778 86.9506 L 296.995 76.3283 L 321.738 89.3474 L 390.473 115.176 L 417.778 131.108 L 436.779 142.044 L 488.044 184.808 L 495.859 194.947 L 500.526 300 M 502.785 300 L 521.802 305.551 L 512.875 336.866 L 467.35 416.294 L 475.464 445.873 L 399.525 493.802 L 386.421 494.147 L 302.453 505.872 L 240.042 496.434 L 173.902 453.201 L 151.616 464.165 L 128.27 437.315 L 114.329 416.192 L 103.741 341.549 L 97.3687 260.548 L 133.061 207.306 L 177.646 130.627 L 233.869 75.5394 L 281.758 86.7192 L 296.983 75.4622 L 322.124 85.6083 L 391.307 113.472 L 419.321 128.895 L 437.348 141.386 L 488.237 184.69 L 496.011 194.866 L 502.785 300 M 505.21 300 L 523.639 305.596 L 515.659 337.348 L 468.443 417.053 L 476.323 446.588 L 401.461 497.57 L 386.432 494.171 L 302.549 513.936 L 239.875 496.98 L 173.25 453.993 L 148.626 467.473 L 126.262 438.921 L 113.233 416.879 L 101.153 342.097 L 96.5182 260.382 L 128.795 204.937 L 176.26 128.708 L 233.404 73.959 L 281.68 85.8053 L 296.983 75.4619 L 322.198 84.8965 L 392.954 110.108 L 421.465 125.821 L 437.766 140.904 L 488.288 184.659 L 497.488 194.073 L 505.21 300 M 506.224 300 L 525.853 305.652 L 521.606 338.378 L 468.622 417.177 L 478.202 448.149 L 403.1 500.762 L 386.468 494.253 L 302.641 521.619 L 239.628 497.791 L 170.824 456.94 L 145.247 471.21 L 126.15 439.01 L 111.812 417.768 L 101.067 342.116 L 96.1593 260.312 L 126.108 203.445 L 173.197 124.47 L 233.304 73.6209 L 281.535 84.1097 L 296.974 74.7605 L 322.276 84.1356 L 394.476 106.998 L 426.787 118.189 L 444.239 133.429 L 494.395 180.918 L 498.036 193.779 L 506.224 300 M 517.122 300 L 527.561 305.695 L 529.388 339.726 L 470.815 418.701 L 478.356 448.277 L 403.17 500.899 L 390.809 504.005 L 302.66 523.239 L 237.937 503.33 L 169.696 458.311 L 142.024 474.776 L 125.596 439.454 L 111.138 418.19 L 95.953 343.198 L 94.5806 260.005 L 125.488 203.101 L 171 121.428 L 233.089 72.8921 L 281.517 83.8942 L 296.956 73.4247 L 322.546 81.52 L 395.044 105.837 L 427.294 117.463 L 444.672 132.929 L 495.364 180.324 L 498.464 193.55 L 517.122 300 M 517.211 300 L 528.2 305.711 L 530.289 339.882 L 470.831 418.712 L 478.393 448.308 L 403.552 501.642 L 392.571 507.963 L 302.663 523.503 L 237.378 505.161 L 169.272 458.826 L 141.633 475.209 L 123.786 440.901 L 109.683 419.1 L 95.0149 343.397 L 92.4949 259.599 L 117.982 198.933 L 170.05 120.113 L 232.715 71.6226 L 281.342 81.8531 L 296.943 72.462 L 322.731 79.7242 L 396.373 103.123 L 429.232 114.684 L 448.461 128.553 L 495.635 180.158 L 499.9 192.78 L 517.211 300 M 528.585 300 L 530.88 305.778 L 532.449 340.256 L 473.337 420.454 L 479.093 448.89 L 403.804 502.134 L 393.198 509.371 L 302.708 527.232 L 236.825 506.973 L 166.648 462.014 L 141.474 475.385 L 118.498 445.129 L 108.809 419.647 L 91.8264 344.072 L 92.3224 259.565 L 117.762 198.811 L 167.63 116.763 L 232.566 71.1166 L 281.225 80.4847 L 296.925 71.1579 L 322.866 78.4174 L 397.346 101.134 L 429.319 114.559 L 450.225 126.515 L 497.709 178.888 L 500.741 192.329 L 528.585 300 M 529.158 300 L 530.989 305.78 L 532.852 340.326 L 475.257 421.788 L 479.313 449.073 L 403.83 502.185 L 394.522 512.347 L 302.767 532.227 L 236.476 508.115 L 163.988 465.246 L 141.137 475.758 L 117.443 445.973 L 108.014 420.144 L 87.5328 344.981 L 87.5915 258.644 L 117.733 198.795 L 167.155 116.105 L 232.489 70.8528 L 280.967 77.4683 L 296.874 67.3299 L 323.161 75.5582 L 398.377 99.0292 L 429.767 113.916 L 451.559 124.976 L 499.282 177.924 L 501.028 192.175 L 529.158 300 M 529.569 300 L 532.552 305.82 L 533.077 340.365 L 482.164 426.588 L 479.384 449.132 L 404.382 503.259 L 394.711 512.769 L 302.768 532.237 L 236.396 508.378 L 158.594 471.8 L 140.08 476.927 L 116.902 446.405 L 106.471 421.11 L 82.008 346.15 L 82.3115 257.616 L 117.716 198.786 L 165.984 114.484 L 232.012 69.2347 L 280.784 75.3286 L 296.857 66.0745 L 323.326 73.9582 L 398.921 97.9166 L 430.968 112.193 L 455.681 120.215 L 500.345 177.273 L 501.239 192.062 L 529.569 300 M 535.919 300 L 537.909 305.954 L 535.274 340.745 L 486.818 429.822 L 479.673 449.373 L 404.902 504.271 L 395.021 513.466 L 302.785 533.689 L 236.392 508.393 L 155.191 475.933 L 139.169 477.935 L 116.74 446.535 L 105.774 421.546 L 72.441 348.176 L 81.8103 257.519 L 115.767 197.703 L 165.548 113.881 L 231.948 69.0179 L 280.732 74.7199 L 296.834 64.376 L 323.357 73.6652 L 400.082 95.5451 L 432.014 110.693 L 455.772 120.11 L 501.352 176.656 L 503.136 191.044 L 535.919 300 M 536.873 300 L 541.842 306.052 L 537.665 341.159 L 488.372 430.902 L 481.227 450.664 L 405.054 504.568 L 395.826 515.274 L 302.808 535.62 L 236.268 508.8 L 154.966 476.207 L 138.836 478.303 L 116.032 447.101 L 99.4233 425.521 L 69.5744 348.783 L 76.6631 256.517 L 115.332 197.462 L 165.055 113.198 L 231.558 67.6933 L 280.688 74.2066 L 296.821 63.3748 L 323.42 73.0467 L 400.212 95.2799 L 432.883 109.448 L 459.176 116.179 L 503.664 175.239 L 504.934 190.08 L 536.873 300 M 537.924 300 L 543.458 306.092 L 541.332 341.794 L 489.831 431.916 L 482.238 451.504 L 405.327 505.099 L 397.271 518.522 L 302.817 536.398 L 236.022 509.603 L 154.191 477.149 L 137.584 479.688 L 110.824 451.265 L 97.7761 426.551 L 68.3902 349.033 L 75.9072 256.369 L 108.805 193.837 L 163.512 111.062 L 231.513 67.5418 L 279.682 62.4437 L 296.804 62.1509 L 323.897 68.4315 L 402.701 90.1949 L 434.508 107.118 L 461.03 114.038 L 505.598 174.055 L 505.2 189.937 L 537.924 300 M 538.594 300 L 544.166 306.11 L 542.165 341.938 L 489.837 431.92 L 485.768 454.439 L 406.814 507.995 L 397.523 519.087 L 302.826 537.184 L 235.637 510.866 L 153.783 477.645 L 136.258 481.155 L 108.655 453 L 96.4543 427.379 L 66.6726 349.397 L 75.0067 256.194 L 102.265 190.206 L 159.783 105.901 L 230.996 65.7868 L 279.548 60.8818 L 296.733 56.8544 L 324.061 66.8416 L 402.916 89.7568 L 434.559 107.044 L 462.243 112.637 L 505.866 173.891 L 506.658 189.155 L 538.594 300 M 539.082 300 L 547.215 306.186 L 543.317 342.138 L 491.473 433.057 L 489.485 457.53 L 406.924 508.21 L 399.031 522.476 L 302.844 538.629 L 232.682 520.547 L 153.606 477.86 L 136.066 481.368 L 107.814 453.672 L 95.9609 427.687 L 65.894 349.562 L 72.3155 255.67 L 96.4718 186.989 L 159.37 105.328 L 230.538 64.231 L 279.156 56.2963 L 296.726 56.3042 L 324.224 65.2574 L 404.468 86.5853 L 435.303 105.978 L 463.101 111.646 L 507.272 173.03 L 507.191 188.869 L 539.082 300 M 540.08 300 L 547.421 306.192 L 543.87 342.234 L 492.254 433.6 L 489.727 457.731 L 407.268 508.879 L 400.238 525.187 L 302.859 539.899 L 232.415 521.421 L 152.851 478.777 L 135.265 482.254 L 107.269 454.108 L 94.2359 428.767 L 63.9758 349.968 L 71.8745 255.584 L 96.2973 186.892 L 156.574 101.458 L 229.636 61.1717 L 278.979 54.2229 L 296.723 56.0686 L 324.232 65.1859 L 405.523 84.431 L 436.543 104.2 L 463.566 111.11 L 512.714 169.696 L 509.391 187.689 L 540.08 300 M 540.802 300 L 548.463 306.218 L 547.237 342.817 L 496.557 436.59 L 490.409 458.298 L 408.507 511.291 L 401.422 527.847 L 302.885 542.054 L 231.927 523.021 L 152.215 479.549 L 134.492 483.109 L 106.078 455.06 L 94.0168 428.904 L 63.5969 350.048 L 69.2754 255.078 L 96.0762 186.77 L 156.234 100.988 L 229.593 61.0241 L 278.868 52.9245 L 296.679 52.8087 L 324.663 61.0096 L 405.754 83.9577 L 436.827 103.793 L 464.643 109.866 L 513.022 169.507 L 512.628 185.953 L 540.802 300 M 542.193 300 L 550.022 306.257 L 551.233 343.509 L 496.784 436.748 L 493.368 460.758 L 408.9 512.057 L 401.746 528.574 L 302.937 546.494 L 229.805 529.972 L 151.385 480.557 L 134.164 483.472 L 105.54 455.49 L 93.7259 429.086 L 61.5411 350.483 L 67.5425 254.741 L 89.3039 183.009 L 155.813 100.404 L 229.266 59.9136 L 278.609 49.8949 L 296.653 50.8996 L 324.745 60.207 L 407.714 79.9545 L 437.323 103.081 L 466.245 108.016 L 513.979 168.921 L 512.743 185.891 L 542.193 300 M 544.471 300 L 551.467 306.293 L 551.326 343.525 L 498.741 438.108 L 495.611 462.622 L 409.521 513.265 L 402.641 530.586 L 302.967 548.993 L 228.674 533.678 L 151.304 480.655 L 132.135 485.717 L 104.89 456.01 L 91.8736 430.245 L 59.2179 350.975 L 66.107 254.461 L 85.222 180.743 L 155.527 100.009 L 229.167 59.5798 L 278.58 49.5635 L 296.621 48.4851 L 324.863 59.0674 L 408.137 79.0901 L 438.82 100.934 L 466.359 107.884 L 516.491 167.382 L 512.773 185.875 L 544.471 300 M 551.924 300 L 554.328 306.364 L 551.82 343.611 L 499.762 438.817 L 495.83 462.805 L 410.38 514.939 L 403.407 532.307 L 302.994 551.234 L 228.593 533.943 L 149.975 482.27 L 131.435 486.491 L 104.631 456.217 L 90.4909 431.111 L 57.2862 351.384 L 64.1344 254.077 L 82.8383 179.419 L 153.068 96.6052 L 229.102 59.3594 L 278.562 49.3439 L 296.607 47.4482 L 325.233 55.4868 L 409.908 75.4719 L 438.861 100.876 L 467.81 106.208 L 517.009 167.065 L 516.599 183.823 L 551.924 300 M 552.088 300 L 555.687 306.398 L 551.894 343.623 L 501.316 439.897 L 496.553 463.406 L 413.78 521.56 L 403.746 533.067 L 302.998 551.6 L 227.61 537.165 L 147.039 485.838 L 128.686 489.533 L 103.703 456.959 L 90.3017 431.229 L 56.5968 351.53 L 60.5284 253.375 L 80.9651 178.379 L 152.568 95.9132 L 228.951 58.8447 L 278.535 49.0377 L 296.593 46.4042 L 325.323 54.6118 L 410.414 74.4395 L 439.056 100.596 L 468.152 105.814 L 517.836 166.558 L 516.771 183.73 L 552.088 300 M 553.825 300 L 556.066 306.408 L 552.278 343.69 L 503.962 441.736 L 497.131 463.886 L 413.852 521.699 L 403.849 533.298 L 303.018 553.227 L 227.42 537.785 L 144.622 488.774 L 128.676 489.544 L 100.965 459.148 L 85.6107 434.165 L 56.1965 351.615 L 58.7502 253.029 L 80.5029 178.122 L 150.784 93.4427 L 228.576 57.5725 L 278.211 45.2448 L 296.586 45.921 L 325.663 51.3187 L 411.984 71.2308 L 440.81 98.0813 L 468.684 105.199 L 518.754 165.996 L 520.826 181.556 L 553.825 300 M 554.388 300 L 557.254 306.438 L 554.718 344.113 L 504.706 442.253 L 498.54 465.058 L 414.425 522.815 L 404.463 534.679 L 303.039 555.049 L 225.848 542.936 L 142.989 490.758 L 128.06 490.225 L 100.807 459.275 L 83.2447 435.645 L 56.0098 351.655 L 57.5389 252.793 L 79.4594 177.543 L 150.696 93.3212 L 227.52 53.987 L 278.021 43.0245 L 296.523 41.1906 L 325.889 49.1298 L 412.565 70.0441 L 441.439 97.1785 L 468.769 105.101 L 518.848 165.938 L 523.802 179.959 L 554.388 300 M 557.379 300 L 559.073 306.483 L 555.122 344.182 L 509.5 445.584 L 499.117 465.537 L 415.34 524.598 L 404.969 535.816 L 303.06 556.786 L 225.476 544.155 L 140.6 493.661 L 127.767 490.549 L 98.6702 460.984 L 83.0211 435.785 L 49.6916 352.992 L 53.0296 251.915 L 77.1335 176.252 L 148.823 90.7282 L 227.387 53.5376 L 277.921 41.8512 L 296.518 40.8564 L 326.1 47.0769 L 413.251 68.6433 L 443.012 94.9228 L 468.874 104.979 L 519.957 165.259 L 525.23 179.193 L 557.379 300 M 558.311 300 L 559.609 306.497 L 555.625 344.269 L 513.5 448.364 L 499.413 465.783 L 417.038 527.903 L 405.35 536.671 L 303.072 557.772 L 225.245 544.912 L 135.914 499.354 L 126.555 491.89 L 97.0315 462.294 L 81.3808 436.812 L 46.1864 353.734 L 50.3142 251.386 L 75.8369 175.532 L 148.654 90.4952 L 227.267 53.13 L 277.867 41.2204 L 296.512 40.4101 L 326.628 41.967 L 413.409 68.3195 L 445 92.0719 L 469 104.834 L 521.261 164.46 L 528.637 177.366 L 558.311 300" stroke="black" stroke-width="1" fill="none"></path></svg>
