<svg version="1.1" xmlns:xlink="http://www.w3.org/1999/xlink" xmlns="http://www.w3.org/2000/svg"><polyline points="20,20 400,20 400,400 20,400 20,20" stroke="black" stroke-width="1" fill="none"></polyline><path d="M 70.7107 70.7107 L 73.1055 88.2318 M 70.7107 70.7107 L 88.2318 73.1055 M 73.1055 88.2318 L 75.5689 105.493 M 73.1055 88.2318 L 90.7107 90.7107 M 75.5689 105.493 L 78.0869 122.47 M 75.5689 105.493 L 93.2793 108.045 M 78.0869 122.47 L 80.6405 139.136 M 78.0869 122.47 L 95.9257 125.079 M 80.6405 139.136 L 83.205 155.47 M 80.6405 139.136 L 98.6318 141.782 M 83.205 155.47 L 85.7493 171.45 M 83.205 155.47 L 101.373 158.124 M 85.7493 171.45 L 88.2353 187.059 M 85.7493 171.45 L 104.118 174.076 M 88.2353 187.059 L 90.6183 202.289 M 88.2353 187.059 L 106.824 189.614 M 90.6183 202.289 L 92.8477 217.139 M 90.6183 202.289 L 109.443 204.721 M 92.8477 217.139 L 94.8683 231.623 M 92.8477 217.139 L 111.915 219.392 M 94.8683 231.623 L 96.6235 245.766 M 94.8683 231.623 L 114.174 233.634 M 96.6235 245.766 L 98.0581 259.612 M 96.6235 245.766 L 116.152 247.472 M 98.0581 259.612 L 99.1228 273.216 M 98.0581 259.612 L 117.78 260.953 M 99.1228 273.216 L 99.7785 286.652 M 99.1228 273.216 L 118.995 274.142 M 99.7785 286.652 L 100 300 M 99.7785 286.652 L 119.746 287.125 M 100 300 L 99.7785 313.348 M 100 300 L 120 300 M 99.7785 313.348 L 99.1228 326.784 M 99.7785 313.348 L 119.746 312.875 M 99.1228 326.784 L 98.0581 340.388 M 99.1228 326.784 L 118.995 325.858 M 98.0581 340.388 L 96.6235 354.234 M 98.0581 340.388 L 117.78 339.047 M 96.6235 354.234 L 116.152 352.528 M 88.2318 73.1055 L 90.7107 90.7107 M 88.2318 73.1055 L 105.493 75.5689 M 90.7107 90.7107 L 93.2793 108.045 M 90.7107 90.7107 L 108.045 93.2793 M 93.2793 108.045 L 95.9257 125.079 M 93.2793 108.045 L 110.711 110.711 M 95.9257 125.079 L 98.6318 141.782 M 95.9257 125.079 L 113.48 127.828 M 98.6318 141.782 L 101.373 158.124 M 98.6318 141.782 L 116.339 144.594 M 101.373 158.124 L 104.118 174.076 M 101.373 158.124 L 119.262 160.971 M 104.118 174.076 L 106.824 189.614 M 104.118 174.076 L 122.219 176.921 M 106.824 189.614 L 109.443 204.721 M 106.824 189.614 L 125.166 192.41 M 109.443 204.721 L 111.915 219.392 M 109.443 204.721 L 128.047 207.41 M 111.915 219.392 L 114.174 233.634 M 111.915 219.392 L 130.796 221.906 M 114.174 233.634 L 116.152 247.472 M 114.174 233.634 L 133.335 235.898 M 116.152 247.472 L 117.78 260.953 M 116.152 247.472 L 135.578 249.409 M 117.78 260.953 L 118.995 274.142 M 117.78 260.953 L 137.439 262.486 M 118.995 274.142 L 119.746 287.125 M 118.995 274.142 L 138.837 275.206 M 119.746 287.125 L 120 300 M 119.746 287.125 L 139.705 287.67 M 120 300 L 119.746 312.875 M 120 300 L 140 300 M 119.746 312.875 L 118.995 325.858 M 119.746 312.875 L 139.705 312.33 M 118.995 325.858 L 117.78 339.047 M 118.995 325.858 L 138.837 324.794 M 117.78 339.047 L 116.152 352.528 M 117.78 339.047 L 137.439 337.514 M 116.152 352.528 L 135.578 350.591 M 105.493 75.5689 L 108.045 93.2793 M 105.493 75.5689 L 122.47 78.0869 M 108.045 93.2793 L 110.711 110.711 M 108.045 93.2793 L 125.079 95.9257 M 110.711 110.711 L 113.48 127.828 M 110.711 110.711 L 127.828 113.48 M 113.48 127.828 L 116.339 144.594 M 113.48 127.828 L 130.711 130.711 M 116.339 144.594 L 119.262 160.971 M 116.339 144.594 L 133.715 147.572 M 119.262 160.971 L 122.219 176.921 M 119.262 160.971 L 136.822 164.018 M 122.219 176.921 L 125.166 192.41 M 122.219 176.921 L 140 180 M 125.166 192.41 L 128.047 207.41 M 125.166 192.41 L 143.205 195.47 M 128.047 207.41 L 130.796 221.906 M 128.047 207.41 L 146.378 210.387 M 130.796 221.906 L 133.335 235.898 M 130.796 221.906 L 149.443 224.721 M 133.335 235.898 L 135.578 249.409 M 133.335 235.898 L 152.308 238.462 M 135.578 249.409 L 137.439 262.486 M 135.578 249.409 L 154.868 251.623 M 137.439 262.486 L 138.837 275.206 M 137.439 262.486 L 157.014 264.254 M 138.837 275.206 L 139.705 287.67 M 138.837 275.206 L 158.639 276.44 M 139.705 287.67 L 140 300 M 139.705 287.67 L 159.655 288.305 M 140 300 L 139.705 312.33 M 140 300 L 160 300 M 139.705 312.33 L 138.837 324.794 M 139.705 312.33 L 159.655 311.695 M 138.837 324.794 L 137.439 337.514 M 138.837 324.794 L 158.639 323.56 M 137.439 337.514 L 135.578 350.591 M 137.439 337.514 L 157.014 335.746 M 135.578 350.591 L 154.868 348.377 M 122.47 78.0869 L 125.079 95.9257 M 122.47 78.0869 L 139.136 80.6405 M 125.079 95.9257 L 127.828 113.48 M 125.079 95.9257 L 141.782 98.6318 M 127.828 113.48 L 130.711 130.711 M 127.828 113.48 L 144.594 116.339 M 130.711 130.711 L 133.715 147.572 M 130.711 130.711 L 147.572 133.715 M 133.715 147.572 L 136.822 164.018 M 133.715 147.572 L 150.711 150.711 M 136.822 164.018 L 140 180 M 136.822 164.018 L 153.994 167.267 M 140 180 L 143.205 195.47 M 140 180 L 157.396 183.324 M 143.205 195.47 L 146.378 210.387 M 143.205 195.47 L 160.874 198.817 M 146.378 210.387 L 149.443 224.721 M 146.378 210.387 L 164.366 213.688 M 149.443 224.721 L 152.308 238.462 M 149.443 224.721 L 167.79 227.885 M 152.308 238.462 L 154.868 251.623 M 152.308 238.462 L 171.037 241.38 M 154.868 251.623 L 157.014 264.254 M 154.868 251.623 L 173.979 254.174 M 157.014 264.254 L 158.639 276.44 M 157.014 264.254 L 176.476 266.312 M 158.639 276.44 L 159.655 288.305 M 158.639 276.44 L 178.387 277.889 M 159.655 288.305 L 160 300 M 159.655 288.305 L 179.589 289.054 M 160 300 L 159.655 311.695 M 160 300 L 180 300 M 159.655 311.695 L 158.639 323.56 M 159.655 311.695 L 179.589 310.946 M 158.639 323.56 L 157.014 335.746 M 158.639 323.56 L 178.387 322.111 M 157.014 335.746 L 154.868 348.377 M 157.014 335.746 L 176.476 333.688 M 154.868 348.377 L 173.979 345.826 M 139.136 80.6405 L 141.782 98.6318 M 139.136 80.6405 L 155.47 83.205 M 141.782 98.6318 L 144.594 116.339 M 141.782 98.6318 L 158.124 101.373 M 144.594 116.339 L 147.572 133.715 M 144.594 116.339 L 160.971 119.262 M 147.572 133.715 L 150.711 150.711 M 147.572 133.715 L 164.018 136.822 M 150.711 150.711 L 153.994 167.267 M 150.711 150.711 L 167.267 153.994 M 153.994 167.267 L 157.396 183.324 M 153.994 167.267 L 170.711 170.711 M 157.396 183.324 L 160.874 198.817 M 157.396 183.324 L 174.329 186.896 M 160.874 198.817 L 164.366 213.688 M 160.874 198.817 L 178.087 202.47 M 164.366 213.688 L 167.79 227.885 M 164.366 213.688 L 181.923 217.346 M 167.79 227.885 L 171.037 241.38 M 167.79 227.885 L 185.749 231.45 M 171.037 241.38 L 173.979 254.174 M 171.037 241.38 L 189.443 244.721 M 173.979 254.174 L 176.476 266.312 M 173.979 254.174 L 192.848 257.139 M 176.476 266.312 L 178.387 277.889 M 176.476 266.312 L 195.783 268.735 M 178.387 277.889 L 179.589 289.054 M 178.387 277.889 L 198.058 279.612 M 179.589 289.054 L 180 300 M 179.589 289.054 L 199.504 289.95 M 180 300 L 179.589 310.946 M 180 300 L 200 300 M 179.589 310.946 L 178.387 322.111 M 179.589 310.946 L 199.504 310.05 M 178.387 322.111 L 176.476 333.688 M 178.387 322.111 L 198.058 320.388 M 176.476 333.688 L 173.979 345.826 M 176.476 333.688 L 195.783 331.265 M 173.979 345.826 L 192.848 342.861 M 155.47 83.205 L 158.124 101.373 M 155.47 83.205 L 171.45 85.7493 M 158.124 101.373 L 160.971 119.262 M 158.124 101.373 L 174.076 104.118 M 160.971 119.262 L 164.018 136.822 M 160.971 119.262 L 176.921 122.219 M 164.018 136.822 L 167.267 153.994 M 164.018 136.822 L 180 140 M 167.267 153.994 L 170.711 170.711 M 167.267 153.994 L 183.324 157.396 M 170.711 170.711 L 174.329 186.896 M 170.711 170.711 L 186.896 174.329 M 174.329 186.896 L 178.087 202.47 M 174.329 186.896 L 190.711 190.711 M 178.087 202.47 L 181.923 217.346 M 178.087 202.47 L 194.741 206.436 M 181.923 217.346 L 185.749 231.45 M 181.923 217.346 L 198.935 221.394 M 185.749 231.45 L 189.443 244.721 M 185.749 231.45 L 203.205 235.47 M 189.443 244.721 L 192.848 257.139 M 189.443 244.721 L 207.416 248.564 M 192.848 257.139 L 195.783 268.735 M 192.848 257.139 L 211.381 260.614 M 195.783 268.735 L 198.058 279.612 M 195.783 268.735 L 214.868 271.623 M 198.058 279.612 L 199.504 289.95 M 198.058 279.612 L 217.619 281.693 M 199.504 289.95 L 200 300 M 199.504 289.95 L 219.388 291.043 M 200 300 L 199.504 310.05 M 200 300 L 220 300 M 199.504 310.05 L 198.058 320.388 M 199.504 310.05 L 219.388 308.957 M 198.058 320.388 L 195.783 331.265 M 198.058 320.388 L 217.619 318.307 M 195.783 331.265 L 192.848 342.861 M 195.783 331.265 L 214.868 328.377 M 192.848 342.861 L 211.381 339.386 M 171.45 85.7493 L 174.076 104.118 M 171.45 85.7493 L 187.059 88.2353 M 174.076 104.118 L 176.921 122.219 M 174.076 104.118 L 189.614 106.824 M 176.921 122.219 L 180 140 M 176.921 122.219 L 192.41 125.166 M 180 140 L 183.324 157.396 M 180 140 L 195.47 143.205 M 183.324 157.396 L 186.896 174.329 M 183.324 157.396 L 198.817 160.874 M 186.896 174.329 L 190.711 190.711 M 186.896 174.329 L 202.47 178.087 M 190.711 190.711 L 194.741 206.436 M 190.711 190.711 L 206.436 194.741 M 194.741 206.436 L 198.935 221.394 M 194.741 206.436 L 210.711 210.711 M 198.935 221.394 L 203.205 235.47 M 198.935 221.394 L 215.258 225.85 M 203.205 235.47 L 207.416 248.564 M 203.205 235.47 L 220 240 M 207.416 248.564 L 211.381 260.614 M 207.416 248.564 L 224.8 253 M 211.381 260.614 L 214.868 271.623 M 211.381 260.614 L 229.443 264.721 M 214.868 271.623 L 217.619 281.693 M 214.868 271.623 L 233.633 275.112 M 217.619 281.693 L 219.388 291.043 M 217.619 281.693 L 237.014 284.254 M 219.388 291.043 L 220 300 M 219.388 291.043 L 239.228 292.403 M 220 300 L 219.388 308.957 M 220 300 L 240 300 M 219.388 308.957 L 217.619 318.307 M 219.388 308.957 L 239.228 307.597 M 217.619 318.307 L 214.868 328.377 M 217.619 318.307 L 237.014 315.746 M 214.868 328.377 L 211.381 339.386 M 214.868 328.377 L 233.633 324.888 M 211.381 339.386 L 229.443 335.279 M 187.059 88.2353 L 189.614 106.824 M 187.059 88.2353 L 202.289 90.6183 M 189.614 106.824 L 192.41 125.166 M 189.614 106.824 L 204.721 109.443 M 192.41 125.166 L 195.47 143.205 M 192.41 125.166 L 207.41 128.047 M 195.47 143.205 L 198.817 160.874 M 195.47 143.205 L 210.387 146.378 M 198.817 160.874 L 202.47 178.087 M 198.817 160.874 L 213.688 164.366 M 202.47 178.087 L 206.436 194.741 M 202.47 178.087 L 217.346 181.923 M 206.436 194.741 L 210.711 210.711 M 206.436 194.741 L 221.394 198.935 M 210.711 210.711 L 215.258 225.85 M 210.711 210.711 L 225.85 215.258 M 215.258 225.85 L 220 240 M 215.258 225.85 L 230.711 230.711 M 220 240 L 224.8 253 M 220 240 L 235.926 245.079 M 224.8 253 L 229.443 264.721 M 224.8 253 L 241.373 258.124 M 229.443 264.721 L 233.633 275.112 M 229.443 264.721 L 246.824 269.614 M 233.633 275.112 L 237.014 284.254 M 233.633 275.112 L 251.915 279.392 M 237.014 284.254 L 239.228 292.403 M 237.014 284.254 L 256.152 287.472 M 239.228 292.403 L 240 300 M 239.228 292.403 L 258.995 294.142 M 240 300 L 239.228 307.597 M 240 300 L 260 300 M 239.228 307.597 L 237.014 315.746 M 239.228 307.597 L 258.995 305.858 M 237.014 315.746 L 233.633 324.888 M 237.014 315.746 L 256.152 312.528 M 233.633 324.888 L 229.443 335.279 M 233.633 324.888 L 251.915 320.608 M 229.443 335.279 L 246.824 330.386 M 202.289 90.6183 L 204.721 109.443 M 202.289 90.6183 L 217.139 92.8477 M 204.721 109.443 L 207.41 128.047 M 204.721 109.443 L 219.392 111.915 M 207.41 128.047 L 210.387 146.378 M 207.41 128.047 L 221.906 130.796 M 210.387 146.378 L 213.688 164.366 M 210.387 146.378 L 224.721 149.443 M 213.688 164.366 L 217.346 181.923 M 213.688 164.366 L 227.885 167.79 M 217.346 181.923 L 221.394 198.935 M 217.346 181.923 L 231.45 185.749 M 221.394 198.935 L 225.85 215.258 M 221.394 198.935 L 235.47 203.205 M 225.85 215.258 L 230.711 230.711 M 225.85 215.258 L 240 220 M 230.711 230.711 L 235.926 245.079 M 230.711 230.711 L 245.079 235.926 M 235.926 245.079 L 241.373 258.124 M 235.926 245.079 L 250.711 250.711 M 241.373 258.124 L 246.824 269.614 M 241.373 258.124 L 256.822 264.018 M 246.824 269.614 L 251.915 279.392 M 246.824 269.614 L 263.205 275.47 M 251.915 279.392 L 256.152 287.472 M 251.915 279.392 L 269.443 284.721 M 256.152 287.472 L 258.995 294.142 M 256.152 287.472 L 274.868 291.623 M 258.995 294.142 L 260 300 M 258.995 294.142 L 278.639 296.44 M 260 300 L 258.995 305.858 M 260 300 L 280 300 M 258.995 305.858 L 256.152 312.528 M 258.995 305.858 L 278.639 303.56 M 256.152 312.528 L 251.915 320.608 M 256.152 312.528 L 274.868 308.377 M 251.915 320.608 L 246.824 330.386 M 251.915 320.608 L 269.443 315.279 M 246.824 330.386 L 263.205 324.53 M 217.139 92.8477 L 219.392 111.915 M 217.139 92.8477 L 231.623 94.8683 M 219.392 111.915 L 221.906 130.796 M 219.392 111.915 L 233.634 114.174 M 221.906 130.796 L 224.721 149.443 M 221.906 130.796 L 235.898 133.335 M 224.721 149.443 L 227.885 167.79 M 224.721 149.443 L 238.462 152.308 M 227.885 167.79 L 231.45 185.749 M 227.885 167.79 L 241.38 171.037 M 231.45 185.749 L 235.47 203.205 M 231.45 185.749 L 244.721 189.443 M 235.47 203.205 L 240 220 M 235.47 203.205 L 248.564 207.416 M 240 220 L 245.079 235.926 M 240 220 L 253 224.8 M 245.079 235.926 L 250.711 250.711 M 245.079 235.926 L 258.124 241.373 M 250.711 250.711 L 256.822 264.018 M 250.711 250.711 L 264.018 256.822 M 256.822 264.018 L 263.205 275.47 M 256.822 264.018 L 270.711 270.711 M 263.205 275.47 L 269.443 284.721 M 263.205 275.47 L 278.087 282.47 M 269.443 284.721 L 274.868 291.623 M 269.443 284.721 L 285.749 291.45 M 274.868 291.623 L 278.639 296.44 M 274.868 291.623 L 292.848 297.139 M 278.639 296.44 L 280 300 M 278.639 296.44 L 298.058 299.612 M 280 300 L 278.639 303.56 M 280 300 L 300 300 M 278.639 303.56 L 274.868 308.377 M 278.639 303.56 L 298.058 300.388 M 274.868 308.377 L 269.443 315.279 M 274.868 308.377 L 292.848 302.861 M 269.443 315.279 L 263.205 324.53 M 269.443 315.279 L 285.749 308.55 M 263.205 324.53 L 278.087 317.53 M 231.623 94.8683 L 233.634 114.174 M 231.623 94.8683 L 245.766 96.6235 M 233.634 114.174 L 235.898 133.335 M 233.634 114.174 L 247.472 116.152 M 235.898 133.335 L 238.462 152.308 M 235.898 133.335 L 249.409 135.578 M 238.462 152.308 L 241.38 171.037 M 238.462 152.308 L 251.623 154.868 M 241.38 171.037 L 244.721 189.443 M 241.38 171.037 L 254.174 173.979 M 244.721 189.443 L 248.564 207.416 M 244.721 189.443 L 257.139 192.848 M 248.564 207.416 L 253 224.8 M 248.564 207.416 L 260.614 211.381 M 253 224.8 L 258.124 241.373 M 253 224.8 L 264.721 229.443 M 258.124 241.373 L 264.018 256.822 M 258.124 241.373 L 269.614 246.824 M 264.018 256.822 L 270.711 270.711 M 264.018 256.822 L 275.47 263.205 M 270.711 270.711 L 278.087 282.47 M 270.711 270.711 L 282.47 278.087 M 278.087 282.47 L 285.749 291.45 M 278.087 282.47 L 290.711 290.711 M 285.749 291.45 L 292.848 297.139 M 285.749 291.45 L 300 300 M 292.848 297.139 L 298.058 299.612 M 292.848 297.139 L 309.443 304.721 M 298.058 299.612 L 300 300 M 298.058 299.612 L 317.014 304.254 M 300 300 L 298.058 300.388 M 300 300 L 320 300 M 298.058 300.388 L 292.848 302.861 M 298.058 300.388 L 317.014 295.746 M 292.848 302.861 L 285.749 308.55 M 292.848 302.861 L 309.443 295.279 M 285.749 308.55 L 278.087 317.53 M 285.749 308.55 L 300 300 M 278.087 317.53 L 290.711 309.289 M 245.766 96.6235 L 247.472 116.152 M 245.766 96.6235 L 259.612 98.0581 M 247.472 116.152 L 249.409 135.578 M 247.472 116.152 L 260.953 117.78 M 249.409 135.578 L 251.623 154.868 M 249.409 135.578 L 262.486 137.439 M 251.623 154.868 L 254.174 173.979 M 251.623 154.868 L 264.254 157.014 M 254.174 173.979 L 257.139 192.848 M 254.174 173.979 L 266.312 176.476 M 257.139 192.848 L 260.614 211.381 M 257.139 192.848 L 268.735 195.783 M 260.614 211.381 L 264.721 229.443 M 260.614 211.381 L 271.623 214.868 M 264.721 229.443 L 269.614 246.824 M 264.721 229.443 L 275.112 233.633 M 269.614 246.824 L 275.47 263.205 M 269.614 246.824 L 279.392 251.915 M 275.47 263.205 L 282.47 278.087 M 275.47 263.205 L 284.721 269.443 M 282.47 278.087 L 290.711 290.711 M 282.47 278.087 L 291.45 285.749 M 290.711 290.711 L 300 300 M 290.711 290.711 L 300 300 M 300 300 L 309.443 304.721 M 300 300 L 310.711 310.711 M 309.443 304.721 L 317.014 304.254 M 309.443 304.721 L 323.205 315.47 M 317.014 304.254 L 320 300 M 317.014 304.254 L 334.868 311.623 M 320 300 L 317.014 295.746 M 320 300 L 340 300 M 317.014 295.746 L 309.443 295.279 M 317.014 295.746 L 334.868 288.377 M 309.443 295.279 L 300 300 M 309.443 295.279 L 323.205 284.53 M 300 300 L 290.711 309.289 M 300 300 L 310.711 289.289 M 290.711 309.289 L 300 300 M 259.612 98.0581 L 260.953 117.78 M 259.612 98.0581 L 273.216 99.1228 M 260.953 117.78 L 262.486 137.439 M 260.953 117.78 L 274.142 118.995 M 262.486 137.439 L 264.254 157.014 M 262.486 137.439 L 275.206 138.837 M 264.254 157.014 L 266.312 176.476 M 264.254 157.014 L 276.44 158.639 M 266.312 176.476 L 268.735 195.783 M 266.312 176.476 L 277.889 178.387 M 268.735 195.783 L 271.623 214.868 M 268.735 195.783 L 279.612 198.058 M 271.623 214.868 L 275.112 233.633 M 271.623 214.868 L 281.693 217.619 M 275.112 233.633 L 279.392 251.915 M 275.112 233.633 L 284.254 237.014 M 279.392 251.915 L 284.721 269.443 M 279.392 251.915 L 287.472 256.152 M 284.721 269.443 L 291.45 285.749 M 284.721 269.443 L 291.623 274.868 M 291.45 285.749 L 300 300 M 291.45 285.749 L 297.139 292.848 M 300 300 L 310.711 310.711 M 300 300 L 304.721 309.443 M 310.711 310.711 L 323.205 315.47 M 310.711 310.711 L 315.47 323.205 M 323.205 315.47 L 334.868 311.623 M 323.205 315.47 L 330.711 330.711 M 334.868 311.623 L 340 300 M 334.868 311.623 L 349.443 324.721 M 340 300 L 334.868 288.377 M 340 300 L 360 300 M 334.868 288.377 L 323.205 284.53 M 334.868 288.377 L 349.443 275.279 M 323.205 284.53 L 310.711 289.289 M 323.205 284.53 L 330.711 269.289 M 310.711 289.289 L 300 300 M 310.711 289.289 L 315.47 276.795 M 300 300 L 304.721 290.557 M 273.216 99.1228 L 274.142 118.995 M 273.216 99.1228 L 286.652 99.7785 M 274.142 118.995 L 275.206 138.837 M 274.142 118.995 L 287.125 119.746 M 275.206 138.837 L 276.44 158.639 M 275.206 138.837 L 287.67 139.705 M 276.44 158.639 L 277.889 178.387 M 276.44 158.639 L 288.305 159.655 M 277.889 178.387 L 279.612 198.058 M 277.889 178.387 L 289.054 179.589 M 279.612 198.058 L 281.693 217.619 M 279.612 198.058 L 289.95 199.504 M 281.693 217.619 L 284.254 237.014 M 281.693 217.619 L 291.043 219.388 M 284.254 237.014 L 287.472 256.152 M 284.254 237.014 L 292.403 239.228 M 287.472 256.152 L 291.623 274.868 M 287.472 256.152 L 294.142 258.995 M 291.623 274.868 L 297.139 292.848 M 291.623 274.868 L 296.44 278.639 M 297.139 292.848 L 304.721 309.443 M 297.139 292.848 L 299.612 298.058 M 304.721 309.443 L 315.47 323.205 M 304.721 309.443 L 304.254 317.014 M 315.47 323.205 L 330.711 330.711 M 315.47 323.205 L 311.623 334.868 M 330.711 330.711 L 349.443 324.721 M 330.711 330.711 L 324.721 349.443 M 349.443 324.721 L 360 300 M 349.443 324.721 L 350.711 350.711 M 360 300 L 349.443 275.279 M 360 300 L 380 300 M 349.443 275.279 L 330.711 269.289 M 349.443 275.279 L 350.711 249.289 M 330.711 269.289 L 315.47 276.795 M 330.711 269.289 L 324.721 250.557 M 315.47 276.795 L 304.721 290.557 M 315.47 276.795 L 311.623 265.132 M 304.721 290.557 L 304.254 282.986 M 286.652 99.7785 L 287.125 119.746 M 286.652 99.7785 L 300 100 M 287.125 119.746 L 287.67 139.705 M 287.125 119.746 L 300 120 M 287.67 139.705 L 288.305 159.655 M 287.67 139.705 L 300 140 M 288.305 159.655 L 289.054 179.589 M 288.305 159.655 L 300 160 M 289.054 179.589 L 289.95 199.504 M 289.054 179.589 L 300 180 M 289.95 199.504 L 291.043 219.388 M 289.95 199.504 L 300 200 M 291.043 219.388 L 292.403 239.228 M 291.043 219.388 L 300 220 M 292.403 239.228 L 294.142 258.995 M 292.403 239.228 L 300 240 M 294.142 258.995 L 296.44 278.639 M 294.142 258.995 L 300 260 M 296.44 278.639 L 299.612 298.058 M 296.44 278.639 L 300 280 M 299.612 298.058 L 304.254 317.014 M 299.612 298.058 L 300 300 M 304.254 317.014 L 311.623 334.868 M 304.254 317.014 L 300 320 M 311.623 334.868 L 324.721 349.443 M 311.623 334.868 L 300 340 M 324.721 349.443 L 350.711 350.711 M 324.721 349.443 L 300 360 M 350.711 350.711 L 380 300 M 350.711 350.711 L 300 380 M 380 300 L 350.711 249.289 M 380 300 L 300 300 M 350.711 249.289 L 324.721 250.557 M 350.711 249.289 L 300 220 M 324.721 250.557 L 311.623 265.132 M 324.721 250.557 L 300 240 M 311.623 265.132 L 304.254 282.986 M 311.623 265.132 L 300 260 M 304.254 282.986 L 300 280 M 300 100 L 300 120 M 300 100 L 313.348 99.7785 M 300 120 L 300 140 M 300 120 L 312.875 119.746 M 300 140 L 300 160 M 300 140 L 312.33 139.705 M 300 160 L 300 180 M 300 160 L 311.695 159.655 M 300 180 L 300 200 M 300 180 L 310.946 179.589 M 300 200 L 300 220 M 300 200 L 310.05 199.504 M 300 220 L 300 240 M 300 220 L 308.957 219.388 M 300 240 L 300 260 M 300 240 L 307.597 239.228 M 300 260 L 300 280 M 300 260 L 305.858 258.995 M 300 280 L 300 300 M 300 280 L 303.56 278.639 M 300 300 L 300 320 M 300 300 L 300.388 298.058 M 300 320 L 300 340 M 300 320 L 295.746 317.014 M 300 340 L 300 360 M 300 340 L 288.377 334.868 M 300 360 L 300 380 M 300 360 L 275.279 349.443 M 300 380 L 300 300 M 300 380 L 249.289 350.711 M 300 300 L 300 220 M 300 300 L 220 300 M 300 220 L 300 240 M 300 220 L 249.289 249.289 M 300 240 L 300 260 M 300 240 L 275.279 250.557 M 300 260 L 300 280 M 300 260 L 288.377 265.132 M 300 280 L 295.746 282.986 M 313.348 99.7785 L 312.875 119.746 M 313.348 99.7785 L 326.784 99.1228 M 312.875 119.746 L 312.33 139.705 M 312.875 119.746 L 325.858 118.995 M 312.33 139.705 L 311.695 159.655 M 312.33 139.705 L 324.794 138.837 M 311.695 159.655 L 310.946 179.589 M 311.695 159.655 L 323.56 158.639 M 310.946 179.589 L 310.05 199.504 M 310.946 179.589 L 322.111 178.387 M 310.05 199.504 L 308.957 219.388 M 310.05 199.504 L 320.388 198.058 M 308.957 219.388 L 307.597 239.228 M 308.957 219.388 L 318.307 217.619 M 307.597 239.228 L 305.858 258.995 M 307.597 239.228 L 315.746 237.014 M 305.858 258.995 L 303.56 278.639 M 305.858 258.995 L 312.528 256.152 M 303.56 278.639 L 300.388 298.058 M 303.56 278.639 L 308.377 274.868 M 300.388 298.058 L 295.746 317.014 M 300.388 298.058 L 302.861 292.848 M 295.746 317.014 L 288.377 334.868 M 295.746 317.014 L 295.279 309.443 M 288.377 334.868 L 275.279 349.443 M 288.377 334.868 L 284.53 323.205 M 275.279 349.443 L 249.289 350.711 M 275.279 349.443 L 269.289 330.711 M 249.289 350.711 L 220 300 M 249.289 350.711 L 250.557 324.721 M 220 300 L 249.289 249.289 M 220 300 L 240 300 M 249.289 249.289 L 275.279 250.557 M 249.289 249.289 L 250.557 275.279 M 275.279 250.557 L 288.377 265.132 M 275.279 250.557 L 269.289 269.289 M 288.377 265.132 L 295.746 282.986 M 288.377 265.132 L 284.53 276.795 M 295.746 282.986 L 295.279 290.557 M 326.784 99.1228 L 325.858 118.995 M 326.784 99.1228 L 340.388 98.0581 M 325.858 118.995 L 324.794 138.837 M 325.858 118.995 L 339.047 117.78 M 324.794 138.837 L 323.56 158.639 M 324.794 138.837 L 337.514 137.439 M 323.56 158.639 L 322.111 178.387 M 323.56 158.639 L 335.746 157.014 M 322.111 178.387 L 320.388 198.058 M 322.111 178.387 L 333.688 176.476 M 320.388 198.058 L 318.307 217.619 M 320.388 198.058 L 331.265 195.783 M 318.307 217.619 L 315.746 237.014 M 318.307 217.619 L 328.377 214.868 M 315.746 237.014 L 312.528 256.152 M 315.746 237.014 L 324.888 233.633 M 312.528 256.152 L 308.377 274.868 M 312.528 256.152 L 320.608 251.915 M 308.377 274.868 L 302.861 292.848 M 308.377 274.868 L 315.279 269.443 M 302.861 292.848 L 295.279 309.443 M 302.861 292.848 L 308.55 285.749 M 295.279 309.443 L 284.53 323.205 M 295.279 309.443 L 300 300 M 284.53 323.205 L 269.289 330.711 M 284.53 323.205 L 289.289 310.711 M 269.289 330.711 L 250.557 324.721 M 269.289 330.711 L 276.795 315.47 M 250.557 324.721 L 240 300 M 250.557 324.721 L 265.132 311.623 M 240 300 L 250.557 275.279 M 240 300 L 260 300 M 250.557 275.279 L 269.289 269.289 M 250.557 275.279 L 265.132 288.377 M 269.289 269.289 L 284.53 276.795 M 269.289 269.289 L 276.795 284.53 M 284.53 276.795 L 295.279 290.557 M 284.53 276.795 L 289.289 289.289 M 295.279 290.557 L 300 300 M 340.388 98.0581 L 339.047 117.78 M 340.388 98.0581 L 354.234 96.6235 M 339.047 117.78 L 337.514 137.439 M 339.047 117.78 L 352.528 116.152 M 337.514 137.439 L 335.746 157.014 M 337.514 137.439 L 350.591 135.578 M 335.746 157.014 L 333.688 176.476 M 335.746 157.014 L 348.377 154.868 M 333.688 176.476 L 331.265 195.783 M 333.688 176.476 L 345.826 173.979 M 331.265 195.783 L 328.377 214.868 M 331.265 195.783 L 342.861 192.848 M 328.377 214.868 L 324.888 233.633 M 328.377 214.868 L 339.386 211.381 M 324.888 233.633 L 320.608 251.915 M 324.888 233.633 L 335.279 229.443 M 320.608 251.915 L 315.279 269.443 M 320.608 251.915 L 330.386 246.824 M 315.279 269.443 L 308.55 285.749 M 315.279 269.443 L 324.53 263.205 M 308.55 285.749 L 300 300 M 308.55 285.749 L 317.53 278.087 M 300 300 L 289.289 310.711 M 300 300 L 309.289 290.711 M 289.289 310.711 L 276.795 315.47 M 289.289 310.711 L 300 300 M 276.795 315.47 L 265.132 311.623 M 276.795 315.47 L 290.557 304.721 M 265.132 311.623 L 260 300 M 265.132 311.623 L 282.986 304.254 M 260 300 L 265.132 288.377 M 260 300 L 280 300 M 265.132 288.377 L 276.795 284.53 M 265.132 288.377 L 282.986 295.746 M 276.795 284.53 L 289.289 289.289 M 276.795 284.53 L 290.557 295.279 M 289.289 289.289 L 300 300 M 289.289 289.289 L 300 300 M 300 300 L 309.289 309.289 M 354.234 96.6235 L 352.528 116.152 M 352.528 116.152 L 350.591 135.578 M 350.591 135.578 L 348.377 154.868 M 348.377 154.868 L 345.826 173.979 M 345.826 173.979 L 342.861 192.848 M 342.861 192.848 L 339.386 211.381 M 339.386 211.381 L 335.279 229.443 M 335.279 229.443 L 330.386 246.824 M 330.386 246.824 L 324.53 263.205 M 324.53 263.205 L 317.53 278.087 M 317.53 278.087 L 309.289 290.711 M 309.289 290.711 L 300 300 M 300 300 L 290.557 304.721 M 290.557 304.721 L 282.986 304.254 M 282.986 304.254 L 280 300 M 280 300 L 282.986 295.746 M 282.986 295.746 L 290.557 295.279 M 290.557 295.279 L 300 300 M 300 300 L 309.289 309.289" stroke="black" stroke-width="1" fill="none"></path></svg>
