<svg version="1.1" xmlns:xlink="http://www.w3.org/1999/xlink" xmlns="http://www.w3.org/2000/svg"><polyline points="50,75 650,75 650,175 50,175 50,75" stroke="black" stroke-width="1" fill="none"></polyline><path d="M 75 125 L 100 100 L 103.001 100 L 116.991 100 L 134.922 100 L 148.325 100 L 167.945 100 L 183.964 100 L 198.243 100 L 211.779 100 L 229.697 100 L 240.31 100 L 247.384 100 L 252.574 100 L 256.827 100 L 260.183 100 L 278.141 100 L 284.82 100 L 299.483 100 L 314.096 100 L 327.23 100 L 339.764 100 L 349.946 100 L 353.77 100 L 364.876 100 L 384.468 100 L 396.741 100 L 400.896 100 L 413.924 100 L 428.161 100 L 436.73 100 L 448.177 100 L 456.144 100 L 475.87 100 L 483.347 100 L 499.288 100 L 508.961 100 L 520.303 100 L 533.667 100 L 550.362 100 L 564.832 100 L 580.136 100 L 596.613 100 L 621.613 125 M 75 125 L 100 103.514 L 103.001 100.532 L 116.991 100.609 L 134.922 103.11 L 148.325 101.646 L 167.945 100.489 L 183.964 100.087 L 198.243 100.453 L 211.779 100.28 L 229.697 100.694 L 240.31 101.611 L 247.384 101.345 L 252.574 100.126 L 256.827 101.091 L 260.183 101.277 L 278.141 102.464 L 284.82 100.309 L 299.483 101.575 L 314.096 101.156 L 327.23 102.225 L 339.764 100.323 L 349.946 101.273 L 353.77 101.569 L 364.876 102.241 L 384.468 100.344 L 396.741 103.171 L 400.896 100.769 L 413.924 101.283 L 428.161 100.802 L 436.73 100.75 L 448.177 100.097 L 456.144 100.3 L 475.87 100.354 L 483.347 100.182 L 499.288 100.351 L 508.961 100.172 L 520.303 102.595 L 533.667 100.384 L 550.362 100.833 L 564.832 101.103 L 580.136 100.946 L 596.613 100.234 L 621.613 125 M 75 125 L 100 104.028 L 103.001 101.246 L 116.991 100.998 L 134.922 104.343 L 148.325 102.46 L 167.945 101.621 L 183.964 102.592 L 198.243 101.696 L 211.779 100.407 L 229.697 100.778 L 240.31 104.396 L 247.384 101.482 L 252.574 100.602 L 256.827 102.221 L 260.183 102.232 L 278.141 102.791 L 284.82 102.562 L 299.483 101.739 L 314.096 102.927 L 327.23 102.405 L 339.764 100.429 L 349.946 102.099 L 353.77 102.607 L 364.876 102.337 L 384.468 101.28 L 396.741 103.733 L 400.896 100.973 L 413.924 101.441 L 428.161 100.806 L 436.73 103.363 L 448.177 101.37 L 456.144 101.252 L 475.87 100.372 L 483.347 100.788 L 499.288 101.24 L 508.961 101.473 L 520.303 102.873 L 533.667 101.612 L 550.362 104.514 L 564.832 101.576 L 580.136 101.384 L 596.613 101.791 L 621.613 125 M 75 125 L 100 107.413 L 103.001 101.498 L 116.991 103.643 L 134.922 108.549 L 148.325 102.763 L 167.945 103.894 L 183.964 104.573 L 198.243 102.342 L 211.779 101.238 L 229.697 101.324 L 240.31 104.774 L 247.384 104.397 L 252.574 100.997 L 256.827 102.374 L 260.183 103.129 L 278.141 106.873 L 284.82 104.202 L 299.483 102.238 L 314.096 105.947 L 327.23 102.47 L 339.764 102.693 L 349.946 104.042 L 353.77 102.973 L 364.876 102.575 L 384.468 104.461 L 396.741 106.986 L 400.896 102.013 L 413.924 102.224 L 428.161 103.876 L 436.73 105.235 L 448.177 101.64 L 456.144 104.213 L 475.87 101.803 L 483.347 101.447 L 499.288 103.173 L 508.961 101.502 L 520.303 103.804 L 533.667 104.454 L 550.362 106.078 L 564.832 103.367 L 580.136 101.411 L 596.613 101.837 L 621.613 125 M 75 125 L 100 108.206 L 103.001 101.577 L 116.991 103.958 L 134.922 109.938 L 148.325 103.474 L 167.945 104.056 L 183.964 104.893 L 198.243 103.381 L 211.779 107.191 L 229.697 101.448 L 240.31 105.82 L 247.384 104.897 L 252.574 103.223 L 256.827 103.374 L 260.183 106.371 L 278.141 110.319 L 284.82 104.322 L 299.483 102.621 L 314.096 107.269 L 327.23 102.941 L 339.764 105.472 L 349.946 104.133 L 353.77 103.199 L 364.876 105.681 L 384.468 104.575 L 396.741 107.18 L 400.896 102.041 L 413.924 105.734 L 428.161 104.13 L 436.73 106.026 L 448.177 102.644 L 456.144 104.421 L 475.87 101.979 L 483.347 103.215 L 499.288 103.292 L 508.961 101.671 L 520.303 103.804 L 533.667 105.054 L 550.362 106.185 L 564.832 103.626 L 580.136 102.378 L 596.613 101.876 L 621.613 125 M 75 125 L 100 108.772 L 103.001 103.055 L 116.991 104.433 L 134.922 110.465 L 148.325 103.99 L 167.945 106.979 L 183.964 105.433 L 198.243 104.182 L 211.779 108.128 L 229.697 102.827 L 240.31 106.008 L 247.384 105.482 L 252.574 103.252 L 256.827 103.526 L 260.183 106.575 L 278.141 111.27 L 284.82 104.608 L 299.483 103.869 L 314.096 107.607 L 327.23 103.19 L 339.764 105.731 L 349.946 104.457 L 353.77 104.81 L 364.876 106.762 L 384.468 106.566 L 396.741 107.245 L 400.896 103.15 L 413.924 107.134 L 428.161 106.927 L 436.73 106.202 L 448.177 103.615 L 456.144 104.933 L 475.87 103.411 L 483.347 105.159 L 499.288 103.949 L 508.961 102.159 L 520.303 105.363 L 533.667 107.615 L 550.362 106.515 L 564.832 103.703 L 580.136 103.016 L 596.613 103.026 L 621.613 125 M 75 125 L 100 109.971 L 103.001 107.13 L 116.991 105.145 L 134.922 110.731 L 148.325 104.649 L 167.945 107.073 L 183.964 105.631 L 198.243 104.689 L 211.779 109.329 L 229.697 103.372 L 240.31 106.397 L 247.384 107.709 L 252.574 104.204 L 256.827 103.763 L 260.183 106.617 L 278.141 111.561 L 284.82 105.191 L 299.483 104.576 L 314.096 108.559 L 327.23 105.209 L 339.764 105.854 L 349.946 105.038 L 353.77 106.465 L 364.876 107.192 L 384.468 108.305 L 396.741 107.561 L 400.896 103.97 L 413.924 108.291 L 428.161 108.493 L 436.73 106.828 L 448.177 108.081 L 456.144 105.41 L 475.87 103.803 L 483.347 105.307 L 499.288 104.878 L 508.961 102.19 L 520.303 105.712 L 533.667 108.289 L 550.362 107.316 L 564.832 104.06 L 580.136 103.217 L 596.613 103.168 L 621.613 125 M 75 125 L 100 111.631 L 103.001 109.841 L 116.991 105.19 L 134.922 111 L 148.325 104.936 L 167.945 107.322 L 183.964 110.901 L 198.243 105.042 L 211.779 110.273 L 229.697 103.601 L 240.31 107.997 L 247.384 108.444 L 252.574 104.335 L 256.827 109.885 L 260.183 106.759 L 278.141 112.61 L 284.82 107.176 L 299.483 106.921 L 314.096 108.735 L 327.23 106.073 L 339.764 107.71 L 349.946 105.152 L 353.77 106.471 L 364.876 107.245 L 384.468 110.064 L 396.741 107.77 L 400.896 104.87 L 413.924 108.753 L 428.161 108.921 L 436.73 107.572 L 448.177 108.315 L 456.144 108.093 L 475.87 105.01 L 483.347 105.831 L 499.288 107.202 L 508.961 107.977 L 520.303 106.064 L 533.667 108.757 L 550.362 107.482 L 564.832 104.593 L 580.136 105.071 L 596.613 104.499 L 621.613 125 M 75 125 L 100 111.807 L 103.001 110.177 L 116.991 109.531 L 134.922 112.542 L 148.325 107.519 L 167.945 107.791 L 183.964 112.189 L 198.243 105.597 L 211.779 110.807 L 229.697 103.711 L 240.31 109.216 L 247.384 109.829 L 252.574 104.378 L 256.827 110.934 L 260.183 109.882 L 278.141 113.211 L 284.82 107.219 L 299.483 108.618 L 314.096 108.96 L 327.23 107.269 L 339.764 108.935 L 349.946 106.055 L 353.77 107.319 L 364.876 107.346 L 384.468 112.593 L 396.741 108.229 L 400.896 105.27 L 413.924 110.248 L 428.161 109.508 L 436.73 112.481 L 448.177 108.337 L 456.144 108.255 L 475.87 107.571 L 483.347 106.416 L 499.288 107.567 L 508.961 108.173 L 520.303 107.198 L 533.667 108.928 L 550.362 109.004 L 564.832 104.762 L 580.136 107.62 L 596.613 104.882 L 621.613 125 M 75 125 L 100 113.219 L 103.001 111.544 L 116.991 109.663 L 134.922 112.669 L 148.325 110.452 L 167.945 108.524 L 183.964 113.075 L 198.243 106.104 L 211.779 114.338 L 229.697 104.056 L 240.31 109.425 L 247.384 110.909 L 252.574 106.534 L 256.827 112.133 L 260.183 110.352 L 278.141 117.363 L 284.82 107.382 L 299.483 110.14 L 314.096 109.125 L 327.23 107.555 L 339.764 110.082 L 349.946 106.365 L 353.77 107.734 L 364.876 107.9 L 384.468 112.78 L 396.741 108.834 L 400.896 105.771 L 413.924 110.519 L 428.161 109.801 L 436.73 113.211 L 448.177 108.413 L 456.144 108.502 L 475.87 112.39 L 483.347 108.404 L 499.288 109.236 L 508.961 108.429 L 520.303 108.251 L 533.667 111.157 L 550.362 109.006 L 564.832 106.084 L 580.136 109.261 L 596.613 106.045 L 621.613 125 M 75 125 L 100 113.493 L 103.001 111.626 L 116.991 111.391 L 134.922 113.468 L 148.325 110.789 L 167.945 108.822 L 183.964 115.546 L 198.243 106.449 L 211.779 114.753 L 229.697 104.109 L 240.31 112.042 L 247.384 112.108 L 252.574 107.115 L 256.827 112.639 L 260.183 111.635 L 278.141 118.504 L 284.82 110.348 L 299.483 111.694 L 314.096 109.749 L 327.23 108.085 L 339.764 110.554 L 349.946 107.493 L 353.77 107.967 L 364.876 109.9 L 384.468 116.236 L 396.741 114.082 L 400.896 108.069 L 413.924 111.866 L 428.161 110.894 L 436.73 113.47 L 448.177 111.649 L 456.144 109.478 L 475.87 112.395 L 483.347 109.452 L 499.288 111.042 L 508.961 108.458 L 520.303 108.715 L 533.667 112.612 L 550.362 109.262 L 564.832 106.534 L 580.136 109.565 L 596.613 107.989 L 621.613 125 M 75 125 L 100 114.348 L 103.001 114.709 L 116.991 112.75 L 134.922 113.537 L 148.325 110.796 L 167.945 112.723 L 183.964 116.392 L 198.243 106.48 L 211.779 115.088 L 229.697 104.45 L 240.31 113.927 L 247.384 115.168 L 252.574 107.157 L 256.827 112.944 L 260.183 112.9 L 278.141 119.051 L 284.82 110.846 L 299.483 112.641 L 314.096 110.811 L 327.23 108.382 L 339.764 111.893 L 349.946 109.558 L 353.77 108.09 L 364.876 110.143 L 384.468 116.387 L 396.741 114.352 L 400.896 108.371 L 413.924 112.001 L 428.161 112.739 L 436.73 113.796 L 448.177 112.729 L 456.144 111.781 L 475.87 112.578 L 483.347 111.108 L 499.288 111.596 L 508.961 108.49 L 520.303 109.888 L 533.667 113.051 L 550.362 109.52 L 564.832 106.544 L 580.136 110.862 L 596.613 108.424 L 621.613 125 M 75 125 L 100 116.492 L 103.001 114.996 L 116.991 112.785 L 134.922 114.727 L 148.325 111.368 L 167.945 114.486 L 183.964 117.402 L 198.243 106.668 L 211.779 115.464 L 229.697 105.246 L 240.31 114.358 L 247.384 115.405 L 252.574 107.756 L 256.827 116.42 L 260.183 115.826 L 278.141 119.218 L 284.82 113.184 L 299.483 113.758 L 314.096 111.067 L 327.23 108.77 L 339.764 112.074 L 349.946 109.929 L 353.77 109.189 L 364.876 111.442 L 384.468 119.896 L 396.741 115.617 L 400.896 109.465 L 413.924 115.009 L 428.161 116.183 L 436.73 118.795 L 448.177 114.759 L 456.144 113.544 L 475.87 112.757 L 483.347 112.759 L 499.288 111.766 L 508.961 108.531 L 520.303 110.627 L 533.667 113.244 L 550.362 110.753 L 564.832 106.872 L 580.136 112.013 L 596.613 109.077 L 621.613 125 M 75 125 L 100 116.749 L 103.001 117.516 L 116.991 114.207 L 134.922 114.735 L 148.325 112.063 L 167.945 114.636 L 183.964 119.791 L 198.243 107.335 L 211.779 116.338 L 229.697 106.298 L 240.31 114.365 L 247.384 116.279 L 252.574 108.602 L 256.827 118.538 L 260.183 116.519 L 278.141 119.349 L 284.82 113.526 L 299.483 114.712 L 314.096 111.287 L 327.23 108.881 L 339.764 112.644 L 349.946 113.093 L 353.77 109.933 L 364.876 111.933 L 384.468 120.008 L 396.741 116.78 L 400.896 110.7 L 413.924 119.598 L 428.161 117.777 L 436.73 120.211 L 448.177 115.299 L 456.144 113.764 L 475.87 113.1 L 483.347 114.867 L 499.288 112.604 L 508.961 108.938 L 520.303 111.349 L 533.667 113.273 L 550.362 110.995 L 564.832 107.419 L 580.136 112.772 L 596.613 110.095 L 621.613 125 M 75 125 L 100 118.674 L 103.001 118.606 L 116.991 115.301 L 134.922 114.973 L 148.325 112.081 L 167.945 115.355 L 183.964 120.582 L 198.243 107.904 L 211.779 117.4 L 229.697 108.78 L 240.31 116.086 L 247.384 116.405 L 252.574 109.492 L 256.827 118.926 L 260.183 116.889 L 278.141 120.494 L 284.82 114.282 L 299.483 114.908 L 314.096 111.707 L 327.23 109.759 L 339.764 114.523 L 349.946 114.359 L 353.77 110.019 L 364.876 112.595 L 384.468 120.826 L 396.741 117.317 L 400.896 114.365 L 413.924 120.8 L 428.161 118.759 L 436.73 121.386 L 448.177 115.806 L 456.144 114.122 L 475.87 114.317 L 483.347 116.83 L 499.288 113.056 L 508.961 109.177 L 520.303 111.729 L 533.667 113.418 L 550.362 111.125 L 564.832 108.37 L 580.136 113.317 L 596.613 110.391 L 621.613 125 M 75 125 L 100 119.234 L 103.001 120.572 L 116.991 117.432 L 134.922 115.679 L 148.325 113.089 L 167.945 116.417 L 183.964 120.756 L 198.243 108.802 L 211.779 117.653 L 229.697 108.891 L 240.31 116.4 L 247.384 118.707 L 252.574 111.492 L 256.827 120.124 L 260.183 118.948 L 278.141 120.554 L 284.82 117.097 L 299.483 116.52 L 314.096 113.14 L 327.23 110.121 L 339.764 115.146 L 349.946 115.071 L 353.77 112.132 L 364.876 112.643 L 384.468 121.109 L 396.741 117.435 L 400.896 114.541 L 413.924 121.369 L 428.161 119.011 L 436.73 121.538 L 448.177 119.856 L 456.144 114.226 L 475.87 114.39 L 483.347 117.523 L 499.288 113.232 L 508.961 109.659 L 520.303 114.166 L 533.667 114.804 L 550.362 111.167 L 564.832 108.626 L 580.136 116.749 L 596.613 110.574 L 621.613 125 M 75 125 L 100 119.592 L 103.001 120.835 L 116.991 117.536 L 134.922 116.648 L 148.325 117.035 L 167.945 117.125 L 183.964 121.316 L 198.243 110.081 L 211.779 117.863 L 229.697 109.633 L 240.31 116.488 L 247.384 119.567 L 252.574 114.074 L 256.827 120.251 L 260.183 119.083 L 278.141 123.087 L 284.82 119.677 L 299.483 116.938 L 314.096 113.547 L 327.23 110.318 L 339.764 118.702 L 349.946 116.672 L 353.77 112.792 L 364.876 112.718 L 384.468 121.395 L 396.741 118.068 L 400.896 114.986 L 413.924 121.626 L 428.161 119.478 L 436.73 122.15 L 448.177 120.209 L 456.144 114.256 L 475.87 117.642 L 483.347 117.797 L 499.288 113.623 L 508.961 110.562 L 520.303 115.054 L 533.667 117.171 L 550.362 112.628 L 564.832 109.915 L 580.136 116.779 L 596.613 110.782 L 621.613 125 M 75 125 L 100 121.151 L 103.001 122.451 L 116.991 118.579 L 134.922 117.749 L 148.325 118.637 L 167.945 117.35 L 183.964 123.193 L 198.243 110.773 L 211.779 118.395 L 229.697 113.825 L 240.31 116.927 L 247.384 121.006 L 252.574 114.28 L 256.827 122.522 L 260.183 119.552 L 278.141 123.418 L 284.82 120.294 L 299.483 117.064 L 314.096 116.104 L 327.23 110.457 L 339.764 119.409 L 349.946 117.404 L 353.77 112.797 L 364.876 112.808 L 384.468 121.481 L 396.741 118.107 L 400.896 115.281 L 413.924 121.983 L 428.161 119.694 L 436.73 123.863 L 448.177 120.8 L 456.144 114.888 L 475.87 117.948 L 483.347 118.754 L 499.288 113.89 L 508.961 116.663 L 520.303 115.129 L 533.667 117.773 L 550.362 112.783 L 564.832 111.349 L 580.136 117.248 L 596.613 112.47 L 621.613 125 M 75 125 L 100 121.417 L 103.001 122.654 L 116.991 121.17 L 134.922 118.462 L 148.325 119.736 L 167.945 118.241 L 183.964 123.254 L 198.243 111.17 L 211.779 119.387 L 229.697 114.175 L 240.31 117.076 L 247.384 123.089 L 252.574 116.21 L 256.827 122.611 L 260.183 120.066 L 278.141 124.39 L 284.82 121.231 L 299.483 118.875 L 314.096 116.469 L 327.23 111.969 L 339.764 120.92 L 349.946 118.219 L 353.77 114.397 L 364.876 113.483 L 384.468 121.943 L 396.741 120.247 L 400.896 116.194 L 413.924 122.452 L 428.161 119.768 L 436.73 125.621 L 448.177 123.653 L 456.144 116.661 L 475.87 118.198 L 483.347 118.942 L 499.288 114.851 L 508.961 117.019 L 520.303 117.738 L 533.667 118.402 L 550.362 113.809 L 564.832 116.781 L 580.136 117.75 L 596.613 113.284 L 621.613 125 M 75 125 L 100 121.632 L 103.001 123.181 L 116.991 123.108 L 134.922 118.811 L 148.325 120.107 L 167.945 119.089 L 183.964 124.904 L 198.243 111.663 L 211.779 119.535 L 229.697 114.188 L 240.31 119.364 L 247.384 124.098 L 252.574 120.844 L 256.827 124.975 L 260.183 120.232 L 278.141 125.344 L 284.82 124.023 L 299.483 119.524 L 314.096 119.271 L 327.23 112.823 L 339.764 121.161 L 349.946 118.732 L 353.77 114.467 L 364.876 113.788 L 384.468 123.368 L 396.741 122.284 L 400.896 116.453 L 413.924 122.879 L 428.161 120.557 L 436.73 125.692 L 448.177 124.659 L 456.144 117.956 L 475.87 119.449 L 483.347 120.216 L 499.288 115.952 L 508.961 118.672 L 520.303 119.152 L 533.667 118.484 L 550.362 113.859 L 564.832 116.868 L 580.136 120.575 L 596.613 114.482 L 621.613 125 M 75 125 L 100 121.685 L 103.001 123.531 L 116.991 123.631 L 134.922 119.725 L 148.325 120.205 L 167.945 120.045 L 183.964 126.193 L 198.243 112.679 L 211.779 119.563 L 229.697 116.897 L 240.31 119.779 L 247.384 125.08 L 252.574 121.334 L 256.827 125.159 L 260.183 120.505 L 278.141 126.163 L 284.82 124.29 L 299.483 120.172 L 314.096 120.16 L 327.23 114.399 L 339.764 121.368 L 349.946 118.975 L 353.77 114.76 L 364.876 114.409 L 384.468 123.821 L 396.741 123.135 L 400.896 116.715 L 413.924 123.621 L 428.161 121.056 L 436.73 125.758 L 448.177 125.06 L 456.144 118.73 L 475.87 121.048 L 483.347 122.453 L 499.288 117.324 L 508.961 118.831 L 520.303 120.543 L 533.667 118.536 L 550.362 115.396 L 564.832 116.906 L 580.136 120.622 L 596.613 116.203 L 621.613 125 M 75 125 L 100 123.184 L 103.001 124.289 L 116.991 124.683 L 134.922 122.22 L 148.325 120.94 L 167.945 120.546 L 183.964 126.356 L 198.243 112.882 L 211.779 120.226 L 229.697 118.385 L 240.31 120.076 L 247.384 125.866 L 252.574 122.408 L 256.827 126.415 L 260.183 122.337 L 278.141 126.403 L 284.82 124.399 L 299.483 120.475 L 314.096 121.754 L 327.23 114.701 L 339.764 121.822 L 349.946 118.99 L 353.77 118.557 L 364.876 114.837 L 384.468 123.848 L 396.741 124.52 L 400.896 117.51 L 413.924 125.905 L 428.161 121.451 L 436.73 130.875 L 448.177 126.671 L 456.144 118.997 L 475.87 123.382 L 483.347 122.746 L 499.288 117.467 L 508.961 120.513 L 520.303 120.879 L 533.667 118.833 L 550.362 116.565 L 564.832 117.719 L 580.136 120.967 L 596.613 116.399 L 621.613 125 M 75 125 L 100 124.159 L 103.001 125.49 L 116.991 124.749 L 134.922 122.398 L 148.325 121.326 L 167.945 123.009 L 183.964 126.37 L 198.243 116.866 L 211.779 120.396 L 229.697 118.443 L 240.31 120.383 L 247.384 126.334 L 252.574 122.667 L 256.827 126.523 L 260.183 123.319 L 278.141 127.066 L 284.82 124.757 L 299.483 123.842 L 314.096 123.624 L 327.23 115.307 L 339.764 122.79 L 349.946 119.291 L 353.77 119.416 L 364.876 115.094 L 384.468 124.24 L 396.741 124.716 L 400.896 118.332 L 413.924 129.173 L 428.161 122.301 L 436.73 131.044 L 448.177 126.836 L 456.144 119.532 L 475.87 123.423 L 483.347 122.995 L 499.288 117.797 L 508.961 120.698 L 520.303 120.888 L 533.667 123.563 L 550.362 116.652 L 564.832 119.524 L 580.136 123.135 L 596.613 116.896 L 621.613 125 M 75 125 L 100 124.166 L 103.001 125.697 L 116.991 124.979 L 134.922 122.488 L 148.325 121.97 L 167.945 125.584 L 183.964 127.109 L 198.243 117.523 L 211.779 121.847 L 229.697 120.851 L 240.31 122.747 L 247.384 127.913 L 252.574 123.891 L 256.827 129.013 L 260.183 124.282 L 278.141 128.641 L 284.82 124.831 L 299.483 126.971 L 314.096 123.689 L 327.23 115.939 L 339.764 123.247 L 349.946 120.737 L 353.77 120.474 L 364.876 115.606 L 384.468 124.646 L 396.741 125.456 L 400.896 119.397 L 413.924 129.526 L 428.161 122.431 L 436.73 131.25 L 448.177 127.001 L 456.144 120.77 L 475.87 124.832 L 483.347 127.586 L 499.288 118.207 L 508.961 120.746 L 520.303 123.014 L 533.667 123.974 L 550.362 117.42 L 564.832 120.342 L 580.136 125.441 L 596.613 118.162 L 621.613 125 M 75 125 L 100 126.176 L 103.001 126.14 L 116.991 125.317 L 134.922 122.989 L 148.325 121.977 L 167.945 126.44 L 183.964 127.977 L 198.243 117.935 L 211.779 125.854 L 229.697 121.684 L 240.31 124.351 L 247.384 128.27 L 252.574 126.756 L 256.827 134.537 L 260.183 124.338 L 278.141 129.39 L 284.82 125.738 L 299.483 127.405 L 314.096 123.915 L 327.23 116.716 L 339.764 123.865 L 349.946 122.477 L 353.77 122.045 L 364.876 117.955 L 384.468 125.786 L 396.741 127.167 L 400.896 119.938 L 413.924 129.65 L 428.161 123.422 L 436.73 131.584 L 448.177 127.798 L 456.144 122.363 L 475.87 126.219 L 483.347 127.788 L 499.288 118.919 L 508.961 121.022 L 520.303 123.709 L 533.667 124.956 L 550.362 119.738 L 564.832 120.624 L 580.136 125.662 L 596.613 119.937 L 621.613 125 M 75 125 L 100 126.443 L 103.001 127.136 L 116.991 129.059 L 134.922 123.769 L 148.325 122.061 L 167.945 127.875 L 183.964 128.639 L 198.243 119.406 L 211.779 126.062 L 229.697 121.802 L 240.31 125.345 L 247.384 129.413 L 252.574 129.315 L 256.827 135.085 L 260.183 125.453 L 278.141 129.834 L 284.82 125.826 L 299.483 128.256 L 314.096 124.577 L 327.23 120.104 L 339.764 124.075 L 349.946 125.478 L 353.77 124.173 L 364.876 118.407 L 384.468 125.877 L 396.741 127.387 L 400.896 120.401 L 413.924 129.936 L 428.161 123.823 L 436.73 131.62 L 448.177 128.113 L 456.144 123.074 L 475.87 126.291 L 483.347 129.147 L 499.288 123.427 L 508.961 122.345 L 520.303 123.832 L 533.667 125.084 L 550.362 121.045 L 564.832 120.752 L 580.136 126.07 L 596.613 121.643 L 621.613 125 M 75 125 L 100 127.004 L 103.001 127.772 L 116.991 130.031 L 134.922 124.038 L 148.325 122.96 L 167.945 128.139 L 183.964 129.056 L 198.243 120.304 L 211.779 128.092 L 229.697 122.273 L 240.31 127.706 L 247.384 130.848 L 252.574 129.811 L 256.827 135.132 L 260.183 125.537 L 278.141 129.856 L 284.82 126.96 L 299.483 129.534 L 314.096 124.653 L 327.23 122.981 L 339.764 124.548 L 349.946 126.227 L 353.77 124.867 L 364.876 120.493 L 384.468 126.294 L 396.741 127.528 L 400.896 122.233 L 413.924 133.51 L 428.161 124.568 L 436.73 132.476 L 448.177 128.546 L 456.144 123.424 L 475.87 127.555 L 483.347 131.503 L 499.288 123.673 L 508.961 124.524 L 520.303 124.073 L 533.667 125.102 L 550.362 123.454 L 564.832 121.005 L 580.136 127.033 L 596.613 121.706 L 621.613 125 M 75 125 L 100 129.955 L 103.001 128.24 L 116.991 130.29 L 134.922 126.103 L 148.325 123.335 L 167.945 128.65 L 183.964 130.407 L 198.243 121.201 L 211.779 128.734 L 229.697 122.582 L 240.31 128.195 L 247.384 132.071 L 252.574 131.063 L 256.827 135.596 L 260.183 126.451 L 278.141 132.714 L 284.82 126.962 L 299.483 129.599 L 314.096 124.879 L 327.23 123.094 L 339.764 127.389 L 349.946 126.682 L 353.77 125.569 L 364.876 120.561 L 384.468 126.796 L 396.741 127.6 L 400.896 123.978 L 413.924 134.753 L 428.161 124.905 L 436.73 132.667 L 448.177 130.652 L 456.144 126.934 L 475.87 129.263 L 483.347 131.774 L 499.288 124.362 L 508.961 126.212 L 520.303 124.468 L 533.667 125.147 L 550.362 123.571 L 564.832 122.922 L 580.136 127.555 L 596.613 122.472 L 621.613 125 M 75 125 L 100 130.88 L 103.001 128.5 L 116.991 131.128 L 134.922 127.21 L 148.325 123.717 L 167.945 129.337 L 183.964 131.464 L 198.243 122.741 L 211.779 129.145 L 229.697 122.846 L 240.31 130.658 L 247.384 134.334 L 252.574 131.714 L 256.827 136.962 L 260.183 127.166 L 278.141 133.005 L 284.82 127.497 L 299.483 132.151 L 314.096 126.249 L 327.23 123.814 L 339.764 127.759 L 349.946 127.636 L 353.77 126.651 L 364.876 120.815 L 384.468 129.374 L 396.741 127.738 L 400.896 126.25 L 413.924 135.488 L 428.161 125.471 L 436.73 133.698 L 448.177 131.006 L 456.144 129.346 L 475.87 129.271 L 483.347 132.911 L 499.288 124.523 L 508.961 126.339 L 520.303 127.331 L 533.667 128.721 L 550.362 125.136 L 564.832 123.229 L 580.136 128.256 L 596.613 123.266 L 621.613 125 M 75 125 L 100 131.729 L 103.001 128.89 L 116.991 131.51 L 134.922 128.976 L 148.325 126.434 L 167.945 129.689 L 183.964 131.92 L 198.243 123.335 L 211.779 129.299 L 229.697 123.759 L 240.31 131.138 L 247.384 134.92 L 252.574 131.905 L 256.827 137.259 L 260.183 127.359 L 278.141 133.517 L 284.82 127.684 L 299.483 133.939 L 314.096 128.486 L 327.23 125.187 L 339.764 128.012 L 349.946 127.874 L 353.77 127.492 L 364.876 121.718 L 384.468 129.438 L 396.741 130.023 L 400.896 128.942 L 413.924 136.204 L 428.161 126.615 L 436.73 134.244 L 448.177 132.524 L 456.144 130.013 L 475.87 132.285 L 483.347 133.507 L 499.288 124.77 L 508.961 127.136 L 520.303 128.94 L 533.667 129.078 L 550.362 125.318 L 564.832 123.411 L 580.136 128.34 L 596.613 123.709 L 621.613 125 M 75 125 L 100 132.549 L 103.001 129.258 L 116.991 132.8 L 134.922 130.558 L 148.325 126.63 L 167.945 130.557 L 183.964 132.411 L 198.243 124.226 L 211.779 131.189 L 229.697 124.578 L 240.31 131.753 L 247.384 135.736 L 252.574 132.286 L 256.827 137.343 L 260.183 127.927 L 278.141 133.58 L 284.82 129.791 L 299.483 133.975 L 314.096 129.117 L 327.23 126.084 L 339.764 128.036 L 349.946 128.79 L 353.77 127.564 L 364.876 123.372 L 384.468 130.592 L 396.741 130.356 L 400.896 129.152 L 413.924 136.432 L 428.161 127.006 L 436.73 134.994 L 448.177 132.861 L 456.144 130.08 L 475.87 133.184 L 483.347 134.006 L 499.288 125.84 L 508.961 129.686 L 520.303 129.116 L 533.667 129.246 L 550.362 126.571 L 564.832 124.571 L 580.136 129.251 L 596.613 125.279 L 621.613 125 M 75 125 L 100 132.56 L 103.001 131.007 L 116.991 133.552 L 134.922 132.274 L 148.325 127.354 L 167.945 131.101 L 183.964 132.919 L 198.243 125.112 L 211.779 131.891 L 229.697 126.543 L 240.31 132.176 L 247.384 136.926 L 252.574 132.762 L 256.827 138.095 L 260.183 131.633 L 278.141 134.749 L 284.82 130.446 L 299.483 135.624 L 314.096 131.628 L 327.23 129.157 L 339.764 129.75 L 349.946 129.619 L 353.77 128.639 L 364.876 123.471 L 384.468 136.698 L 396.741 130.551 L 400.896 129.983 L 413.924 137.241 L 428.161 127.544 L 436.73 135.066 L 448.177 134.037 L 456.144 131.274 L 475.87 134.643 L 483.347 134.681 L 499.288 126.48 L 508.961 130.271 L 520.303 130.71 L 533.667 129.79 L 550.362 126.906 L 564.832 124.681 L 580.136 132.016 L 596.613 125.642 L 621.613 125 M 75 125 L 100 132.679 L 103.001 132.806 L 116.991 134.006 L 134.922 134.411 L 148.325 127.623 L 167.945 131.635 L 183.964 135.142 L 198.243 125.957 L 211.779 133.228 L 229.697 127.169 L 240.31 132.674 L 247.384 138.084 L 252.574 133.882 L 256.827 138.481 L 260.183 132.261 L 278.141 135.185 L 284.82 130.473 L 299.483 135.993 L 314.096 132.396 L 327.23 129.253 L 339.764 131.06 L 349.946 130.073 L 353.77 129.175 L 364.876 124.412 L 384.468 137.684 L 396.741 130.951 L 400.896 133.297 L 413.924 138.677 L 428.161 127.812 L 436.73 135.097 L 448.177 134.107 L 456.144 132.057 L 475.87 134.796 L 483.347 135.184 L 499.288 126.858 L 508.961 131.077 L 520.303 131.885 L 533.667 130.535 L 550.362 127.117 L 564.832 126.937 L 580.136 132.273 L 596.613 125.773 L 621.613 125 M 75 125 L 100 132.935 L 103.001 135.613 L 116.991 135.458 L 134.922 135.557 L 148.325 127.764 L 167.945 132.661 L 183.964 136.239 L 198.243 125.976 L 211.779 133.32 L 229.697 127.322 L 240.31 133.124 L 247.384 138.285 L 252.574 135.256 L 256.827 138.598 L 260.183 132.489 L 278.141 135.573 L 284.82 130.743 L 299.483 136.692 L 314.096 132.646 L 327.23 133.066 L 339.764 134.131 L 349.946 131.066 L 353.77 132.398 L 364.876 124.729 L 384.468 137.89 L 396.741 130.99 L 400.896 134.495 L 413.924 140.547 L 428.161 130.336 L 436.73 135.995 L 448.177 134.203 L 456.144 132.879 L 475.87 135.605 L 483.347 135.332 L 499.288 127.174 L 508.961 133.15 L 520.303 132.266 L 533.667 130.753 L 550.362 127.792 L 564.832 127.173 L 580.136 132.435 L 596.613 127.57 L 621.613 125 M 75 125 L 100 133.77 L 103.001 135.746 L 116.991 136.663 L 134.922 136.637 L 148.325 128.492 L 167.945 132.98 L 183.964 136.367 L 198.243 127.091 L 211.779 134.391 L 229.697 129.699 L 240.31 133.317 L 247.384 139.548 L 252.574 136.012 L 256.827 139.057 L 260.183 135.365 L 278.141 135.799 L 284.82 131.255 L 299.483 138.187 L 314.096 132.68 L 327.23 134.136 L 339.764 134.222 L 349.946 132.119 L 353.77 136.389 L 364.876 125.34 L 384.468 138.653 L 396.741 131.118 L 400.896 134.672 L 413.924 140.586 L 428.161 131.163 L 436.73 137.19 L 448.177 134.268 L 456.144 133.526 L 475.87 136.534 L 483.347 135.6 L 499.288 130.54 L 508.961 133.227 L 520.303 133.008 L 533.667 132.977 L 550.362 129.519 L 564.832 128.59 L 580.136 132.947 L 596.613 129.366 L 621.613 125 M 75 125 L 100 133.867 L 103.001 135.838 L 116.991 137.002 L 134.922 137.455 L 148.325 131.76 L 167.945 134.028 L 183.964 137.024 L 198.243 130.368 L 211.779 135.219 L 229.697 130.492 L 240.31 134.511 L 247.384 140.243 L 252.574 137.575 L 256.827 140.221 L 260.183 136.431 L 278.141 138.501 L 284.82 132.871 L 299.483 138.416 L 314.096 135.875 L 327.23 134.458 L 339.764 134.649 L 349.946 132.759 L 353.77 136.403 L 364.876 125.401 L 384.468 139.008 L 396.741 131.753 L 400.896 135.361 L 413.924 141.205 L 428.161 131.753 L 436.73 138.336 L 448.177 134.934 L 456.144 134.896 L 475.87 138.172 L 483.347 135.886 L 499.288 131.051 L 508.961 136.454 L 520.303 134.436 L 533.667 133.198 L 550.362 132.768 L 564.832 128.814 L 580.136 134.406 L 596.613 133.062 L 621.613 125 M 75 125 L 100 133.986 L 103.001 136.262 L 116.991 137.063 L 134.922 137.606 L 148.325 133.21 L 167.945 140.597 L 183.964 138.758 L 198.243 130.583 L 211.779 135.629 L 229.697 133.159 L 240.31 135.073 L 247.384 140.512 L 252.574 138.078 L 256.827 140.774 L 260.183 139.162 L 278.141 139.03 L 284.82 133.823 L 299.483 138.786 L 314.096 136.344 L 327.23 134.522 L 339.764 136.623 L 349.946 132.849 L 353.77 138.68 L 364.876 126.121 L 384.468 139.967 L 396.741 134.022 L 400.896 135.854 L 413.924 141.462 L 428.161 138.773 L 436.73 138.466 L 448.177 135.795 L 456.144 137.318 L 475.87 138.755 L 483.347 135.997 L 499.288 131.842 L 508.961 136.497 L 520.303 136.065 L 533.667 134.571 L 550.362 132.845 L 564.832 129.174 L 580.136 137.78 L 596.613 133.421 L 621.613 125 M 75 125 L 100 134.529 L 103.001 136.469 L 116.991 137.569 L 134.922 138.822 L 148.325 136.314 L 167.945 143.244 L 183.964 138.862 L 198.243 131.67 L 211.779 137.968 L 229.697 135.561 L 240.31 137.698 L 247.384 140.954 L 252.574 138.811 L 256.827 140.859 L 260.183 140.809 L 278.141 140.198 L 284.82 134.962 L 299.483 139.613 L 314.096 137.056 L 327.23 136.798 L 339.764 137.628 L 349.946 133 L 353.77 138.805 L 364.876 127.577 L 384.468 140.804 L 396.741 135.866 L 400.896 138.636 L 413.924 143.149 L 428.161 138.831 L 436.73 138.543 L 448.177 140.441 L 456.144 138.451 L 475.87 140.201 L 483.347 136.188 L 499.288 132.5 L 508.961 136.616 L 520.303 138.359 L 533.667 136.468 L 550.362 133.274 L 564.832 129.284 L 580.136 139.689 L 596.613 134.025 L 621.613 125 M 75 125 L 100 134.812 L 103.001 136.973 L 116.991 138.822 L 134.922 143.185 L 148.325 138.115 L 167.945 144.56 L 183.964 139.54 L 198.243 134.966 L 211.779 138.7 L 229.697 135.968 L 240.31 139.659 L 247.384 141.116 L 252.574 138.932 L 256.827 140.925 L 260.183 140.884 L 278.141 140.526 L 284.82 134.998 L 299.483 140.192 L 314.096 137.936 L 327.23 137.59 L 339.764 138.034 L 349.946 133.533 L 353.77 139.19 L 364.876 130.11 L 384.468 143.573 L 396.741 138.293 L 400.896 139.332 L 413.924 144.157 L 428.161 140.817 L 436.73 138.982 L 448.177 142.661 L 456.144 138.804 L 475.87 141.806 L 483.347 138.088 L 499.288 136.614 L 508.961 136.999 L 520.303 138.388 L 533.667 138.325 L 550.362 134.184 L 564.832 129.548 L 580.136 139.696 L 596.613 135.199 L 621.613 125 M 75 125 L 100 136.293 L 103.001 141.424 L 116.991 139.245 L 134.922 143.527 L 148.325 140.151 L 167.945 145.264 L 183.964 140.327 L 198.243 135.54 L 211.779 139.024 L 229.697 135.97 L 240.31 139.769 L 247.384 142.642 L 252.574 142.421 L 256.827 141.108 L 260.183 141.372 L 278.141 143.138 L 284.82 135.368 L 299.483 140.502 L 314.096 138.659 L 327.23 139.146 L 339.764 138.675 L 349.946 133.538 L 353.77 139.36 L 364.876 130.363 L 384.468 143.888 L 396.741 139.012 L 400.896 140.534 L 413.924 145.118 L 428.161 141.976 L 436.73 139.521 L 448.177 143.124 L 456.144 139.985 L 475.87 142.065 L 483.347 139.571 L 499.288 136.961 L 508.961 137.014 L 520.303 138.395 L 533.667 139.061 L 550.362 134.475 L 564.832 133.238 L 580.136 139.7 L 596.613 136.141 L 621.613 125 M 75 125 L 100 137.427 L 103.001 141.442 L 116.991 141.612 L 134.922 144.212 L 148.325 140.511 L 167.945 145.309 L 183.964 140.343 L 198.243 136.747 L 211.779 139.606 L 229.697 139.068 L 240.31 140.312 L 247.384 143.636 L 252.574 144.348 L 256.827 141.308 L 260.183 141.569 L 278.141 143.446 L 284.82 137.901 L 299.483 143.527 L 314.096 139.177 L 327.23 142.327 L 339.764 140.79 L 349.946 135.781 L 353.77 140.518 L 364.876 131.883 L 384.468 144.016 L 396.741 139.141 L 400.896 141.526 L 413.924 145.235 L 428.161 142.519 L 436.73 140.303 L 448.177 143.66 L 456.144 141.165 L 475.87 142.4 L 483.347 140.745 L 499.288 137.669 L 508.961 137.194 L 520.303 138.999 L 533.667 139.287 L 550.362 134.559 L 564.832 133.799 L 580.136 140.146 L 596.613 137.922 L 621.613 125 M 75 125 L 100 138.105 L 103.001 143.717 L 116.991 142.334 L 134.922 146.707 L 148.325 142.374 L 167.945 145.755 L 183.964 140.709 L 198.243 138.758 L 211.779 140.684 L 229.697 139.602 L 240.31 141.117 L 247.384 143.86 L 252.574 144.398 L 256.827 141.573 L 260.183 143.168 L 278.141 143.699 L 284.82 140.508 L 299.483 143.835 L 314.096 143.45 L 327.23 142.651 L 339.764 141.574 L 349.946 137.344 L 353.77 140.901 L 364.876 133.816 L 384.468 144.072 L 396.741 139.295 L 400.896 141.645 L 413.924 145.383 L 428.161 144.887 L 436.73 140.647 L 448.177 144.478 L 456.144 141.545 L 475.87 143.109 L 483.347 143.824 L 499.288 138.122 L 508.961 138.651 L 520.303 139.461 L 533.667 139.534 L 550.362 137.165 L 564.832 134.525 L 580.136 140.245 L 596.613 139.774 L 621.613 125 M 75 125 L 100 138.557 L 103.001 143.832 L 116.991 145.184 L 134.922 146.848 L 148.325 142.742 L 167.945 146.241 L 183.964 141.774 L 198.243 141.192 L 211.779 142.366 L 229.697 140.216 L 240.31 141.814 L 247.384 144.637 L 252.574 144.58 L 256.827 142.42 L 260.183 143.457 L 278.141 144.113 L 284.82 142.661 L 299.483 144.487 L 314.096 144.449 L 327.23 144.451 L 339.764 141.83 L 349.946 137.542 L 353.77 141.28 L 364.876 134.158 L 384.468 144.31 L 396.741 139.545 L 400.896 142.257 L 413.924 145.97 L 428.161 145.11 L 436.73 142.49 L 448.177 144.748 L 456.144 142.559 L 475.87 143.296 L 483.347 145.107 L 499.288 139.714 L 508.961 138.668 L 520.303 141.279 L 533.667 139.855 L 550.362 141.738 L 564.832 134.872 L 580.136 143.234 L 596.613 139.789 L 621.613 125 M 75 125 L 100 139.042 L 103.001 145.375 L 116.991 145.597 L 134.922 147.5 L 148.325 143.654 L 167.945 147.5 L 183.964 142.981 L 198.243 141.209 L 211.779 143.499 L 229.697 144.235 L 240.31 144.388 L 247.384 145.135 L 252.574 144.656 L 256.827 143.335 L 260.183 144.764 L 278.141 144.732 L 284.82 147.298 L 299.483 144.579 L 314.096 145.127 L 327.23 145.44 L 339.764 142.094 L 349.946 139.076 L 353.77 141.662 L 364.876 135.604 L 384.468 144.771 L 396.741 141.635 L 400.896 146.442 L 413.924 146.838 L 428.161 145.282 L 436.73 146.443 L 448.177 144.928 L 456.144 142.902 L 475.87 145.323 L 483.347 145.349 L 499.288 141.435 L 508.961 139.906 L 520.303 142.457 L 533.667 140.315 L 550.362 143.508 L 564.832 135.948 L 580.136 144.56 L 596.613 143.21 L 621.613 125 M 75 125 L 100 145.585 L 103.001 145.816 L 116.991 145.719 L 134.922 147.708 L 148.325 144.19 L 167.945 148.995 L 183.964 145.182 L 198.243 144.743 L 211.779 144.233 L 229.697 145.927 L 240.31 145.398 L 247.384 146.316 L 252.574 144.731 L 256.827 143.926 L 260.183 144.812 L 278.141 145.128 L 284.82 147.88 L 299.483 145.962 L 314.096 145.283 L 327.23 146.414 L 339.764 142.704 L 349.946 141.577 L 353.77 144.301 L 364.876 136.227 L 384.468 144.796 L 396.741 143.644 L 400.896 147.134 L 413.924 146.895 L 428.161 146.069 L 436.73 147.354 L 448.177 145.712 L 456.144 146.14 L 475.87 146.547 L 483.347 145.7 L 499.288 144.521 L 508.961 140.558 L 520.303 143.506 L 533.667 142.355 L 550.362 143.844 L 564.832 136.114 L 580.136 144.6 L 596.613 143.772 L 621.613 125 M 75 125 L 100 146.16 L 103.001 146.016 L 116.991 146.439 L 134.922 148.02 L 148.325 144.525 L 167.945 149.013 L 183.964 147.154 L 198.243 144.823 L 211.779 144.633 L 229.697 146.403 L 240.31 145.871 L 247.384 147.346 L 252.574 147.283 L 256.827 144.962 L 260.183 145.505 L 278.141 145.839 L 284.82 148.039 L 299.483 146.704 L 314.096 145.983 L 327.23 147.302 L 339.764 144.741 L 349.946 144.118 L 353.77 144.636 L 364.876 136.608 L 384.468 145.214 L 396.741 144.509 L 400.896 147.365 L 413.924 148.068 L 428.161 147.214 L 436.73 147.796 L 448.177 146.023 L 456.144 146.598 L 475.87 147.104 L 483.347 147.619 L 499.288 145.859 L 508.961 142.565 L 520.303 143.66 L 533.667 144.392 L 550.362 144.482 L 564.832 144.65 L 580.136 147.133 L 596.613 144.616 L 621.613 125 M 75 125 L 100 148.385 L 103.001 146.894 L 116.991 148.309 L 134.922 149.229 L 148.325 146.384 L 167.945 149.114 L 183.964 147.388 L 198.243 146.985 L 211.779 147.03 L 229.697 146.652 L 240.31 148.933 L 247.384 147.523 L 252.574 148.876 L 256.827 146.325 L 260.183 145.677 L 278.141 147.845 L 284.82 148.48 L 299.483 149.023 L 314.096 147.802 L 327.23 148.649 L 339.764 145.729 L 349.946 146.92 L 353.77 146.089 L 364.876 141.519 L 384.468 146.899 L 396.741 145.698 L 400.896 147.462 L 413.924 148.276 L 428.161 147.658 L 436.73 147.963 L 448.177 146.999 L 456.144 146.667 L 475.87 147.475 L 483.347 147.88 L 499.288 146.251 L 508.961 147.224 L 520.303 145.011 L 533.667 145.364 L 550.362 145.657 L 564.832 146.199 L 580.136 148.452 L 596.613 147.246 L 621.613 125 M 75 125 L 100 148.418 L 103.001 149.476 L 116.991 148.878 L 134.922 149.467 L 148.325 147.459 L 167.945 149.129 L 183.964 149.207 L 198.243 148.183 L 211.779 147.675 L 229.697 147.856 L 240.31 149.638 L 247.384 148.293 L 252.574 149.121 L 256.827 147.813 L 260.183 145.949 L 278.141 148.497 L 284.82 148.856 L 299.483 149.073 L 314.096 148.324 L 327.23 149.013 L 339.764 148.25 L 349.946 147.593 L 353.77 146.864 L 364.876 142.502 L 384.468 147.413 L 396.741 146.139 L 400.896 149.099 L 413.924 149.096 L 428.161 149.008 L 436.73 148.029 L 448.177 148.267 L 456.144 147.43 L 475.87 149.14 L 483.347 149.171 L 499.288 146.329 L 508.961 147.76 L 520.303 147.156 L 533.667 148.322 L 550.362 146.059 L 564.832 147.679 L 580.136 148.984 L 596.613 147.343 L 621.613 125 M 75 125 L 100 148.765 L 103.001 149.662 L 116.991 149.938 L 134.922 149.831 L 148.325 149.153 L 167.945 149.886 L 183.964 149.702 L 198.243 149.784 L 211.779 149.998 L 229.697 149.023 L 240.31 149.788 L 247.384 149.272 L 252.574 149.865 L 256.827 148.096 L 260.183 149.24 L 278.141 149.812 L 284.82 149.376 L 299.483 149.625 L 314.096 149.558 L 327.23 149.361 L 339.764 149.213 L 349.946 149.055 L 353.77 147.723 L 364.876 149.64 L 384.468 148.165 L 396.741 149.283 L 400.896 149.732 L 413.924 149.37 L 428.161 149.556 L 436.73 149.975 L 448.177 148.968 L 456.144 148.582 L 475.87 149.58 L 483.347 149.888 L 499.288 146.749 L 508.961 147.841 L 520.303 147.403 L 533.667 148.875 L 550.362 146.794 L 564.832 148.107 L 580.136 149.28 L 596.613 148.963 L 621.613 125 M 75 125 L 100 150 L 103.001 150 L 116.991 150 L 134.922 150 L 148.325 150 L 167.945 150 L 183.964 150 L 198.243 150 L 211.779 150 L 229.697 150 L 240.31 150 L 247.384 150 L 252.574 150 L 256.827 150 L 260.183 150 L 278.141 150 L 284.82 150 L 299.483 150 L 314.096 150 L 327.23 150 L 339.764 150 L 349.946 150 L 353.77 150 L 364.876 150 L 384.468 150 L 396.741 150 L 400.896 150 L 413.924 150 L 428.161 150 L 436.73 150 L 448.177 150 L 456.144 150 L 475.87 150 L 483.347 150 L 499.288 150 L 508.961 150 L 520.303 150 L 533.667 150 L 550.362 150 L 564.832 150 L 580.136 150 L 596.613 150 L 621.613 125" stroke="black" stroke-width="1" fill="none"></path></svg>
