<svg version="1.1" xmlns:xlink="http://www.w3.org/1999/xlink" xmlns="http://www.w3.org/2000/svg"><polyline points="10,100 450,100 450,230 10,230 10,100" stroke="black" stroke-width="1" fill="none"></polyline><path d="M 30 150 L 60 120 L 90 190 L 150 200" stroke="black" stroke-width="1" fill="none"></path><path d="M 160 150 M 163.536 146.464 M 163.536 146.464 L 167.071 142.929 M 170.607 139.393 L 174.142 135.858 M 177.678 132.322 L 181.213 128.787 M 184.749 125.251 L 188.284 121.716 M 191.97 124.596 M 191.97 124.596 L 193.939 129.191 M 195.909 133.787 L 197.878 138.383 M 199.848 142.979 L 201.818 147.574 M 203.787 152.17 L 205.757 156.766 M 207.726 161.362 L 209.696 165.957 M 211.666 170.553 L 213.635 175.149 M 215.605 179.744 L 217.574 184.34 M 219.544 188.936 M 224.932 190.822 M 224.932 190.822 L 229.864 191.644 M 234.796 192.466 L 239.728 193.288 M 244.66 194.11 L 249.592 194.932 M 254.524 195.754 L 259.456 196.576 M 264.388 197.398 L 269.32 198.22 M 274.252 199.042 L 279.184 199.864" stroke="black" stroke-width="1" fill="none"></path><path d="M 313.536 146.464 M 311.768 144.697 L 315.303 148.232 M 315.303 141.161 L 318.839 144.697 M 318.839 137.626 L 322.374 141.161 M 322.374 134.09 L 325.91 137.626 M 325.91 130.555 L 329.445 134.09 M 329.445 127.019 L 332.981 130.555 M 332.981 123.483 L 336.517 127.019 M 336.517 119.948 L 340.052 123.483 M 341.97 124.596 M 344.267 123.611 L 339.672 125.581 M 346.237 128.207 L 341.641 130.176 M 348.207 132.802 L 343.611 134.772 M 350.176 137.398 L 345.581 139.368 M 352.146 141.994 L 347.55 143.963 M 354.115 146.59 L 349.52 148.559 M 356.085 151.185 L 351.489 153.155 M 358.055 155.781 L 353.459 157.751 M 360.024 160.377 L 355.429 162.346 M 361.994 164.972 L 357.398 166.942 M 363.963 169.568 L 359.368 171.538 M 365.933 174.164 L 361.337 176.134 M 367.903 178.76 L 363.307 180.729 M 369.872 183.355 L 365.276 185.325 M 371.842 187.951 L 367.246 189.921 M 374.932 190.822 M 375.343 188.356 L 374.521 193.288 M 380.275 189.178 L 379.453 194.11 M 385.207 190 L 384.385 194.932 M 390.139 190.822 L 389.317 195.754 M 395.071 191.644 L 394.249 196.576 M 400.003 192.466 L 399.181 197.398 M 404.935 193.288 L 404.113 198.22 M 409.867 194.11 L 409.045 199.042 M 414.799 194.932 L 413.977 199.864 M 419.731 195.754 L 418.909 200.686 M 424.663 196.576 L 423.841 201.508 M 429.595 197.398 L 428.773 202.33" stroke="black" stroke-width="1" fill="none"></path></svg>
