<svg version="1.1" xmlns:xlink="http://www.w3.org/1999/xlink" xmlns="http://www.w3.org/2000/svg"><polyline points="30,30 730,30 730,500 30,500 30,30" stroke="black" stroke-width="1" fill="none"></polyline><path d="M 200.27 255.232 L 72.2847 268.699 M 201.144 253.583 L 72.3035 263.031 M 201.605 252.013 L 73.1753 257.354 M 202.826 250.469 L 73.3183 251.755 M 203.399 248.989 L 74.6883 246.196 M 203.883 247.538 L 76.3877 240.733 M 204.54 246.128 L 78.1112 235.361 M 205.46 244.783 L 78.8151 229.95 M 206.628 243.524 L 80.2502 224.653 M 207.193 242.217 L 81.5801 219.378 M 208.323 241.052 L 82.965 214.138 M 209.122 239.861 L 84.6267 208.983 M 210.14 238.764 L 87.225 204.117 M 210.993 237.66 L 90.0047 199.386 M 211.996 236.641 L 92.5327 194.649 M 213.622 235.905 L 94.7221 189.836 M 214.875 235.096 L 97.9967 185.504 M 216.167 234.364 L 100.401 180.863 M 216.761 233.343 L 104.261 176.967 M 217.904 232.625 L 107.544 172.882 M 219.495 232.216 L 110.615 168.742 M 220.898 231.777 L 114.296 165.026 M 222.188 231.335 L 117.281 160.931 M 223.233 230.781 L 120.877 157.29 M 224.459 230.408 L 124.975 154.097 M 225.926 230.294 L 128.766 150.76 M 227.46 230.327 L 132.054 147.053 M 228.773 230.255 L 135.795 143.77 M 230.275 230.453 L 139.491 140.488 M 231.363 230.325 L 143.558 137.627 M 232.78 230.628 L 148.01 135.266 M 234.092 230.922 L 151.72 132.135 M 235.156 231.008 L 156.076 129.827 M 235.916 230.755 L 160.559 127.785 M 236.555 230.353 L 165.093 125.928 M 237.876 231.023 L 169.091 123.354 M 238.895 231.343 L 173.147 120.876 M 240.042 231.997 L 177.949 119.739 M 241.163 232.758 L 182.879 119.036 M 242.125 233.357 L 187.427 117.765 M 243.171 234.302 L 191.867 116.375 M 243.916 234.711 L 196.46 115.45 M 244.643 235.19 L 201.086 114.776 M 245.347 235.743 L 205.826 114.64 M 245.928 236.041 L 210.254 113.739 M 246.447 236.213 L 214.763 113.249 M 247.089 237.015 L 219.478 113.862 M 247.548 237.177 L 223.831 113.134 M 248.079 237.885 L 228.447 114.103 M 248.566 238.644 L 232.936 114.914 M 248.938 238.739 L 237.219 114.465 M 249.332 239.312 L 241.63 116.018 M 249.7 240.25 L 245.89 116.413 M 250.008 240.797 L 250.116 117.33 M 250.274 241.583 L 254.295 117.894 M 250.521 241.892 L 258.383 119.466 M 250.663 243.098 L 262.494 119.937 M 250.727 244.322 L 266.531 120.943 M 250.771 245.191 L 270.498 122.198 M 250.904 245.319 L 274.241 124.402 M 250.909 245.978 L 278.092 125.715 M 250.813 246.866 L 281.597 128.253 M 250.731 247.51 L 285.022 130.709 M 250.667 247.968 L 288.765 131.913 M 250.685 248.116 L 292.15 134.108" stroke="black" stroke-width="1" fill="none"></path><path d="M 242.168 113.083 L 237.722 42.1604 M 250.397 113.427 L 250.094 42.5266 M 258.55 114.371 L 262.375 43.6533 M 266.65 115.266 L 274.546 45.2735 M 274.677 116.598 L 286.622 47.2772 M 282.598 118.406 L 298.472 50.2899 M 290.401 120.631 L 310.03 54.1893 M 297.859 123.842 L 321.356 58.576 M 305.29 126.967 L 332.43 63.4638 M 312.528 130.493 L 342.957 69.4133 M 319.548 134.417 L 352.981 76.0915 M 326.207 138.911 L 362.653 83.1359 M 332.453 143.938 L 371.958 90.5582 M 338.308 149.377 L 380.61 98.685 M 343.75 155.182 L 388.532 107.47 M 349.138 160.957 L 396.108 116.426 M 354.358 166.864 L 403.557 125.387 M 358.742 173.423 L 410.435 134.764 M 362.663 180.23 L 416.389 144.735 M 366.662 186.926 L 421.373 155.199 M 370.014 193.963 L 426.216 165.611 M 372.673 201.276 L 430.706 176.129 M 375.229 208.57 L 434.071 187.051 M 377.452 215.951 L 437.178 197.979 M 379.259 223.431 L 438.903 209.216 M 380.562 231.004 L 440.586 220.35 M 380.974 238.677 L 442.109 231.469 M 380.92 246.32 L 442.012 242.709 M 380.458 253.905 L 442.04 253.86 M 379.75 261.421 L 440.872 264.944 M 378.76 268.872 L 439.172 275.904 M 377.355 276.235 L 436.852 286.706 M 375.231 283.416 L 433.682 297.256 M 372.913 290.488 L 430.54 307.736 M 370.53 297.513 L 426.596 317.923 M 367.468 304.265 L 421.633 327.642 M 364.181 310.886 L 417.012 337.44 M 360.454 317.259 L 411.693 346.872 M 356.253 323.314 L 405.918 356.02 M 352.006 329.308 L 398.77 364.174 M 347.296 334.941 L 392.003 372.518 M 342.178 340.19 L 384.76 380.443" stroke="black" stroke-width="1" fill="none"></path><path d="M 278.278 357.86 L 302.05 448.196 M 275.084 358.226 L 295.968 448.896 M 271.677 357.397 L 289.913 449.519 M 268.415 356.891 L 283.854 449.895 M 265.123 355.676 L 277.701 449.291 M 262.053 355.627 L 271.593 448.266 M 258.924 354.441 L 265.633 447.879 M 255.893 353.523 L 259.727 447.605 M 252.936 353.536 L 253.858 447.736 M 249.991 352.963 L 248.02 446.174 M 247.095 352.077 L 242.214 445.703 M 244.2 351.727 L 236.435 445.036 M 241.516 349.592 L 230.763 443.536 M 238.961 347.35 L 225.261 441.231 M 236.324 346.222 L 219.712 439.712 M 233.722 345.124 L 214.226 438.059 M 231.112 344.203 L 208.84 436.115 M 228.763 342.397 L 203.387 434.562 M 226.529 340.453 L 198.021 432.738 M 224.169 339.105 L 192.962 430.052 M 222.282 336.596 L 188.038 427.162 M 220.344 334.482 L 183.264 424.069 M 218.451 332.451 L 178.872 420.28 M 216.934 329.8 L 174.085 417.536 M 215.599 327.031 L 169.332 414.773 M 213.614 325.638 L 165.064 411.185 M 212.508 322.829 L 161.209 407.041 M 211.227 320.494 L 157.426 402.959 M 209.728 318.609 L 153.556 399.148 M 208.95 315.825 L 150.192 394.751 M 207.725 313.782 L 146.739 390.617 M 206.973 311.259 L 142.746 387.228 M 205.889 309.239 L 139.921 382.541 M 205.385 306.681 L 136.26 378.87 M 204.025 305.094 L 133.766 374.064 M 203.978 302.308 L 130.767 369.858 M 203.226 300.285 L 128.244 365.291 M 203.031 297.868 L 124.986 361.409 M 203.184 295.293 L 122.634 356.83 M 202.534 293.421 L 120.809 351.943 M 201.806 291.644 L 118.734 347.324 M 202.172 289.209 L 116.427 342.913 M 202.6 286.852 L 114.574 338.264 M 202.278 285.013 L 112.326 333.883" stroke="black" stroke-width="1" fill="none"></path><path d="M 237.256 163.441 L 216.864 35.7871 M 242.367 164.005 L 228.391 35.193 M 247.358 164.408 L 239.872 34.9378 M 252.279 164.912 L 251.315 35.0463 M 257.145 165.436 L 262.71 35.8125 M 261.923 166.567 L 273.994 37.4682 M 266.608 167.86 L 285.22 39.102 M 271.195 169.334 L 296.247 41.7448 M 275.799 170.503 L 307.153 44.6784 M 280.232 172.233 L 317.867 48.1713 M 284.289 174.896 L 328.522 51.7588 M 288.287 177.406 L 338.768 56.3879 M 292.216 179.878 L 348.967 61.037 M 296.083 182.352 L 358.853 66.3075 M 299.719 185.141 L 368.479 72.0188 M 302.862 188.567 L 377.388 78.8081 M 305.762 192.136 L 386.113 85.7389 M 308.937 195.204 L 394.643 92.8593 M 311.46 198.928 L 402.841 100.34 M 313.817 202.673 L 410.671 108.192 M 316.586 205.93 L 417.457 116.982 M 318.637 209.748 L 424.05 125.832 M 320.535 213.581 L 430.453 134.774 M 322.514 217.278 L 436.007 144.262 M 324.585 220.884 L 441.486 153.739 M 326.418 224.611 L 445.853 163.786 M 327.583 228.63 L 450.414 173.673 M 328.87 232.54 L 454.078 183.921 M 329.185 236.748 L 457.493 194.221 M 330.046 240.699 L 460.634 204.597 M 330.979 244.611 L 462.532 215.276 M 331.638 248.576 L 464.496 225.897 M 331.117 252.68 L 465.242 236.678" stroke="black" stroke-width="1" fill="none"></path><path d="M 152.408 333.285 L 82.8909 390.274 M 150.732 329.297 L 79.1504 384.263 M 148.85 325.545 L 75.3329 378.363 M 146.696 322.025 L 71.6298 372.411 M 144.463 318.568 L 68.3826 366.193 M 142.695 314.836 L 65.4228 359.847 M 141.049 311.063 L 62.558 353.496 M 139.525 307.254 L 59.53 347.263 M 137.912 303.509 L 57.4731 340.587 M 136.618 299.637 L 54.715 334.272 M 135.863 295.579 L 52.3367 327.805 M 135.331 291.494 L 50.2879 321.23 M 135.012 287.398 L 48.1322 314.704 M 134.937 283.295 L 47.0333 307.877 M 134.814 279.272 L 45.9494 301.096 M 134.935 275.251 L 44.8765 294.351 M 134.659 271.363 L 43.9947 287.593 M 135.069 267.402 L 43.1548 280.85 M 135.347 263.518 L 42.6133 274.083 M 135.897 259.658 L 42.5576 267.29 M 136.171 255.866 L 42.7539 260.517 M 136.474 252.104 L 42.6212 253.784 M 136.55 248.361 L 43.4508 247.063 M 136.696 244.624 L 44.4275 240.395 M 137.847 240.963 L 44.9436 233.735 M 139.275 237.388 L 46.0533 227.14 M 140.238 233.813 L 47.7119 220.648 M 141.233 230.273 L 48.7672 214.097 M 142.811 226.877 L 50.216 207.622 M 144.655 223.603 L 52.3454 201.318 M 146.455 220.383 L 55.1056 195.226 M 148.438 217.279 L 57.1496 188.983 M 149.846 214.042 L 59.5667 182.875 M 151.345 210.859 L 61.8317 176.729 M 153.122 207.81 L 64.3985 170.704 M 155.038 204.857 L 68.0401 165.172 M 157.08 202.004 L 71.3346 159.541 M 159.103 199.181 L 74.3237 153.779 M 161.697 196.72 L 77.9424 148.374 M 164.045 194.183 L 81.3416 142.866" stroke="black" stroke-width="1" fill="none"></path><path d="M 188.909 274.728 L 104.033 301.346 M 188.517 272.166 L 102.791 295.591 M 188.366 269.572 L 101.694 289.826 M 189.129 266.832 L 100.811 284.037 M 189.695 264.22 L 99.8725 278.276 M 189.526 261.766 L 99.3005 272.468" stroke="black" stroke-width="1" fill="none"></path><path d="M 275.365 191.929 L 307.711 81.5676 M 277.844 193.656 L 314.941 84.3841 M 280.359 195.095 L 321.932 87.7408 M 282.72 196.797 L 329.042 90.695 M 285.074 198.393 L 335.757 94.4847 M 287.446 199.886 L 342.336 98.4443 M 289.456 201.954 L 348.873 102.418 M 291.332 204.112 L 355.228 106.658 M 293.078 206.338 L 361.396 111.151 M 294.969 208.273 L 367.229 116.064 M 296.909 210.102 L 372.767 121.286 M 298.832 211.935 L 378.364 126.399 M 300.03 214.48 L 383.623 131.855 M 301.58 216.598 L 388.307 137.821 M 303.211 218.619 L 393.162 143.586 M 304.027 221.258 L 397.666 149.623 M 305.427 223.391 L 401.755 155.94 M 306.188 225.923 L 405.309 162.573 M 306.748 228.503 L 408.74 169.22 M 307.92 230.683 L 412.272 175.779 M 308.552 233.12 L 415.188 182.636 M 308.816 235.671 L 417.637 189.663 M 309.422 238.025 L 420.137 196.628 M 309.984 240.371 L 422.224 203.719 M 309.807 242.908 L 423.691 210.965 M 309.787 245.333 L 424.811 218.245 M 309.71 247.72 L 425.85 225.492 M 309.998 250.008 L 426.442 232.775 M 309.909 252.332 L 427.03 240.018 M 309.103 254.672 L 427.384 247.261 M 308.375 256.931 L 427.009 254.51 M 307.865 259.129 L 426.463 261.712 M 307.616 261.305 L 425.986 268.885 M 306.899 263.422 L 424.807 275.982 M 305.909 265.456 L 423.159 282.973 M 304.677 267.386 L 421.345 289.881 M 303.486 269.252 L 419.788 296.809 M 302.778 271.19 L 417.986 303.674 M 302.018 273.097 L 415.689 310.389 M 300.969 274.884 L 412.667 316.824 M 299.786 276.582 L 409.995 323.355 M 298.904 278.384 L 406.404 329.458 M 297.21 279.754 L 402.947 335.572 M 295.891 281.26 L 399.092 341.435 M 294.324 282.568 L 395.136 347.194 M 292.724 283.79 L 390.857 352.705 M 290.922 284.792 L 386.691 358.266 M 289.158 285.736 L 381.82 363.246" stroke="black" stroke-width="1" fill="none"></path><path d="M 238.767 199.077 L 211.27 104.178 M 239.411 198.913 L 212.88 103.759 M 240.051 198.74 L 214.487 103.326 M 240.693 198.574 L 216.115 102.981 M 241.341 198.433 L 217.788 102.822 M 241.991 198.3 L 219.453 102.649 M 242.642 198.175 L 221.116 102.485 M 243.29 198.038 L 222.786 102.379 M 243.941 197.916 L 224.429 102.165 M 244.594 197.804 L 226.082 102.01 M 245.245 197.684 L 227.72 101.796 M 245.899 197.578 L 229.374 101.686 M 246.553 197.476 L 231.008 101.468 M 247.207 197.377 L 232.636 101.219 M 247.862 197.283 L 234.294 101.189 M 248.518 197.196 L 235.941 101.094 M 249.177 197.132 L 237.597 101.108 M 249.835 197.061 L 239.244 101.069 M 250.493 196.992 L 240.899 101.138 M 251.152 196.935 L 242.539 101.098 M 251.813 196.897 L 244.186 101.172 M 252.474 196.867 L 245.816 101.072 M 253.134 196.832 L 247.46 101.199 M 253.794 196.805 L 249.1 101.342 M 254.456 196.798 L 250.735 101.47 M 255.117 196.799 L 252.368 101.649 M 255.777 196.789 L 253.995 101.752 M 256.438 196.797 L 255.619 101.963 M 257.098 196.8 L 257.24 102.221 M 257.758 196.822 L 258.856 102.382 M 258.417 196.853 L 260.47 102.523 M 259.076 196.888 L 262.077 102.789 M 259.735 196.921 L 263.684 102.977 M 260.393 196.973 L 265.279 103.324 M 261.051 197.017 L 266.877 103.559 M 261.707 197.082 L 268.469 103.832 M 262.363 197.153 L 270.053 104.158 M 263.019 197.212 L 271.65 104.311 M 263.672 197.298 L 273.234 104.581 M 264.325 197.389 L 274.811 104.898 M 264.978 197.47 L 276.369 105.339 M 265.63 197.563 L 277.923 105.777 M 266.279 197.674 L 279.488 106.111 M 266.928 197.785 L 281.048 106.456 M 267.575 197.904 L 282.6 106.839 M 268.22 198.034 L 284.15 107.221 M 268.866 198.157 L 285.675 107.723 M 269.51 198.291 L 287.217 108.116 M 270.151 198.44 L 288.745 108.571 M 270.793 198.578 L 290.259 109.077 M 271.43 198.744 L 291.771 109.573 M 272.065 198.911 L 293.287 110.038 M 272.702 199.071 L 294.808 110.477 M 273.338 199.234 L 296.276 111.115 M 273.972 199.406 L 297.8 111.527 M 274.603 199.589 L 299.284 112.081 M 275.233 199.775 L 300.756 112.67 M 275.86 199.97 L 302.255 113.156 M 276.486 200.167 L 303.69 113.844 M 277.106 200.382 L 305.145 114.456 M 277.724 200.605 L 306.553 115.196 M 278.337 200.839 L 307.988 115.848 M 278.948 201.079 L 309.444 116.429 M 279.561 201.31 L 310.828 117.203 M 280.167 201.561 L 312.253 117.857 M 280.774 201.81 L 313.609 118.677 M 281.377 202.065 L 314.994 119.415 M 281.979 202.325 L 316.396 120.101 M 282.575 202.596 L 317.721 120.963 M 283.172 202.867 L 319.14 121.6 M 283.76 203.154 L 320.503 122.357 M 284.347 203.445 L 321.851 123.142 M 284.929 203.744 L 323.158 124.007 M 285.509 204.047 L 324.438 124.914 M 286.093 204.343 L 325.705 125.837 M 286.671 204.649 L 326.974 126.745 M 287.242 204.968 L 328.305 127.526 M 287.813 205.285 L 329.574 128.419 M 288.385 205.601 L 330.848 129.295 M 288.948 205.934 L 332.09 130.222 M 289.505 206.275 L 333.362 131.09 M 290.065 206.612 L 334.6 132.01 M 290.62 206.957 L 335.78 133.02 M 291.169 207.311 L 337.048 133.878 M 291.712 207.673 L 338.188 134.935 M 292.251 208.042 L 339.449 135.796 M 292.788 208.413 L 340.617 136.796 M 293.319 208.792 L 341.782 137.794 M 293.848 209.174 L 343.022 138.678 M 294.38 209.552 L 344.184 139.671 M 294.907 209.936 L 345.347 140.657 M 295.428 210.328 L 346.505 141.648 M 295.941 210.731 L 347.623 142.686 M 296.445 211.144 L 348.756 143.701 M 296.948 211.56 L 349.858 144.751 M 297.446 211.979 L 350.955 145.804 M 297.947 212.395 L 352.013 146.898 M 298.437 212.825 L 353.165 147.877 M 298.925 213.256 L 354.132 149.07 M 299.412 213.689 L 355.179 150.164 M 299.889 214.131 L 356.287 151.186 M 300.364 214.577 L 357.269 152.344 M 300.826 215.036 L 358.27 153.477 M 301.283 215.498 L 359.323 154.551 M 301.738 215.963 L 360.338 155.662 M 302.197 216.423 L 361.408 156.715 M 302.644 216.895 L 362.44 157.807 M 303.086 217.372 L 363.459 158.909 M 303.526 217.85 L 364.395 160.089 M 303.961 218.333 L 365.403 161.2 M 304.383 218.826 L 366.219 162.484 M 304.801 219.324 L 367.076 163.725 M 305.226 219.814 L 368.059 164.85 M 305.648 220.306 L 368.914 166.084 M 306.067 220.802 L 369.69 167.382 M 306.471 221.31 L 370.484 168.658 M 306.862 221.828 L 371.22 169.976 M 307.26 222.339 L 371.982 171.267 M 307.645 222.861 L 372.712 172.577 M 308.021 223.39 L 373.523 173.82 M 308.407 223.91 L 374.343 175.054 M 308.771 224.446 L 375.13 176.31 M 309.148 224.973 L 375.898 177.577 M 309.505 225.513 L 376.636 178.863 M 309.866 226.051 L 377.241 180.236 M 310.212 226.598 L 377.922 181.551 M 310.561 227.143 L 378.689 182.806 M 310.907 227.69 L 379.403 184.095 M 311.25 228.239 L 379.994 185.457 M 311.576 228.798 L 380.63 186.788 M 311.891 229.363 L 381.211 188.147 M 312.2 229.931 L 381.819 189.486 M 312.521 230.492 L 382.379 190.849 M 312.829 231.061 L 383.035 192.154 M 313.122 231.637 L 383.513 193.555 M 313.412 232.215 L 384.116 194.883 M 313.698 232.794 L 384.679 196.231 M 313.988 233.371 L 385.212 197.59 M 314.272 233.951 L 385.843 198.899 M 314.547 234.535 L 386.227 200.326 M 314.806 235.127 L 386.787 201.664 M 315.065 235.718 L 387.166 203.083 M 315.307 236.317 L 387.698 204.43 M 315.553 236.913 L 388.037 205.858 M 315.787 237.515 L 388.432 207.257 M 316.019 238.116 L 388.854 208.642 M 316.244 238.721 L 389.257 210.031 M 316.454 239.33 L 389.731 211.39 M 316.677 239.935 L 390.039 212.81 M 316.888 240.544 L 390.292 214.245 M 317.082 241.158 L 390.729 215.611 M 317.279 241.771 L 391.186 216.97 M 317.472 242.386 L 391.572 218.351 M 317.663 243 L 391.849 219.766 M 317.845 243.618 L 392.182 221.16 M 318.007 244.241 L 392.535 222.546 M 318.165 244.865 L 392.868 223.937 M 318.321 245.489 L 393.197 225.328 M 318.467 246.116 L 393.417 226.747 M 318.608 246.743 L 393.692 228.148 M 318.744 247.371 L 393.873 229.571 M 318.872 248.001 L 394.18 230.962 M 319.01 248.628 L 394.325 232.388 M 319.136 249.258 L 394.573 233.789 M 319.246 249.891 L 394.771 235.199 M 319.36 250.523 L 394.942 236.613 M 319.457 251.158 L 395.05 238.035 M 319.559 251.792 L 395.152 239.456 M 319.652 252.427 L 395.314 240.865 M 319.723 253.065 L 395.449 242.277 M 319.805 253.701 L 395.528 243.695 M 319.882 254.338 L 395.467 245.128 M 319.943 254.977 L 395.617 246.533 M 320.009 255.615 L 395.499 247.964 M 320.067 256.253 L 395.547 249.375 M 320.104 256.894 L 395.388 250.802 M 320.132 257.534 L 395.451 252.206 M 320.156 258.175 L 395.265 253.626 M 320.179 258.815 L 395.212 255.033 M 320.203 259.455 L 395.246 256.434 M 320.224 260.096 L 395.245 257.836 M 320.222 260.736 L 395.016 259.241 M 320.215 261.377 L 394.783 260.641 M 320.207 262.017 L 394.756 262.036 M 320.197 262.657 L 394.49 263.429 M 320.177 263.296 L 394.362 264.819 M 320.15 263.936 L 394.129 266.203 M 320.104 264.574 L 394.012 267.589 M 320.057 265.212 L 393.946 268.976 M 320 265.849 L 393.652 270.349 M 319.936 266.485 L 393.385 271.72 M 319.887 267.122 L 393.048 273.082 M 319.828 267.759 L 392.809 274.448 M 319.757 268.394 L 392.625 275.817 M 319.676 269.027 L 392.321 277.172 M 319.599 269.661 L 392.145 278.54 M 319.498 270.292 L 391.803 279.885 M 319.397 270.922 L 391.477 281.229 M 319.301 271.553 L 391.144 282.57 M 319.183 272.181 L 390.801 283.906 M 319.07 272.809 L 390.505 285.248 M 318.937 273.433 L 389.987 286.548 M 318.802 274.056 L 389.699 287.887 M 318.657 274.678 L 389.274 289.197" stroke="black" stroke-width="1" fill="none"></path><path d="M 305.874 164.798 L 341.355 101.65 M 307.953 167.201 L 345.788 104.487 M 310.452 168.84 L 350.203 107.334 M 312.488 171.149 L 354.296 110.649 M 314.293 173.694 L 358.323 114.011 M 316.173 176.045 L 362.186 117.55 M 318.257 178.087 L 366.202 120.869 M 320.341 180.108 L 369.862 124.59 M 322.158 182.4 L 373.619 128.178 M 324.119 184.513 L 377.181 131.958 M 325.519 187.141 L 380.525 135.93 M 326.905 189.717 L 383.822 139.922 M 327.979 192.498 L 387.124 143.898 M 329.026 195.226 L 390.222 148.033 M 330.265 197.752 L 393.083 152.335 M 331.817 200.031 L 395.928 156.632 M 332.563 202.82 L 398.512 161.09 M 333.211 205.605 L 400.923 165.636 M 333.371 208.598 L 403.23 170.223 M 334.144 211.187 L 405.325 174.905 M 335.205 213.608 L 407.402 179.577 M 335.836 216.211 L 409.346 184.3" stroke="black" stroke-width="1" fill="none"></path><path d="M 161.476 351.972 L 132.917 380.661 M 160.196 350.508 L 131.184 378.846 M 158.863 349.1 L 129.492 376.993 M 157.716 347.519 L 127.779 375.161 M 156.56 345.956 L 126.099 373.299 M 155.449 344.36 L 124.456 371.405 M 154.369 342.745 L 122.847 369.482 M 153.164 341.242 L 121.299 367.509 M 152.094 339.632 L 119.772 365.521 M 150.98 338.062 L 118.233 363.545 M 149.908 336.462 L 116.758 361.521 M 148.927 334.8 L 115.287 359.494 M 147.815 333.239 L 113.877 357.425 M 146.764 331.635 L 112.459 355.364 M 145.746 330.01 L 111.061 353.289 M 144.796 328.343 L 109.686 351.199 M 143.886 326.655 L 108.399 349.053 M 142.933 324.997 L 107.138 346.892 M 142.119 323.259 L 105.856 344.747 M 141.271 321.546 L 104.609 342.581 M 140.433 319.831 L 103.399 340.394 M 139.644 318.094 L 102.241 338.179 M 138.788 316.394 L 101.117 335.947 M 138.072 314.626 L 100.04 333.693 M 137.278 312.9 L 98.951 331.446 M 136.493 311.171 L 97.9535 329.157 M 135.761 309.419 L 96.9686 326.863 M 135.189 307.599 L 95.9798 324.573 M 134.522 305.825 L 95.0386 322.263 M 133.817 304.067 L 94.1343 319.939 M 133.329 302.227 L 93.2287 317.616 M 132.775 300.417 L 92.4095 315.261 M 132.269 298.593 L 91.5983 312.904 M 131.716 296.789 L 90.828 310.534 M 131.254 294.957 L 90.0666 308.162 M 130.73 293.147 L 89.4024 305.76 M 130.249 291.326 L 88.7087 303.369 M 129.809 289.495 L 88.0567 300.966 M 129.491 287.634 L 87.4474 298.552 M 129.123 285.79 L 86.8939 296.126 M 128.753 283.948 L 86.3399 293.7 M 128.495 282.084 L 85.829 291.265 M 128.125 280.246 L 85.3455 288.826 M 127.951 278.372 L 84.9079 286.377 M 127.746 276.509 L 84.4825 283.928 M 127.51 274.653 L 84.1184 281.468 M 127.267 272.799 L 83.7921 279.004 M 127.17 270.928 L 83.4678 276.54 M 127.02 269.067 L 83.1806 274.072 M 126.859 267.208 L 82.9693 271.595 M 126.825 265.34 L 82.8202 269.115 M 126.73 263.479 L 82.701 266.634 M 126.835 261.608 L 82.6042 264.154 M 126.824 259.748 L 82.519 261.674 M 126.865 257.888 L 82.5082 259.193 M 126.945 256.03 L 82.4741 256.714 M 127.035 254.176 L 82.5266 254.235 M 127.195 252.325 L 82.5761 251.757 M 127.254 250.475 L 82.6905 249.282 M 127.448 248.63 L 82.8109 246.808 M 127.66 246.791 L 82.9369 244.336 M 128.012 244.963 L 83.1174 241.866 M 128.379 243.144 L 83.3491 239.401 M 128.7 241.326 L 83.6049 236.94 M 129.026 239.513 L 83.9049 234.483 M 129.465 237.717 L 84.2695 232.036 M 129.815 235.915 L 84.6594 229.594 M 130.145 234.113 L 85.0523 227.153 M 130.554 232.325 L 85.4873 224.72 M 130.904 230.53 L 85.988 222.3 M 131.435 228.771 L 86.5174 219.887 M 131.804 226.982 L 87.027 217.471 M 132.418 225.249 L 87.6051 215.071 M 133.032 223.523 L 88.1707 212.669 M 133.654 221.803 L 88.7734 210.275 M 134.2 220.069 L 89.4485 207.902 M 134.732 218.332 L 90.1625 205.54 M 135.393 216.636 L 90.8875 203.182 M 135.965 214.915 L 91.6875 200.849 M 136.716 213.254 L 92.4791 198.514 M 137.522 211.618 L 93.3112 196.194 M 138.259 209.964 L 94.1779 193.888 M 138.907 208.28 L 95.0881 191.598 M 139.692 206.65 L 95.9854 189.305 M 140.498 205.033 L 96.9582 187.042 M 141.338 203.435 L 97.9423 184.785 M 142.092 201.802 L 98.954 182.541 M 143.002 200.242 L 99.9946 180.311 M 143.895 198.68 L 101.056 178.091 M 144.718 197.086 L 102.149 175.886 M 145.641 195.545 L 103.291 173.707 M 146.673 194.066 L 104.46 171.542 M 147.589 192.53 L 105.678 169.406 M 148.647 191.076 L 106.953 167.302 M 149.64 189.591 L 108.242 165.209 M 150.721 188.163 L 109.548 163.128 M 151.854 186.772 L 110.85 161.045 M 152.917 185.345 L 112.226 159.01 M 154.036 183.958 L 113.629 156.995 M 155.153 182.576 L 115.028 154.979 M 156.251 181.185 L 116.457 152.984 M 157.3 179.762 L 117.896 150.998 M 158.376 178.359 L 119.409 149.066 M 159.565 177.043 L 120.903 147.122 M 160.75 175.731 L 122.443 145.214 M 161.974 174.453 L 124.018 143.335 M 163.133 173.126 L 125.631 141.489 M 164.333 171.836 L 127.243 139.644 M 165.554 170.566 L 128.864 137.807 M 166.913 169.426 L 130.551 136.031 M 168.183 168.211 L 132.221 134.24 M 169.426 166.973 L 133.917 132.472 M 170.807 165.873 L 135.662 130.754 M 172.222 164.817 L 137.408 129.038 M 173.539 163.667 L 139.177 127.346 M 174.959 162.632 L 140.984 125.694 M 176.306 161.523 L 142.835 124.091 M 177.779 160.562 L 144.722 122.533 M 179.261 159.622 L 146.63 121.001 M 180.624 158.549 L 148.552 119.489 M 182.006 157.5 L 150.483 117.99 M 183.489 156.584 L 152.44 116.527 M 184.994 155.705 L 154.399 115.069 M 186.485 154.818 L 156.393 113.658 M 188.018 153.997 L 158.388 112.252 M 189.46 153.054 L 160.39 110.855 M 191.02 152.291 L 162.448 109.543 M 192.592 151.558 L 164.521 108.256 M 194.096 150.729 L 166.616 107.005 M 195.612 149.925 L 168.721 105.774 M 197.196 149.243 L 170.831 104.555 M 198.694 148.422 L 172.948 103.349 M 200.234 147.679 L 175.074 102.159 M 201.831 147.049 L 177.238 101.04 M 203.448 146.469 L 179.425 99.9672" stroke="black" stroke-width="1" fill="none"></path><path d="M 217.877 140.861 L 194.366 75.476 M 224.873 138.95 L 205.123 72.0159 M 232.028 137.799 L 216.149 69.5653 M 239.184 137.001 L 227.246 67.6072 M 246.285 136.153 L 238.4 66.1062 M 253.427 135.967 L 249.628 65.457 M 260.545 135.811 L 260.858 65.6511 M 267.626 136.606 L 272.047 66.2324 M 274.6 137.943 L 283.161 67.5422 M 281.474 139.514 L 294.187 69.3692 M 288.169 141.668 L 305.106 71.7192 M 294.838 143.697 L 315.827 74.8348 M 301.285 146.33 L 326.311 78.6369 M 307.435 149.574 L 336.57 82.9769 M 313.393 153.064 L 346.532 87.9341 M 319.258 156.619 L 356.175 93.4602 M 324.922 160.454 L 365.544 99.417 M 330.299 164.658 L 374.489 105.983 M 335.342 169.234 L 383.144 112.915 M 340.047 174.126 L 391.114 120.617 M 344.752 178.972 L 398.721 128.648 M 348.94 184.267 L 405.653 137.251 M 352.812 189.771 L 412.139 146.159 M 356.035 195.678 L 418.388 155.215 M 359.089 201.612 L 424.035 164.654 M 361.955 207.603 L 428.771 174.575 M 364.395 213.763 L 433.257 184.583 M 366.663 219.966 L 436.833 194.944 M 368.533 226.29 L 439.913 205.436 M 369.905 232.732 L 442.223 216.106 M 370.797 239.243 L 443.956 226.858 M 371.272 245.775 L 445.22 237.651 M 371.129 252.311 L 446.024 248.477 M 370.942 258.791 L 445.81 259.325 M 370.319 265.226 L 445.36 270.141 M 369.366 271.596 L 444.037 280.879 M 367.649 277.807 L 442.097 291.504 M 365.551 283.856 L 439.51 301.974 M 363.585 289.874 L 436.354 312.265 M 360.857 295.593 L 432.476 322.289 M 357.807 301.1 L 428.229 332.133 M 354.596 306.449 L 423.573 341.778 M 351.427 311.767 L 418.126 350.992 M 348.041 316.935 L 412.102 359.817 M 344.19 321.759 L 405.861 368.464 M 339.932 326.211 L 398.941 376.568 M 335.456 330.398 L 391.542 384.212 M 330.601 334.121 L 383.744 391.418 M 325.689 337.668 L 375.515 398.098 M 320.75 341.103 L 367.083 404.483 M 315.545 344.094 L 358.366 410.466" stroke="black" stroke-width="1" fill="none"></path><path d="M 261.146 322.471 L 261.548 489.086 M 259.014 321.639 L 253.48 487.883 M 256.943 320.729 L 245.452 487.065 M 254.951 319.584 L 237.441 486.264 M 252.964 318.88 L 229.604 484.216 M 251.106 317.616 L 221.763 482.568 M 249.152 317.117 L 214.118 480.095 M 247.313 316.181 L 206.7 476.956 M 245.637 314.804 L 199.276 474.153 M 243.912 313.769 L 191.946 471.207 M 242.291 312.545 L 184.889 467.626 M 240.905 310.859 L 178.173 463.385 M 239.796 308.74 L 171.142 460.075 M 238.164 307.908 L 164.621 455.756 M 236.58 306.991 L 158.459 450.922 M 235.224 305.695 L 151.965 446.834 M 234.132 304.042 L 146.145 441.719 M 233.141 302.343 L 140.559 436.414 M 232.16 300.732 L 134.929 431.311 M 231.585 298.694 L 129.481 426.064 M 230.706 297.144 L 124.253 420.637 M 229.647 295.85 L 119.359 414.922 M 229.447 293.716 L 113.994 409.768 M 229.084 291.87 L 109.002 404.253 M 229.091 289.795 L 104.813 398.051 M 228.949 287.966 L 101.101 391.545 M 229.19 285.943 L 96.6139 385.731 M 228.571 284.642 L 93.4567 378.981 M 228.44 283.046 L 90.6603 372.106 M 228.088 281.645 L 87.6152 365.495 M 227.92 280.177 L 84.4037 359.038 M 227.915 278.671 L 82.1951 352.099 M 227.57 277.375 L 79.5597 345.447 M 227.288 276.07 L 77.237 338.694 M 228.225 274.325 L 75.853 331.623 M 228.337 272.969 L 74.8478 324.514 M 228.925 271.512 L 73.5302 317.596 M 229.514 270.127 L 72.8923 310.555" stroke="black" stroke-width="1" fill="none"></path><path d="M 197.78 152.138 L 170.645 110.788 M 203.544 148.683 L 178.972 106.096 M 209.456 145.496 L 187.521 101.871 M 215.574 142.728 L 196.264 98.1103 M 221.859 140.382 L 205.137 94.7146 M 228.265 138.416 L 214.425 92.636 M 234.751 136.767 L 223.761 91.1 M 241.317 135.511 L 232.95 89.1979 M 247.924 134.527 L 242.349 88.7886 M 254.586 134.073 L 251.668 88.445 M 261.253 133.907 L 260.96 88.475 M 267.916 134.089 L 270.216 89.0106 M 274.543 134.768 L 279.349 90.6131 M 281.136 135.679 L 288.326 92.7265 M 287.644 137.067 L 297.237 94.8165 M 294.041 138.871 L 305.857 97.8927" stroke="black" stroke-width="1" fill="none"></path><path d="M 188.752 209.825 L 71.2973 139.943 M 190.33 207.65 L 74.9843 134.081 M 192.013 205.559 L 78.8264 128.322 M 193.834 203.585 L 82.9052 122.73 M 195.938 201.855 L 87.0938 117.223 M 198.101 200.223 L 91.4924 111.885 M 199.934 198.351 L 95.9905 106.632 M 201.976 196.687 L 100.698 101.568 M 204.046 195.081 L 105.589 96.6834 M 205.94 193.319 L 110.552 91.8766 M 207.986 191.729 L 115.744 87.3193 M 210.365 190.557 L 121.023 82.8692 M 212.696 189.385 L 126.413 78.555 M 214.729 187.859 L 131.945 74.4268 M 217.197 186.965 L 137.637 70.5251 M 219.59 186.029 L 143.457 66.8215 M 221.89 184.998 L 149.378 63.2899 M 224.172 183.971 L 155.384 59.9095 M 226.509 183.081 L 161.506 56.7493 M 228.729 181.985 L 167.711 53.7621 M 231.077 181.174 L 174.011 50.9872 M 233.403 180.341 L 180.4 48.4335 M 235.901 179.998 L 186.822 45.9704 M 238.369 179.666 L 193.321 43.7192 M 240.722 179.051 L 199.911 41.7516 M 243.178 178.844 L 206.546 39.9554 M 245.621 178.702 L 213.239 38.3996 M 248.076 178.747 L 219.966 37.0064 M 250.497 178.786 L 226.737 35.8599 M 252.858 178.59 L 233.533 34.8939 M 255.276 179.012 L 240.35 34.0887 M 257.613 178.883 L 247.197 33.6211 M 259.952 178.842 L 254.051 33.3673 M 262.289 179.048 L 260.904 33.2046 M 264.604 179.6 L 267.757 33.3706 M 266.909 179.768 L 274.601 33.6762 M 269.169 180.434 L 281.432 34.183 M 271.37 181.35 L 288.235 34.9576 M 273.565 182.03 L 295.005 35.969 M 275.762 182.57 L 301.744 37.1459 M 277.842 183.624 L 308.438 38.5439 M 279.954 184.387 L 315.088 40.1268 M 282.047 185.164 L 321.699 41.8573 M 284.001 186.347 L 328.238 43.8428 M 286.069 187.097 L 334.706 46.0386 M 288.069 188.018 L 341.083 48.483 M 290.007 189.065 L 347.413 51.0356 M 291.867 190.25 L 353.623 53.8645 M 293.811 191.218 L 359.746 56.8676 M 295.496 192.675 L 365.797 60.0077 M 297.307 193.849 L 371.72 63.3791 M 299.155 194.947 L 377.55 66.9027 M 300.72 196.481 L 383.234 70.6544 M 302.115 198.21 L 388.846 74.5063 M 303.57 199.796 L 394.329 78.5376 M 305.17 201.161 L 399.68 82.7394 M 306.721 202.577 L 404.9 87.102 M 308.167 204.102 L 409.964 91.641 M 309.549 205.679 L 414.911 96.3043 M 310.625 207.538 L 419.673 101.155 M 311.66 209.392 L 424.315 106.117 M 312.887 211.04 L 428.777 111.24 M 314.183 212.62 L 433.109 116.471 M 315.407 214.256 L 437.238 121.863 M 316.249 216.162 L 441.203 127.373 M 316.849 218.199 L 444.992 133.003 M 317.618 220.084 L 448.567 138.769 M 318.618 221.811 L 452.002 144.616 M 319.479 223.613 L 455.301 150.539 M 320.273 225.442 L 458.346 156.595 M 320.914 227.334 L 461.276 162.707 M 321.361 229.294 L 463.921 168.945 M 321.471 231.362 L 466.356 175.265 M 321.516 233.409 L 468.609 181.649 M 321.848 235.324 L 470.702 188.084 M 321.875 237.309 L 472.584 194.581 M 322.248 239.173 L 474.272 201.13 M 322.659 241.024 L 475.705 207.737 M 322.906 242.906 L 476.968 214.376 M 322.932 244.815 L 478.05 221.044 M 322.519 246.762 L 478.947 227.739 M 322.597 248.624 L 479.635 234.457 M 322.214 250.507 L 480.047 241.197 M 321.779 252.361 L 480.311 247.942 M 321.778 254.187 L 480.343 254.69 M 321.276 255.995 L 480.195 261.436 M 320.748 257.775 L 479.779 268.17 M 320.089 259.516 L 479.133 274.883 M 319.776 261.271 L 478.377 281.582 M 319.26 262.988 L 477.313 288.238 M 318.532 264.649 L 476.054 294.857 M 317.606 266.24 L 474.661 301.446 M 316.555 267.764 L 473.01 307.974 M 315.819 269.338 L 471.171 314.449 M 314.889 270.831 L 469.179 320.878 M 314.186 272.378 L 466.903 327.21 M 313.405 273.885 L 464.522 333.5 M 312.266 275.226 L 461.905 339.696 M 311.161 276.547 L 459.06 345.788 M 310.135 277.878 L 456.058 351.8 M 309.24 279.258 L 452.837 357.696" stroke="black" stroke-width="1" fill="none"></path><path d="M 222.473 379.075 L 186.128 485.039 M 218.773 377.682 L 179.504 481.599 M 215.106 376.21 L 172.691 478.755 M 211.505 374.586 L 166.226 475.145 M 207.944 372.878 L 160.047 471.037 M 204.444 371.053 L 153.731 467.319 M 200.989 369.146 L 147.922 462.75 M 197.623 367.086 L 141.963 458.56 M 194.341 364.9 L 136.441 453.754 M 191.085 362.679 L 130.494 449.666 M 187.943 360.303 L 124.843 445.178 M 184.846 357.872 L 119.2 440.701 M 181.858 355.31 L 113.912 435.803" stroke="black" stroke-width="1" fill="none"></path><path d="M 167.061 260.742 L 55.4367 259.308 M 167.82 255.93 L 55.8347 248.936 M 168.517 251.157 L 57.0057 238.625 M 169.802 246.496 L 58.7702 228.413 M 171.398 241.954 L 61.4526 218.407 M 172.931 237.457 L 64.457 208.541 M 174.783 233.096 L 67.5909 198.754 M 176.735 228.819 L 71.8167 189.378 M 178.833 224.64 L 76.0832 180.09 M 181.038 220.542 L 81.096 171.195 M 183.214 216.448 L 86.5959 162.634 M 185.759 212.572 L 91.9607 154.063" stroke="black" stroke-width="1" fill="none"></path><path d="M 489.666 223.203 L 477.8 192.434 M 464.661 158.363 L 461.647 150.548 M 450.871 122.606 L 433.908 78.619 M 490.445 222.915 L 479.475 191.816 M 467.326 157.379 L 464.54 149.48 M 454.577 121.238 L 438.893 76.779 M 491.233 222.65 L 481.166 191.247 M 470.019 156.473 L 467.462 148.496 M 458.32 119.978 L 443.929 75.084 M 492.027 222.408 L 482.873 190.727 M 472.736 155.644 L 470.411 147.598 M 462.098 118.827 L 449.011 73.5354 M 492.829 222.189 L 484.595 190.256 M 475.477 154.895 L 473.386 146.785 M 465.908 117.786 L 454.137 72.1344 M 493.636 221.993 L 486.329 189.836 M 478.238 154.226 L 476.382 146.058 M 469.747 116.855 L 459.301 70.8823 M 494.449 221.821 L 488.075 189.465 M 481.017 153.637 L 479.398 145.418 M 473.61 116.036 L 464.499 69.78 M 495.266 221.672 L 489.831 189.146 M 483.813 153.128 L 482.432 144.866 M 477.496 115.329 L 469.726 68.8286 M 496.088 221.547 L 491.596 188.877 M 486.621 152.7 L 485.48 144.402 M 481.401 114.734 L 474.979 68.0287 M 496.912 221.446 L 493.367 188.66 M 489.441 152.354 L 488.541 144.026 M 485.321 114.253 L 480.253 67.3811 M 497.74 221.369 L 495.144 188.493 M 492.27 152.089 L 491.611 143.739 M 489.254 113.885 L 485.543 66.8864 M 498.569 221.315 L 496.925 188.379 M 495.105 151.907 L 494.688 143.541 M 493.195 113.631 L 490.846 66.5448 M 499.399 221.286 L 498.709 188.316 M 497.945 151.806 L 497.769 143.432 M 497.142 113.491 L 496.156 66.3568 M 500.23 221.28 L 500.493 188.304 M 500.786 151.788 L 500.853 143.412 M 501.092 113.466 L 501.469 66.3224 M 501.06 221.299 L 502.278 188.344 M 503.626 151.852 L 503.935 143.481 M 505.041 113.554 L 506.781 66.4418 M 501.89 221.342 L 504.06 188.436 M 506.463 151.998 L 507.014 143.64 M 508.985 113.757 L 512.088 66.7147 M 502.718 221.408 L 505.839 188.579 M 509.295 152.225 L 510.088 143.887 M 512.922 114.074 L 517.384 67.141 M 503.544 221.499 L 507.613 188.774 M 512.119 152.535 L 513.153 144.223 M 516.848 114.505 L 522.666 67.7204 M 504.367 221.613 L 509.381 189.019 M 514.933 152.927 L 516.207 144.648 M 520.76 115.049 L 527.929 68.4522 M 505.186 221.752 L 511.141 189.316 M 517.735 153.399 L 519.247 145.161 M 524.655 115.706 L 533.168 69.336 M 506.001 221.913 L 512.891 189.664 M 520.522 153.952 L 522.272 145.761 M 528.529 116.475 L 538.38 70.3709 M 506.811 222.099 L 514.631 190.062 M 523.291 154.586 L 525.277 146.449 M 532.379 117.356 L 543.559 71.5562 M 507.615 222.307 L 516.359 190.51 M 526.041 155.3 L 528.262 147.224 M 536.202 118.348 L 548.702 72.8908 M 508.413 222.539 L 518.073 191.008 M 528.769 156.093 L 531.223 148.084 M 539.995 119.45 L 553.805 74.3736 M 509.204 222.794 L 519.771 191.556 M 531.474 156.964 L 534.158 149.03 M 543.754 120.662 L 558.862 76.0033 M 509.987 223.072 L 521.454 192.152 M 534.151 157.913 L 537.064 150.06 M 547.477 121.981 L 563.87 77.7786 M 510.761 223.372 L 523.118 192.797 M 536.801 158.94 L 539.939 151.174 M 551.16 123.408 L 568.825 79.6981 M 511.527 223.694 L 524.763 193.489 M 539.419 160.042 L 542.781 152.37 M 554.8 124.941 L 573.722 81.76 M 512.283 224.039 L 526.387 194.229 M 542.005 161.22 L 545.587 153.649 M 558.395 126.578 L 578.557 83.9628 M 513.029 224.405 L 527.989 195.016 M 544.555 162.472 L 548.355 155.008 M 561.94 128.319 L 583.327 86.3045 M 513.764 224.792 L 529.568 195.848 M 547.068 163.797 L 551.082 156.446 M 565.434 130.161 L 588.027 88.7831 M 514.487 225.201 L 531.122 196.726 M 549.542 165.195 L 553.767 157.963 M 568.872 132.104 L 592.653 91.3967 M 515.198 225.63 L 532.649 197.649 M 551.974 166.663 L 556.406 159.556 M 572.254 134.146 L 597.202 94.1429 M 515.897 226.08 L 534.15 198.615 M 554.362 168.202 L 558.999 161.226 M 575.574 136.284 L 601.669 97.0196 M 516.582 226.55 L 535.622 199.624 M 556.706 169.808 L 561.542 162.969 M 578.832 138.517 L 606.051 100.024 M 517.253 227.039 L 537.064 200.676 M 559.001 171.482 L 564.033 164.786 M 582.024 140.844 L 610.345 103.155 M 517.91 227.548 L 538.475 201.768 M 561.248 173.221 L 566.471 166.673 M 585.146 143.262 L 614.546 106.408 M 518.552 228.075 L 539.854 202.901 M 563.443 175.025 L 568.853 168.631 M 588.198 145.77 L 618.652 109.781 M 519.179 228.621 L 541.2 204.074 M 565.585 176.891 L 571.178 170.656 M 591.176 148.365 L 622.658 113.271 M 519.789 229.185 L 542.511 205.285 M 567.672 178.819 L 573.443 172.748 M 594.078 151.044 L 626.561 116.876 M 520.383 229.766 L 543.787 206.533 M 569.703 180.806 L 575.647 174.905 M 596.9 153.807 L 630.359 120.593 M 520.959 230.364 L 545.025 207.818 M 571.675 182.851 L 577.787 177.124 M 599.642 156.65 L 634.047 124.417 M 521.519 230.978 L 546.227 209.138 M 573.587 184.952 L 579.863 179.405 M 602.301 159.571 L 637.623 128.347 M 522.06 231.609 L 547.389 210.492 M 575.438 187.108 L 581.871 181.744 M 604.873 162.568 L 641.084 132.379 M 522.583 232.255 L 548.512 211.879 M 577.225 189.316 L 583.811 184.141 M 607.358 165.638 L 644.428 136.509 M 523.086 232.915 L 549.595 213.298 M 578.948 191.575 L 585.681 186.593 M 609.754 168.778 L 647.65 140.734 M 523.571 233.59 L 550.635 214.748 M 580.605 193.883 L 587.479 189.098 M 612.057 171.987 L 650.748 145.05 M 524.036 234.279 L 551.634 216.227 M 582.194 196.238 L 589.204 191.653 M 614.267 175.261 L 653.721 149.454 M 524.48 234.981 L 552.589 217.735 M 583.715 198.638 L 590.855 194.258 M 616.381 178.597 L 656.565 153.943 M 524.905 235.695 L 553.5 219.27 M 585.166 201.081 L 592.429 196.909 M 618.397 181.993 L 659.278 158.511 M 525.308 236.421 L 554.367 220.83 M 586.545 203.565 L 593.926 199.605 M 620.315 185.446 L 661.857 163.156 M 525.69 237.159 L 555.188 222.415 M 587.852 206.088 L 595.344 202.343 M 622.131 188.953 L 664.302 167.874 M 526.051 237.907 L 555.963 224.022 M 589.085 208.647 L 596.683 205.12 M 623.846 192.511 L 666.608 172.661 M 526.39 238.666 L 556.691 225.652 M 590.244 211.241 L 597.94 207.935 M 625.457 196.117 L 668.775 177.512 M 526.706 239.434 L 557.371 227.302 M 591.327 213.867 L 599.116 210.786 M 626.963 199.769 L 670.801 182.424 M 527.001 240.211 L 558.004 228.971 M 592.334 216.524 L 600.209 213.669 M 628.363 203.462 L 672.685 187.393 M 527.273 240.996 L 558.588 230.657 M 593.264 219.209 L 601.218 216.583 M 629.655 207.194 L 674.423 192.414 M 527.522 241.789 L 559.123 232.36 M 594.116 221.919 L 602.142 219.524 M 630.839 210.962 L 676.016 197.483 M 527.748 242.588 L 559.608 234.077 M 594.888 224.653 L 602.981 222.492 M 631.914 214.763 L 677.461 202.596 M 527.95 243.394 L 560.044 235.808 M 595.582 227.408 L 603.733 225.482 M 632.878 218.593 L 678.758 207.749 M 528.13 244.205 L 560.429 237.551 M 596.195 230.182 L 604.399 228.492 M 633.73 222.45 L 679.905 212.937 M 528.286 245.021 L 560.764 239.304 M 596.728 232.973 L 604.977 231.521 M 634.471 226.329 L 680.902 218.156 M 528.418 245.841 L 561.048 241.066 M 597.18 235.778 L 605.468 234.565 M 635.1 230.229 L 681.747 223.402 M 528.526 246.665 L 561.281 242.835 M 597.551 238.595 L 605.87 237.622 M 635.615 234.145 L 682.441 228.67 M 528.611 247.491 L 561.462 244.611 M 597.84 241.421 L 606.184 240.69 M 636.017 238.074 L 682.981 233.956 M 528.671 248.32 L 561.592 246.391 M 598.047 244.255 L 606.409 243.765 M 636.305 242.013 L 683.369 239.255 M 528.708 249.15 L 561.671 248.174 M 598.172 247.093 L 606.545 246.845 M 636.479 245.959 L 683.603 244.563 M 528.721 249.981 L 561.698 249.958 M 598.215 249.934 L 606.591 249.928 M 636.539 249.908 L 683.683 249.876 M 528.709 250.811 L 561.673 251.743 M 598.176 252.775 L 606.549 253.011 M 636.484 253.857 L 683.61 255.189 M 528.674 251.641 L 561.597 253.526 M 598.055 255.613 L 606.417 256.092 M 636.316 257.803 L 683.383 260.498 M 528.614 252.47 L 561.469 255.306 M 597.851 258.447 L 606.197 259.167 M 636.033 261.743 L 683.003 265.798 M 528.531 253.297 L 561.29 257.082 M 597.566 261.274 L 605.887 262.235 M 635.636 265.673 L 682.469 271.084 M 528.423 254.121 L 561.06 258.852 M 597.199 264.091 L 605.489 265.293 M 635.126 269.589 L 681.783 276.353 M 528.292 254.941 L 560.778 260.614 M 596.751 266.897 L 605.002 268.338 M 634.503 273.49 L 680.945 281.6 M 528.138 255.757 L 560.446 262.368 M 596.222 269.688 L 604.428 271.367 M 633.767 277.37 L 679.955 286.821 M 527.959 256.569 L 560.063 264.111 M 595.612 272.463 L 603.766 274.379 M 632.92 281.228 L 678.815 292.01 M 527.758 257.375 L 559.629 265.842 M 594.922 275.219 L 603.018 277.37 M 631.961 285.059 L 677.525 297.165 M 527.533 258.174 L 559.146 267.56 M 594.153 277.954 L 602.183 280.338 M 630.892 288.862 L 676.086 302.28 M 527.285 258.967 L 558.614 269.264 M 593.305 280.666 L 601.263 283.281 M 629.713 292.631 L 674.501 307.351 M 527.014 259.753 L 558.032 270.951 M 592.379 283.352 L 600.258 286.196 M 628.425 296.365 L 672.769 312.374 M 526.721 260.53 L 557.402 272.621 M 591.376 286.01 L 599.169 289.081 M 627.031 300.06 L 670.892 317.345 M 526.405 261.299 L 556.723 274.272 M 590.296 288.637 L 597.997 291.933 M 625.53 303.714 L 668.873 322.26 M 526.067 262.058 L 555.997 275.902 M 589.141 291.233 L 596.743 294.75 M 623.923 307.322 L 666.712 327.115 M 525.707 262.806 L 555.225 277.511 M 587.911 293.794 L 595.408 297.529 M 622.214 310.882 L 664.412 331.904 M 525.326 263.545 L 554.406 279.097 M 586.607 296.319 L 593.994 300.269 M 620.401 314.392 L 661.974 336.625 M 524.924 264.272 L 553.542 280.658 M 585.231 298.804 L 592.5 302.966 M 618.489 317.848 L 659.401 341.274 M 524.501 264.986 L 552.632 282.194 M 583.784 301.249 L 590.93 305.62 M 616.477 321.246 L 656.694 345.847 M 524.057 265.689 L 551.679 283.703 M 582.267 303.651 L 589.283 308.227 M 614.367 324.585 L 653.856 350.339 M 523.593 266.378 L 550.683 285.184 M 580.681 306.008 L 587.561 310.785 M 612.162 327.862 L 650.89 354.747 M 523.109 267.054 L 549.644 286.635 M 579.027 308.318 L 585.766 313.292 M 609.863 331.074 L 647.797 359.067 M 522.606 267.715 L 548.564 288.056 M 577.307 310.58 L 583.9 315.746 M 607.472 334.218 L 644.58 363.297 M 522.085 268.361 L 547.442 289.444 M 575.522 312.79 L 581.963 318.145 M 604.991 337.291 L 641.243 367.431 M 521.544 268.993 L 546.282 290.8 M 573.675 314.949 L 579.958 320.487 M 602.422 340.291 L 637.787 371.467 M 520.986 269.608 L 545.082 292.122 M 571.765 317.052 L 577.886 322.771 M 599.768 343.216 L 634.216 375.402 M 520.41 270.207 L 543.845 293.408 M 569.796 319.1 L 575.748 324.993 M 597.03 346.063 L 630.533 379.232 M 519.817 270.788 L 542.571 294.658 M 567.768 321.09 L 573.547 327.153 M 594.211 348.829 L 626.74 382.953 M 519.207 271.353 L 541.262 295.871 M 565.683 323.02 L 571.285 329.248 M 591.313 351.513 L 622.842 386.563 M 518.582 271.9 L 539.918 297.045 M 563.544 324.89 L 568.963 331.276 M 588.338 354.111 L 618.84 390.059 M 517.941 272.428 L 538.54 298.18 M 561.351 326.696 L 566.583 333.237 M 585.29 356.623 L 614.739 393.438 M 517.284 272.937 L 537.131 299.274 M 559.107 328.439 L 564.148 335.128 M 582.17 359.045 L 610.543 396.697 M 516.614 273.428 L 535.69 300.328 M 556.814 330.115 L 561.659 336.948 M 578.982 361.376 L 606.253 399.833 M 515.929 273.898 L 534.219 301.339 M 554.473 331.725 L 559.118 338.695 M 575.728 363.614 L 601.875 402.843 M 515.231 274.349 L 532.72 302.307 M 552.086 333.267 L 556.528 340.368 M 572.41 365.757 L 597.412 405.726 M 514.521 274.78 L 531.193 303.232 M 549.656 334.738 L 553.89 341.965 M 569.031 367.803 L 592.867 408.478 M 513.798 275.189 L 529.64 304.112 M 547.184 336.139 L 551.208 343.485 M 565.595 369.75 L 588.244 411.098 M 513.063 275.578 L 528.063 304.946 M 544.673 337.468 L 548.482 344.927 M 562.104 371.597 L 583.547 413.583 M 512.318 275.945 L 526.462 305.735 M 542.124 338.723 L 545.716 346.29 M 558.561 373.343 L 578.781 415.931 M 511.562 276.29 L 524.839 306.477 M 539.54 339.905 L 542.912 347.572 M 554.969 374.985 L 573.948 418.141 M 510.797 276.614 L 523.195 307.172 M 536.923 341.011 L 540.072 348.772 M 551.331 376.523 L 569.054 420.209 M 510.023 276.915 L 521.531 307.819 M 534.275 342.041 L 537.198 349.89 M 547.649 377.954 L 564.102 422.135 M 509.24 277.194 L 519.85 308.418 M 531.599 342.993 L 534.294 350.924 M 543.929 379.279 L 559.096 423.917 M 508.45 277.449 L 518.152 308.967 M 528.896 343.868 L 531.36 351.874 M 540.171 380.496 L 554.041 425.554 M 507.652 277.682 L 516.439 309.468 M 526.169 344.665 L 528.4 352.738 M 536.38 381.603 L 548.941 427.043 M 506.848 277.892 L 514.712 309.918 M 523.42 345.382 L 525.417 353.517 M 532.558 382.6 L 543.8 428.385 M 506.039 278.079 L 512.973 310.319 M 520.651 346.02 L 522.412 354.209 M 528.709 383.486 L 538.622 429.577 M 505.224 278.241 L 511.223 310.669 M 517.865 346.577 L 519.389 354.813 M 524.836 384.261 L 533.411 430.619 M 504.405 278.381 L 509.463 310.968 M 515.064 347.053 L 516.349 355.33 M 520.942 384.923 L 528.173 431.51 M 503.582 278.496 L 507.696 311.216 M 512.251 347.448 L 513.295 355.759 M 517.031 385.472 L 522.911 432.249 M 502.757 278.588 L 505.922 311.413 M 509.427 347.762 L 510.231 356.099 M 513.105 385.908 L 517.63 432.835 M 501.929 278.656 L 504.143 311.559 M 506.595 347.994 L 507.158 356.351 M 509.169 386.231 L 512.335 433.269 M 501.099 278.7 L 502.361 311.653 M 503.758 348.143 L 504.079 356.513 M 505.225 386.439 L 507.028 433.549 M 500.268 278.719 L 500.577 311.695 M 500.918 348.211 L 500.996 356.587 M 501.276 386.533 L 501.717 433.675 M 499.438 278.715 L 498.792 311.686 M 498.077 348.197 L 497.913 356.571 M 497.326 386.513 L 496.403 433.648 M 498.607 278.687 L 497.008 311.625 M 495.237 348.1 L 494.831 356.466 M 493.379 386.378 L 491.093 433.467 M 497.778 278.634 L 495.227 311.513 M 492.402 347.921 L 491.754 356.272 M 489.437 386.13 L 485.79 433.133 M 496.951 278.558 L 493.45 311.349 M 489.573 347.66 L 488.683 355.989 M 485.504 385.767 L 480.499 432.645 M 496.126 278.458 L 491.678 311.134 M 486.752 347.318 L 485.623 355.617 M 481.583 385.291 L 475.224 432.005 M 495.305 278.334 L 489.913 310.868 M 483.943 346.894 L 482.574 355.157 M 477.678 384.702 L 469.97 431.212 M 494.487 278.186 L 488.157 310.551 M 481.147 346.389 L 479.539 354.609 M 473.791 384 L 464.741 430.268 M 493.674 278.015 L 486.41 310.183 M 478.367 345.803 L 476.522 353.974 M 469.926 383.186 L 459.542 429.172 M 492.866 277.821 L 484.675 309.765 M 475.605 345.138 L 473.525 353.251 M 466.086 382.26 L 454.376 427.927 M 492.065 277.603 L 482.953 309.296 M 472.864 344.392 L 470.549 352.442 M 462.275 381.224 L 449.249 426.533 M 491.27 277.361 L 481.245 308.778 M 470.145 343.568 L 467.599 351.547 M 458.495 380.078 L 444.164 424.991" stroke="black" stroke-width="1" fill="none"></path><path d="M 503.51 270.751 L 508.974 303.059 M 515.313 340.542 L 519.616 365.981 M 528.517 418.611 L 535.09 457.473 M 502.57 270.888 L 506.571 303.41 M 511.213 341.141 L 514.363 366.748 M 520.881 419.726 L 525.693 458.845 M 501.625 270.983 L 504.154 303.652 M 507.089 341.554 L 509.081 367.277 M 513.201 420.496 L 516.244 459.792 M 500.676 271.034 L 501.729 303.785 M 502.951 341.781 L 503.78 367.567 M 505.495 420.918 L 506.761 460.311 M 499.726 271.044 L 499.301 303.808 M 498.806 341.82 L 498.471 367.618 M 497.777 420.992 L 497.265 460.402 M 498.777 271.01 L 496.873 303.722 M 494.665 341.673 L 493.166 367.429 M 490.064 420.717 L 487.774 460.064 M 497.831 270.933 L 494.453 303.526 M 490.534 341.339 L 487.874 367.001 M 482.372 420.095 L 478.309 459.299 M 496.888 270.814 L 492.043 303.222 M 486.422 340.819 L 482.607 366.335 M 474.715 419.126 L 468.887 458.107 M 495.952 270.652 L 489.65 302.808 M 482.338 340.113 L 477.376 365.432 M 467.11 417.813 L 459.529 456.491 M 495.025 270.449 L 487.278 302.288 M 478.29 339.225 L 472.191 364.293 M 459.571 416.158 L 450.253 454.455 M 494.107 270.203 L 484.931 301.66 M 474.287 338.154 L 467.062 362.922 M 452.115 414.165 L 441.079 452.002 M 493.201 269.917 L 482.616 300.928 M 470.335 336.904 L 462.001 361.321 M 444.757 411.837 L 432.024 449.138 M 492.31 269.59 L 480.336 300.091 M 466.444 335.477 L 457.016 359.493 M 437.511 409.18 L 423.108 445.868 M 491.434 269.223 L 478.096 299.153 M 462.622 333.876 L 452.12 357.442 M 430.392 406.198 L 414.349 442.199 M 490.575 268.817 L 475.9 298.115 M 458.875 332.104 L 447.321 355.172 M 423.416 402.898 L 405.764 438.139 M 489.735 268.372 L 473.754 296.978 M 455.212 330.165 L 442.629 352.688 M 416.595 399.287 L 397.371 433.695 M 488.917 267.891 L 471.661 295.746 M 451.641 328.063 L 438.054 349.995 M 409.944 395.372 L 389.187 428.877 M 488.121 267.372 L 469.625 294.421 M 448.168 325.801 L 433.605 347.098 M 403.476 391.16 L 381.229 423.695 M 487.349 266.819 L 467.652 293.005 M 444.801 323.385 L 429.292 344.003 M 397.205 386.661 L 373.513 418.159 M 486.603 266.231 L 465.745 291.502 M 441.546 320.82 L 425.122 340.717 M 391.144 381.884 L 366.054 412.281 M 485.885 265.61 L 463.907 289.914 M 438.41 318.11 L 421.105 337.246 M 385.304 376.838 L 358.869 406.072 M 485.195 264.957 L 462.143 288.245 M 435.399 315.262 L 417.249 333.598 M 379.698 371.534 L 351.97 399.545 M 484.535 264.274 L 460.456 286.498 M 432.52 312.281 L 413.561 329.779 M 374.337 365.982 L 345.373 392.714 M 483.907 263.561 L 458.849 284.676 M 429.779 309.173 L 410.05 325.798 M 369.231 360.194 L 339.092 385.591 M 483.311 262.821 L 457.326 282.784 M 427.181 305.944 L 406.721 321.662 M 364.393 354.181 L 333.138 378.193 M 482.75 262.055 L 455.891 280.825 M 424.731 302.601 L 403.583 317.38 M 359.83 347.956 L 327.523 370.534 M 482.223 261.265 L 454.545 278.804 M 422.434 299.151 L 400.641 312.961 M 355.553 341.532 L 322.26 362.629 M 481.733 260.451 L 453.291 276.723 M 420.295 295.602 L 397.901 308.414 M 351.57 334.921 L 317.36 354.494 M 481.28 259.616 L 452.133 274.589 M 418.319 291.959 L 395.37 303.748 M 347.89 328.138 L 312.831 346.147 M 480.865 258.762 L 451.072 272.404 M 416.509 288.231 L 393.051 298.972 M 344.519 321.195 L 308.683 337.604 M 480.489 257.889 L 450.111 270.173 M 414.869 284.425 L 390.95 294.096 M 341.465 314.107 L 304.925 328.882 M 480.153 257.001 L 449.252 267.902 M 413.402 280.548 L 389.072 289.131 M 338.734 306.888 L 301.565 320 M 479.858 256.099 L 448.496 265.594 M 412.112 276.61 L 387.419 284.086 M 336.331 299.554 L 298.608 310.975 M 479.603 255.183 L 447.845 263.254 M 411.001 272.617 L 385.996 278.972 M 334.262 292.119 L 296.062 301.826 M 479.39 254.258 L 447.3 260.887 M 410.071 268.578 L 384.805 273.798 M 332.53 284.598 L 293.932 292.572 M 479.219 253.324 L 446.862 258.498 M 409.324 264.502 L 383.848 268.576 M 331.14 277.006 L 292.221 283.231 M 479.09 252.383 L 446.533 256.092 M 408.762 260.396 L 383.128 263.317 M 330.093 269.36 L 290.933 273.822 M 479.004 251.437 L 446.312 253.674 M 408.386 256.269 L 382.647 258.03 M 329.393 261.674 L 290.071 264.364 M 478.96 250.488 L 446.201 251.247 M 408.197 252.129 L 382.404 252.727 M 329.04 253.964 L 289.637 254.877 M 478.96 249.538 L 446.2 248.819 M 408.194 247.984 L 382.401 247.418 M 329.035 246.246 L 289.631 245.381 M 479.002 248.589 L 446.308 246.392 M 408.379 243.844 L 382.637 242.114 M 329.379 238.536 L 290.053 235.893 M 479.087 247.643 L 446.525 243.973 M 408.75 239.716 L 383.112 236.827 M 330.07 230.849 L 290.904 226.435 M 479.215 246.702 L 446.852 241.567 M 409.307 235.609 L 383.826 231.566 M 331.107 223.201 L 292.18 217.024 M 479.385 245.767 L 447.287 239.177 M 410.048 231.532 L 384.776 226.343 M 332.488 215.608 L 293.88 207.681 M 479.597 244.842 L 447.829 236.81 M 410.973 227.492 L 385.96 221.168 M 334.211 208.085 L 295.999 198.424 M 479.85 243.926 L 448.477 234.469 M 412.079 223.498 L 387.377 216.052 M 336.271 200.647 L 298.534 189.272 M 480.145 243.023 L 449.23 232.16 M 413.365 219.558 L 389.024 211.005 M 338.664 193.31 L 301.479 180.243 M 480.48 242.134 L 450.087 229.888 M 414.827 215.68 L 390.896 206.037 M 341.386 186.088 L 304.829 171.357 M 480.855 241.262 L 451.045 227.656 M 416.462 211.872 L 392.991 201.159 M 344.432 178.996 L 308.576 162.631 M 481.268 240.407 L 452.103 225.47 M 418.267 208.141 L 395.304 196.381 M 347.794 172.049 L 312.713 154.083 M 481.72 239.571 L 453.259 223.334 M 420.239 204.496 L 397.83 191.712 M 351.466 165.261 L 317.232 145.73 M 482.209 238.757 L 454.509 221.252 M 422.374 200.944 L 400.564 187.161 M 355.441 158.645 L 322.122 137.59 M 482.735 237.966 L 455.853 219.229 M 424.666 197.491 L 403.5 182.738 M 359.71 152.216 L 327.376 129.678 M 483.295 237.199 L 457.286 217.268 M 427.112 194.146 L 406.634 178.453 M 364.265 145.985 L 332.98 122.012 M 483.89 236.458 L 458.807 215.374 M 429.706 190.914 L 409.957 174.313 M 369.096 139.967 L 338.925 114.606 M 484.517 235.745 L 460.411 213.551 M 432.444 187.802 L 413.464 170.327 M 374.194 134.173 L 345.198 107.476 M 485.176 235.061 L 462.096 211.802 M 435.319 184.817 L 417.147 166.504 M 379.549 128.614 L 351.787 100.637 M 485.865 234.408 L 463.858 210.13 M 438.326 181.965 L 420.998 162.85 M 385.148 123.303 L 358.677 94.1014 M 486.583 233.786 L 465.694 208.54 M 441.459 179.252 L 425.011 159.375 M 390.982 118.25 L 365.855 87.8836 M 487.329 233.197 L 467.599 207.034 M 444.711 176.683 L 429.177 156.083 M 397.038 113.465 L 373.307 81.996 M 488.1 232.642 L 469.571 205.616 M 448.075 174.263 L 433.486 152.983 M 403.303 108.958 L 381.016 76.4507 M 488.895 232.123 L 471.605 204.289 M 451.545 171.997 L 437.931 150.081 M 409.765 104.739 L 388.968 71.2588 M 489.713 231.64 L 473.696 203.054 M 455.114 169.89 L 442.503 147.382 M 416.412 100.815 L 397.146 66.431 M 490.552 231.195 L 475.841 201.915 M 458.774 167.946 L 447.192 144.892 M 423.228 97.1959 L 405.533 61.9772 M 491.41 230.788 L 478.035 200.874 M 462.519 166.17 L 451.988 142.617 M 430.201 93.8875 L 414.113 57.9063 M 492.286 230.42 L 480.274 199.933 M 466.339 164.564 L 456.882 140.56 M 437.316 90.8971 L 422.868 54.2267 M 493.177 230.091 L 482.553 199.094 M 470.229 163.132 L 461.864 138.726 M 444.558 88.2308 L 431.78 50.9458 M 494.082 229.804 L 484.868 198.358 M 474.178 161.877 L 466.924 137.118 M 451.914 85.894 L 440.831 48.0704 M 494.999 229.557 L 487.214 197.728 M 478.181 160.802 L 472.051 135.741 M 459.367 83.8915 L 450.002 45.6063 M 495.927 229.353 L 489.585 197.204 M 482.228 159.908 L 477.234 134.596 M 466.904 82.2273 L 459.276 43.5586 M 496.863 229.19 L 491.978 196.788 M 486.311 159.198 L 482.465 133.687 M 474.507 80.9048 L 468.632 41.9313 M 497.805 229.069 L 494.387 196.481 M 490.422 158.673 L 487.731 133.014 M 482.163 79.9268 L 478.052 40.7279 M 498.751 228.992 L 496.808 196.282 M 494.552 158.334 L 493.022 132.579 M 489.855 79.2952 L 487.517 39.9507 M 499.701 228.957 L 499.235 196.192 M 498.694 158.181 L 498.327 132.384 M 497.568 79.0113 L 497.007 39.6014 M 500.65 228.965 L 501.663 196.213 M 502.838 158.216 L 503.635 132.428 M 505.285 79.0757 L 506.503 39.6806 M 501.599 229.015 L 504.088 196.342 M 506.976 158.437 L 508.937 132.712 M 512.992 79.4882 L 515.986 40.1882 M 502.544 229.109 L 506.505 196.582 M 511.101 158.845 L 514.22 133.235 M 520.672 80.2481 L 525.437 41.1232 M 503.484 229.245 L 508.909 196.93 M 515.202 159.439 L 519.474 133.995 M 528.311 81.3537 L 534.836 42.4837 M 504.417 229.423 L 511.294 197.386 M 519.273 160.217 L 524.688 134.992 M 535.891 82.8029 L 544.163 44.2668 M 505.341 229.644 L 513.657 197.949 M 523.304 161.178 L 529.852 136.223 M 543.399 84.5926 L 553.401 46.469 M 506.254 229.905 L 515.992 198.618 M 527.288 162.32 L 534.955 137.686 M 550.818 86.7192 L 562.53 49.0858 M 507.154 230.208 L 518.294 199.392 M 531.217 163.641 L 539.987 139.378 M 558.133 89.1784 L 571.532 52.1118 M 508.04 230.551 L 520.558 200.269 M 535.081 165.137 L 544.938 141.295 M 565.33 91.9652 L 580.388 55.5409 M 508.909 230.934 L 522.781 201.247 M 538.875 166.807 L 549.797 143.433 M 572.394 95.0739 L 589.08 59.3661 M 509.761 231.355 L 524.958 202.325 M 542.589 168.646 L 554.555 145.788 M 579.311 98.4981 L 597.591 63.5796 M 510.592 231.814 L 527.084 203.499 M 546.216 170.65 L 559.201 148.356 M 586.066 102.231 L 605.903 68.1728 M 511.402 232.311 L 529.154 204.769 M 549.75 172.816 L 563.727 151.131 M 592.646 106.265 L 613.999 73.1363 M 512.188 232.843 L 531.165 206.13 M 553.181 175.139 L 568.123 154.107 M 599.037 110.591 L 621.863 78.4602 M 512.95 233.411 L 533.113 207.581 M 556.505 177.615 L 572.381 157.278 M 605.226 115.202 L 629.479 84.1334 M 513.685 234.012 L 534.993 209.118 M 559.714 180.239 L 576.491 160.638 M 611.201 120.087 L 636.831 90.1445 M 514.393 234.646 L 536.802 210.739 M 562.8 183.004 L 580.445 164.181 M 616.95 125.237 L 643.904 96.4811 M 515.071 235.311 L 538.536 212.439 M 565.759 185.906 L 584.235 167.898 M 622.46 130.641 L 650.685 103.131 M 515.718 236.006 L 540.192 214.216 M 568.584 188.938 L 587.854 171.782 M 627.721 136.288 L 657.158 110.079 M 516.334 236.729 L 541.765 216.066 M 571.27 192.095 L 591.293 175.826 M 632.721 142.166 L 663.311 117.313 M 516.916 237.48 L 543.254 217.985 M 573.81 195.369 L 594.547 180.021 M 637.452 148.265 L 669.132 124.816 M 517.464 238.256 L 544.654 219.97 M 576.2 198.755 L 597.608 184.358 M 641.902 154.57 L 674.608 132.575 M 517.976 239.056 L 545.964 222.015 M 578.434 202.246 L 600.471 188.829 M 646.063 161.07 L 679.728 140.573 M 518.451 239.878 L 547.18 224.117 M 580.509 205.833 L 603.129 193.424 M 649.927 167.751 L 684.483 148.794 M 518.889 240.721 L 548.3 226.273 M 582.42 209.511 L 605.576 198.135 M 653.486 174.6 L 688.861 157.221 M 519.289 241.582 L 549.321 228.476 M 584.163 213.271 L 607.809 202.952 M 656.731 181.602 L 692.855 165.837 M 519.649 242.461 L 550.242 230.723 M 585.734 217.106 L 609.822 207.864 M 659.658 188.743 L 696.456 174.625 M 519.969 243.355 L 551.061 233.01 M 587.131 221.008 L 611.611 212.862 M 662.259 196.009 L 699.657 183.566 M 520.248 244.263 L 551.775 235.331 M 588.35 224.969 L 613.173 217.936 M 664.53 203.386 L 702.451 192.642 M 520.487 245.183 L 552.384 237.682 M 589.39 228.981 L 614.505 223.075 M 666.466 210.857 L 704.833 201.835 M 520.683 246.112 L 552.887 240.058 M 590.247 233.035 L 615.603 228.269 M 668.062 218.408 L 706.798 211.126 M 520.837 247.049 L 553.281 242.455 M 590.921 237.125 L 616.466 233.507 M 669.317 226.023 L 708.341 220.497 M 520.949 247.992 L 553.568 244.867 M 591.409 241.24 L 617.091 238.779 M 670.226 233.687 L 709.46 229.927 M 521.019 248.94 L 553.745 247.289 M 591.711 245.373 L 617.478 244.074 M 670.789 241.384 L 710.153 239.399 M 521.045 249.889 L 553.812 249.717 M 591.827 249.516 L 617.626 249.38 M 671.004 249.099 L 710.417 248.892 M 521.029 250.839 L 553.77 252.145 M 591.755 253.66 L 617.534 254.688 M 670.87 256.816 L 710.253 258.387 M 520.969 251.787 L 553.619 254.569 M 591.496 257.796 L 617.203 259.987 M 670.389 264.519 L 709.66 267.865 M 520.867 252.731 L 553.358 256.983 M 591.051 261.917 L 616.633 265.265 M 669.56 272.192 L 708.641 277.307 M 520.723 253.67 L 552.989 259.384 M 590.421 266.013 L 615.826 270.512 M 668.386 279.82 L 707.196 286.693 M 520.536 254.601 L 552.511 261.765 M 589.606 270.076 L 614.782 275.717 M 666.869 287.387 L 705.329 296.004 M 520.308 255.523 L 551.927 264.123 M 588.609 274.099 L 613.505 280.87 M 665.012 294.878 L 703.045 305.222 M 520.038 256.434 L 551.237 266.451 M 587.432 278.073 L 611.996 285.96 M 662.819 302.278 L 700.346 314.327 M 519.727 257.331 L 550.442 268.746 M 586.076 281.989 L 610.26 290.977 M 660.294 309.571 L 697.24 323.301 M 519.376 258.214 L 549.545 271.003 M 584.545 285.84 L 608.299 295.91 M 657.443 316.743 L 693.731 332.126 M 518.986 259.08 L 548.547 273.217 M 582.842 289.618 L 606.117 300.75 M 654.272 323.779 L 689.828 340.784 M 518.557 259.927 L 547.45 275.384 M 580.97 293.316 L 603.719 305.486 M 650.785 330.665 L 685.539 349.257 M 518.09 260.754 L 546.256 277.499 M 578.933 296.925 L 601.11 310.109 M 646.992 337.386 L 680.871 357.527 M 517.586 261.56 L 544.968 279.558 M 576.735 300.439 L 598.295 314.61 M 642.9 343.929 L 675.836 365.579 M 517.047 262.341 L 543.589 281.557 M 574.381 303.85 L 595.279 318.979 M 638.516 350.281 L 670.441 373.395" stroke="black" stroke-width="1" fill="none"></path><path d="M 525.231 234.678 L 565.227 210.388 M 580.884 200.88 L 596.458 191.422 M 601.088 188.61 L 610.853 182.681 M 525.925 235.883 L 567.02 213.505 M 583.108 204.745 L 599.11 196.03 M 603.868 193.44 L 613.9 187.977 M 526.561 237.12 L 568.665 216.702 M 585.147 208.709 L 601.542 200.758 M 606.416 198.395 L 616.695 193.41 M 527.138 238.385 L 570.157 219.973 M 586.997 212.765 L 603.749 205.596 M 608.729 203.464 L 619.231 198.969 M 527.655 239.676 L 571.494 223.311 M 588.654 216.904 L 605.725 210.531 M 610.8 208.637 L 621.502 204.642 M 528.111 240.99 L 572.671 226.707 M 590.115 221.116 L 607.467 215.555 M 612.625 213.901 L 623.504 210.415 M 528.504 242.324 L 573.688 230.156 M 591.375 225.393 L 608.97 220.655 M 614.201 219.246 L 625.231 216.276 M 528.834 243.675 L 574.541 233.649 M 592.433 229.724 L 610.231 225.82 M 615.522 224.659 L 626.681 222.211 M 529.1 245.04 L 575.228 237.178 M 593.285 234.1 L 611.247 231.038 M 616.588 230.128 L 627.849 228.209 M 529.301 246.416 L 575.748 240.735 M 593.931 238.511 L 612.017 236.299 M 617.394 235.642 L 628.733 234.255 M 529.437 247.8 L 576.101 244.313 M 594.367 242.948 L 612.538 241.59 M 617.94 241.187 L 629.332 240.335 M 529.508 249.189 L 576.284 247.904 M 594.595 247.401 L 612.809 246.9 M 618.224 246.751 L 629.644 246.438 M 529.514 250.58 L 576.298 251.499 M 594.612 251.859 L 612.83 252.217 M 618.246 252.323 L 629.668 252.548 M 529.453 251.969 L 576.143 255.091 M 594.42 256.313 L 612.6 257.529 M 618.006 257.89 L 629.404 258.652 M 529.328 253.354 L 575.819 258.672 M 594.018 260.753 L 612.121 262.824 M 617.503 263.439 L 628.853 264.737 M 529.137 254.732 L 575.326 262.233 M 593.407 265.169 L 611.392 268.09 M 616.74 268.959 L 628.016 270.79 M 528.882 256.099 L 574.666 265.767 M 592.589 269.552 L 610.417 273.317 M 615.717 274.436 L 626.894 276.796 M 528.563 257.453 L 573.841 269.267 M 591.565 273.891 L 609.196 278.492 M 614.438 279.859 L 625.491 282.743 M 528.18 258.79 L 572.851 272.723 M 590.338 278.177 L 607.733 283.603 M 612.904 285.216 L 623.81 288.618 M 527.735 260.107 L 571.7 276.129 M 588.911 282.401 L 606.031 288.64 M 611.12 290.495 L 621.854 294.406 M 527.228 261.402 L 570.39 279.477 M 587.286 286.553 L 604.093 293.591 M 609.09 295.684 L 619.627 300.096 M 526.661 262.672 L 568.923 282.76 M 585.467 290.623 L 601.924 298.445 M 606.817 300.771 L 617.135 305.675 M 526.034 263.914 L 567.304 285.97 M 583.459 294.604 L 599.529 303.192 M 604.307 305.746 L 614.382 311.13 M 525.35 265.125 L 565.535 289.1 M 581.266 298.485 L 596.914 307.821 M 601.566 310.597 L 611.376 316.45 M 524.61 266.302 L 563.621 292.143 M 578.892 302.259 L 594.083 312.321 M 598.599 315.313 L 608.123 321.622 M 523.815 267.443 L 561.565 295.093 M 576.343 305.917 L 591.043 316.684 M 595.413 319.885 L 604.629 326.635 M 522.967 268.545 L 559.373 297.943 M 573.625 309.45 L 587.801 320.898 M 592.016 324.301 L 600.904 331.478 M 522.068 269.606 L 557.049 300.686 M 570.743 312.852 L 584.365 324.954 M 588.414 328.552 L 596.954 336.14 M 521.12 270.624 L 554.599 303.317 M 567.704 316.114 L 580.741 328.845 M 584.616 332.629 L 592.789 340.611 M 520.125 271.596 L 552.027 305.829 M 564.515 319.23 L 576.937 332.56 M 580.631 336.523 L 588.419 344.881" stroke="black" stroke-width="1" fill="none"></path><path d="M 499.858 250.821 L 497.686 263.418 M 491.296 300.473 L 489.613 310.234 M 488.284 317.938 L 485.145 336.145 M 499.834 250.817 L 497.295 263.344 M 489.823 300.197 L 487.855 309.904 M 486.302 317.567 L 482.631 335.674 M 499.811 250.812 L 496.905 263.26 M 488.359 299.878 L 486.108 309.523 M 484.331 317.137 L 480.132 335.129 M 499.787 250.806 L 496.519 263.163 M 486.905 299.516 L 484.372 309.091 M 482.373 316.65 L 477.649 334.511 M 499.763 250.799 L 496.135 263.056 M 485.462 299.111 L 482.65 308.609 M 480.431 316.105 L 475.186 333.821 M 499.74 250.792 L 495.755 262.937 M 484.031 298.665 L 480.943 308.076 M 478.505 315.505 L 472.745 333.059 M 499.717 250.784 L 495.378 262.807 M 482.614 298.177 L 479.252 307.494 M 476.598 314.848 L 470.326 332.226 M 499.694 250.775 L 495.005 262.667 M 481.212 297.648 L 477.578 306.862 M 474.711 314.135 L 467.933 331.323 M 499.672 250.766 L 494.637 262.515 M 479.826 297.077 L 475.924 306.182 M 472.845 313.368 L 465.568 330.35 M 499.649 250.756 L 494.273 262.353 M 478.457 296.467 L 474.291 305.453 M 471.003 312.546 L 463.232 329.308 M 499.627 250.746 L 493.914 262.18 M 477.107 295.817 L 472.68 304.677 M 469.185 311.671 L 460.927 328.198 M 499.606 250.734 L 493.56 261.997 M 475.776 295.128 L 471.092 303.855 M 467.394 310.743 L 458.656 327.021 M 499.585 250.722 L 493.212 261.803 M 474.466 294.399 L 469.528 302.986 M 465.631 309.763 L 456.42 325.779 M 499.564 250.71 L 492.87 261.6 M 473.178 293.633 L 467.991 302.072 M 463.897 308.732 L 454.222 324.471 M 499.543 250.697 L 492.533 261.386 M 471.913 292.83 L 466.481 301.113 M 462.194 307.651 L 452.062 323.1 M 499.523 250.683 L 492.203 261.163 M 470.672 291.99 L 465 300.11 M 460.523 306.52 L 449.944 321.666 M 499.503 250.669 L 491.88 260.93 M 469.456 291.114 L 463.549 299.065 M 458.887 305.341 L 447.869 320.171 M 499.484 250.654 L 491.564 260.688 M 468.266 290.203 L 462.129 297.977 M 457.285 304.114 L 445.838 318.616 M 499.465 250.639 L 491.255 260.436 M 467.104 289.257 L 460.742 296.849 M 455.72 302.841 L 443.854 317.002 M 499.446 250.623 L 490.953 260.176 M 465.969 288.278 L 459.388 295.68 M 454.193 301.523 L 441.918 315.331 M 499.428 250.606 L 490.659 259.907 M 464.864 287.266 L 458.069 294.472 M 452.705 300.161 L 440.031 313.603 M 499.411 250.589 L 490.373 259.629 M 463.788 286.222 L 456.786 293.226 M 451.258 298.756 L 438.196 311.821 M 499.394 250.572 L 490.096 259.343 M 462.744 285.147 L 455.539 291.944 M 449.852 297.309 L 436.414 309.987 M 499.377 250.554 L 489.827 259.05 M 461.732 284.042 L 454.331 290.625 M 448.49 295.821 L 434.686 308.101 M 499.361 250.535 L 489.566 258.748 M 460.752 282.907 L 453.162 289.271 M 447.171 294.295 L 433.014 306.165 M 499.346 250.517 L 489.315 258.439 M 459.806 281.745 L 452.033 287.884 M 445.898 292.73 L 431.399 304.181 M 499.331 250.497 L 489.072 258.123 M 458.895 280.556 L 450.945 286.465 M 444.671 291.129 L 429.843 302.151 M 499.317 250.477 L 488.839 257.8 M 458.018 279.34 L 449.9 285.014 M 443.491 289.492 L 428.348 300.076 M 499.303 250.457 L 488.616 257.47 M 457.178 278.099 L 448.897 283.533 M 442.36 287.822 L 426.913 297.958 M 499.29 250.437 L 488.402 257.134 M 456.374 276.834 L 447.937 282.023 M 441.278 286.12 L 425.541 295.799 M 499.278 250.416 L 488.199 256.791 M 455.608 275.546 L 447.023 280.487 M 440.247 284.386 L 424.233 293.601 M 499.266 250.394 L 488.005 256.443 M 454.879 274.237 L 446.154 278.924 M 439.266 282.623 L 422.99 291.366 M 499.255 250.373 L 487.822 256.089 M 454.189 272.906 L 445.33 277.336 M 438.338 280.832 L 421.813 289.095 M 499.244 250.351 L 487.649 255.73 M 453.539 271.556 L 444.554 275.725 M 437.462 279.015 L 420.702 286.791 M 499.234 250.328 L 487.486 255.367 M 452.928 270.187 L 443.825 274.091 M 436.64 277.173 L 419.66 284.455 M 499.225 250.306 L 487.335 254.998 M 452.358 268.802 L 443.144 272.437 M 435.872 275.307 L 418.686 282.09 M 499.216 250.283 L 487.194 254.626 M 451.828 267.4 L 442.512 270.764 M 435.159 273.42 L 417.782 279.697 M 499.208 250.26 L 487.064 254.249 M 451.34 265.983 L 441.929 269.074 M 434.501 271.513 L 416.949 277.279 M 499.201 250.237 L 486.945 253.869 M 450.893 264.552 L 441.396 267.366 M 433.9 269.588 L 416.186 274.837 M 499.194 250.213 L 486.838 253.485 M 450.488 263.109 L 440.913 265.644 M 433.355 267.645 L 415.495 272.374 M 499.188 250.19 L 486.741 253.098 M 450.126 261.655 L 440.481 263.909 M 432.868 265.688 L 414.877 269.892 M 499.183 250.166 L 486.656 252.709 M 449.806 260.191 L 440.099 262.162 M 432.437 263.717 L 414.331 267.393 M 499.179 250.142 L 486.583 252.318 M 449.529 258.718 L 439.769 260.404 M 432.065 261.735 L 413.859 264.879 M 499.175 250.118 L 486.521 251.924 M 449.296 257.238 L 439.49 258.637 M 431.751 259.742 L 413.461 262.353 M 499.172 250.094 L 486.47 251.529 M 449.106 255.751 L 439.264 256.863 M 431.495 257.741 L 413.136 259.816 M 499.169 250.069 L 486.431 251.132 M 448.959 254.26 L 439.089 255.083 M 431.298 255.733 L 412.886 257.27 M 499.168 250.045 L 486.404 250.735 M 448.857 252.764 L 438.966 253.299 M 431.159 253.721 L 412.711 254.718 M 499.167 250.021 L 486.388 250.337 M 448.798 251.267 L 438.896 251.512 M 431.08 251.705 L 412.61 252.162 M 499.167 249.996 L 486.384 249.938 M 448.782 249.768 L 438.878 249.723 M 431.06 249.688 L 412.584 249.605 M 499.167 249.972 L 486.392 249.54 M 448.811 248.27 L 438.912 247.935 M 431.098 247.671 L 412.633 247.047 M 499.168 249.947 L 486.411 249.142 M 448.884 246.773 L 438.999 246.149 M 431.196 245.656 L 412.757 244.492 M 499.17 249.923 L 486.442 248.745 M 449 245.279 L 439.137 244.366 M 431.352 243.645 L 412.956 241.942 M 499.173 249.899 L 486.485 248.349 M 449.16 243.789 L 439.328 242.588 M 431.568 241.639 L 413.229 239.399 M 499.176 249.875 L 486.539 247.954 M 449.363 242.304 L 439.571 240.816 M 431.842 239.641 L 413.576 236.865 M 499.18 249.851 L 486.604 247.561 M 449.61 240.826 L 439.866 239.052 M 432.174 237.651 L 413.997 234.342 M 499.185 249.827 L 486.681 247.17 M 449.9 239.355 L 440.212 237.297 M 432.564 235.672 L 414.492 231.832 M 499.19 249.803 L 486.77 246.782 M 450.233 237.894 L 440.609 235.553 M 433.012 233.705 L 415.06 229.338 M 499.196 249.779 L 486.87 246.396 M 450.609 236.443 L 441.057 233.822 M 433.518 231.752 L 415.701 226.862 M 499.203 249.756 L 486.981 246.013 M 451.026 235.004 L 441.556 232.104 M 434.08 229.815 L 416.414 224.406 M 499.211 249.733 L 487.103 245.634 M 451.486 233.578 L 442.104 230.402 M 434.699 227.895 L 417.199 221.971 M 499.219 249.71 L 487.236 245.259 M 451.987 232.165 L 442.702 228.716 M 435.373 225.994 L 418.054 219.561 M 499.228 249.687 L 487.38 244.887 M 452.53 230.768 L 443.35 227.049 M 436.103 224.113 L 418.98 217.176 M 499.237 249.665 L 487.535 244.52 M 453.113 229.388 L 444.045 225.401 M 436.888 222.255 L 419.975 214.82 M 499.247 249.642 L 487.701 244.158 M 453.736 228.025 L 444.789 223.775 M 437.727 220.42 L 421.039 212.493 M 499.258 249.621 L 487.877 243.801 M 454.399 226.68 L 445.58 222.171 M 438.619 218.611 L 422.17 210.199 M 499.269 249.599 L 488.064 243.449 M 455.1 225.356 L 446.417 220.59 M 439.564 216.829 L 423.368 207.939 M 499.281 249.578 L 488.261 243.102 M 455.841 224.053 L 447.301 219.035 M 440.56 215.075 L 424.631 205.715 M 499.294 249.557 L 488.467 242.762 M 456.619 222.772 L 448.229 217.507 M 441.607 213.351 L 425.959 203.529 M 499.307 249.536 L 488.684 242.427 M 457.434 221.515 L 449.202 216.006 M 442.705 211.658 L 427.35 201.383 M 499.321 249.516 L 488.911 242.1 M 458.285 220.282 L 450.218 214.534 M 443.851 209.998 L 428.804 199.278 M 499.336 249.497 L 489.146 241.779 M 459.173 219.074 L 451.277 213.093 M 445.045 208.372 L 430.318 197.217 M 499.351 249.478 L 489.392 241.464 M 460.095 217.893 L 452.378 211.683 M 446.287 206.782 L 431.892 195.201 M 499.366 249.459 L 489.646 241.158 M 461.052 216.739 L 453.519 210.306 M 447.574 205.229 L 433.525 193.231 M 499.382 249.44 L 489.909 240.859 M 462.041 215.613 L 454.701 208.964 M 448.906 203.715 L 435.214 191.311 M 499.399 249.423 L 490.181 240.567 M 463.064 214.518 L 455.921 207.656 M 450.283 202.24 L 436.959 189.44 M 499.416 249.405 L 490.461 240.284 M 464.118 213.452 L 457.178 206.384 M 451.701 200.805 L 438.758 187.622 M 499.434 249.388 L 490.749 240.009 M 465.202 212.418 L 458.473 205.15 M 453.161 199.413 L 440.609 185.857 M 499.452 249.372 L 491.046 239.743 M 466.317 211.416 L 459.803 203.954 M 454.661 198.065 L 442.511 184.147 M 499.471 249.356 L 491.35 239.485 M 467.46 210.447 L 461.167 202.798 M 456.2 196.76 L 444.462 182.493 M 499.49 249.341 L 491.661 239.237 M 468.631 209.512 L 462.565 201.682 M 457.777 195.502 L 446.461 180.897 M 499.509 249.327 L 491.979 238.997 M 469.829 208.611 L 463.995 200.607 M 459.389 194.29 L 448.506 179.36 M 499.529 249.312 L 492.305 238.767 M 471.053 207.746 L 465.455 199.575 M 461.036 193.125 L 450.595 177.884 M 499.549 249.299 L 492.637 238.547 M 472.302 206.918 L 466.945 198.586 M 462.717 192.01 L 452.726 176.469 M 499.57 249.286 L 492.975 238.336 M 473.574 206.126 L 468.464 197.641 M 464.43 190.944 L 454.897 175.117 M 499.591 249.274 L 493.319 238.136 M 474.869 205.371 L 470.009 196.741 M 466.173 189.928 L 457.108 173.83 M 499.612 249.262 L 493.669 237.945 M 476.185 204.655 L 471.58 195.886 M 467.945 188.964 L 459.354 172.608 M 499.634 249.251 L 494.024 237.765 M 477.522 203.978 L 473.175 195.078 M 469.744 188.053 L 461.636 171.452 M 499.656 249.241 L 494.385 237.596 M 478.878 203.34 L 474.794 194.316 M 471.57 187.194 L 463.951 170.363 M 499.679 249.231 L 494.75 237.437 M 480.253 202.742 L 476.434 193.603 M 473.419 186.389 L 466.296 169.342 M 499.701 249.222 L 495.12 237.289 M 481.644 202.184 L 478.094 192.937 M 475.292 185.639 L 468.67 168.391 M 499.724 249.214 L 495.494 237.151 M 483.051 201.668 L 479.773 192.321 M 477.185 184.943 L 471.071 167.509 M 499.747 249.206 L 495.872 237.025 M 484.472 201.193 L 481.469 191.754 M 479.099 184.304 L 473.497 166.698 M 499.771 249.199 L 496.253 236.91 M 485.906 200.759 L 483.181 191.237 M 481.03 183.72 L 475.946 165.958 M 499.794 249.192 L 496.638 236.806 M 487.353 200.368 L 484.907 190.77 M 482.977 183.194 L 478.415 165.29 M 499.818 249.187 L 497.025 236.713 M 488.811 200.019 L 486.647 190.354 M 484.939 182.724 L 480.903 164.695 M 499.842 249.182 L 497.415 236.632 M 490.278 199.713 L 488.398 189.988 M 486.914 182.312 L 483.407 164.173 M 499.866 249.177 L 497.808 236.562 M 491.753 199.45 L 490.158 189.675 M 488.9 181.958 L 485.925 163.724 M 499.89 249.174 L 498.202 236.503 M 493.236 199.231 L 491.928 189.412 M 490.895 181.663 L 488.455 163.349 M 499.914 249.171 L 498.597 236.457 M 494.724 199.054 L 493.704 189.202 M 492.898 181.426 L 490.995 163.049 M 499.938 249.169 L 498.994 236.421 M 496.217 198.922 L 495.485 189.044 M 494.908 181.247 L 493.543 162.822 M 499.963 249.167 L 499.392 236.398 M 497.713 198.833 L 497.27 188.938 M 496.921 181.128 L 496.096 162.671 M 499.987 249.167 L 499.79 236.386 M 499.211 198.788 L 499.058 188.884 M 498.938 181.067 L 498.653 162.594 M 500.012 249.167 L 500.189 236.385 M 500.709 198.787 L 500.847 188.883 M 500.955 181.065 L 501.211 162.592 M 500.036 249.167 L 500.587 236.397 M 502.207 198.83 L 502.634 188.934 M 502.971 181.123 L 503.768 162.665 M 500.06 249.169 L 500.985 236.42 M 503.704 198.916 L 504.42 189.037 M 504.985 181.239 L 506.321 162.812 M 500.085 249.171 L 501.381 236.454 M 505.197 199.046 L 506.202 189.193 M 506.995 181.415 L 508.869 163.035 M 500.109 249.174 L 501.777 236.501 M 506.685 199.22 L 507.978 189.4 M 508.999 181.649 L 511.41 163.331 M 500.133 249.177 L 502.171 236.558 M 508.168 199.437 L 509.748 189.659 M 510.994 181.941 L 513.941 163.702 M 500.157 249.181 L 502.564 236.628 M 509.644 199.698 L 511.509 189.97 M 512.981 182.292 L 516.46 164.147 M 500.181 249.186 L 502.954 236.708 M 511.111 200.002 L 513.26 190.333 M 514.956 182.701 L 518.964 164.665 M 500.205 249.192 L 503.342 236.8 M 512.569 200.348 L 515 190.746 M 516.919 183.167 L 521.453 165.257 M 500.228 249.198 L 503.726 236.904 M 514.017 200.737 L 516.727 191.211 M 518.867 183.691 L 523.923 165.921 M 500.251 249.205 L 504.108 237.019 M 515.452 201.168 L 518.44 191.725 M 520.799 184.271 L 526.373 166.657 M 500.275 249.213 L 504.486 237.144 M 516.874 201.641 L 520.137 192.29 M 522.713 184.908 L 528.8 167.464 M 500.297 249.221 L 504.86 237.281 M 518.282 202.156 L 521.817 192.903 M 524.608 185.6 L 531.202 168.342 M 500.32 249.231 L 505.23 237.429 M 519.674 202.711 L 523.478 193.566 M 526.482 186.348 L 533.578 169.29 M 500.343 249.24 L 505.596 237.587 M 521.049 203.307 L 525.119 194.277 M 528.332 187.15 L 535.925 170.307 M 500.365 249.251 L 505.956 237.756 M 522.406 203.943 L 526.739 195.036 M 530.159 188.006 L 538.241 171.392 M 500.386 249.262 L 506.312 237.936 M 523.744 204.618 L 528.336 195.842 M 531.96 188.915 L 540.525 172.544 M 500.408 249.273 L 506.662 238.125 M 525.061 205.332 L 529.908 196.694 M 533.734 189.876 L 542.774 173.763 M 500.429 249.285 L 507.007 238.325 M 526.358 206.085 L 531.455 197.592 M 535.478 190.888 L 544.986 175.047 M 500.45 249.298 L 507.346 238.535 M 527.631 206.875 L 532.975 198.535 M 537.192 191.952 L 547.16 176.396 M 500.47 249.312 L 507.678 238.755 M 528.881 207.701 L 534.466 199.521 M 538.875 193.065 L 549.293 177.807 M 500.49 249.326 L 508.004 238.985 M 530.106 208.565 L 535.928 200.551 M 540.524 194.226 L 551.384 179.28 M 500.509 249.34 L 508.322 239.224 M 531.306 209.463 L 537.36 201.624 M 542.138 195.436 L 553.431 180.814 M 500.528 249.356 L 508.634 239.472 M 532.478 210.396 L 538.759 202.738 M 543.717 196.692 L 555.432 182.406 M 500.547 249.371 L 508.938 239.729 M 533.623 211.364 L 540.125 203.892 M 545.258 197.994 L 557.386 184.057 M 500.565 249.388 L 509.235 239.995 M 534.739 212.364 L 541.457 205.085 M 546.76 199.34 L 559.291 185.764 M 500.583 249.404 L 509.524 240.269 M 535.825 213.396 L 542.753 206.318 M 548.222 200.73 L 561.145 187.527 M 500.6 249.422 L 509.805 240.552 M 536.881 214.46 L 544.013 207.587 M 549.643 202.162 L 562.947 189.342 M 500.617 249.439 L 510.077 240.843 M 537.905 215.554 L 545.235 208.893 M 551.021 203.635 L 564.694 191.21 M 500.633 249.458 L 510.34 241.142 M 538.897 216.678 L 546.419 210.234 M 552.356 205.148 L 566.387 193.128 M 500.649 249.477 L 510.595 241.448 M 539.855 217.83 L 547.562 211.609 M 553.646 206.699 L 568.022 195.094 M 500.664 249.496 L 510.841 241.762 M 540.779 219.01 L 548.665 213.017 M 554.89 208.287 L 569.6 197.108 M 500.678 249.515 L 511.077 242.082 M 541.668 220.217 L 549.726 214.457 M 556.087 209.911 L 571.117 199.167 M 500.692 249.535 L 511.304 242.41 M 542.522 221.448 L 550.745 215.927 M 557.236 211.569 L 572.574 201.27 M 500.705 249.556 L 511.521 242.744 M 543.339 222.705 L 551.72 217.426 M 558.335 213.26 L 573.969 203.414 M 500.718 249.577 L 511.729 243.084 M 544.119 223.984 L 552.651 218.953 M 559.385 214.982 L 575.3 205.598 M 500.73 249.598 L 511.926 243.43 M 544.861 225.286 L 553.537 220.507 M 560.385 216.735 L 576.567 207.82 M 500.741 249.619 L 512.113 243.782 M 545.565 226.609 L 554.377 222.086 M 561.332 218.516 L 577.768 210.078 M 500.752 249.641 L 512.29 244.139 M 546.23 227.953 L 555.17 223.689 M 562.227 220.323 L 578.903 212.37 M 500.762 249.663 L 512.456 244.501 M 546.855 229.315 L 555.916 225.314 M 563.068 222.157 L 579.97 214.695 M 500.772 249.686 L 512.612 244.868 M 547.44 230.694 L 556.615 226.961 M 563.856 224.014 L 580.969 217.05 M 500.781 249.709 L 512.756 245.239 M 547.985 232.09 L 557.264 228.627 M 564.589 225.893 L 581.898 219.433 M 500.789 249.732 L 512.89 245.614 M 548.488 233.502 L 557.865 230.312 M 565.267 227.793 L 582.757 221.842 M 500.797 249.755 L 513.013 245.993 M 548.95 234.928 L 558.416 232.013 M 565.888 229.712 L 583.546 224.275 M 500.803 249.778 L 513.125 246.376 M 549.37 236.366 L 558.918 233.73 M 566.454 231.649 L 584.263 226.731 M 500.809 249.802 L 513.225 246.761 M 549.748 237.817 L 559.368 235.461 M 566.962 233.601 L 584.907 229.206 M 500.815 249.826 L 513.314 247.149 M 550.083 239.277 L 559.768 237.204 M 567.413 235.567 L 585.479 231.699 M 500.82 249.849 L 513.392 247.54 M 550.375 240.747 L 560.117 238.958 M 567.807 237.545 L 585.978 234.208 M 500.824 249.873 L 513.458 247.933 M 550.624 242.225 L 560.415 240.721 M 568.142 239.535 L 586.403 236.73 M 500.827 249.898 L 513.513 248.328 M 550.83 243.71 L 560.66 242.493 M 568.419 241.533 L 586.755 239.264 M 500.83 249.922 L 513.556 248.724 M 550.993 245.199 L 560.854 244.271 M 568.638 243.538 L 587.032 241.807 M 500.832 249.946 L 513.588 249.121 M 551.111 246.693 L 560.995 246.054 M 568.797 245.549 L 587.234 244.356 M 500.833 249.971 L 513.607 249.519 M 551.186 248.19 L 561.085 247.84 M 568.898 247.564 L 587.362 246.911 M 500.833 249.995 L 513.616 249.917 M 551.217 249.688 L 561.122 249.628 M 568.94 249.581 L 587.415 249.468 M 500.833 250.019 L 513.612 250.316 M 551.204 251.187 L 561.106 251.417 M 568.923 251.598 L 587.393 252.026 M 500.832 250.044 L 513.597 250.714 M 551.148 252.685 L 561.039 253.204 M 568.846 253.614 L 587.296 254.582 M 500.831 250.068 L 513.571 251.111 M 551.047 254.18 L 560.919 254.988 M 568.711 255.626 L 587.125 257.134 M 500.828 250.092 L 513.532 251.508 M 550.903 255.672 L 560.747 256.769 M 568.517 257.634 L 586.879 259.68 M 500.825 250.116 L 513.482 251.903 M 550.715 257.159 L 560.523 258.543 M 568.264 259.636 L 586.558 262.218 M 500.821 250.141 L 513.421 252.297 M 550.484 258.639 L 560.247 260.31 M 567.953 261.629 L 586.164 264.745 M 500.817 250.165 L 513.348 252.688 M 550.21 260.113 L 559.92 262.068 M 567.584 263.612 L 585.696 267.26 M 500.812 250.188 L 513.264 253.078 M 549.892 261.577 L 559.541 263.816 M 567.157 265.583 L 585.154 269.76 M 500.806 250.212 L 513.168 253.464 M 549.532 263.032 L 559.111 265.552 M 566.672 267.542 L 584.539 272.243 M 500.799 250.236 L 513.061 253.848 M 549.13 264.476 L 558.631 267.275 M 566.13 269.485 L 583.852 274.706 M 500.792 250.259 L 512.943 254.229 M 548.685 265.907 L 558.1 268.983 M 565.532 271.411 L 583.094 277.149 M 500.784 250.282 L 512.813 254.606 M 548.199 267.325 L 557.52 270.675 M 564.878 273.319 L 582.264 279.569 M 500.776 250.305 L 512.673 254.978 M 547.672 268.727 L 556.891 272.349 M 564.167 275.208 L 581.364 281.963 M 500.766 250.327 L 512.522 255.347 M 547.103 270.114 L 556.212 274.004 M 563.402 277.074 L 580.394 284.33 M 500.757 250.35 L 512.36 255.711 M 546.495 271.483 L 555.486 275.638 M 562.583 278.917 L 579.355 286.667 M 500.746 250.372 L 512.188 256.07 M 545.846 272.835 L 554.712 277.251 M 561.71 280.736 L 578.248 288.973 M 500.735 250.393 L 512.005 256.424 M 545.158 274.166 L 553.891 278.84 M 560.785 282.528 L 577.074 291.246 M 500.723 250.415 L 511.812 256.773 M 544.432 275.477 L 553.025 280.404 M 559.807 284.293 L 575.835 293.483 M 500.711 250.436 L 511.609 257.116 M 543.668 276.766 L 552.112 281.942 M 558.778 286.028 L 574.53 295.683 M 500.698 250.456 L 511.396 257.452 M 542.866 278.032 L 551.156 283.453 M 557.699 287.732 L 573.161 297.844 M 500.684 250.476 L 511.173 257.782 M 542.027 279.274 L 550.155 284.936 M 556.57 289.404 L 571.73 299.964 M 500.67 250.496 L 510.94 258.106 M 541.153 280.491 L 549.111 286.388 M 555.393 291.043 L 570.238 302.041 M 500.655 250.516 L 510.698 258.423 M 540.243 281.682 L 548.026 287.809 M 554.169 292.646 L 568.685 304.074 M 500.639 250.534 L 510.447 258.732 M 539.299 282.846 L 546.899 289.198 M 552.898 294.212 L 567.074 306.06 M 500.624 250.553 L 510.187 259.034 M 538.321 283.982 L 545.732 290.554 M 551.582 295.741 L 565.405 307.999 M 500.607 250.571 L 509.919 259.328 M 537.311 285.089 L 544.526 291.874 M 550.221 297.23 L 563.68 309.888 M 500.59 250.588 L 509.642 259.614 M 536.268 286.165 L 543.282 293.159 M 548.818 298.68 L 561.9 311.725 M 500.573 250.605 L 509.356 259.892 M 535.194 287.211 L 542 294.407 M 547.373 300.087 L 560.068 313.51 M 500.555 250.622 L 509.063 260.162 M 534.091 288.225 L 540.683 295.617 M 545.887 301.452 L 558.184 315.24 M 500.536 250.638 L 508.762 260.423 M 532.958 289.206 L 539.331 296.787 M 544.362 302.772 L 556.25 316.914 M 500.517 250.653 L 508.453 260.674 M 531.796 290.153 L 537.945 297.918 M 542.799 304.047 L 554.269 318.531" stroke="black" stroke-width="1" fill="none"></path><path d="M 467.676 242.105 L 427.129 232.202 M 467.961 241.017 L 427.773 229.749 M 468.283 239.939 L 428.498 227.32 M 468.642 238.873 L 429.306 224.916 M 469.036 237.819 L 430.194 222.54 M 469.465 236.78 L 431.162 220.196 M 469.929 235.755 L 432.209 217.887 M 470.428 234.747 L 433.333 215.614 M 470.961 233.756 L 434.534 213.38 M 471.526 232.784 L 435.809 211.188 M 472.124 231.831 L 437.158 209.04 M 472.754 230.899 L 438.578 206.939 M 473.416 229.989 L 440.069 204.888 M 474.107 229.102 L 441.628 202.888 M 474.829 228.239 L 443.254 200.941 M 475.578 227.4 L 444.945 199.051 M 476.356 226.588 L 446.698 197.219 M 477.161 225.802 L 448.513 195.448 M 477.992 225.044 L 450.386 193.739 M 478.848 224.314 L 452.316 192.094 M 479.729 223.614 L 454.301 190.515 M 480.632 222.944 L 456.338 189.004 M 481.558 222.304 L 458.424 187.563 M 482.505 221.697 L 460.559 186.194 M 483.471 221.122 L 462.738 184.897 M 484.457 220.579 L 464.96 183.675 M 485.46 220.071 L 467.222 182.528 M 486.48 219.596 L 469.521 181.459 M 487.516 219.157 L 471.856 180.468 M 488.565 218.752 L 474.222 179.556 M 489.628 218.384 L 476.618 178.725 M 490.703 218.051 L 479.041 177.975 M 491.788 217.755 L 481.487 177.308 M 492.883 217.496 L 483.955 176.724 M 493.985 217.274 L 486.441 176.223 M 495.095 217.089 L 488.942 175.807 M 496.21 216.942 L 491.457 175.476 M 497.33 216.833 L 493.981 175.229 M 498.453 216.762 L 496.511 175.069 M 499.577 216.729 L 499.046 174.994 M 500.702 216.733 L 501.582 175.004 M 501.826 216.776 L 504.116 175.101 M 502.948 216.857 L 506.646 175.283 M 504.067 216.975 L 509.168 175.55 M 505.181 217.132 L 511.679 175.902 M 506.289 217.326 L 514.177 176.339 M 507.389 217.557 L 516.659 176.861 M 508.482 217.825 L 519.121 177.466 M 509.565 218.13 L 521.562 178.153 M 510.636 218.472 L 523.979 178.923 M 511.696 218.849 L 526.367 179.774 M 512.742 219.263 L 528.726 180.706 M 513.774 219.711 L 531.052 181.716 M 514.79 220.194 L 533.342 182.805 M 515.789 220.711 L 535.595 183.971 M 516.77 221.261 L 537.806 185.211 M 517.732 221.844 L 539.975 186.526 M 518.674 222.46 L 542.097 187.914 M 519.594 223.107 L 544.172 189.372 M 520.492 223.784 L 546.196 190.9 M 521.366 224.492 L 548.167 192.495 M 522.216 225.229 L 550.084 194.156 M 523.041 225.994 L 551.943 195.881 M 523.839 226.787 L 553.742 197.668 M 524.61 227.606 L 555.481 199.515 M 525.353 228.45 L 557.155 201.419 M 526.067 229.32 L 558.765 203.379 M 526.751 230.213 L 560.307 205.392 M 527.405 231.128 L 561.781 207.456 M 528.027 232.065 L 563.183 209.568 M 528.617 233.023 L 564.514 211.727 M 529.175 234 L 565.771 213.93 M 529.699 234.995 L 566.952 216.173 M 530.189 236.008 L 568.058 218.456 M 530.645 237.036 L 569.085 220.774 M 531.065 238.079 L 570.033 223.126 M 531.451 239.136 L 570.902 225.509 M 531.8 240.206 L 571.689 227.92 M 532.113 241.286 L 572.394 230.355 M 532.389 242.377 L 573.017 232.814 M 532.628 243.476 L 573.556 235.292 M 532.83 244.582 L 574.011 237.787 M 532.994 245.695 L 574.382 240.295 M 533.121 246.813 L 574.668 242.815 M 533.21 247.934 L 574.868 245.343 M 533.261 249.058 L 574.982 247.876 M 533.274 250.183 L 575.011 250.412 M 533.248 251.307 L 574.955 252.948" stroke="black" stroke-width="1" fill="none"></path></svg>
