<svg version="1.1" xmlns:xlink="http://www.w3.org/1999/xlink" xmlns="http://www.w3.org/2000/svg"><polyline points="80,120 640,120 640,540 80,540 80,120" stroke="black" stroke-width="1" fill="none"></polyline><path d="M 300 300 L 433.333 300 M 300 300 L 429.663 305.505 M 300 300 L 426.178 310.734 M 300 300 L 422.851 315.724 M 300 300 L 419.662 320.507 M 300 300 L 416.591 325.114 M 300 300 L 413.621 329.569 M 300 300 L 410.737 333.894 M 300 300 L 407.926 338.111 M 300 300 L 405.174 342.239 M 300 300 L 402.471 346.293 M 300 300 L 399.806 350.291 M 300 300 L 397.168 354.248 M 300 300 L 394.548 358.178 M 300 300 L 391.936 362.097 M 300 300 L 389.322 366.017 M 300 300 L 386.698 369.953 M 300 300 L 384.053 373.921 M 300 300 L 381.378 377.933 M 300 300 L 378.662 382.007 M 300 300 L 375.895 386.158 M 300 300 L 373.064 390.404 M 300 300 L 370.157 394.764 M 300 300 L 367.16 399.259 M 300 300 L 364.057 403.914 M 300 300 L 360.831 408.753 M 300 300 L 357.462 413.808 M 300 300 L 353.926 419.111 M 300 300 L 350.198 424.703 M 300 300 L 346.247 430.629 M 300 300 L 342.037 436.945 M 300 300 L 337.524 443.714 M 300 300 L 332.657 451.015 M 300 300 L 327.371 458.943 M 300 300 L 321.59 467.614 M 300 300 L 314.547 469.377 M 300 300 L 307.349 469.841 M 300 300 L 300.137 470 M 300 300 L 292.926 469.853 M 300 300 L 286.549 459.647 M 300 300 L 281.59 444.77 M 300 300 L 277.436 432.307 M 300 300 L 273.893 421.679 M 300 300 L 270.826 412.478 M 300 300 L 268.136 404.407 M 300 300 L 265.748 397.245 M 300 300 L 263.609 390.827 M 300 300 L 261.673 385.02 M 300 300 L 259.908 379.725 M 300 300 L 258.286 374.859 M 300 300 L 256.786 370.357 M 300 300 L 255.388 366.164 M 300 300 L 254.079 362.237 M 300 300 L 252.846 358.538 M 300 300 L 251.678 355.035 M 300 300 L 250.567 351.702 M 300 300 L 249.505 348.514 M 300 300 L 248.484 345.453 M 300 300 L 247.5 342.501 M 300 300 L 246.547 339.64 M 300 300 L 245.62 336.859 M 300 300 L 244.714 334.143 M 300 300 L 243.827 331.48 M 300 300 L 242.954 328.861 M 300 300 L 242.091 326.274 M 300 300 L 241.237 323.71 M 300 300 L 240.387 321.16 M 300 300 L 239.538 318.613 M 300 300 L 238.687 316.062 M 300 300 L 237.832 313.496 M 300 300 L 236.969 310.907 M 300 300 L 236.095 308.284 M 300 300 L 235.206 305.617 M 300 300 L 234.299 302.896 M 300 300 L 233.369 300.108 M 300 300 L 232.413 297.24 M 300 300 L 231.426 294.278 M 300 300 L 230.402 291.207 M 300 300 L 229.336 288.007 M 300 300 L 228.22 284.66 M 300 300 L 227.047 281.141 M 300 300 L 225.807 277.422 M 300 300 L 224.491 273.473 M 300 300 L 223.085 269.255 M 300 300 L 221.574 264.722 M 300 300 L 219.94 259.821 M 300 300 L 218.161 254.484 M 300 300 L 216.209 248.627 M 300 300 L 214.049 242.148 M 300 300 L 211.638 234.913 M 300 300 L 208.917 226.751 M 300 300 L 205.812 217.436 M 300 300 L 202.221 206.663 M 300 300 L 203.767 200 M 300 300 L 211.624 200 M 300 300 L 218.912 200 M 300 300 L 225.715 200 M 300 300 L 232.103 200 M 300 300 L 238.132 200 M 300 300 L 243.853 200 M 300 300 L 249.307 200 M 300 300 L 254.531 200 M 300 300 L 259.558 200 M 300 300 L 264.414 200 M 300 300 L 269.127 200 M 300 300 L 273.717 200 M 300 300 L 278.206 200 M 300 300 L 282.613 200 M 300 300 L 286.955 200 M 300 300 L 291.249 200 M 300 300 L 295.511 200 M 300 300 L 299.758 200 M 300 300 L 304.003 200 M 300 300 L 308.263 200 M 300 300 L 312.552 200 M 300 300 L 316.888 200 M 300 300 L 321.287 200 M 300 300 L 325.765 200 M 300 300 L 330.343 200 M 300 300 L 335.04 200 M 300 300 L 339.879 200 M 300 300 L 344.885 200 M 300 300 L 350.085 200 M 300 300 L 355.511 200 M 300 300 L 361.199 200 M 300 300 L 367.191 200 M 300 300 L 373.535 200 M 300 300 L 380.287 200 M 300 300 L 387.516 200 M 300 300 L 395.303 200 M 300 300 L 403.747 200 M 300 300 L 412.969 200 M 300 300 L 423.12 200 M 300 300 L 434.39 200 M 300 300 L 440.567 204.392 M 300 300 L 444.496 210.441 M 300 300 L 448.165 216.651 M 300 300 L 451.568 223.011 M 300 300 L 454.697 229.51 M 300 300 L 457.548 236.136 M 300 300 L 460.115 242.876 M 300 300 L 462.394 249.72 M 300 300 L 461.772 257.341 M 300 300 L 456.102 265.847 M 300 300 L 450.91 273.635 M 300 300 L 446.121 280.818 M 300 300 L 441.676 287.486 M 300 300 L 437.523 293.716 M 300 300 L 433.621 299.568" stroke="black" stroke-width="1" fill="none"></path><path d="M 402 347 L 509.343 347 M 401.299 348.051 L 507.907 349.646 M 400.612 349.083 L 506.493 352.25 M 399.937 350.095 L 505.1 354.816 M 399.274 351.089 L 503.727 357.345 M 398.623 352.066 L 502.374 359.838 M 397.982 353.026 L 501.038 362.298 M 397.352 353.971 L 499.72 364.727 M 396.732 354.902 L 498.418 367.126 M 396.121 355.818 L 497.131 369.496 M 395.519 356.721 L 495.858 371.84 M 394.925 357.612 L 494.6 374.158 M 394.34 358.49 L 493.354 376.452 M 393.762 359.358 L 492.121 378.724 M 393.191 360.214 L 490.899 380.975 M 392.626 361.061 L 489.688 383.206 M 392.068 361.898 L 488.487 385.419 M 391.516 362.725 L 487.295 387.614 M 390.97 363.545 L 486.113 389.793 M 390.429 364.356 L 484.938 391.956 M 389.894 365.16 L 483.771 394.106 M 389.363 365.956 L 482.611 396.243 M 388.836 366.746 L 481.457 398.368 M 388.314 367.53 L 480.31 400.482 M 387.795 368.307 L 479.167 402.587 M 387.28 369.08 L 478.029 404.683 M 386.769 369.847 L 476.896 406.771 M 386.26 370.61 L 475.766 408.852 M 385.754 371.369 L 474.639 410.927 M 385.251 372.123 L 473.516 412.998 M 384.75 372.874 L 472.394 415.064 M 384.252 373.622 L 471.273 417.128 M 383.755 374.368 L 470.154 419.189 M 383.26 375.111 L 469.036 421.25 M 382.766 375.851 L 467.918 423.31 M 382.273 376.59 L 466.799 425.37 M 381.782 377.328 L 465.679 427.433 M 381.291 378.064 L 464.558 429.498 M 380.8 378.8 L 463.436 431.566 M 380.31 379.535 L 462.31 433.639 M 379.82 380.27 L 461.182 435.717 M 379.33 381.005 L 460.051 437.801 M 378.839 381.741 L 458.915 439.893 M 378.348 382.478 L 457.775 441.993 M 377.856 383.216 L 456.63 444.102 M 377.363 383.955 L 455.48 446.221 M 376.869 384.697 L 454.323 448.352 M 376.373 385.441 L 453.16 450.495 M 375.876 386.187 L 451.989 452.652 M 375.376 386.936 L 450.811 454.822 M 374.874 387.688 L 449.624 457.009 M 374.37 388.444 L 448.428 459.212 M 373.864 389.204 L 447.222 461.434 M 373.354 389.969 L 446.005 463.674 M 372.841 390.738 L 444.778 465.935 M 372.325 391.512 L 443.539 468.218 M 371.805 392.292 L 442.287 470.524 M 371.281 393.078 L 441.022 472.854 M 370.753 393.87 L 439.743 475.211 M 370.22 394.669 L 438.448 477.595 M 369.683 395.476 L 437.139 480.008 M 369.14 396.29 L 435.812 482.452 M 368.592 397.112 L 434.468 484.928 M 368.038 397.943 L 433.105 487.438 M 367.478 398.783 L 431.723 489.985 M 366.911 399.633 L 430.32 492.569 M 366.337 400.494 L 428.895 495.193 M 365.757 401.365 L 427.447 497.86 M 365.168 402.248 L 425.976 500.571 M 364.571 403.143 L 424.479 503.329 M 363.966 404.051 L 422.955 506.136 M 363.352 404.972 L 421.403 508.995 M 362.728 405.908 L 419.821 511.909 M 362.094 406.858 L 418.208 514.88 M 361.45 407.825 L 416.562 517.912 M 360.795 408.808 L 414.882 521.008 M 360.128 409.808 L 413.164 524.171 M 359.449 410.827 L 411.409 527.405 M 358.756 411.866 L 408.541 528.211 M 358.05 412.925 L 402.131 520.354 M 357.33 414.005 L 396.322 513.233 M 356.594 415.108 L 391.032 506.749 M 355.843 416.236 L 386.192 500.815 M 355.075 417.388 L 381.744 495.364 M 354.288 418.567 L 377.642 490.335 M 353.483 419.775 L 373.845 485.681 M 352.659 421.012 L 370.318 481.358 M 351.813 422.281 L 367.033 477.33 M 350.945 423.582 L 363.963 473.568 M 350.054 424.919 L 361.088 470.043 M 349.138 426.294 L 358.388 466.733 M 348.195 427.707 L 355.846 463.617 M 347.225 429.163 L 353.448 460.678 M 346.225 430.663 L 351.181 457.899 M 345.193 432.21 L 349.034 455.267 M 344.128 433.808 L 346.996 452.769 M 343.028 435.458 L 345.059 450.394 M 341.889 437.166 L 343.214 448.133 M 340.71 438.935 L 341.454 445.976 M 339.488 440.768 L 339.773 443.915 M 338.22 442.67 L 338.165 441.944 M 336.902 444.647 L 336.624 440.056 M 335.531 446.704 L 335.147 438.244 M 334.103 448.846 L 333.727 436.504 M 332.614 451.079 L 332.362 434.831 M 331.058 453.412 L 331.047 433.219 M 329.432 455.852 L 329.78 431.666 M 327.728 458.408 L 328.557 430.167 M 325.941 461.089 L 327.376 428.719 M 324.063 463.906 L 326.234 427.319 M 322.086 466.871 L 325.128 425.964 M 320.002 469.997 L 324.057 424.65 M 317.8 473.3 L 323.018 423.377 M 315.469 476.796 L 322.009 422.14 M 312.996 480.505 L 321.029 420.939 M 310.367 484.449 L 320.076 419.771 M 307.565 488.652 L 319.149 418.634 M 304.571 493.143 L 318.246 417.527 M 301.363 497.955 L 317.365 416.448 M 299.131 497.392 L 316.507 415.395 M 297.73 493.189 L 315.668 414.368 M 296.396 489.188 L 314.849 413.364 M 295.124 485.373 L 314.049 412.382 M 293.91 481.73 L 313.265 411.422 M 292.749 478.246 L 312.498 410.482 M 291.637 474.91 L 311.747 409.561 M 290.57 471.71 L 311.011 408.658 M 289.546 468.638 L 310.289 407.773 M 288.561 465.684 L 309.58 406.904 M 287.613 462.84 L 308.883 406.051 M 286.7 460.1 L 308.199 405.212 M 285.819 457.457 L 307.526 404.387 M 284.968 454.904 L 306.864 403.576 M 284.145 452.435 L 306.213 402.777 M 283.349 450.046 L 305.571 401.99 M 282.577 447.732 L 304.939 401.215 M 281.83 445.489 L 304.315 400.45 M 281.104 443.311 L 303.699 399.696 M 280.399 441.196 L 303.092 398.951 M 279.713 439.14 L 302.492 398.216 M 279.046 437.139 L 301.899 397.489 M 278.397 435.19 L 301.313 396.771 M 277.764 433.292 L 300.733 396.06 M 277.147 431.44 L 300.159 395.357 M 276.544 429.632 L 299.591 394.66 M 275.956 427.867 L 299.028 393.97 M 275.38 426.141 L 298.47 393.286 M 274.818 424.453 L 297.917 392.608 M 274.267 422.801 L 297.368 391.935 M 273.728 421.183 L 296.824 391.268 M 273.199 419.597 L 296.283 390.604 M 272.68 418.041 L 295.745 389.946 M 272.172 416.515 L 295.211 389.291 M 271.672 415.016 L 294.679 388.639 M 271.181 413.543 L 294.151 387.991 M 270.698 412.095 L 293.625 387.346 M 270.224 410.671 L 293.101 386.704 M 269.756 409.269 L 292.579 386.064 M 269.296 407.888 L 292.059 385.427 M 268.843 406.528 L 291.54 384.791 M 268.395 405.186 L 291.022 384.156 M 267.954 403.863 L 290.506 383.523 M 267.519 402.557 L 289.99 382.891 M 267.089 401.267 L 289.475 382.259 M 266.664 399.992 L 288.96 381.628 M 266.244 398.732 L 288.445 380.997 M 265.829 397.486 L 287.93 380.365 M 265.418 396.253 L 287.414 379.734 M 265.011 395.033 L 286.898 379.101 M 264.608 393.823 L 286.381 378.467 M 264.208 392.625 L 285.863 377.832 M 263.812 391.437 L 285.344 377.196 M 263.419 390.258 L 284.823 376.557 M 263.029 389.088 L 284.3 375.917 M 262.642 387.926 L 283.776 375.273 M 262.257 386.772 L 283.249 374.627 M 261.875 385.626 L 282.719 373.978 M 261.495 384.485 L 282.187 373.326 M 261.117 383.351 L 281.651 372.669 M 260.741 382.222 L 281.113 372.009 M 260.366 381.098 L 280.57 371.344 M 259.993 379.978 L 280.024 370.675 M 259.621 378.862 L 279.474 370 M 259.25 377.749 L 278.919 369.32 M 258.88 376.639 L 278.359 368.633 M 258.51 375.531 L 277.794 367.941 M 258.142 374.425 L 277.224 367.242 M 257.773 373.32 L 276.648 366.536 M 257.405 372.216 L 276.066 365.823 M 257.038 371.113 L 275.477 365.101 M 256.67 370.009 L 274.882 364.371 M 256.301 368.904 L 274.279 363.632 M 255.933 367.798 L 273.669 362.884 M 255.564 366.691 L 273.05 362.126 M 255.194 365.581 L 272.423 361.358 M 254.823 364.469 L 271.788 360.578 M 254.451 363.353 L 271.142 359.787 M 254.078 362.234 L 270.487 358.984 M 253.703 361.11 L 269.821 358.168 M 253.327 359.981 L 269.144 357.338 M 252.949 358.848 L 268.456 356.494 M 252.569 357.708 L 267.755 355.635 M 252.187 356.562 L 267.041 354.76 M 251.803 355.409 L 266.314 353.868 M 251.416 354.248 L 265.572 352.959 M 251.026 353.079 L 264.815 352.031 M 250.634 351.902 L 264.042 351.084 M 250.238 350.715 L 263.253 350.116 M 249.839 349.517 L 262.445 349.126 M 249.436 348.309 L 261.619 348.114 M 249.03 347.09 L 260.773 347.077 M 248.619 345.858 L 259.907 346.015 M 248.205 344.614 L 259.018 344.925 M 247.785 343.356 L 258.106 343.808 M 247.361 342.083 L 257.17 342.66 M 246.932 340.795 L 256.207 341.48 M 246.497 339.491 L 255.217 340.266 M 246.056 338.169 L 254.197 339.016 M 245.61 336.83 L 253.146 337.728 M 245.157 335.472 L 252.062 336.399 M 244.698 334.093 L 250.944 335.028 M 244.231 332.694 L 249.787 333.61 M 243.757 331.272 L 248.591 332.144 M 243.276 329.827 L 247.352 330.625 M 242.786 328.357 L 246.068 329.051 M 242.287 326.862 L 244.735 327.417 M 241.779 325.338 L 243.35 325.72 M 241.262 323.786 L 241.91 323.954 M 240.735 322.204 L 240.409 322.115 M 240.197 320.59 L 238.844 320.196 M 239.647 318.942 L 237.21 318.193 M 239.086 317.258 L 235.501 316.098 M 238.512 315.537 L 233.711 313.903 M 237.925 313.776 L 231.833 311.601 M 237.325 311.974 L 229.859 309.182 M 236.709 310.127 L 227.782 306.636 M 236.078 308.234 L 225.592 303.951 M 235.431 306.292 L 223.278 301.115 M 234.766 304.297 L 220.829 298.113 M 234.082 302.247 L 218.23 294.928 M 233.38 300.139 L 215.468 291.541 M 232.656 297.969 L 212.523 287.931 M 231.911 295.733 L 209.377 284.075 M 231.143 293.428 L 206.005 279.942 M 230.349 291.048 L 202.383 275.501 M 229.53 288.589 L 198.477 270.714 M 228.682 286.046 L 194.253 265.536 M 227.805 283.414 L 189.667 259.914 M 226.895 280.685 L 184.668 253.786 M 225.951 277.854 L 179.195 247.078 M 224.971 274.913 L 173.175 239.699 M 223.952 271.855 L 166.519 231.539 M 222.89 268.671 L 159.115 222.464 M 221.784 265.351 L 150.828 212.305 M 220.628 261.885 L 141.484 200.852 M 219.42 258.261 L 130.863 187.832 M 218.156 254.467 L 118.676 172.893 M 216.83 250.489 L 104.545 155.571 M 215.437 246.31 L 105.263 150.316 M 213.971 241.913 L 112.444 150.747 M 212.426 237.279 L 119.36 151.162 M 210.795 232.386 L 126.029 151.562 M 209.07 227.209 L 132.465 151.948 M 207.24 221.719 L 138.684 152.321 M 205.295 215.886 L 144.699 152.682 M 203.224 209.672 L 150.523 153.031 M 201.012 203.037 L 156.167 153.37 M 202.208 200 L 161.641 153.698 M 206.044 200 L 166.957 154.017 M 209.783 200 L 172.121 154.327 M 213.432 200 L 177.144 154.629 M 216.994 200 L 182.034 154.922 M 220.474 200 L 186.796 155.208 M 223.878 200 L 191.439 155.486 M 227.207 200 L 195.969 155.758 M 230.467 200 L 200.392 156.024 M 233.661 200 L 204.713 156.283 M 236.793 200 L 208.939 156.536 M 239.865 200 L 213.073 156.784 M 242.881 200 L 217.12 157.027 M 245.842 200 L 221.086 157.265 M 248.754 200 L 224.974 157.498 M 251.616 200 L 228.788 157.727 M 254.433 200 L 232.532 157.952 M 257.207 200 L 236.209 158.173 M 259.939 200 L 239.824 158.389 M 262.631 200 L 243.378 158.603 M 265.287 200 L 246.875 158.813 M 267.907 200 L 250.318 159.019 M 270.494 200 L 253.71 159.223 M 273.05 200 L 257.053 159.423 M 275.575 200 L 260.35 159.621 M 278.072 200 L 263.603 159.816 M 280.542 200 L 266.815 160.009 M 282.987 200 L 269.987 160.199 M 285.408 200 L 273.122 160.387 M 287.807 200 L 276.222 160.573 M 290.185 200 L 279.289 160.757 M 292.543 200 L 282.324 160.939 M 294.883 200 L 285.33 161.12 M 297.206 200 L 288.308 161.299 M 299.512 200 L 291.26 161.476 M 301.804 200 L 294.188 161.651 M 304.083 200 L 297.093 161.826 M 306.349 200 L 299.976 161.999 M 308.604 200 L 302.84 162.17 M 310.848 200 L 305.685 162.341 M 313.083 200 L 308.514 162.511 M 315.31 200 L 311.327 162.68 M 317.53 200 L 314.126 162.848 M 319.744 200 L 316.912 163.015 M 321.953 200 L 319.687 163.181 M 324.158 200 L 322.452 163.347 M 326.36 200 L 325.208 163.512 M 328.559 200 L 327.956 163.677 M 330.758 200 L 330.699 163.842 M 332.956 200 L 333.436 164.006 M 335.156 200 L 336.169 164.17 M 337.357 200 L 338.899 164.334 M 339.561 200 L 341.629 164.498 M 341.769 200 L 344.358 164.661 M 343.982 200 L 347.088 164.825 M 346.2 200 L 349.821 164.989 M 348.426 200 L 352.557 165.153 M 350.659 200 L 355.297 165.318 M 352.901 200 L 358.044 165.483 M 355.154 200 L 360.798 165.648 M 357.417 200 L 363.561 165.814 M 359.693 200 L 366.333 165.98 M 361.982 200 L 369.117 166.147 M 364.285 200 L 371.913 166.315 M 366.604 200 L 374.722 166.483 M 368.94 200 L 377.547 166.653 M 371.294 200 L 380.388 166.823 M 373.668 200 L 383.248 166.995 M 376.062 200 L 386.126 167.168 M 378.478 200 L 389.026 167.342 M 380.918 200 L 391.948 167.517 M 383.382 200 L 394.894 167.694 M 385.873 200 L 397.866 167.872 M 388.392 200 L 400.865 168.052 M 390.941 200 L 403.894 168.234 M 393.52 200 L 406.953 168.417 M 396.133 200 L 410.045 168.603 M 398.781 200 L 413.171 168.79 M 401.465 200 L 416.335 168.98 M 404.188 200 L 419.537 169.172 M 406.953 200 L 422.78 169.367 M 409.76 200 L 426.067 169.564 M 412.612 200 L 429.399 169.764 M 415.512 200 L 432.779 169.967 M 418.463 200 L 436.21 170.173 M 421.466 200 L 439.694 170.382 M 424.526 200 L 443.235 170.594 M 427.644 200 L 446.835 170.81 M 430.824 200 L 450.497 171.03 M 434.069 200 L 454.225 171.253 M 437.383 200 L 458.022 171.481 M 440.77 200 L 461.892 171.714 M 444.233 200 L 465.839 171.95 M 447.777 200 L 469.867 172.192 M 451.406 200 L 473.981 172.439 M 455.125 200 L 478.184 172.691 M 458.939 200 L 482.483 172.949 M 462.854 200 L 486.881 173.213 M 466.875 200 L 491.385 173.483 M 471.009 200 L 496.001 173.76 M 475.263 200 L 500.735 174.044 M 479.643 200 L 505.594 174.336 M 484.158 200 L 510.585 174.635 M 488.815 200 L 515.716 174.943 M 493.625 200 L 520.995 175.26 M 498.596 200 L 526.431 175.586 M 495.096 207.357 L 532.034 175.922 M 488.901 216.649 L 537.815 176.269 M 483.292 225.062 L 543.784 176.627 M 478.187 232.719 L 549.954 176.997 M 473.52 239.721 L 556.338 177.38 M 469.234 246.15 L 562.951 177.777 M 465.283 252.076 L 569.807 178.188 M 461.627 257.56 L 576.924 178.615 M 458.234 262.65 L 584.321 179.059 M 455.074 267.39 L 592.018 179.521 M 452.123 271.816 L 599.98 180.037 M 449.359 275.961 L 595.534 188.227 M 446.765 279.852 L 591.308 196.012 M 444.324 283.513 L 587.284 203.425 M 442.022 286.966 L 583.446 210.494 M 439.847 290.23 L 579.781 217.246 M 437.787 293.32 L 576.275 223.705 M 435.832 296.252 L 572.916 229.891 M 433.974 299.039 L 569.695 235.826 M 432.205 301.692 L 566.601 241.525 M 430.519 304.222 L 563.626 247.006 M 428.908 306.638 L 560.761 252.282 M 427.367 308.949 L 558 257.368 M 425.892 311.162 L 555.336 262.275 M 424.476 313.285 L 552.763 267.015 M 423.117 315.324 L 550.275 271.599 M 421.81 317.284 L 547.866 276.036 M 420.552 319.172 L 545.533 280.334 M 419.34 320.991 L 543.27 284.502 M 418.17 322.746 L 541.074 288.548 M 417.04 324.441 L 538.94 292.479 M 415.947 326.08 L 536.866 296.3 M 414.889 327.666 L 534.847 300.019 M 413.865 329.203 L 532.881 303.641 M 412.871 330.693 L 530.964 307.171 M 411.907 332.139 L 529.095 310.615 M 410.97 333.544 L 527.27 313.976 M 410.06 334.91 L 525.488 317.259 M 409.174 336.24 L 523.745 320.469 M 408.311 337.534 L 522.041 323.609 M 407.469 338.796 L 520.372 326.683 M 406.649 340.026 L 518.738 329.694 M 405.848 341.228 L 517.136 332.645 M 405.066 342.401 L 515.564 335.54 M 404.301 343.548 L 514.022 338.381 M 403.553 344.67 L 512.507 341.171 M 402.821 345.768 L 511.019 343.912 M 402.104 346.844 L 509.556 346.608" stroke="black" stroke-width="1" fill="none"></path></svg>
