<svg version="1.1" xmlns:xlink="http://www.w3.org/1999/xlink" xmlns="http://www.w3.org/2000/svg"><polyline points="20,200 700,200 700,460 20,460 20,200" stroke="black" stroke-width="1" fill="none"></polyline><path d="M 40 300 L 100 240 L 160 380 L 280 400" stroke="black" stroke-width="1" fill="none"></path><path d="M 240 300 M 237.211 296.053 M 237.211 296.053 L 239.143 295.535 M 241.075 295.017 L 243.006 294.499 M 244.938 293.982 L 246.87 293.464 M 248.802 292.946 L 250.734 292.428 M 252.665 291.91 M 255.004 281.618 M 255.004 281.618 L 256.851 280.851 M 258.698 280.083 M 274.344 270.522 M 279.088 263.619 M 279.088 263.619 L 279.754 261.733 M 280.42 259.847 L 281.085 257.961 M 281.751 256.075 L 282.416 254.189 M 290.934 239.342 M 300.067 239.197 M 300.067 239.197 L 300.565 241.134 M 301.063 243.071 L 301.561 245.008 M 302.059 246.945 L 302.557 248.882 M 303.056 250.819 L 303.554 252.756 M 306.865 256.289 M 306.865 256.289 L 307.421 258.21 M 307.977 260.131 L 308.533 262.052 M 309.089 263.973 L 309.645 265.895 M 310.201 267.816 M 313.473 276.167 M 313.473 276.167 L 313.658 278.158 M 313.844 280.149 L 314.03 282.141 M 314.215 284.132 L 314.401 286.123 M 314.587 288.115 L 314.772 290.106 M 316.916 295.833 M 316.916 295.833 L 318.695 296.747 M 320.474 297.661 L 322.253 298.574 M 324.033 299.488 L 325.812 300.402 M 327.591 301.315 L 329.37 302.229 M 331.149 303.142 M 330.441 311.851 M 330.441 311.851 L 331.268 313.672 M 332.094 315.493 M 340.875 332.617 M 351.787 347.547 M 351.335 363.608 M 351.335 363.608 L 352.133 365.442 M 352.931 367.276 L 353.729 369.11 M 354.527 370.944 L 355.325 372.778 M 356.123 374.612 L 356.921 376.446 M 357.719 378.279 M 356.114 377.67 M 356.114 377.67 L 358.096 377.404 M 360.079 377.138 L 362.061 376.872 M 364.043 376.607 L 366.025 376.341 M 368.008 376.075 L 369.99 375.809 M 371.972 375.543 M 383.756 380.993 M 383.756 380.993 L 385.481 382.006 M 387.206 383.018 L 388.931 384.031 M 402.239 385.457 M 402.239 385.457 L 404.021 386.365 M 405.803 387.274 M 422.64 387.632 M 422.64 387.632 L 424.602 387.246 M 426.565 386.859 L 428.527 386.473 M 430.489 386.087 M 438.683 393.052 M 438.683 393.052 L 440.441 394.006 M 442.199 394.96 L 443.957 395.913 M 445.715 396.867 L 447.473 397.821 M 449.231 398.775 M 464.085 397.535 M 464.085 397.535 L 466.084 397.579 M 468.084 397.623 L 470.083 397.667 M 472.083 397.711 L 474.082 397.755 M 478.15 399.521" stroke="black" stroke-width="1" fill="none"></path><path d="M 240.075 299.925 M 246.39 296.57 M 246.39 296.57 L 246.415 294.57 M 246.441 292.57 L 246.466 290.57 M 246.491 288.57 L 246.517 286.571 M 246.542 284.571 M 258.63 285.706 M 263.753 270.446 M 263.753 270.446 L 265.044 268.919 M 266.335 267.391 L 267.626 265.864 M 268.917 264.337 L 270.209 262.809 M 278.11 263.453 M 278.11 263.453 L 279.585 262.102 M 281.06 260.751 L 282.535 259.401 M 284.01 258.05 L 285.485 256.7 M 286.96 255.349 L 288.435 253.998 M 295.778 239.795 M 303.051 248.236 M 303.051 248.236 M 301.737 251.754 M 301.737 251.754 L 302.973 253.326 M 304.208 254.899 L 305.444 256.472 M 306.679 258.044 L 307.915 259.617 M 309.15 261.19 L 310.386 262.763 M 311.621 264.335 L 312.857 265.908 M 314.093 267.481 L 315.328 269.053 M 316.564 270.626 M 315.638 276.794 M 315.638 276.794 L 317.606 276.435 M 320.917 296.556 M 320.917 296.556 L 321.871 298.314 M 322.825 300.072 M 331.863 316.058 M 331.863 316.058 L 333.769 316.662 M 335.675 317.267 L 337.582 317.872 M 339.488 318.477 L 341.395 319.082 M 340.051 331.605 M 340.051 331.605 L 340.518 333.549 M 340.984 335.494 L 341.451 337.439 M 350.333 351.963 M 354.075 366.359 M 355.538 386.045 M 355.538 386.045 L 357.456 385.478 M 359.374 384.912 L 361.292 384.345 M 363.21 383.778 L 365.128 383.211 M 367.046 382.644 L 368.964 382.077 M 381.541 387.943 M 381.541 387.943 L 383.364 387.12 M 385.186 386.296 L 387.009 385.473 M 388.831 384.649 L 390.654 383.826 M 392.477 383.002 M 399.106 380.36 M 399.106 380.36 L 399.781 382.243 M 400.457 384.125 L 401.132 386.008 M 401.807 387.89 L 402.483 389.773 M 403.158 391.656 L 403.833 393.538 M 425.755 388.504 M 431.329 386.651 M 431.329 386.651 L 433.031 387.702 M 434.732 388.754 L 436.433 389.805 M 438.135 390.856 L 439.836 391.908 M 441.537 392.959 L 443.239 394.01 M 444.94 395.062 M 459.269 398.868 M 459.269 398.868 L 461.269 398.889 M 463.269 398.91 L 465.269 398.932 M 476.731 398.339" stroke="black" stroke-width="1" fill="none"></path><path d="M 230.221 301.146 M 238.268 301.85 M 238.268 301.85 L 239.491 300.267 M 240.713 298.684 L 241.935 297.101 M 243.158 295.518 L 244.38 293.935 M 245.602 292.352 L 246.825 290.769 M 255.456 284.366 M 255.456 284.366 L 256.283 282.545 M 257.111 280.725 L 257.939 278.904 M 258.766 277.083 L 259.594 275.263 M 261.701 268.079 M 261.701 268.079 L 263.262 266.829 M 264.824 265.58 L 266.385 264.33 M 267.947 263.08 L 269.508 261.831 M 271.07 260.581 L 272.631 259.331 M 274.193 258.082 L 275.754 256.832 M 292.376 256.992 M 296.325 244.004 M 295.643 247.537 M 295.643 247.537 L 296.423 245.695 M 297.203 243.853 L 297.983 242.012 M 309.509 257.868 M 313.144 285.734 M 313.144 285.734 L 314.708 284.488 M 316.272 283.241 L 317.836 281.995 M 321.495 297.243 M 321.495 297.243 L 323.127 298.398 M 324.76 299.553 L 326.393 300.708 M 328.026 301.863 L 329.659 303.018 M 328.073 314.405 M 328.073 314.405 L 329.594 315.704 M 331.115 317.003 L 332.636 318.302 M 334.156 319.601 L 335.677 320.899 M 337.198 322.198 L 338.719 323.497 M 340.24 324.796 L 341.761 326.095 M 343.282 327.393 M 343.067 322.855 M 343.067 322.855 L 343.18 324.852 M 343.294 326.849 L 343.408 328.845 M 343.521 330.842 L 343.635 332.839 M 343.749 334.836 L 343.862 336.833 M 343.976 338.829 L 344.09 340.826 M 344.203 342.823 L 344.317 344.82 M 344.431 346.816 L 344.544 348.813 M 342.912 345.286 M 342.912 345.286 L 343.514 347.193 M 344.117 349.1 L 344.72 351.007 M 345.322 352.914 L 345.925 354.821 M 346.527 356.728 M 350.95 367.379 M 350.95 367.379 L 352.864 367.96 M 354.778 368.541 L 356.692 369.122 M 360.279 385.517 M 360.279 385.517 L 362.146 384.798 M 364.012 384.079 L 365.878 383.36 M 367.744 382.641 M 380.125 378.561 M 380.125 378.561 L 381.855 379.565 M 383.585 380.57 L 385.314 381.574 M 387.044 382.578 L 388.774 383.582 M 390.503 384.586 M 401.448 389.34 M 401.448 389.34 L 403.435 389.566 M 405.422 389.792 L 407.41 390.019 M 409.397 390.245 L 411.384 390.472 M 413.371 390.698 M 419.53 389.515 M 419.53 389.515 L 421.449 390.079 M 423.368 390.643 L 425.286 391.207 M 427.205 391.771 L 429.124 392.335 M 431.043 392.899 M 442.499 395.72 M 442.499 395.72 L 444.49 395.52 M 446.48 395.32 M 453.425 397.525 M 453.425 397.525 L 455.413 397.748 M 457.4 397.971 L 459.388 398.195 M 461.375 398.418 L 463.363 398.641 M 465.35 398.865 M 485.488 393.452" stroke="black" stroke-width="1" fill="none"></path><path d="M 240.886 304.093 M 241.466 295.858 M 241.466 295.858 L 242.352 294.065 M 243.238 292.272 M 257.284 283.316 M 257.284 283.316 L 258.947 284.427 M 260.61 285.537 L 262.273 286.648 M 269.325 261.94 M 269.325 261.94 M 285.78 258.267 M 285.78 258.267 L 286.648 256.465 M 287.515 254.663 L 288.382 252.861 M 289.249 251.058 M 289.223 247.997 M 301.278 240.716 M 301.278 240.716 L 302.183 242.499 M 303.088 244.282 L 303.993 246.066 M 304.898 247.849 M 313.166 258.353 M 314.53 280.012 M 314.53 280.012 L 315.743 281.602 M 316.956 283.192 L 318.168 284.782 M 319.381 286.372 L 320.594 287.963 M 320.578 292.555 M 320.578 292.555 L 321.592 294.279 M 322.606 296.003 L 323.62 297.727 M 324.634 299.45 L 325.648 301.174 M 326.662 302.898 M 331.165 314.883 M 331.165 314.883 L 332.93 315.825 M 334.694 316.768 L 336.458 317.71 M 338.222 318.652 L 339.987 319.594 M 336.226 326.891 M 336.226 326.891 L 336.536 328.867 M 336.846 330.843 L 337.156 332.818 M 337.466 334.794 L 337.776 336.77 M 356.053 345.898 M 356.259 370.051 M 356.259 370.051 L 357.83 371.29 M 359.4 372.528 L 360.97 373.767 M 362.541 375.005 L 364.111 376.244 M 356.181 371.684 M 356.181 371.684 L 357.073 373.474 M 357.964 375.264 L 358.856 377.055 M 359.747 378.845 L 360.639 380.635 M 361.53 382.426 L 362.421 384.216 M 363.313 386.006 M 385.094 381.593 M 400.63 380.046 M 400.63 380.046 L 402.029 381.475 M 403.428 382.905 L 404.827 384.334 M 406.226 385.763 L 407.625 387.193 M 422.56 381.008 M 422.56 381.008 L 423.672 382.671 M 424.784 384.333 L 425.896 385.996 M 427.008 387.658 L 428.119 389.321 M 429.231 390.983 M 448.338 392.88 M 458.288 389.865 M 458.288 389.865 L 459.848 391.117 M 461.408 392.369 L 462.968 393.621 M 464.527 394.872 L 466.087 396.124 M 467.647 397.376 M 476.264 404.913" stroke="black" stroke-width="1" fill="none"></path><path d="M 241.61 307.981 M 243.36 295.981 M 243.36 295.981 L 244.743 294.536 M 246.126 293.092 L 247.51 291.648 M 251.946 289.957 M 251.946 289.957 L 253.333 288.517 M 254.721 287.076 L 256.108 285.636 M 257.495 284.195 L 258.883 282.755 M 260.27 281.314 L 261.658 279.874 M 261.256 271.77 M 261.256 271.77 L 262.563 270.256 M 263.87 268.742 L 265.177 267.228 M 266.484 265.715 L 267.791 264.201 M 269.098 262.687 L 270.405 261.173 M 271.712 259.659 L 273.019 258.145 M 278.819 253.726 M 278.819 253.726 L 280.462 252.585 M 282.105 251.444 L 283.748 250.304 M 285.391 249.163 L 287.034 248.022 M 288.677 246.882 L 290.319 245.741 M 298.184 233.724 M 294.198 237.109 M 294.198 237.109 L 294.881 238.989 M 295.564 240.869 L 296.246 242.749 M 296.929 244.629 L 297.612 246.508 M 298.294 248.388 L 298.977 250.268 M 299.66 252.148 M 304.484 259.153 M 304.484 259.153 L 306.387 259.769 M 308.289 260.386 L 310.192 261.003 M 315.972 282.573 M 322.703 295.768 M 322.703 295.768 L 322.975 297.75 M 323.246 299.731 L 323.518 301.713 M 323.789 303.694 L 324.061 305.676 M 341.041 316.424 M 344.121 334.057 M 344.121 334.057 L 344.279 336.051 M 344.437 338.044 L 344.595 340.038 M 344.753 342.032 L 344.911 344.026 M 350.508 353.903 M 345.887 371.343 M 345.887 371.343 L 347.521 372.496 M 349.155 373.649 L 350.789 374.802 M 352.423 375.956 L 354.057 377.109 M 355.691 378.262 L 357.325 379.415 M 358.959 380.568 M 364.875 387.504 M 364.875 387.504 L 366.875 387.531 M 368.875 387.557 L 370.875 387.583 M 372.874 387.609 L 374.874 387.636 M 380.394 381.981 M 380.394 381.981 L 381.871 383.329 M 400.108 392.876 M 400.108 392.876 L 401.482 391.423 M 402.856 389.97 L 404.23 388.517 M 405.605 387.063 M 419.433 390.662 M 419.433 390.662 L 421.431 390.576 M 423.429 390.489 L 425.427 390.402 M 427.425 390.315 M 442.808 396.916 M 442.808 396.916 L 444.625 396.08 M 460.114 405.282 M 460.114 405.282 L 461.796 404.2 M 463.478 403.118 L 465.16 402.036 M 466.842 400.954 L 468.524 399.872 M 470.206 398.79 M 478.109 399.508" stroke="black" stroke-width="1" fill="none"></path><path d="M 440.755 300.556 M 435.555 292.433 L 443.577 301.801 M 452.296 277.933 L 457.981 280.981 M 463.3 268.692 L 479.725 264.681 M 477.552 252.721 L 490.562 254.231 M 499.584 243.538 M 496.48 244.379 L 500.076 254.267 M 504.855 262.629 L 512.822 268.853 M 511.631 284.591 L 519.627 285.719 M 524.003 293.319 L 529.286 301.937 M 531.59 313.503 L 536.644 315.224 M 543.357 327.755 L 540.048 343.234 M 550.162 348.022 L 550.137 357.613 M 555.918 365.918 L 554.186 379.518 M 556.275 383.998 L 570.593 381.999 M 586.802 384.592 L 591.367 378.542 M 600.271 386.219 L 605.476 389.837 M 614.374 395.103 L 629.076 391.372 M 640.497 392.398 L 650.803 389.213 M 666.031 389.998 L 668.128 399.822 M 677.799 403.059" stroke="black" stroke-width="1" fill="none"></path><path d="M 439.75 300.088 M 438.742 300.061 L 437.688 291.041 M 449.79 287.765 L 461.349 278.712 M 464.776 268.788 L 475.942 265.1 M 482.625 258.103 L 488.712 250.745 M 496.444 242.769 M 497.271 239.223 L 504.014 246.796 M 505.443 255.989 L 504.898 261.55 M 520.618 281.822 L 518.771 286.664 M 519.03 298.404 L 526.574 305.938 M 526.289 307.535 L 531.592 326.008 M 544.324 327.781 L 536.816 341.611 M 542.339 341.681 L 550.9 359.578 M 555.595 376.73 L 560.907 371.502 M 561.28 377.428 L 571.363 379.195 M 577.393 384.807 L 591.806 390.012 M 605.329 390.202 L 610.512 388.069 M 617.623 392.769 L 636.537 396.64 M 640.511 393.123 L 650.992 397.127 M 659.226 390.888 L 674.282 390.538 M 685.115 401.001" stroke="black" stroke-width="1" fill="none"></path><path d="M 438.911 299.876 M 441.536 294.321 L 444.345 300.687 M 454.297 289.135 L 465.002 275.808 M 461.62 265.627 L 466.693 260.82 M 487.661 261.281 L 483.718 256.307 M 500.755 243.083 M 501.225 236.983 L 495.213 249.066 M 511.826 264.144 L 509.668 267.2 M 514.178 269.551 L 526.67 279.275 M 524.278 287.126 L 527.863 305.171 M 531.644 313.767 L 533.056 324.659 M 530.386 334.082 L 544.007 341.399 M 554.922 343.901 L 547.272 361.736 M 551.05 363.284 L 556.018 374.21 M 563.639 374.964 L 570.012 380.79 M 588.11 380.387 L 592.59 389.364 M 599.066 385.199 L 615.853 388.716 M 620.606 389.887 L 634.231 397.087 M 639.78 393.262 L 648.608 395.62 M 665.633 390.861 L 670.327 388.43 M 678.523 389.954" stroke="black" stroke-width="1" fill="none"></path><path d="M 441.81 298.584 M 434.438 301.855 L 441.167 288.804 M 453.851 286.433 L 458.395 275.583 M 469.334 274.372 L 477.061 264.871 M 482.385 256.9 L 488.823 250.708 M 497.728 235.471 M 498.061 239.615 L 504.067 249.015 M 506.065 259.606 L 511.717 259.956 M 522.606 280.275 L 521.062 282.971 M 525.173 291.69 L 524.939 295.742 M 535.788 304.914 L 532.925 322.72 M 542.319 325.658 L 545.512 340.042 M 539.942 348.946 L 544.434 364.216 M 556.561 361.797 L 555.554 378.994 M 568.475 377.687 L 567.276 381.581 M 572.468 379.234 L 587.59 376.499 M 599.912 386.707 L 602.141 393.308 M 610.572 389.244 L 630.123 390.69 M 640.72 389.791 L 641.581 399.672 M 654.419 399.861 L 662.189 399.411 M 671.445 404.08" stroke="black" stroke-width="1" fill="none"></path><path d="M 440.552 297.48 M 437.648 303.798 L 438.773 292.419 M 453.724 285.392 L 451.808 275.866 M 462.989 276.721 L 475.566 266.61 M 482.783 257.306 L 490.804 250.714 M 493.277 243.715 M 498.072 239.246 L 506.081 251.522 M 508.401 257.221 L 505.34 268.087 M 521.761 273.027 L 510.666 284.25 M 525.531 304.085 L 529.45 302.654 M 525.122 319.418 L 540.164 321.457 M 535.245 329 L 540.67 344.88 M 553.877 349.092 L 555.058 360.899 M 546.574 370.372 L 551.475 376.716 M 561.706 371.543 L 576.479 377.075 M 581.524 382.272 L 591.043 381.373 M 598.8 393.706 L 607.148 385.017 M 618.708 389.735 L 627.089 385.966 M 632.931 396.861 L 646.706 393.764 M 661.576 394.188 L 669.306 403.303 M 684.968 399.629" stroke="black" stroke-width="1" fill="none"></path></svg>
