<svg version="1.1" xmlns:xlink="http://www.w3.org/1999/xlink" xmlns="http://www.w3.org/2000/svg"><polyline points="30,30 570,30 570,570 30,570 30,30" stroke="black" stroke-width="1" fill="none"></polyline><path d="M 255.497 219.503 L 307.236 234.408 M 255.304 222.271 L 304.08 239.005 M 254.962 225.057 L 300.726 243.362 M 253.963 227.619 L 297.191 247.47 M 252.783 230.106 L 293.49 251.324 M 251.48 232.533 L 290.115 255.195 M 250.057 234.892 L 287.041 259.149 M 248.45 237.131 L 283.789 262.924 M 246.251 238.893 L 280.368 266.51 M 243.988 240.517 L 276.789 269.901 M 242.189 242.517 L 273.063 273.089 M 240.37 244.513 L 269.201 276.069 M 238.447 246.422 L 265.215 278.835 M 236.434 248.252 L 261.117 281.382 M 234.408 250.11 L 257.297 284.272 M 232.277 251.874 L 254.047 288.166 M 230.046 253.538 L 250.54 291.931 M 227.718 255.095 L 246.779 295.551 M 225.3 256.542 L 242.772 299.009 M 222.796 257.872 L 238.524 302.29 M 220.09 258.67 L 234.016 305.285 M 217.246 258.903 L 228.399 304.418 M 214.467 259.233 L 222.945 303.246 M 211.801 260.223 L 217.671 301.784 M 209.062 261.082 L 212.591 300.048 M 206.258 261.805 L 207.823 300.633 M 203.393 262.388 L 203.016 301.293 M 200.476 262.825 L 198.152 301.711 M 197.514 263.114 L 193.244 301.883 M 194.604 262.697 L 188.305 301.805 M 191.769 261.904 L 183.347 301.476 M 188.989 260.973 L 178.427 300.727 M 186.272 259.908 L 173.664 299.308 M 183.624 258.713 L 168.98 297.653 M 181.05 257.392 L 164.386 295.767 M 178.558 255.95 L 159.892 293.653 M 176.178 254.344 L 155.486 291.364 M 173.948 252.545 L 150.894 289.341 M 171.828 250.647 L 146.385 287.075 M 169.823 248.658 L 141.97 284.568 M 167.935 246.584 L 137.663 281.825 M 166.168 244.433 L 133.476 278.85 M 164.526 242.21 L 129.422 275.648 M 162.99 239.941 L 125.513 272.226 M 161.575 237.618 L 121.761 268.589 M 160.289 235.243 L 119.779 263.623 M 159.134 232.822 L 118.256 258.513 M 158.111 230.362 L 116.088 253.93 M 156.49 228.235 L 110.757 250.956 M 154.386 226.263 L 105.512 247.569 M 152.362 224.138 L 101.853 243.213 M 150.43 221.864 L 99.1888 238.34 M 149.181 219.289 L 96.7583 233.297 M 148.361 216.567 L 94.5724 228.094 M 147.676 213.8 L 92.6408 222.744 M 147.13 210.993 L 91.4962 217.2 M 146.724 208.155 L 90.6872 211.584 M 146.46 205.293 L 90.1592 205.918 M 146.34 202.412 L 89.9153 200.216 M 146.364 199.521 L 89.9577 194.494 M 146.209 196.582 L 90.2879 188.764 M 146.112 193.596 L 90.9067 183.043 M 146.17 190.581 L 91.8141 177.343 M 146.386 187.545 L 93.0095 171.681 M 146.783 184.502 L 95.1278 166.294 M 147.424 181.491 L 98.054 161.261 M 148.224 178.493 L 101.209 156.423 M 149.184 175.519 L 104.581 151.791 M 150.303 172.575 L 108.157 147.375 M 151.58 169.671 L 111.924 143.183 M 153.014 166.816 L 115.071 138.63 M 154.606 164.018 L 117.655 133.589 M 156.355 161.29 L 120.522 128.643 M 158.255 158.635 L 123.67 123.808 M 160.301 156.063 L 127.095 119.099 M 162.492 153.582 L 132.097 116.141 M 164.822 151.199 L 137.287 113.585 M 167.531 149.293 L 142.552 111.324 M 170.456 147.733 L 147.874 109.359 M 173.446 146.327 L 153.238 107.691 M 176.492 145.077 L 158.627 106.318 M 179.587 143.985 L 163.879 104.873 M 182.722 143.052 L 169.143 103.655 M 185.889 142.281 L 174.429 102.713 M 189.09 141.718 L 179.722 102.045 M 192.306 141.335 L 185.007 101.649 M 195.523 141.115 L 190.27 101.524 M 198.732 141.058 L 195.499 101.666 M 201.927 141.163 L 200.641 100.869 M 205.097 141.427 L 205.851 99.7872 M 208.255 141.582 L 211.161 98.9693 M 211.421 141.712 L 216.557 98.4227 M 214.616 141.818 L 222.026 98.154 M 217.881 141.809 L 227.552 98.1689 M 221.173 141.971 L 233.122 98.4727 M 224.483 142.306 L 238.72 99.0695 M 227.802 142.818 L 244.33 99.9629 M 230.816 144.191 L 249.719 101.645 M 233.581 146.051 L 254.811 104.06 M 236.228 148.035 L 259.775 106.727 M 238.751 150.137 L 264.6 109.638 M 241.195 152.277 L 269.274 112.787 M 243.987 153.925 L 273.784 116.166 M 246.706 155.721 L 278.12 119.766 M 249.346 157.663 L 282.271 123.578 M 251.897 159.747 L 286.231 127.588 M 254.353 161.969 L 290.135 131.666 M 256.706 164.326 L 293.836 135.941 M 258.949 166.811 L 297.105 140.556 M 261.075 169.42 L 299.68 145.607 M 263.076 172.147 L 301.985 150.755 M 264.301 175.302 L 304.016 155.985 M 265.022 178.64 L 305.728 161.3 M 265.563 181.976 L 307.029 166.713 M 265.924 185.301 L 308.046 172.147 M 266.109 188.604 L 308.778 177.586 M 266.12 191.878 L 309.23 183.018 M 266.484 195.031 L 309.402 188.426 M 266.781 198.179 L 309.298 193.797 M 266.994 201.329 L 308.762 199.126 M 267.493 204.483 L 307.4 204.375 M 267.833 207.678 L 305.78 209.474 M 268.012 210.907 L 304.164 214.436 M 267.935 214.148 L 302.321 219.25 M 267.107 217.279 L 300.251 223.905 M 266.127 220.351 L 297.965 228.389 M 264.998 223.358 L 295.473 232.695 M 263.725 226.29 L 292.385 236.665 M 262.541 229.239 L 288.873 240.288 M 261.723 232.368 L 285.224 243.643 M 260.737 235.477 L 281.456 246.723 M 259.583 238.555 L 277.588 249.527 M 258.262 241.595 L 274.71 252.782 M 256.776 244.586 L 272.728 256.646 M 255.125 247.521 L 270.536 260.43 M 253.102 250.195 L 268.136 264.125 M 250.826 252.657 L 265.532 267.717 M 248.427 255.006 L 262.728 271.197 M 245.91 257.235 L 259.727 274.55 M 243.281 259.338 L 256.513 277.736 M 240.42 261.113 L 253.12 280.775 M 237.231 262.307 L 249.553 283.655 M 234.014 263.326 L 245.82 286.368 M 230.78 264.169 L 241.93 288.904 M 227.808 265.526 L 237.89 291.255 M 224.779 266.772 L 233.71 293.41 M 221.752 268.106 L 229.398 295.363 M 218.785 269.911 L 224.986 297.195 M 215.681 271.575 L 220.459 298.839 M 212.447 273.09 L 215.82 300.26 M 209.091 274.447 L 211.079 301.45 M 205.615 275.422 L 206.249 302.404 M 202.055 276.218 L 201.342 303.116 M 198.431 276.689 L 196.359 303.72 M 194.774 276.823 L 191.276 304.325 M 191.09 276.769 L 186.114 304.666 M 187.389 276.527 L 180.887 304.738 M 183.68 276.094 L 175.609 304.534 M 179.973 275.468 L 170.506 303.425 M 176.318 274.55 L 166.19 300.165 M 172.726 273.375 L 162.116 296.725 M 169.182 272.016 L 158.289 293.119 M 166.034 269.893 L 154.716 289.365 M 163.073 267.528 L 151.402 285.478 M 160.253 265.031 L 148.229 281.644 M 157.179 262.91 L 144.013 279.308 M 153.75 261.148 L 139.892 276.742 M 150.382 259.186 L 135.878 273.95 M 147.086 257.028 L 131.985 270.935 M 143.873 254.675 L 128.224 267.703 M 140.755 252.13 L 124.608 264.26 M 138.448 248.921 L 121.124 260.629 M 136.303 245.601 L 117.272 257.12 M 134.326 242.177 L 113.567 253.364 M 132.522 238.657 L 110.023 249.367 M 130.897 235.051 L 106.657 245.137 M 129.453 231.368 L 102.972 240.863 M 128.195 227.616 L 99.4226 236.336 M 127.125 223.805 L 96.0781 231.544 M 126.289 219.936 L 94.4273 226.206 M 125.679 216.027 L 93.374 220.721 M 125.265 212.096 L 92.5955 215.185 M 125.048 208.151 L 92.0942 209.611 M 125.029 204.203 L 92.4055 204.017 M 125.207 200.263 L 93.5154 198.495 M 125.581 196.338 L 94.896 193.083 M 126.151 192.441 L 96.5394 187.792 M 126.914 188.579 L 98.4366 182.637 M 127.869 184.763 L 100.728 177.668 M 129.233 181.072 L 104.14 173.153 M 130.82 177.484 L 107.741 168.91 M 131.711 173.623 L 111.511 164.947 M 132.514 169.641 L 116.302 161.695 M 133.538 165.662 L 122.725 159.675 M 134.782 161.7 L 127.915 157.435 M 136.248 157.765 L 129.937 153.394 M 137.549 153.572 L 132.174 149.438 M 138.945 149.261 L 134.622 145.578 M 140.61 144.965 L 137.156 141.711 M 143.747 141.951 L 139.576 137.608 M 147.516 139.665 L 142.241 133.592 M 151.364 137.601 L 145.149 129.676 M 155.313 135.81 L 148.295 125.877 M 159.308 134.244 L 151.676 122.206 M 163.337 132.903 L 155.286 118.679 M 167.388 131.787 L 159.12 115.31 M 170.986 129.847 L 163.846 113.646 M 174.677 128.061 L 168.806 112.699 M 178.437 126.371 L 173.758 112.018 M 182.29 124.858 L 178.691 111.599 M 186.231 123.535 L 183.589 111.44 M 190.25 122.408 L 188.439 111.535 M 194.338 121.481 L 193.228 111.879 M 198.484 120.758 L 197.969 112.843 M 202.684 120.538 L 202.593 114.537 M 206.891 120.527 L 207.033 116.458 M 211.096 120.728 L 211.278 118.594 M 215.289 121.138 L 215.317 120.929 M 219.458 121.758 L 219.65 120.734 M 223.587 122.618 L 224.463 118.957 M 227.65 123.742 L 229.33 118.006 M 231.651 125.068 L 233.579 119.526 M 235.578 126.591 L 237.74 121.254 M 239.422 128.307 L 241.802 123.185 M 243.174 130.213 L 245.756 125.313 M 246.687 132.532 L 249.591 127.632 M 250.063 135.024 L 253.097 130.442 M 253.296 137.672 L 256.071 133.906 M 256.38 140.469 L 258.823 137.479 M 259.309 143.406 L 261.35 141.148 M 262.076 146.475 L 263.649 144.9 M 264.675 149.666 L 265.719 148.721 M 267.487 152.655 L 267.558 152.597" stroke="black" stroke-width="1" fill="none"></path><path d="M 184.762 232.854 L 164.754 269.039 M 183.112 232.011 L 161.68 266.57 M 181.55 231.013 L 159.16 263.385 M 180.557 229.263 L 156.853 260.116 M 179.685 227.491 L 154.763 256.775 M 178.934 225.706 L 152.89 253.378 M 178.302 223.914 L 151.234 249.936 M 177.268 222.577 L 149.796 246.463 M 176.248 221.241 L 148.328 243.166 M 175.298 219.858 L 146.969 239.898 M 174.42 218.432 L 145.8 236.603 M 173.616 216.967 L 144.819 233.291 M 172.888 215.466 L 142.099 230.939 M 172.237 213.934 L 139.41 228.424 M 171.665 212.374 L 136.824 225.715 M 170.617 210.972 L 134.353 222.817 M 169.522 209.525 L 132.011 219.733 M 168.493 207.994 L 129.81 216.469 M 167.536 206.382 L 129.217 212.79 M 166.655 204.693 L 131.204 208.813 M 165.858 202.931 L 133.399 205.066 M 165.178 201.099 L 135.783 201.56 M 165.13 199.223 L 135.535 198.207 M 165.176 197.344 L 134.901 194.786 M 165.316 195.466 L 134.443 191.295 M 165.52 193.589 L 134.168 187.745 M 165.654 191.681 L 134.078 184.144 M 165.886 189.768 L 134.179 180.503 M 166.218 187.857 L 134.475 176.832 M 166.65 185.953 L 134.969 173.141 M 167.181 184.06 L 135.663 169.441 M 167.813 182.185 L 139.147 167.104 M 168.543 180.331 L 144.621 166.176 M 169.373 178.505 L 148.033 164.392 M 170.3 176.712 L 149.693 161.551 M 171.351 174.98 L 151.501 158.786 M 172.532 173.326 L 153.454 156.104 M 173.8 171.727 L 155.548 153.514 M 175.153 170.187 L 157.778 151.023 M 176.588 168.711 L 160.139 148.638 M 178.102 167.302 L 163.148 147.069 M 179.693 165.966 L 166.298 145.809 M 181.355 164.707 L 169.475 144.728 M 183.087 163.527 L 172.667 143.827 M 184.938 162.55 L 174.455 140.079 M 186.869 161.741 L 176.155 135.414 M 188.837 161.03 L 178.254 130.777 M 190.836 160.418 L 181.807 129.769 M 192.861 159.908 L 185.405 128.97 M 194.909 159.5 L 189.032 128.354 M 196.972 159.195 L 192.677 127.92 M 199.047 158.993 L 196.331 127.671 M 201.127 158.896 L 199.985 127.604 M 203.214 158.512 L 203.63 127.721 M 205.407 157.101 L 207.238 128.308 M 207.743 155.808 L 210.755 129.384 M 210.166 154.937 L 214.176 130.629 M 212.488 155.118 L 217.493 132.036 M 214.812 155.418 L 220.698 133.599 M 217.13 155.838 L 223.785 135.308 M 219.436 156.377 L 226.747 137.158 M 221.724 157.036 L 229.577 139.138 M 223.988 157.813 L 232.332 141.12 M 226.222 158.709 L 235.188 142.811 M 228.419 159.722 L 237.949 144.639 M 230.574 160.851 L 240.702 146.467 M 232.562 162.243 L 244.242 147.303 M 234.479 163.738 L 247.79 148.361 M 236.321 165.329 L 251.335 149.643 M 238.084 167.012 L 254.096 151.876 M 239.762 168.783 L 256.534 154.447 M 241.352 170.639 L 258.844 157.14 M 242.849 172.574 L 261.019 159.948 M 244.249 174.585 L 263.054 162.866 M 245.549 176.665 L 264.942 165.887 M 247.151 178.611 L 266.68 169.002 M 248.787 180.605 L 268.544 172.082 M 250.333 182.709 L 270.678 175.114 M 251.783 184.918 L 272.671 178.289 M 253.129 187.228 L 274.516 181.601 M 254.366 189.634 L 276.202 185.041 M 255.487 192.13 L 277.722 188.604 M 255.836 194.782 L 279.067 192.28 M 256.004 197.451 L 280.231 196.061 M 256.038 200.122 L 281.205 199.938 M 255.939 202.788 L 281.695 203.889 M 255.707 205.444 L 280.756 207.773 M 255.342 208.082 L 279.627 211.572 M 255.169 210.76 L 278.316 215.276 M 255.02 213.478 L 276.829 218.878 M 254.729 216.207 L 275.173 222.368 M 254.296 218.939 L 273.238 225.697 M 253.718 221.666 L 270.612 228.664 M 252.996 224.381 L 267.869 231.432 M 251.994 227.004 L 265.022 233.999 M 249.296 228.646 L 262.085 236.36 M 246.559 230.085 L 260.1 239.205 M 243.992 231.469 L 258.006 241.962 M 242.469 233.559 L 255.78 244.606 M 240.84 235.575 L 253.428 247.132 M 239.108 237.51 L 250.955 249.53 M 237.279 239.359 L 248.038 251.428 M 235.356 241.118 L 245.055 253.159 M 233.343 242.781 L 242.012 254.719 M 231.246 244.345 L 238.433 255.362 M 229.068 245.804 L 234.363 254.88 M 226.846 247.211 L 230.433 254.134 M 224.552 248.516 L 226.66 253.137 M 222.188 249.708 L 223.547 253.132 M 219.765 250.802 L 220.715 253.593 M 217.294 251.819 L 217.889 253.903 M 214.765 252.715 L 215.078 254.065 M 212.182 253.486 L 212.289 254.081 M 209.552 254.128 L 209.544 254.066 M 206.882 254.639 L 206.853 254.265 M 204.18 255.103 L 204.158 254.329 M 201.443 255.444 L 201.469 254.258 M 198.675 255.648 L 198.789 254.052 M 195.974 254.969 L 196.128 253.714 M 193.334 254.145 L 193.491 253.243 M 190.76 253.194 L 190.833 252.867 M 188.257 252.121 L 188.101 252.677 M 185.831 250.93 L 185.36 252.343 M 183.488 249.627 L 182.615 251.865 M 181.233 248.217 L 179.875 251.24 M 179.07 246.705 L 177.149 250.469 M 177.293 244.595 L 174.512 249.432 M 175.797 242.224 L 172.46 247.408 M 174.472 239.816 L 170.54 245.302 M 173.319 237.383 L 168.753 243.124 M 171.661 235.703 L 167.103 240.88 M 169.956 234.095 L 165.29 238.888 M 168.334 232.405 L 163.566 236.836 M 166.799 230.636 L 161.954 234.708 M 165.356 228.794 L 160.456 232.509 M 163.943 226.926 L 159.076 230.247 M 162.533 225.043 L 157.816 227.927 M 161.215 223.084 L 156.679 225.556 M 159.993 221.056 L 155.667 223.14 M 158.871 218.961 L 154.752 220.697 M 157.851 216.805 L 153.96 218.221 M 156.938 214.594 L 153.296 215.716 M 156.135 212.332 L 152.76 213.189 M 155.444 210.024 L 152.352 210.647 M 154.867 207.677 L 150.97 208.262 M 154.085 205.328 L 149.503 205.783" stroke="black" stroke-width="1" fill="none"></path><path d="M 186.126 251.73 L 159.006 312.79 M 183.94 251.139 L 155.467 307.473 M 181.722 250.511 L 152.343 302.063 M 179.516 249.76 L 148.691 298.066 M 177.331 248.885 L 143.935 295.865 M 175.172 247.888 L 139.261 293.405 M 173.047 246.768 L 134.683 290.687 M 170.961 245.527 L 130.217 287.716 M 168.923 244.165 L 125.876 284.495 M 166.88 242.735 L 121.673 281.03 M 164.574 241.426 L 117.623 277.328 M 162.306 239.965 L 113.976 273.229 M 160.088 238.351 L 110.633 268.864 M 158.255 236.407 L 107.502 264.319 M 157.092 234.061 L 104.592 259.605 M 156.05 231.663 L 101.913 254.732 M 155.129 229.218 L 99.4728 249.712 M 154.333 226.732 L 97.2801 244.557 M 153.662 224.212 L 95.3421 239.278 M 153.119 221.663 L 92.73 234.082 M 152.704 219.093 L 90.2699 228.709 M 152.418 216.507 L 88.0721 223.147 M 152.113 213.921 L 86.1492 217.408 M 151.648 211.319 L 84.5135 211.508 M 151.313 208.676 L 83.1764 205.459 M 151.112 206.001 L 82.2599 199.288 M 151.048 203.299 L 81.7865 193.031 M 151.122 200.579 L 81.637 186.697 M 151.399 197.862 L 81.8179 180.303 M 152.592 195.384 L 82.3346 173.867 M 153.899 192.991 L 83.1919 167.407 M 155.316 190.69 L 85.438 161.378 M 156.835 188.484 L 89.5078 156.194 M 158.453 186.378 L 93.7955 151.292 M 160.161 184.377 L 98.2832 146.678 M 161.955 182.484 L 102.953 142.362 M 163.826 180.702 L 107.786 138.349 M 165.29 178.634 L 111.937 133.951 M 166.785 176.567 L 115.856 129.388 M 168.391 174.568 L 120 125.023 M 170.103 172.644 L 124.361 120.869 M 171.919 170.8 L 128.926 116.935 M 173.835 169.042 L 133.686 113.232 M 175.846 167.375 L 138.399 109.415 M 177.948 165.804 L 141.74 103.092 M 180.136 164.335 L 145.553 96.8569 M 182.407 162.971 L 150.505 92.2216 M 184.526 161.137 L 156.456 89.533 M 186.761 159.354 L 162.541 87.1422 M 189.126 157.671 L 168.747 85.0562 M 191.616 156.098 L 175.057 83.2808 M 194.227 154.641 L 181.41 81.5628 M 197 153.697 L 187.802 79.6662 M 199.849 152.971 L 194.326 78.0869 M 202.753 152.388 L 200.968 76.8334 M 205.704 151.95 L 207.711 75.9135 M 208.695 151.662 L 214.537 75.3341 M 211.72 151.525 L 221.43 75.1013 M 214.769 151.544 L 228.373 75.2203 M 217.835 151.719 L 235.346 75.6954 M 220.91 152.052 L 242.337 76.5089 M 223.732 153.294 L 249.356 77.5931 M 226.304 155.095 L 256.361 79.0447 M 228.745 157.007 L 263.333 80.865 M 231.052 159.021 L 270.252 83.0545 M 233.219 161.128 L 277.1 85.6122 M 235.35 163.157 L 283.855 88.5364 M 237.358 165.266 L 290.499 91.8242 M 239.233 167.453 L 297.013 95.4718 M 240.974 169.712 L 303.501 99.3333 M 242.578 172.035 L 309.883 103.506 M 244.043 174.413 L 316.094 108.039 M 245.367 176.839 L 322.114 112.925 M 246.506 179.336 L 327.923 118.158 M 247.44 181.902 L 333.501 123.729 M 248.225 184.481 L 339.04 129.498 M 248.861 187.063 L 344.747 135.375 M 249.452 189.595 L 350.2 141.621 M 250.623 191.824 L 355.375 148.224 M 251.684 194.117 L 360.138 155.214 M 252.631 196.467 L 363.472 162.858 M 253.462 198.87 L 366.43 170.697 M 254.174 201.319 L 369 178.71 M 254.764 203.809 L 371.174 186.881 M 255.115 206.344 L 372.941 195.187 M 255.137 208.905 L 374.534 203.599 M 255.03 211.455 L 376.011 212.132 M 254.796 213.99 L 377.059 220.793 M 254.437 216.501 L 377.666 229.562 M 253.976 218.988 L 377.509 238.365 M 253.832 221.533 L 376.552 247.125 M 253.525 224.075 L 375.151 255.857 M 252.46 226.414 L 373.306 264.538 M 251.287 228.68 L 371.019 273.146 M 250.008 230.866 L 367.346 281.251 M 248.63 232.969 L 362.168 288.599 M 247.174 234.993 L 356.667 295.607 M 246.044 237.185 L 350.865 302.26 M 244.801 239.323 L 344.781 308.547 M 243.45 241.402 L 338.779 314.716 M 241.992 243.416 L 333.094 321.025 M 240.431 245.36 L 327.116 327.024 M 238.77 247.227 L 320.861 332.702" stroke="black" stroke-width="1" fill="none"></path><path d="M 181.099 186.884 L 130.619 117.601 M 182.681 185.977 L 135.187 113.433 M 184.3 185.154 L 139.993 109.476 M 185.951 184.417 L 145.027 105.745 M 187.733 183.991 L 150.279 102.252 M 189.536 183.714 L 156.418 100.715 M 191.33 183.535 L 162.675 99.7848 M 193.108 183.453 L 168.908 99.1883 M 194.867 183.466 L 175.101 98.9206 M 196.6 183.571 L 181.127 98.3776 M 198.303 183.766 L 187.123 98.0233 M 199.918 183.378 L 193.1 97.9722 M 201.557 182.91 L 199.044 98.2214 M 203.238 182.443 L 204.94 98.7675 M 204.965 182.025 L 210.772 99.6063 M 206.736 181.697 L 216.526 100.733 M 208.512 181.652 L 222.188 102.141 M 210.101 182.601 L 227.745 103.826 M 211.611 183.621 L 233.366 105.118 M 213.038 184.705 L 239.197 105.857 M 214.38 185.849 L 245.031 106.902 M 215.634 187.047 L 250.852 108.258 M 216.833 188.227 L 256.512 110.177 M 218.106 189.172 L 262.097 112.4 M 219.322 190.174 L 267.594 114.918 M 220.476 191.229 L 272.257 118.75 M 221.567 192.334 L 275.916 123.782 M 222.593 193.485 L 279.248 128.933 M 223.552 194.678 L 282.252 134.182 M 224.442 195.909 L 284.854 139.577 M 225.262 197.174 L 286.524 145.526 M 226.249 198.289 L 287.809 151.446 M 227.523 199.221 L 288.718 157.314 M 228.761 200.236 L 291.33 161.835 M 229.96 201.332 L 294.665 165.945 M 231.113 202.509 L 297.809 170.254 M 232.217 203.764 L 300.751 174.751 M 232.644 205.322 L 303.48 179.428 M 232.624 207.005 L 305.984 184.275 M 232.512 208.658 L 306.973 189.609 M 232.312 210.276 L 307.095 195.081 M 231.677 211.908 L 306.933 200.499 M 230.308 213.526 L 307.214 205.774 M 228.853 214.995 L 309.596 210.918 M 227.613 216.312 L 311.721 216.274 M 226.802 217.526 L 311.743 221.738 M 225.935 218.659 L 310.491 227.104 M 225.018 219.709 L 308.977 232.359 M 224.631 220.789 L 307.21 237.49 M 224.854 222.008 L 305.199 242.484 M 225.009 223.26 L 302.951 247.332 M 225.094 224.542 L 300.386 251.986 M 225.105 225.848 L 297.595 256.457 M 225.041 227.176 L 294.604 260.739 M 224.9 228.521 L 291.424 264.824 M 224.679 229.878 L 288.069 268.703 M 224.38 231.245 L 284.55 272.369 M 224.042 232.648 L 280.871 275.808 M 223.618 234.054 L 276.974 278.953 M 223.106 235.457 L 272.959 281.858 M 222.505 236.853 L 268.843 284.521 M 221.815 238.236 L 264.973 287.318 M 221.036 239.6 L 261.598 290.665 M 220.168 240.939 L 258.044 293.852 M 219.212 242.249 L 254.318 296.869 M 218.116 243.435 L 250.429 299.706 M 216.869 244.428 L 246.385 302.355 M 215.56 245.363 L 242.196 304.807 M 214.194 246.238 L 236.628 303.863 M 212.773 247.047 L 231.193 302.4 M 211.299 247.789 L 226.634 302.929 M 209.777 248.46 L 222.453 304.812 M 208.125 248.57 L 218.143 306.491 M 206.425 248.137 L 213.714 307.959 M 204.782 247.617 L 209.178 309.208 M 203.201 247.013 L 204.545 310.23 M 201.686 246.332 L 199.862 309.752 M 200.24 245.577 L 195.293 308.268 M 198.837 244.99 L 190.866 306.563 M 197.329 245.211 L 186.59 304.649 M 195.79 245.352 L 182.476 302.536 M 194.224 245.41 L 178.567 300.118 M 192.635 245.384 L 174.959 297.202 M 191.029 245.27 L 171.581 294.139 M 189.41 245.067 L 168.439 290.944 M 187.783 244.773 L 165.537 287.634 M 186.152 244.388 L 161.602 286.409 M 184.524 243.91 L 157.637 285.06 M 183.835 242.057 L 153.706 283.489 M 183.65 239.753 L 149.821 281.694 M 183.646 237.499 L 145.995 279.677 M 182.77 236.367 L 142.24 277.44 M 181.741 235.401 L 138.569 274.983 M 180.76 234.382 L 134.995 272.311 M 179.829 233.312 L 131.53 269.427 M 178.95 232.194 L 128.72 265.975 M 178.126 231.031 L 127.289 261.646 M 177.425 229.79 L 126.105 257.3 M 177.116 228.361 L 125.164 252.949 M 176.886 226.934 L 124.464 248.608 M 176.733 225.515 L 124.002 244.29 M 176.658 224.107 L 123.774 240.007 M 176.524 222.749 L 123.831 235.758 M 176.191 221.449 L 124.164 231.565 M 175.923 220.132 L 124.717 227.455 M 175.721 218.8 L 125.481 223.438" stroke="black" stroke-width="1" fill="none"></path><path d="M 273.02 335.339 L 311.899 313.638 M 274.388 338.422 L 313.965 318.858 M 275.133 341.76 L 315.734 324.157 M 275.697 345.097 L 317.072 329.566 M 276.081 348.424 L 318.125 334.997 M 276.288 351.73 L 318.894 340.437 M 276.322 355.008 L 319.381 345.871 M 276.628 358.176 L 319.589 351.283 M 276.945 361.323 L 319.52 356.659 M 277.113 364.476 L 319.11 361.991 M 277.632 367.624 L 317.783 367.258 M 277.992 370.814 L 316.195 372.378 M 278.191 374.039 L 314.577 377.356 M 278.223 377.29 L 312.764 382.19 M 277.415 380.429 L 310.722 386.865 M 276.455 383.509 L 308.463 391.372 M 275.345 386.524 L 305.997 395.701 M 274.09 389.467 L 303.018 399.729 M 272.828 392.385 L 299.524 403.387 M 272.031 395.516 L 295.892 406.776 M 271.066 398.628 L 292.138 409.892 M 269.934 401.711 L 288.282 412.731 M 268.634 404.756 L 285.142 415.83 M 267.169 407.754 L 283.188 419.703 M 265.539 410.696 L 281.022 423.498 M 263.578 413.419 L 278.649 427.205 M 261.318 415.896 L 276.07 430.811 M 258.935 418.26 L 273.292 434.306 M 256.432 420.504 L 270.318 437.679 M 253.817 422.623 L 267.128 440.884 M 251.019 424.494 L 263.758 443.942 M 247.834 425.712 L 260.213 446.843 M 244.621 426.753 L 256.501 449.578 M 241.388 427.618 L 252.631 452.137 M 238.384 428.904 L 248.609 454.512 M 235.364 430.168 L 244.447 456.693 M 232.316 431.412 L 240.151 458.672 M 229.366 433.235 L 235.751 460.517 M 226.28 434.918 L 231.239 462.189 M 223.062 436.453 L 226.613 463.638 M 219.721 437.83 L 221.885 464.859 M 216.259 438.855 L 217.066 465.843 M 212.709 439.674 L 212.168 466.586 M 209.09 440.206 L 207.197 467.172 M 205.438 440.364 L 202.125 467.81 M 201.757 440.334 L 196.973 468.185 M 198.057 440.116 L 191.754 468.292 M 194.349 439.708 L 186.481 468.124 M 190.641 439.107 L 181.27 467.377 M 186.975 438.234 L 176.924 464.141 M 183.377 437.084 L 172.818 460.723 M 179.826 435.748 L 168.958 457.138 M 176.616 433.734 L 165.353 453.402 M 173.638 431.386 L 162.005 449.531 M 170.8 428.906 L 158.921 445.541 M 167.815 426.67 L 154.742 443.168 M 164.379 424.932 L 150.607 440.632 M 161.003 422.996 L 146.58 437.868 M 157.697 420.863 L 142.67 434.882 M 154.473 418.535 L 138.892 431.677 M 151.343 416.014 L 135.257 428.261 M 148.928 412.887 L 131.776 424.639 M 146.762 409.58 L 127.951 421.131 M 144.763 406.169 L 124.226 417.407 M 142.937 402.661 L 120.661 413.44 M 141.288 399.065 L 117.271 409.239 M 139.821 395.391 L 113.634 404.971 M 138.539 391.648 L 110.06 400.479 M 137.445 387.844 L 106.688 395.72 M 136.575 383.983 L 104.775 390.452 M 135.94 380.077 L 103.687 384.975 M 135.5 376.148 L 102.873 379.445 M 135.258 372.205 L 102.336 373.875 M 135.214 368.257 L 102.477 368.28 M 135.366 364.315 L 103.551 362.745 M 135.716 360.388 L 104.898 357.317 M 136.261 356.486 L 106.508 352.011" stroke="black" stroke-width="1" fill="none"></path><path d="M 217.767 390.66 L 217.051 442.203 M 215.961 390.439 L 212.777 440.213 M 214.151 390.351 L 208.637 438.563 M 212.344 390.173 L 204.585 437.09 M 210.544 389.904 L 200.657 435.425 M 208.756 389.544 L 196.86 433.576 M 206.986 389.094 L 193.203 431.553 M 205.225 388.584 L 189.695 429.364 M 203.486 387.987 L 186.341 427.02 M 201.774 387.302 L 183.042 424.746 M 200.094 386.53 L 179.824 422.442 M 198.45 385.673 L 176.847 419.835 M 196.991 384.526 L 174.363 416.635 M 196.019 382.771 L 172.095 413.352 M 195.168 380.997 L 170.042 410.001 M 194.438 379.21 L 168.207 406.594 M 193.784 377.459 L 166.59 403.146 M 192.708 376.164 L 165.19 399.669 M 191.7 374.819 L 163.7 396.413 M 190.763 373.429 L 162.375 393.14 M 189.898 371.996 L 161.238 389.841 M 189.107 370.524 L 160.01 386.682 M 188.392 369.017 L 157.245 384.33 M 187.755 367.48 L 154.572 381.781 M 187.19 365.918 L 152.005 379.038 M 186.045 364.542 L 149.556 376.106 M 184.961 363.08 L 147.238 372.991 M 183.944 361.535 L 145.063 369.697 M 182.999 359.909 L 145.174 365.894 M 182.134 358.207 L 147.199 361.957 M 181.351 356.432 L 149.428 358.251 M 180.787 354.588 L 151.811 354.788 M 180.755 352.711 L 151.035 351.43 M 180.818 350.832 L 150.432 347.996 M 180.974 348.955 L 150.006 344.494 M 181.161 347.073 L 149.762 340.934 M 181.312 345.163 L 149.706 337.326 M 181.562 343.251 L 149.841 333.678 M 181.911 341.34 L 150.172 330.003 M 182.36 339.438 L 150.7 326.31 M 182.909 337.548 L 151.43 322.609 M 183.558 335.675 L 155.736 320.725 M 184.306 333.826 L 161.199 319.878 M 185.153 332.006 L 163.937 317.706 M 186.097 330.219 L 165.624 314.878 M 187.176 328.504 L 167.458 312.127 M 188.372 326.859 L 169.436 309.461 M 189.656 325.27 L 171.554 306.888 M 191.023 323.741 L 173.807 304.415 M 192.473 322.277 L 176.201 302.061 M 194 320.881 L 179.322 300.652 M 195.603 319.558 L 182.478 299.424 M 197.278 318.312 L 185.658 298.375 M 199.021 317.147 L 188.853 297.505 M 200.898 316.219 L 190.349 293.077 M 202.836 315.427 L 192.119 288.415 M 204.809 314.733 L 194.491 284.382 M 206.814 314.139 L 198.06 283.434 M 208.843 313.647 L 201.664 282.667 M 210.894 313.257 L 205.295 282.082 M 212.96 312.97 L 208.942 281.681 M 215.036 312.786 L 212.597 281.464 M 217.117 312.707 L 216.25 281.43 M 219.213 312.075 L 219.892 281.578 M 221.431 310.683 L 223.486 282.302 M 223.791 309.412 L 226.987 283.408 M 226.197 308.778 L 230.39 284.682 M 228.52 308.98 L 233.688 286.117 M 230.843 309.301 L 236.873 287.706 M 233.16 309.742 L 239.939 289.441 M 235.463 310.302 L 242.878 291.314 M 237.747 310.981 L 245.684 293.317 M 240.007 311.78 L 248.464 295.225 M 242.234 312.696 L 251.304 296.94 M 244.425 313.73 L 254.048 298.791 M 246.553 314.904 L 256.946 300.415 M 248.528 316.316 L 260.488 301.29 M 250.432 317.828 L 264.037 302.387 M 252.261 319.435 L 267.58 303.709 M 254.009 321.134 L 270.157 306.136 M 255.672 322.921 L 272.573 308.729 M 257.246 324.791 L 274.86 311.442 M 258.726 326.74 L 277.01 314.271 M 260.109 328.763 L 279.02 317.207 M 261.39 330.856 L 280.882 320.245 M 263.069 332.771 L 282.593 323.375 M 264.689 334.785 L 284.552 326.422 M 266.219 336.907 L 286.662 329.479 M 267.651 339.134 L 288.63 332.679 M 268.979 341.461 L 290.447 336.013 M 270.196 343.883 L 292.105 339.476 M 271.221 346.407 L 293.595 343.059 M 271.499 349.068 L 294.909 346.754 M 271.644 351.737 L 296.04 350.553 M 271.654 354.408 L 296.981 354.446 M 271.532 357.073 L 297.168 358.394 M 271.276 359.727 L 296.195 362.264 M 270.889 362.361 L 295.035 366.047 M 270.777 365.054 L 293.692 369.734 M 270.604 367.774 L 292.175 373.317 M 270.288 370.504 L 290.489 376.786 M 269.829 373.236 L 288.41 380.05 M 269.226 375.962 L 285.763 382.982 M 268.479 378.674 L 283.001 385.716 M 267.148 381.125 L 280.137 388.246 M 264.442 382.731 L 277.347 390.67 M 261.7 384.135 L 275.366 393.514 M 259.357 385.659 L 273.248 396.252 M 257.815 387.737 L 271 398.876 M 256.167 389.738 L 268.627 401.38 M 254.419 391.659 L 266.072 403.694 M 252.572 393.492 L 263.144 405.562 M 250.633 395.235 L 260.149 407.263 M 248.605 396.881 L 257.097 408.793 M 246.493 398.427 L 253.334 409.115 M 244.304 399.87 L 249.287 408.586 M 242.072 401.266 L 245.383 407.795 M 239.766 402.551 L 241.639 406.755 M 237.39 403.723 L 238.674 407.042 M 234.96 404.807 L 235.843 407.476 M 232.479 405.804 L 233.019 407.76 M 229.939 406.678 L 230.211 407.897 M 227.348 407.426 L 227.426 407.887 M 224.71 408.045 L 224.696 407.929 M 222.034 408.537 L 222.004 408.104 M 219.326 408.99 L 219.31 408.144 M 216.583 409.308 L 216.622 408.049 M 213.82 409.368 L 213.945 407.821 M 211.131 408.652 L 211.287 407.459 M 208.501 407.805 L 208.655 406.965 M 205.939 406.832 L 205.979 406.662 M 203.449 405.738 L 203.245 406.447 M 201.038 404.528 L 200.502 406.088 M 198.71 403.205 L 197.758 405.584 M 196.47 401.777 L 195.02 404.934 M 194.324 400.248 L 192.296 404.137 M 192.643 398 L 189.766 402.901 M 191.176 395.622 L 187.738 400.862 M 189.882 393.209 L 185.841 398.743 M 188.751 390.782 L 184.078 396.552 M 186.98 389.245 L 182.417 394.337 M 185.289 387.622 L 180.604 392.352 M 183.682 385.918 L 178.899 390.286 M 182.163 384.136 L 177.307 388.145 M 180.736 382.281 L 175.83 385.935 M 179.313 380.419 L 174.471 383.662 M 177.919 378.522 L 173.232 381.333 M 176.618 376.551 L 172.117 378.953 M 175.413 374.511 L 171.124 376.53 M 174.308 372.405 L 170.228 374.083 M 173.307 370.239 L 169.458 371.601 M 172.414 368.018 L 168.817 369.092 M 171.63 365.748 L 168.303 366.562 M 170.958 363.433 L 167.888 364.024 M 170.402 361.079 L 166.328 361.654 M 169.557 358.73 L 164.882 359.152 M 168.758 356.315 L 163.559 356.524 M 168.081 353.832 L 162.368 353.775 M 167.529 351.286 L 161.318 350.913 M 167.108 348.683 L 160.417 347.945 M 166.823 346.031 L 159.892 344.914 M 166.675 343.337 L 160.104 341.937 M 166.894 340.667 L 160.469 338.958 M 168.159 338.282 L 160.986 335.985 M 169.533 335.989 L 161.658 333.026 M 171.009 333.793 L 162.483 330.088 M 172.581 331.698 L 163.46 327.18 M 174.244 329.708 L 165.384 324.753 M 175.99 327.827 L 167.801 322.694 M 177.448 325.803 L 170.289 320.801 M 178.626 323.567 L 172.838 319.076 M 179.926 321.377 L 175.438 317.52 M 181.347 319.241 L 178.078 316.135 M 182.886 317.166 L 180.747 314.92 M 184.541 315.157 L 183.436 313.874 M 186.309 313.222 L 186.133 312.997 M 188.186 311.366 L 188.823 312.276 M 190.17 309.596 L 191.336 311.453 M 192.177 307.778 L 193.857 310.775 M 193.828 305.106 L 196.378 310.241 M 195.683 302.485 L 198.891 309.848 M 198.335 301.508 L 201.387 309.594 M 201.043 300.713 L 203.848 309.441 M 203.882 300.434 L 206.12 308.816 M 206.709 300.323 L 208.418 308.305 M 209.511 300.358 L 210.737 307.91 M 212.281 300.536 L 213.071 307.632 M 215.01 300.856 L 215.414 307.47 M 217.693 301.312 L 217.76 307.427 M 220.322 301.901 L 220.103 307.5 M 222.949 301.964 L 222.437 307.69 M 225.588 302.062 L 224.757 307.997 M 228.23 302.294 L 227.099 308.202 M 230.866 302.66 L 229.471 308.381 M 233.49 303.16 L 231.847 308.683 M 236.096 303.793 L 234.221 309.109 M 238.676 304.559 L 236.586 309.658 M 241.224 305.459 L 238.935 310.332 M 243.731 306.492 L 241.263 311.129 M 246.192 307.653 L 243.562 312.05 M 248.601 308.942 L 245.825 313.095 M 250.95 310.355 L 247.872 314.496 M 253.233 311.89 L 249.848 315.998 M 255.444 313.543 L 251.748 317.599 M 257.577 315.312 L 253.566 319.293" stroke="black" stroke-width="1" fill="none"></path><path d="M 165.558 361.598 L 100.267 366.609 M 165.091 359.012 L 98.4928 360.784 M 164.693 356.388 L 97.0123 354.804 M 164.429 353.727 L 95.836 348.684 M 164.299 351.037 L 95.2094 342.468 M 164.307 348.325 L 94.9049 336.169 M 164.455 345.597 L 94.9278 329.801 M 165.247 343.002 L 95.2841 323.383 M 166.501 340.568 L 95.9789 316.932 M 167.866 338.223 L 97.0162 310.466 M 169.337 335.971 L 100.781 305.076 M 170.909 333.817 L 104.967 300.038 M 172.575 331.765 L 109.362 295.286 M 174.329 329.82 L 113.947 290.828 M 176.164 327.985 L 118.705 286.67 M 177.855 326.089 L 123.392 282.638 M 179.298 323.991 L 127.2 277.984 M 180.851 321.96 L 131.238 273.524 M 182.513 319.999 L 135.497 269.268 M 184.28 318.117 L 139.967 265.228 M 186.149 316.317 L 144.635 261.414 M 188.115 314.606 L 149.492 257.835 M 190.174 312.989 L 153.329 252.541 M 192.322 311.47 L 156.917 246.26 M 194.554 310.056 L 160.978 240.084 M 196.747 308.467 L 166.844 237.225 M 198.919 306.64 L 172.867 234.692 M 201.223 304.908 L 179.018 232.46 M 203.654 303.282 L 185.28 230.536 M 206.208 301.769 L 191.639 228.926 M 208.903 300.541 L 197.981 226.979 M 211.724 299.749 L 204.444 225.248 M 214.602 299.097 L 211.032 223.838 M 217.532 298.589 L 217.729 222.759 M 220.505 298.23 L 224.517 222.016 M 223.515 298.02 L 231.381 221.618 M 226.553 297.965 L 238.302 221.569 M 229.612 298.065 L 245.263 221.874 M 232.684 298.323 L 252.245 222.537 M 235.701 298.928 L 259.255 223.481 M 238.333 300.673 L 266.268 224.758 M 240.838 302.534 L 273.259 226.402 M 243.209 304.5 L 280.205 228.416 M 245.443 306.564 L 287.089 230.799 M 247.587 308.634 L 293.891 233.549 M 249.656 310.702 L 300.591 236.664 M 251.595 312.852 L 307.169 240.141 M 253.4 315.078 L 313.648 243.926 M 255.07 317.372 L 320.104 247.925 M 256.601 319.724 L 326.399 252.287 M 257.992 322.129 L 332.512 257.006 M 259.242 324.576 L 338.424 262.076 M 260.252 327.129 L 344.114 267.486 M 261.108 329.702 L 349.564 273.229 M 261.814 332.284 L 355.299 278.981 M 262.374 334.866 L 360.876 285.053 M 263.317 337.205 L 366.186 291.488 M 264.43 339.468 L 371.207 298.274 M 265.432 341.792 L 375.169 305.645 M 266.319 344.17 L 378.308 313.394 M 267.088 346.598 L 381.064 321.326 M 267.736 349.069 L 383.427 329.425 M 268.261 351.578 L 385.389 337.669 M 268.38 354.137 L 386.939 346.038 M 268.334 356.693 L 388.599 354.504 M 268.161 359.236 L 389.852 363.107 M 267.861 361.759 L 390.67 371.827 M 267.437 364.256 L 391.044 380.643 M 267.154 366.771 L 390.3 389.409 M 266.941 369.319 L 389.11 398.156 M 266.218 371.76 L 387.476 406.864 M 265.096 374.061 L 385.4 415.51 M 263.867 376.285 L 382.883 424.071 M 262.535 378.429 L 377.911 431.594 M 261.107 380.486 L 372.561 438.766 M 259.833 382.598 L 366.899 445.589 M 258.644 384.762 L 360.947 452.052 M 257.344 386.87 L 354.726 458.141 M 255.937 388.916 L 349.074 464.51 M 254.424 390.893 L 343.233 470.659 M 252.81 392.798 L 337.108 476.491 M 251.098 394.624 L 330.715 481.995 M 249.292 396.367 L 324.072 487.157 M 247.404 398.032 L 317.196 491.968 M 245.457 399.648 L 310.108 496.415 M 243.424 401.17 L 302.825 500.491 M 241.308 402.593 L 295.366 504.187 M 239.115 403.913 L 288.359 508.786 M 236.85 405.125 L 281.141 513.183 M 234.518 406.227 L 273.659 517.234 M 232.124 407.214 L 265.932 520.923 M 229.674 408.082 L 257.975 524.236 M 227.174 408.829 L 249.808 527.159 M 224.62 409.381 L 241.436 529.587 M 222.016 409.592 L 232.795 530.386 M 219.409 409.672 L 224.133 530.753 M 216.806 409.622 L 215.474 530.686 M 214.213 409.442 L 206.838 530.186 M 211.637 409.133 L 198.247 529.257 M 209.083 408.696 L 189.723 527.9 M 206.561 408.122 L 181.225 526.411 M 204.1 407.333 L 172.613 525.219 M 201.691 406.424 L 164.031 523.585 M 199.339 405.399 L 155.502 521.511 M 197.051 404.262 L 147.046 518.997 M 194.831 403.016 L 138.689 516.045 M 192.684 401.664 L 130.451 512.659 M 190.616 400.213 L 122.357 508.845 M 188.543 398.789 L 115.597 502.936 M 186.54 397.273 L 109.199 496.719 M 184.616 395.66 L 103.166 490.229 M 182.776 393.953 L 97.509 483.485 M 181.025 392.158 L 92.1764 476.569 M 179.366 390.279 L 86.4031 470.15 M 177.805 388.32 L 80.9584 463.451 M 176.102 386.456 L 75.856 456.489 M 174.39 384.56 L 71.1084 449.282 M 172.764 382.563 L 66.7275 441.847 M 171.231 380.472 L 62.7242 434.203 M 169.797 378.289 L 59.2606 426.304 M 168.467 376.019 L 56.9525 417.967 M 167.245 373.668 L 55.0803 409.572 M 166.137 371.24 L 53.5152 401.175 M 165.148 368.741 L 52.0351 392.826 M 165.054 366.053 L 50.9786 384.438 M 165.216 363.37 L 50.3461 376.033 M 165.513 360.725 L 50.1366 367.632 M 165.944 358.124 L 50.3482 359.256 M 166.503 355.574 L 51.2498 350.937 M 167.188 353.08 L 53.8936 342.832 M 167.993 350.65 L 56.9269 334.975 M 168.152 348.142 L 60.3318 327.383 M 167.63 345.435 L 64.0894 320.074 M 167.258 342.652 L 66.4634 312.551 M 167.042 339.803 L 67.5179 304.574 M 167.016 336.906 L 68.996 296.591 M 167.36 334.06 L 70.901 288.624 M 167.863 331.196 L 73.2347 280.697 M 168.53 328.325 L 75.9979 272.833 M 169.422 325.496 L 79.449 265.227 M 170.577 322.759 L 84.8476 258.902 M 171.887 320.059 L 90.5321 252.885 M 173.212 317.276 L 96.4853 247.188 M 173.885 313.707 L 102.69 241.823 M 174.809 310.108 L 109.127 236.8 M 177.102 307.874 L 115.778 232.131 M 180.04 306.473 L 122.624 227.822 M 183.017 305.24 L 129.65 223.891 M 186.022 304.176 L 136.894 220.44 M 188.875 302.948 L 144.262 217.377 M 191.745 301.815 L 151.733 214.706 M 194.658 300.832 L 158.962 211.614 M 197.496 299.686 L 165.929 207.701 M 200.372 298.609 L 173.142 204.122 M 203.306 297.676 L 180.584 200.893 M 206.29 296.889 L 188.233 197.985 M 209.318 296.25 L 196.08 195.452 M 212.383 295.763 L 204.108 193.309 M 215.475 295.406 L 212.311 191.993 M 218.596 294.926 L 220.608 191.29 M 221.76 294.604 L 228.962 191.003 M 224.962 294.411 L 237.353 191.138 M 228.215 294.27 L 245.76 191.696 M 231.5 294.297 L 254.16 192.681 M 234.809 294.496 L 262.533 194.091 M 238.133 294.869 L 270.624 196.63 M 241.457 295.431 L 278.558 199.611 M 244.772 296.18 L 286.327 202.982 M 248.072 297.107 L 293.912 206.734 M 251.347 298.212 L 301.294 210.858 M 254.296 299.949 L 308.456 215.343 M 257.117 301.888 L 315.379 220.176 M 259.836 303.965 L 322.047 225.345 M 262.447 306.174 L 328.366 230.926 M 264.943 308.51 L 334.275 236.925 M 267.319 310.966 L 339.862 243.198 M 269.554 313.55 L 345.115 249.726 M 271.639 316.253 L 350.023 256.493 M 273.584 319.053 L 354.574 263.481 M 275.385 321.945 L 358.759 270.67 M 277.038 324.921 L 362.569 278.041 M 278.539 327.972 L 365.996 285.576 M 279.883 331.092 L 369.466 293.07 M 281.272 334.197 L 375.789 299.547 M 282.787 337.288 L 381.835 306.498" stroke="black" stroke-width="1" fill="none"></path><path d="M 166.653 372.592 L 114.981 385.257 M 165.966 370.446 L 111.855 380.873 M 165.384 368.257 L 109.062 376.215 M 164.912 366.032 L 107.134 371.267 M 164.55 363.775 L 105.452 366.162 M 164.422 361.493 L 104.026 360.911 M 164.439 359.205 L 102.866 355.529 M 164.569 356.918 L 101.982 350.029 M 165.614 354.765 L 101.383 344.424 M 166.805 352.714 L 103.331 339.21 M 168.089 350.764 L 106.139 334.309 M 169.457 348.919 L 109.166 329.631 M 170.903 347.182 L 112.397 325.185 M 172.435 345.563 L 113.49 319.97 M 174.032 344.061 L 114.766 314.726 M 175.682 342.677 L 116.328 309.506 M 177.379 341.413 L 118.176 304.325 M 179.115 340.268 L 120.309 299.2 M 180.671 339.082 L 122.416 293.905 M 181.966 337.738 L 123.668 287.666 M 183.322 336.466 L 125.329 281.387 M 184.734 335.268 L 127.408 275.094 M 186.199 334.148 L 131.295 270.422 M 187.712 333.108 L 135.456 265.939 M 189.268 332.148 L 139.87 261.645 M 190.865 331.273 L 144.527 257.553 M 192.496 330.481 L 149.419 253.679 M 194.184 329.827 L 154.535 250.034 M 195.99 329.487 L 160.061 247.083 M 197.79 329.246 L 166.323 245.941 M 199.579 329.103 L 172.574 245.135 M 201.351 329.057 L 178.794 244.661 M 203.1 329.104 L 184.936 244.367 M 204.823 329.243 L 190.935 243.821 M 206.497 329.323 L 196.926 243.579 M 208.109 328.805 L 202.893 243.639 M 209.763 328.36 L 208.821 243.999 M 211.46 327.888 L 214.694 244.654 M 213.204 327.503 L 220.499 245.6 M 214.99 327.208 L 226.221 246.831 M 216.698 327.604 L 231.846 248.342 M 218.258 328.58 L 237.36 250.127 M 219.738 329.624 L 243.111 250.966 M 221.134 330.732 L 248.945 251.817 M 222.443 331.896 L 254.776 252.977 M 223.665 333.113 L 260.544 254.539 M 224.9 334.18 L 266.177 256.575 M 226.152 335.146 L 271.731 258.908 M 227.345 336.168 L 277.192 261.533 M 228.476 337.242 L 281.237 266.206 M 229.544 338.364 L 284.776 271.285 M 230.545 339.531 L 287.987 276.474 M 231.479 340.739 L 290.869 281.755 M 232.343 341.983 L 293.106 287.39 M 233.137 343.26 L 294.633 293.331 M 234.313 344.234 L 295.778 299.234 M 235.574 345.197 L 296.726 304.961 M 236.799 346.242 L 300.175 308.942 M 237.981 347.368 L 303.44 313.126 M 239.117 348.574 L 306.511 317.506 M 240.197 349.859 L 309.375 322.071 M 240.236 351.558 L 312.022 326.812 M 240.182 353.23 L 314.338 331.749 M 240.037 354.871 L 314.641 337.248 M 239.805 356.475 L 314.657 342.702 M 238.77 358.133 L 314.392 348.095 M 237.368 359.697 L 315.713 353.261 M 235.884 361.11 L 318.002 358.485 M 234.909 362.38 L 319.984 363.915 M 234.077 363.565 L 318.9 369.345 M 233.191 364.667 L 317.55 374.671 M 232.256 365.686 L 315.942 379.882 M 232.31 366.846 L 314.083 384.964 M 232.508 368.078 L 311.983 389.905 M 232.638 369.341 L 309.625 394.686 M 232.696 370.632 L 306.966 399.271 M 232.68 371.947 L 304.1 403.674 M 232.587 373.282 L 301.038 407.884 M 232.417 374.632 L 297.792 411.893 M 232.166 375.992 L 294.374 415.694 M 231.854 377.373 L 290.798 419.279 M 231.485 378.778 L 287.033 422.609 M 231.028 380.183 L 283.091 425.665 M 230.483 381.585 L 279.037 428.481 M 229.85 382.976 L 274.886 431.053 M 229.127 384.353 L 271.335 434.184 M 228.315 385.708 L 267.893 437.473 M 227.414 387.038 L 264.274 440.598 M 226.425 388.335 L 260.487 443.55 M 225.251 389.418 L 256.54 446.318 M 223.981 390.39 L 252.441 448.895 M 222.651 391.304 L 247.753 450.223 M 221.264 392.155 L 242.18 448.97 M 219.823 392.94 L 236.83 447.387 M 218.331 393.655 L 232.692 449.258 M 216.791 394.299 L 228.462 451.067 M 215.079 394.03 L 224.107 452.669 M 213.399 393.564 L 219.637 454.057 M 211.779 393.013 L 215.064 455.223 M 210.221 392.38 L 210.397 456.159 M 208.732 391.671 L 205.745 454.839 M 207.313 390.89 L 201.227 453.272 M 205.872 390.691 L 196.855 451.489 M 204.352 390.883 L 192.638 449.5 M 202.803 390.993 L 188.586 447.316 M 201.228 391.02 L 184.795 444.667 M 199.632 390.962 L 181.271 441.695 M 198.02 390.815 L 177.98 438.582 M 196.398 390.579 L 174.926 435.342 M 194.769 390.251 L 171.701 432.754 M 193.139 389.832 L 167.722 431.546 M 191.636 389.138 L 163.768 430.115" stroke="black" stroke-width="1" fill="none"></path><path d="M 318.726 247.817 L 277.878 273.783 M 317.689 245.361 L 276.118 268.956 M 316.19 243.173 L 270.781 266.025 M 314.078 241.217 L 265.526 262.68 M 312.046 239.108 L 261.619 258.449 M 310.104 236.849 L 258.931 253.594 M 308.752 234.311 L 256.476 248.567 M 307.918 231.594 L 254.265 243.38 M 307.22 228.83 L 252.307 238.044 M 306.659 226.028 L 251.075 232.518 M 306.239 223.193 L 250.237 226.908 M 305.96 220.332 L 249.68 221.246 M 305.825 217.453 L 249.407 215.548 M 305.834 214.563 L 249.42 209.827 M 305.708 211.631 L 249.72 204.097 M 305.594 208.649 L 250.309 198.374 M 305.636 205.637 L 251.187 192.672 M 305.836 202.602 L 252.353 187.005 M 306.205 199.556 L 254.32 181.566 M 306.83 196.544 L 257.222 176.513 M 307.614 193.545 L 260.354 171.655 M 308.557 190.568 L 263.704 167.002 M 309.66 187.621 L 267.26 162.563 M 310.921 184.712 L 271.008 158.347 M 312.339 181.851 L 274.301 153.898 M 313.914 179.047 L 276.856 148.848 M 315.648 176.311 L 279.694 143.891 M 317.532 173.649 L 282.813 139.044 M 319.564 171.068 L 286.21 134.322 M 321.74 168.577 L 291.047 131.164 M 324.055 166.183 L 296.229 128.578 M 326.714 164.207 L 301.487 126.287 M 329.632 162.631 L 306.805 124.292 M 332.615 161.209 L 312.165 122.593 M 335.656 159.942 L 317.552 121.19 M 338.746 158.834 L 322.819 119.758 M 341.877 157.885 L 328.081 118.512 M 345.041 157.098 L 333.365 117.542 M 348.24 156.511 L 338.657 116.846 M 351.455 156.111 L 343.944 116.422 M 354.672 155.875 L 349.21 116.269 M 357.883 155.801 L 354.443 116.383 M 361.079 155.889 L 359.591 115.739 M 364.252 156.137 L 364.79 114.631 M 367.409 156.322 L 370.09 113.786 M 370.575 156.435 L 375.479 113.211 M 373.762 156.573 L 380.94 112.913 M 377.023 156.547 L 386.462 112.899 M 380.313 156.691 L 392.028 113.173 M 383.621 157.008 L 397.623 113.739 M 386.94 157.501 L 403.233 114.602 M 390.005 158.752 L 408.669 116.156 M 392.782 160.599 L 413.773 118.545 M 395.441 162.571 L 418.751 121.186 M 397.977 164.66 L 423.591 124.072 M 400.385 166.86 L 428.281 127.197 M 403.182 168.493 L 432.808 130.553 M 405.91 170.274 L 437.163 134.131 M 408.558 172.201 L 441.333 137.921 M 411.119 174.271 L 445.308 141.916 M 413.585 176.479 L 449.222 145.982 M 415.949 178.822 L 452.945 150.238 M 418.204 181.294 L 456.304 154.787 M 420.341 183.891 L 458.908 159.828 M 422.356 186.606 L 461.241 164.966 M 423.695 189.704 L 463.3 170.188 M 424.436 193.041 L 465.058 175.49 M 424.995 196.378 L 466.388 180.9 M 425.375 199.705 L 467.434 186.332 M 425.577 203.011 L 468.196 191.772 M 425.606 206.287 L 468.676 197.205 M 425.924 209.452 L 468.876 202.616 M 426.237 212.6 L 468.801 207.992 M 426.414 215.752 L 468.366 213.323 M 426.929 218.901 L 467.032 218.587 M 427.285 222.093 L 465.438 223.702 M 427.48 225.318 L 463.819 228.677 M 427.491 228.567 L 462.001 233.507 M 426.679 231.704 L 459.954 238.178 M 425.714 234.783 L 457.689 242.681 M 424.6 237.796 L 455.218 247.005 M 423.342 240.737 L 452.217 251.022" stroke="black" stroke-width="1" fill="none"></path><path d="M 373.17 164.366 L 376.437 138.53 M 375.568 163.827 L 379.833 139.816 M 377.892 164.037 L 383.123 141.262 M 380.214 164.367 L 386.3 142.861 M 382.53 164.816 L 389.357 144.606 M 384.832 165.384 L 392.287 146.488 M 387.115 166.072 L 395.084 148.5 M 389.372 166.879 L 397.874 150.379 M 391.597 167.803 L 400.707 152.104 M 393.785 168.845 L 403.445 153.964 M 395.902 170.038 L 406.402 155.508 M 397.872 171.457 L 409.945 156.398 M 399.771 172.976 L 413.494 157.511 M 401.594 174.59 L 417.007 158.877 M 403.337 176.295 L 419.538 161.352 M 404.994 178.088 L 421.946 163.953 M 406.561 179.963 L 424.223 166.675 M 408.035 181.917 L 426.364 169.511 M 409.411 183.946 L 428.364 172.455 M 410.695 186.037 L 430.216 175.499 M 412.394 187.947 L 431.915 178.636 M 414.008 189.968 L 433.913 181.669 M 415.531 192.098 L 436.013 184.737 M 416.956 194.332 L 437.971 187.946 M 418.276 196.666 L 439.777 191.29 M 419.485 199.095 L 441.423 194.761 M 420.454 201.631 L 442.901 198.352 M 420.722 204.293 L 444.203 202.055 M 420.858 206.963 L 445.321 205.861 M 420.859 209.633 L 446.248 209.76 M 420.727 212.298 L 446.315 213.706 M 420.462 214.95 L 445.329 217.57 M 420.066 217.583 L 444.155 221.347 M 419.979 220.282 L 442.8 225.027 M 419.795 223.003 L 441.271 228.601 M 419.469 225.734 L 439.574 232.063 M 419 228.465 L 437.438 235.3 M 418.387 231.19 L 434.782 238.218 M 417.63 233.901 L 432.013 240.938 M 416.169 236.282 L 429.143 243.454 M 413.46 237.874 L 426.422 245.91 M 410.717 239.265 L 424.431 248.748 M 408.462 240.845 L 422.304 251.478 M 406.912 242.918 L 420.047 254.094 M 405.257 244.914 L 417.666 256.589 M 403.501 246.828 L 415.079 258.868 M 401.648 248.656 L 412.145 260.725 M 399.703 250.392 L 409.146 262.414 M 397.669 252.031 L 406.09 263.932 M 395.551 253.569 L 402.255 264.125 M 393.36 255.01 L 398.218 263.577 M 391.122 256.398 L 394.325 262.769 M 388.811 257.676 L 390.593 261.712 M 386.43 258.84 L 387.685 262.116 M 383.997 259.919 L 384.854 262.539 M 381.512 260.907 L 382.031 262.813 M 378.968 261.773 L 379.224 262.939 M 376.373 262.512 L 376.442 262.92 M 373.733 263.122 L 373.717 262.984 M 371.055 263.611 L 371.024 263.15 M 368.345 264.056 L 368.331 263.18 M 365.599 264.364 L 365.643 263.076 M 362.839 264.361 L 362.967 262.838 M 360.154 263.635 L 360.311 262.467 M 357.529 262.78 L 357.681 261.965 M 354.971 261.798 L 354.997 261.69 M 352.487 260.696 L 352.262 261.465 M 350.081 259.477 L 349.519 261.096 M 347.759 258.148 L 346.775 260.582 M 345.526 256.712 L 344.038 259.921 M 343.387 255.176 L 341.315 259.114 M 341.743 252.874 L 338.829 257.799 M 340.289 250.493 L 336.81 255.755 M 339.006 248.078 L 334.922 253.631 M 337.833 245.716 L 333.169 251.435 M 336.068 244.173 L 331.495 249.24 M 334.383 242.544 L 329.69 247.249 M 332.782 240.834 L 327.993 245.177 M 331.269 239.047 L 326.409 243.031 M 329.849 237.187 L 324.94 240.816 M 328.422 235.327 L 323.589 238.539 M 327.034 233.425 L 322.359 236.206 M 325.739 231.449 L 321.252 233.823 M 324.541 229.404 L 320.266 231.399 M 323.444 227.294 L 319.379 228.949 M 322.45 225.124 L 318.618 226.465 M 321.564 222.9 L 317.985 223.954 M 320.788 220.626 L 317.481 221.423 M 320.124 218.308 L 316.984 218.901 M 319.577 215.952 L 315.432 216.522 M 318.706 213.602 L 313.994 214.011 M 317.916 211.183 L 312.68 211.374 M 317.247 208.695 L 311.499 208.618 M 316.704 206.144 L 310.459 205.748 M 316.293 203.538 L 309.569 202.772" stroke="black" stroke-width="1" fill="none"></path><path d="M 387.51 158.181 L 414.248 82.3677 M 390.049 160.011 L 421.247 83.9128 M 392.457 161.95 L 428.207 85.8267 M 394.729 163.988 L 435.11 88.1096 M 396.882 166.082 L 441.936 90.7605 M 398.986 168.125 L 448.665 93.7772 M 400.96 170.254 L 455.278 97.1566 M 402.802 172.461 L 461.755 100.895 M 404.508 174.737 L 468.248 104.798 M 406.077 177.074 L 474.589 109.062 M 407.506 179.465 L 480.753 113.686 M 408.794 181.902 L 486.722 118.661 M 409.872 184.427 L 492.474 123.981 M 410.767 186.996 L 497.99 129.635 M 411.514 189.577 L 503.624 135.394 M 412.114 192.159 L 509.269 141.365 M 412.873 194.595 L 514.653 147.703 M 414.016 196.841 L 519.754 154.396 M 415.049 199.149 L 524.132 161.574 M 415.967 201.513 L 527.372 169.269 M 416.768 203.928 L 530.233 177.154 M 417.449 206.389 L 532.704 185.209 M 418.008 208.887 L 534.775 193.416 M 418.247 211.435 L 536.437 201.754 M 418.236 213.994 L 538.063 210.19 M 418.097 216.541 L 539.432 218.758 M 417.831 219.07 L 540.369 227.449 M 417.44 221.575 L 540.864 236.241 M 417.066 224.074 L 540.423 245.029 M 416.889 226.621 L 539.353 253.784 M 416.38 229.116 L 537.839 262.505 M 415.287 231.437 L 535.882 271.169 M 414.086 233.683 L 533.484 279.755 M 412.782 235.849 L 529.179 287.587 M 411.379 237.93 L 523.918 294.85 M 410.012 239.995 L 518.338 301.769 M 408.853 242.174 L 512.462 308.331 M 407.583 244.297 L 506.311 314.522 M 406.205 246.36 L 500.48 320.785 M 404.72 248.357 L 494.719 327.017 M 403.134 250.282 L 488.669 332.936 M 401.448 252.13 L 482.347 338.53 M 399.667 253.896 L 475.77 343.786 M 397.794 255.574 L 468.956 348.693 M 395.869 257.212 L 461.923 353.24 M 393.859 258.759 L 454.691 357.417 M 391.765 260.209 L 447.278 361.217 M 389.593 261.558 L 440.142 365.53 M 387.347 262.8 L 432.998 370.018 M 385.032 263.932 L 425.586 374.164 M 382.654 264.95 L 417.923 377.953 M 380.219 265.851 L 410.027 381.369 M 377.731 266.631 L 401.914 384.399 M 375.199 267.288 L 393.606 387.03 M 372.598 267.54 L 385.013 388.205 M 369.991 267.655 L 376.355 388.688 M 367.387 267.64 L 367.693 388.739 M 364.79 267.495 L 359.049 388.356 M 362.209 267.221 L 350.443 387.543 M 359.648 266.819 L 341.899 386.301 M 357.116 266.29 L 333.434 384.65 M 354.638 265.55 L 324.819 383.577 M 352.214 264.673 L 316.227 382.063 M 349.847 263.68 L 307.68 380.108 M 347.54 262.573 L 299.203 377.712 M 345.301 261.355 L 290.817 374.879 M 343.134 260.032 L 282.544 371.61 M 341.044 258.607 L 274.409 367.911 M 338.975 257.174 L 267.267 362.56 M 336.951 255.685 L 260.772 356.422 M 335.005 254.098 L 254.639 350.003 M 333.142 252.416 L 248.879 343.326 M 331.366 250.645 L 243.503 336.411 M 329.682 248.788 L 237.81 329.908 M 328.094 246.85 L 232.275 323.283 M 326.457 244.944 L 227.079 316.39 M 324.721 243.075 L 222.234 309.248 M 323.072 241.105 L 217.753 301.873 M 321.513 239.039 L 213.646 294.284 M 320.052 236.88 L 209.925 286.5 M 318.693 234.634 L 207.411 278.222 M 317.442 232.304 L 205.421 269.84 M 316.302 229.896 L 203.865 261.417 M 315.28 227.416 L 202.27 253.082 M 314.911 224.777 L 201.099 244.703 M 315.035 222.085 L 200.352 236.3 M 315.296 219.429 L 200.028 227.896 M 315.691 216.815 L 200.126 219.511 M 316.216 214.25 L 200.643 211.167 M 316.867 211.741 L 203.015 202.994 M 317.64 209.293 L 205.945 195.068 M 318.195 206.853 L 209.251 187.403 M 317.633 204.167 L 212.915 180.015 M 317.22 201.404 L 216.127 172.698 M 316.961 198.572 L 217.067 164.727 M 316.863 195.679 L 218.431 156.743 M 317.128 192.824 L 220.22 148.77 M 317.588 189.964 L 222.437 140.829 M 318.21 187.095 L 225.084 132.946 M 319.012 184.234 L 228.161 125.141 M 320.126 181.489 L 233.234 118.576 M 321.394 178.778 L 238.843 112.474 M 322.817 176.109 L 244.725 106.689 M 323.555 172.668 L 250.863 101.233 M 324.41 169.076 L 257.239 96.1174 M 326.191 166.273 L 263.834 91.3513 M 329.117 164.827 L 270.629 86.9444 M 332.084 163.549 L 277.606 82.9046 M 335.083 162.439 L 284.797 79.3278 M 337.983 161.273 L 292.133 76.1598 M 340.841 160.099 L 299.579 73.3824 M 343.743 159.075 L 306.997 70.7207 M 346.605 157.993 L 313.895 66.7197 M 349.464 156.878 L 321.043 63.0489 M 352.383 155.906 L 328.425 59.7234 M 355.354 155.079 L 336.019 56.7273 M 358.372 154.4 L 343.814 54.0919 M 361.427 153.872 L 351.795 51.8417 M 364.513 153.497 L 359.954 50.2465 M 367.623 153.032 L 368.232 49.431 M 370.776 152.668 L 376.573 49.0313 M 373.966 152.463 L 384.956 49.0515 M 377.207 152.284 L 393.361 49.4951 M 380.484 152.265 L 401.765 50.364 M 383.788 152.417 L 410.147 51.6594 M 387.109 152.743 L 418.327 53.8834 M 390.435 153.25 L 426.302 56.7571 M 393.753 153.952 L 434.118 60.0234 M 397.058 154.831 L 441.755 63.6736 M 400.34 155.887 L 449.194 67.698 M 403.393 157.441 L 456.417 72.0859 M 406.24 159.341 L 463.406 76.8259 M 408.987 161.381 L 470.145 81.9055 M 411.628 163.555 L 476.59 87.343 M 414.156 165.857 L 482.584 93.2655 M 416.565 168.282 L 488.259 99.4658 M 418.843 170.828 L 493.604 105.927 M 420.965 173.503 L 498.606 112.631 M 422.948 176.278 L 503.254 119.561" stroke="black" stroke-width="1" fill="none"></path><path d="M 319.416 249.19 L 288.191 276.946 M 318.249 247.15 L 284.824 273.995 M 317.199 245.072 L 281.589 270.853 M 316.265 242.96 L 278.496 267.525 M 315.45 240.823 L 275.555 264.019 M 314.752 238.667 L 272.777 260.341 M 314.093 236.534 L 270.172 256.499 M 313.035 234.589 L 267.749 252.5 M 312.072 232.583 L 264.794 248.6 M 311.207 230.522 L 261.357 244.675 M 310.444 228.409 L 258.093 240.482 M 309.785 226.251 L 255.023 236.026 M 309.234 224.052 L 252.499 231.275 M 308.792 221.817 L 250.638 226.283 M 308.472 219.552 L 249.024 221.137 M 308.406 217.267 L 247.67 215.849 M 308.453 214.979 L 246.585 210.432 M 308.801 212.716 L 245.779 204.902 M 309.921 210.594 L 245.43 199.301 M 311.139 208.571 L 248.07 194.245 M 312.446 206.649 L 250.939 189.404 M 313.836 204.833 L 254.023 184.789 M 315.305 203.128 L 256.731 180.182 M 316.858 201.541 L 257.802 174.931 M 318.47 200.072 L 259.157 169.692 M 320.134 198.72 L 260.797 164.481 M 321.842 197.488 L 262.723 159.314 M 323.587 196.377 L 264.934 154.206 M 325.01 195.108 L 266.71 148.599 M 326.323 193.783 L 268.073 142.347 M 327.694 192.531 L 269.848 136.062 M 329.121 191.355 L 272.429 130.187 M 330.6 190.257 L 276.402 125.575 M 332.125 189.238 L 280.633 121.143 M 333.693 188.302 L 285.114 116.903 M 335.299 187.449 L 289.837 112.87 M 336.94 186.681 L 294.791 109.057 M 338.67 186.125 L 299.967 105.477 M 340.475 185.813 L 305.77 103.138 M 342.273 185.599 L 312.031 102.089 M 344.057 185.483 L 318.275 101.374 M 345.823 185.462 L 324.484 100.99 M 347.566 185.535 L 330.573 100.589 M 349.28 185.699 L 336.571 100.126 M 350.925 185.575 L 342.557 99.9676 M 352.549 185.079 L 348.515 100.11 M 354.214 184.624 L 354.429 100.551 M 355.925 184.176 L 360.285 101.287 M 357.68 183.815 L 366.069 102.311 M 359.477 183.546 L 371.766 103.62 M 361.124 184.267 L 377.361 105.207 M 362.663 185.262 L 382.875 106.941 M 364.12 186.324 L 388.702 107.571 M 365.492 187.448 L 394.537 108.507 M 366.778 188.627 L 400.364 109.752 M 367.974 189.857 L 406.087 111.47 M 369.239 190.841 L 411.7 113.588 M 370.476 191.824 L 417.23 116.001 M 371.652 192.86 L 422.457 119.005 M 372.766 193.948 L 426.231 123.99 M 373.815 195.082 L 429.68 129.101 M 374.798 196.261 L 432.801 134.318 M 375.713 197.479 L 435.593 139.619 M 376.558 198.732 L 437.554 145.425 M 377.368 199.99 L 438.975 151.358 M 378.653 200.892 L 440.017 157.247 M 379.905 201.877 L 441.68 162.435 M 381.118 202.945 L 445.08 166.472 M 382.288 204.093 L 448.293 170.711 M 383.41 205.321 L 451.308 175.143 M 384.207 206.73 L 454.114 179.757 M 384.221 208.422 L 456.699 184.545 M 384.141 210.086 L 458.44 189.664 M 383.972 211.717 L 458.663 195.153 M 383.717 213.31 L 458.602 200.591 M 382.384 214.979 L 458.261 205.965 M 380.958 216.502 L 460.357 211.075 M 379.465 217.873 L 462.575 216.358 M 378.676 219.116 L 463.703 221.817 M 377.829 220.278 L 462.546 227.22 M 376.929 221.357 L 461.124 232.516 M 376.115 222.377 L 459.446 237.692 M 376.361 223.583 L 457.521 242.737 M 376.541 224.823 L 455.356 247.638 M 376.651 226.095 L 452.907 252.365 M 376.689 227.393 L 450.19 256.901 M 376.652 228.714 L 447.269 261.251 M 376.538 230.053 L 444.155 265.407 M 376.346 231.406 L 440.86 269.359 M 376.074 232.769 L 437.398 273.102 M 375.751 234.16 L 433.78 276.627 M 375.358 235.566 L 429.953 279.874 M 374.877 236.971 L 425.978 282.865 M 374.308 238.37 L 421.897 285.614 M 373.65 239.758 L 417.722 288.118 M 372.903 241.129 L 414.398 291.505 M 372.066 242.478 L 410.907 294.75 M 371.141 243.799 L 407.241 297.828 M 370.124 245.08 L 403.409 300.73 M 368.899 246.093 L 399.419 303.447 M 367.612 247.049 L 395.281 305.97 M 366.266 247.946 L 390.193 306.315 M 364.863 248.779 L 384.679 304.969 M 363.408 249.545 L 379.667 304.224 M 361.903 250.241 L 375.534 306.177 M 360.322 250.713 L 371.269 307.93 M 358.602 250.313 L 366.881 309.474 M 356.938 249.823 L 362.382 310.801 M 355.335 249.249 L 357.782 311.905 M 353.796 248.594 L 353.098 312.237 M 352.325 247.865 L 348.481 310.833 M 350.926 247.066 L 344.002 309.205 M 349.448 247.153 L 339.672 307.365 M 347.92 247.323 L 335.499 305.321 M 346.363 247.411 L 331.494 303.086 M 344.782 247.415 L 327.795 300.268 M 343.181 247.332 L 324.335 297.256 M 341.566 247.161 L 321.108 294.106 M 339.941 246.9 L 318.12 290.835 M 338.311 246.547 L 314.597 288.846 M 336.682 246.102 L 310.623 287.577 M 335.525 244.898 L 306.679 286.085 M 335.274 242.579 L 302.776 284.37 M 335.207 240.306 L 298.927 282.432 M 334.726 238.709 L 295.146 280.272 M 333.681 237.762 L 291.443 277.893 M 332.682 236.762 L 287.833 275.298 M 331.733 235.71 L 284.328 272.488 M 330.835 234.609 L 280.939 269.47 M 329.992 233.462 L 279.349 265.2 M 329.205 232.271 L 278.077 260.858 M 328.796 230.881 L 277.05 256.507 M 328.538 229.453 L 276.264 252.161 M 328.358 228.03 L 275.718 247.834 M 328.256 226.618 L 275.408 243.537 M 328.229 225.22 L 275.346 239.279 M 327.881 223.925 L 275.6 235.059 M 327.59 222.614 L 276.075 230.918 M 327.364 221.287 L 276.765 226.866 M 327.205 219.948 L 277.662 222.916 M 327.148 218.601 L 278.757 219.076 M 327.546 217.267 L 279.079 215.319 M 328.009 215.974 L 276.762 211.34 M 328.533 214.724 L 274.663 207.123 M 327.859 213.279 L 273.562 202.827 M 327.085 211.713 L 273.758 198.653 M 326.405 210.058 L 274.171 194.461 M 326.033 208.392 L 274.864 190.282 M 328.035 207.605 L 277.375 186.771 M 330.041 206.991 L 280.036 183.439 M 331.156 206.078 L 282.836 180.294 M 331.832 204.966 L 285.763 177.34 M 332.561 203.89 L 288.804 174.582 M 333.342 202.854 L 291.948 172.024 M 334.173 201.86 L 294.979 169.501 M 335.051 200.911 L 297.587 166.691 M 335.974 200.008 L 300.327 164.019 M 336.939 199.153 L 303.193 161.492 M 337.945 198.349 L 306.177 159.115 M 338.538 196.982 L 309.271 156.895 M 339.175 195.545 L 312.467 154.835 M 339.919 194.12 L 315.825 153.058 M 340.768 192.714 L 319.35 151.636 M 341.939 191.803 L 322.92 150.402 M 343.339 191.373 L 326.527 149.357 M 344.751 191.016 L 330.159 148.502 M 346.171 190.732 L 333.808 147.837 M 347.597 190.521 L 337.477 147.422 M 349.023 190.384 L 341.212 147.609 M 350.447 190.319 L 344.886 147.989 M 351.864 190.326 L 348.49 148.558 M 353.272 190.405 L 352.013 149.309 M 354.666 190.554 L 355.447 150.235 M 356.065 190.45 L 358.784 151.329 M 357.499 190.226 L 362.124 151.665 M 358.96 190.077 L 365.665 150.871 M 360.445 190.004 L 369.304 150.267 M 361.948 190.009 L 373.032 149.861 M 363.467 190.095 L 376.593 150.402 M 364.996 190.263 L 380.013 151.474" stroke="black" stroke-width="1" fill="none"></path><path d="M 323.328 390.526 L 285.804 422.785 M 321.915 388.202 L 282.055 419.144 M 320.632 385.826 L 280.113 414.151 M 319.48 383.404 L 278.596 409.042 M 318.459 380.943 L 276.348 404.505 M 316.814 378.827 L 271.019 401.523 M 314.712 376.852 L 265.776 398.127 M 312.69 374.724 L 262.165 393.748 M 310.759 372.448 L 259.505 388.872 M 309.53 369.866 L 257.079 383.825 M 308.713 367.143 L 254.898 378.619 M 308.031 364.374 L 252.972 373.266 M 307.488 361.567 L 251.844 367.719 M 307.085 358.729 L 251.041 362.101 M 306.824 355.866 L 250.519 356.435 M 306.706 352.985 L 250.28 350.733 M 306.733 350.094 L 250.329 345.01 M 306.573 347.153 L 250.665 339.28 M 306.478 344.167 L 251.289 333.559 M 306.539 341.151 L 252.202 327.86 M 306.759 338.114 L 253.403 322.198 M 307.161 335.072 L 255.551 316.822 M 307.805 332.061 L 258.482 311.792 M 308.609 329.064 L 261.641 306.959 M 309.572 326.09 L 265.017 302.331 M 310.694 323.147 L 268.597 297.919 M 311.974 320.244 L 272.368 293.732 M 313.412 317.39 L 275.487 289.159 M 315.007 314.593 L 278.076 284.12 M 316.759 311.866 L 280.949 279.176 M 318.661 309.214 L 284.103 274.343 M 320.711 306.643 L 287.533 269.637 M 322.904 304.164 L 292.567 266.717 M 325.237 301.782 L 297.759 264.167 M 327.956 299.891 L 303.025 261.912 M 330.883 298.334 L 308.348 259.953 M 333.873 296.931 L 313.713 258.291 M 336.921 295.684 L 319.102 256.924 M 340.016 294.595 L 324.351 255.476 M 343.152 293.666 L 329.616 254.264 M 346.319 292.898 L 334.902 253.327 M 349.522 292.339 L 340.194 252.665 M 352.737 291.959 L 345.479 252.275 M 355.954 291.743 L 350.742 252.155 M 359.164 291.689 L 355.97 252.302 M 362.357 291.797 L 361.111 251.475 M 365.527 292.064 L 366.323 250.399 M 368.685 292.213 L 371.635 249.586 M 371.851 292.346 L 377.033 249.045 M 375.048 292.447 L 382.503 248.782 M 378.313 292.441 L 388.03 248.803 M 381.606 292.606 L 393.601 249.112 M 384.916 292.945 L 399.199 249.715 M 388.235 293.46 L 404.809 250.614 M 391.239 294.858 L 410.189 252.321 M 394.002 296.72 L 415.278 254.741 M 396.646 298.707 L 420.24 257.413 M 399.167 300.81 L 425.062 260.329 M 401.618 302.939 L 429.733 263.483 M 404.409 304.589 L 434.24 266.866 M 407.127 306.389 L 438.572 270.471 M 409.765 308.334 L 442.719 274.287 M 412.314 310.42 L 446.678 278.298 M 414.768 312.646 L 450.578 282.38 M 417.119 315.004 L 454.275 286.659 M 419.36 317.492 L 457.526 291.286 M 421.483 320.104 L 460.096 296.339 M 423.482 322.833 L 462.396 301.489 M 424.684 325.999 L 464.421 306.72 M 425.402 329.337 L 466.124 312.039 M 425.939 332.673 L 467.419 317.452 M 426.297 335.997 L 468.43 322.886 M 426.478 339.3 L 469.157 328.325 M 426.486 342.573 L 469.603 333.756 M 426.859 345.724 L 469.77 339.164 M 427.152 348.872 L 469.661 344.534 M 427.373 352.022 L 469.104 349.863 M 427.869 355.177 L 467.738 355.109 M 428.205 358.373 L 466.112 360.205 M 428.381 361.602 L 464.497 365.164 M 428.287 364.841 L 462.649 369.975 M 427.456 367.971 L 460.575 374.626 M 426.473 371.042 L 458.284 379.108 M 425.341 374.047 L 455.789 383.409 M 424.065 376.978 L 452.684 387.37 M 422.894 379.932 L 449.168 390.988 M 422.072 383.061 L 445.517 394.337 M 421.082 386.169 L 441.747 397.413 M 419.925 389.247 L 437.877 400.211 M 418.602 392.285 L 435.04 403.491 M 417.112 395.276 L 433.054 407.353 M 415.458 398.209 L 430.857 411.135 M 413.425 400.875 L 428.453 414.828 M 411.147 403.336 L 425.845 418.418 M 408.745 405.682 L 423.037 421.896 M 406.226 407.909 L 420.031 425.246 M 403.594 410.009 L 416.814 428.429 M 400.723 411.769 L 413.417 431.464 M 397.534 412.96 L 409.847 434.342 M 394.317 413.975 L 406.111 437.051 M 391.082 414.814 L 402.218 439.584 M 388.115 416.183 L 398.175 441.93 M 385.085 417.425 L 393.992 444.081 M 382.061 418.773 L 389.678 446.03 M 379.091 420.576 L 385.264 447.861 M 375.985 422.238 L 380.735 449.5 M 372.749 423.749 L 376.093 450.916 M 369.39 425.103 L 371.351 452.102 M 365.912 426.07 L 366.519 453.051 M 362.35 426.862 L 361.611 453.758 M 358.725 427.324 L 356.625 454.365 M 355.068 427.454 L 351.541 454.965 M 351.383 427.397 L 346.378 455.301 M 347.682 427.15 L 341.149 455.367 M 343.973 426.713 L 335.87 455.158 M 340.266 426.084 L 330.785 453.992 M 336.613 425.158 L 326.474 450.729 M 333.022 423.98 L 322.404 447.285 M 329.479 422.617 L 318.582 443.676 M 326.34 420.477 L 315.014 439.919 M 323.382 418.11 L 311.706 436.03 M 320.565 415.611 L 308.511 432.23 M 317.477 413.508 L 304.297 429.89 M 314.049 411.741 L 300.178 427.319 M 310.682 409.776 L 296.166 424.522 M 307.388 407.613 L 292.276 421.503 M 304.177 405.256 L 288.518 418.267 M 301.075 402.697 L 284.905 414.82 M 298.77 399.487 L 281.413 411.192 M 296.629 396.164 L 277.564 407.678 M 294.655 392.738 L 273.861 403.917 M 292.855 389.216 L 270.321 399.916 M 291.233 385.609 L 266.958 395.68 M 289.793 381.924 L 263.266 391.406 M 288.538 378.17 L 259.721 386.873 M 287.473 374.358 L 256.381 382.076 M 286.642 370.489 L 254.771 376.727 M 286.036 366.579 L 253.723 371.241 M 285.626 362.647 L 252.95 365.705 M 285.413 358.703 L 252.454 360.13 M 285.398 354.755 L 252.792 354.536 M 285.579 350.814 L 253.907 349.016 M 285.958 346.891 L 255.293 343.606 M 286.531 342.994 L 256.942 338.318 M 287.299 339.133 L 258.844 333.166 M 288.257 335.318 L 261.161 328.205 M 289.63 331.63 L 264.578 323.696 M 291.22 328.044 L 268.182 319.459 M 292.092 324.174 L 271.956 315.501 M 292.9 320.192 L 276.797 312.28 M 293.927 316.213 L 283.22 310.271 M 295.176 312.251 L 288.32 307.984 M 296.647 308.317 L 290.347 303.945 M 297.941 304.117 L 292.588 299.99 M 299.343 299.806 L 295.041 296.132 M 301.013 295.51 L 297.569 292.258 M 304.188 292.534 L 299.994 288.157 M 307.959 290.252 L 302.664 284.143 M 311.809 288.194 L 305.576 280.23 M 315.759 286.407 L 308.727 276.432" stroke="black" stroke-width="1" fill="none"></path><path d="M 317.158 340.011 L 294.839 326.277 M 318.022 338.196 L 296.93 323.716 M 318.983 336.416 L 298.641 320.9 M 320.089 334.717 L 300.5 318.163 M 321.3 333.082 L 302.502 315.513 M 322.598 331.502 L 304.644 312.956 M 323.98 329.984 L 306.92 310.501 M 325.443 328.531 L 309.446 308.305 M 326.984 327.147 L 312.574 306.928 M 328.599 325.837 L 315.734 305.73 M 330.286 324.605 L 318.918 304.712 M 332.04 323.454 L 321.897 303.445 M 333.941 322.575 L 323.338 298.778 M 335.885 321.799 L 325.176 294.119 M 337.864 321.122 L 327.812 290.705 M 339.873 320.546 L 331.388 289.788 M 341.907 320.071 L 334.997 289.052 M 343.961 319.698 L 338.631 288.498 M 346.028 319.429 L 342.28 288.129 M 348.106 319.263 L 345.936 287.943 M 350.187 319.202 L 349.588 287.94 M 352.296 318.327 L 353.227 288.119 M 354.539 316.955 L 356.805 288.976 M 356.922 315.705 L 360.29 290.112 M 359.308 315.302 L 363.676 291.414 M 361.632 315.524 L 366.955 292.876 M 363.954 315.866 L 370.12 294.49 M 366.269 316.327 L 373.164 296.249 M 368.569 316.907 L 376.081 298.145 M 370.85 317.607 L 378.865 300.169 M 373.104 318.426 L 381.67 302.005 M 375.326 319.362 L 384.494 303.744 M 377.509 320.415 L 387.221 305.618 M 379.61 321.635 L 390.265 307.047 M 381.573 323.065 L 393.809 307.96 M 383.464 324.594 L 397.358 309.095 M 385.28 326.217 L 400.774 310.58 M 387.014 327.931 L 403.293 313.068 M 388.662 329.732 L 405.687 315.681 M 390.22 331.616 L 407.951 318.415 M 391.684 333.578 L 410.079 321.263 M 393.05 335.613 L 412.063 324.217 M 394.376 337.684 L 413.9 327.271 M 396.066 339.605 L 415.584 330.417 M 397.672 341.637 L 417.637 333.431 M 399.185 343.778 L 419.723 336.513 M 400.6 346.022 L 421.666 339.736 M 401.909 348.366 L 423.457 343.093 M 403.107 350.804 L 425.086 346.577 M 403.993 353.358 L 426.547 350.18 M 404.248 356.021 L 427.83 353.894 M 404.37 358.691 L 428.929 357.709 M 404.358 361.361 L 429.836 361.617 M 404.212 364.025 L 429.73 365.559 M 403.934 366.676 L 428.725 369.414 M 403.53 369.307 L 427.533 373.182 M 403.472 372.015 L 426.16 376.851 M 403.274 374.738 L 424.613 380.415 M 402.934 377.468 L 422.9 383.865 M 402.451 380.2 L 420.681 387.062 M 401.824 382.924 L 418.014 389.961 M 401.051 385.633 L 415.233 392.66 M 399.404 387.911 L 412.354 395.155 M 396.691 389.483 L 409.733 397.66 M 393.945 390.853 L 407.729 400.487 M 391.816 392.517 L 405.588 403.206 M 390.256 394.582 L 403.318 405.81 M 388.591 396.57 L 400.925 408.293 M 386.825 398.476 L 398.292 410.522 M 384.962 400.294 L 395.351 412.362 M 383.007 402.021 L 392.346 414.034 M 380.965 403.65 L 389.285 415.535 M 378.839 405.178 L 385.348 415.541 M 376.643 406.614 L 381.324 414.967 M 374.398 407.991 L 377.447 414.132 M 372.08 409.257 L 373.738 413.064 M 369.692 410.41 L 370.905 413.624 M 367.255 411.483 L 368.074 414.033 M 364.764 412.459 L 365.253 414.292 M 362.215 413.312 L 362.448 414.403 M 359.615 414.039 L 359.669 414.369 M 356.971 414.636 L 356.952 414.466 M 354.289 415.121 L 354.258 414.618 M 351.575 415.552 L 351.565 414.635 M 348.826 415.846 L 348.878 414.517 M 346.071 415.753 L 346.204 414.266 M 343.392 415.014 L 343.551 413.882 M 340.774 414.145 L 340.923 413.366 M 338.223 413.152 L 338.228 413.133 M 335.746 412.037 L 335.492 412.894 M 333.349 410.807 L 332.748 412.51 M 331.035 409.467 L 330.004 411.981 M 328.812 408.02 L 327.268 411.306 M 326.703 406.435 L 324.548 410.484 M 325.095 404.094 L 322.126 409.056 M 323.658 401.709 L 320.119 407.003 M 322.392 399.292 L 318.245 404.871 M 321.157 397.023 L 316.505 402.669 M 319.4 395.472 L 314.814 400.502 M 317.723 393.834 L 313.02 398.502 M 316.131 392.116 L 311.334 396.423 M 314.628 390.322 L 309.761 394.27 M 313.216 388.455 L 308.304 392.049 M 311.784 386.598 L 306.965 389.766 M 310.405 384.688 L 305.748 387.427 M 309.12 382.705 L 304.653 385.04 M 307.932 380.653 L 303.677 382.613 M 306.845 378.537 L 302.802 380.159 M 305.862 376.361 L 302.054 377.672 M 304.986 374.132 L 301.434 375.159 M 304.222 371.853 L 300.943 372.626 M 303.57 369.531 L 300.329 370.126 M 303.022 367.173 L 298.788 367.734 M 302.127 364.82 L 297.362 365.21 M 301.348 362.394 L 296.061 362.561 M 300.692 359.899 L 294.893 359.792 M 300.163 357.343 L 293.868 356.911 M 299.765 354.731 L 292.994 353.926 M 299.502 352.072 L 292.632 350.903 M 299.379 349.371 L 292.87 347.926 M 299.817 346.751 L 293.261 344.948 M 301.101 344.382 L 293.805 341.977 M 302.492 342.105 L 294.503 339.02 M 303.985 339.925 L 295.354 336.087 M 305.574 337.848 L 296.357 333.185 M 307.251 335.876 L 298.506 330.887 M 309.011 334.014 L 300.935 328.856 M 310.355 331.916 L 303.435 326.992 M 311.554 329.687 L 305.994 325.296 M 312.875 327.506 L 308.601 323.77 M 314.316 325.38 L 311.247 322.413 M 315.875 323.316 L 313.92 321.227 M 317.55 321.319 L 316.611 320.21 M 319.336 319.397 L 319.309 319.362 M 321.232 317.556 L 321.966 318.623 M 323.234 315.801 L 324.481 317.825 M 325.16 313.816 L 327.003 317.172 M 326.845 311.152 L 329.523 316.661 M 328.831 308.768 L 332.033 316.292 M 331.51 307.86 L 334.526 316.062" stroke="black" stroke-width="1" fill="none"></path><path d="M 369.256 401.92 L 375.648 455.831 M 367.054 401.961 L 370.827 457.338 M 364.861 401.891 L 365.912 460.145 M 362.683 401.712 L 360.732 462.701 M 360.525 401.425 L 355.302 464.988 M 358.391 401.031 L 349.644 466.931 M 356.289 400.532 L 343.772 468.551 M 354.12 400.36 L 337.84 469.278 M 351.946 400.089 L 332.469 467.322 M 349.773 399.705 L 327.227 465.107 M 347.61 399.209 L 322.128 462.643 M 345.46 398.599 L 317.907 458.364 M 343.251 398.027 L 314.484 453.018 M 341.036 397.364 L 311.476 447.587 M 338.836 396.578 L 307.285 444.527 M 336.657 395.67 L 302.551 442.254 M 334.507 394.638 L 297.902 439.721 M 332.392 393.484 L 293.355 436.932 M 330.319 392.209 L 288.922 433.89 M 328.296 390.813 L 284.618 430.601 M 326.165 389.435 L 280.457 427.069 M 323.868 388.084 L 276.451 423.3 M 321.613 386.579 L 272.953 419.077 M 319.411 384.923 L 269.668 414.661 M 317.851 382.807 L 266.598 410.067 M 316.722 380.446 L 263.752 405.307 M 315.713 378.034 L 261.139 400.392 M 314.827 375.577 L 258.767 395.333 M 314.065 373.081 L 256.645 390.142 M 313.43 370.552 L 254.59 384.878 M 312.923 367.997 L 251.949 379.649 M 312.544 365.422 L 249.561 374.222 M 312.295 362.833 L 247.439 368.609 M 311.903 360.248 L 245.595 362.824 M 311.474 357.634 L 244.042 356.88 M 311.177 354.982 L 242.79 350.793 M 311.014 352.298 L 242.028 344.597 M 310.988 349.591 L 241.645 338.316 M 311.101 346.866 L 241.587 331.964 M 311.654 344.211 L 241.862 325.556 M 312.879 341.756 L 242.473 319.112 M 314.218 339.389 L 243.427 312.647 M 315.664 337.113 L 246.487 306.95 M 317.212 334.935 L 250.62 301.845 M 318.855 332.858 L 254.965 297.022 M 320.588 330.887 L 259.506 292.491 M 322.404 329.025 L 264.223 288.259 M 324.216 327.212 L 269.099 284.332 M 325.63 325.099 L 272.944 279.706 M 327.157 323.051 L 276.927 275.197 M 328.793 321.073 L 281.133 270.89 M 330.535 319.171 L 285.552 266.796 M 332.379 317.35 L 290.172 262.926 M 334.321 315.617 L 294.984 259.289 M 336.358 313.977 L 299.219 254.689 M 338.485 312.434 L 302.693 248.388 M 340.697 310.993 L 306.638 242.183 M 342.933 309.529 L 312.089 238.491 M 345.072 307.679 L 318.079 235.885 M 347.343 305.923 L 324.2 233.578 M 349.744 304.27 L 330.436 231.579 M 352.268 302.729 L 336.773 229.891 M 354.919 301.356 L 343.118 228.052 M 357.725 300.531 L 349.549 226.243 M 360.59 299.844 L 356.107 224.754 M 363.507 299.301 L 362.779 223.593 M 366.471 298.905 L 369.547 222.768 M 369.472 298.659 L 376.394 222.285 M 372.504 298.566 L 383.303 222.15 M 375.559 298.628 L 390.255 222.368 M 378.628 298.847 L 397.234 222.944 M 381.704 299.225 L 404.235 223.826 M 384.398 300.838 L 411.252 225.013 M 386.934 302.67 L 418.25 226.568 M 389.338 304.612 L 425.209 228.492 M 391.606 306.652 L 432.11 230.784 M 393.758 308.744 L 438.934 233.445 M 395.858 310.79 L 445.66 236.471 M 397.829 312.921 L 452.27 239.86 M 399.667 315.129 L 458.744 243.607 M 401.37 317.407 L 465.236 247.515 M 402.935 319.746 L 471.573 251.789 M 404.361 322.138 L 477.732 256.422 M 405.645 324.576 L 483.695 261.407 M 406.716 327.104 L 489.441 266.735 M 407.608 329.674 L 494.951 272.398 M 408.351 332.254 L 500.595 278.156 M 408.947 334.837 L 506.233 284.137 M 409.724 337.263 L 511.61 290.484 M 410.864 339.511 L 516.704 297.186 M 411.894 341.82 L 521.042 304.384 M 412.809 344.186 L 524.271 312.084 M 413.607 346.602 L 527.122 319.974 M 414.285 349.063 L 529.582 328.033 M 414.84 351.563 L 531.643 336.243 M 415.067 354.112 L 533.294 344.584 M 415.053 356.671 L 534.923 353.024 M 414.911 359.217 L 536.281 361.595 M 414.642 361.746 L 537.207 370.289 M 414.247 364.25 L 537.69 379.083 M 413.882 366.75 L 537.219 387.869 M 413.701 369.298 L 536.138 396.624 M 413.171 371.788 L 534.612 405.343 M 412.076 374.107 L 532.644 414.006 M 410.872 376.351 L 530.234 422.59 M 409.565 378.514 L 525.864 430.392 M 408.16 380.593 L 520.594 437.647 M 406.802 382.663 L 515.006 444.556 M 405.64 384.84 L 509.122 451.108 M 404.367 386.962 L 502.965 457.29 M 402.986 389.023 L 497.151 463.563 M 401.499 391.018 L 491.383 469.787 M 399.909 392.941 L 485.325 475.698 M 398.221 394.787 L 478.996 481.283 M 396.438 396.551 L 472.412 486.53 M 394.563 398.227 L 465.592 491.427 M 392.637 399.863 L 458.554 495.964 M 390.624 401.408 L 451.317 500.132 M 388.528 402.856 L 443.899 503.921 M 386.354 404.201 L 436.776 508.262 M 384.105 405.441 L 429.625 512.741 M 381.789 406.57 L 422.206 516.878 M 379.409 407.585 L 414.537 520.657 M 376.973 408.483 L 406.635 524.064 M 374.484 409.26 L 398.517 527.083 M 371.95 409.911 L 390.204 529.703 M 369.348 410.154 L 381.604 530.833 M 366.742 410.266 L 372.946 531.305 M 364.137 410.248 L 364.284 531.344 M 361.541 410.099 L 355.64 530.95 M 358.96 409.822 L 347.037 530.125 M 356.4 409.416 L 338.494 528.873 M 353.868 408.884 L 330.026 527.237 M 351.393 408.138 L 321.411 526.152 M 348.97 407.258 L 312.82 524.626 M 346.604 406.262 L 304.275 522.66 M 344.3 405.151 L 295.8 520.253 M 342.062 403.931 L 287.416 517.408 M 339.897 402.606 L 279.147 514.128 M 337.809 401.178 L 271.016 510.417 M 335.74 399.745 L 263.91 505.012 M 333.718 398.254 L 257.425 498.866 M 331.774 396.664 L 251.301 492.44 M 329.913 394.98 L 245.551 485.756 M 328.14 393.206 L 240.186 478.836 M 326.458 391.347 L 234.479 472.346 M 324.873 389.408 L 228.953 465.714 M 323.229 387.505 L 223.766 458.815 M 321.496 385.634 L 218.931 451.666 M 319.849 383.662 L 214.459 444.285 M 318.293 381.593 L 210.363 436.691 M 316.834 379.432 L 206.651 428.902 M 315.478 377.183 L 204.172 420.612 M 314.229 374.851 L 202.193 412.228 M 313.093 372.441 L 200.637 403.808 M 312.074 369.96 L 199.053 395.472 M 311.731 367.315 L 197.893 387.091 M 311.859 364.624 L 197.157 378.689 M 312.124 361.969 L 196.845 370.284 M 312.522 359.356 L 196.953 361.9 M 313.05 356.793 L 197.481 353.557 M 313.705 354.285 L 199.907 345.392 M 314.481 351.839 L 202.846 337.472 M 314.998 349.393 L 206.162 329.814 M 314.44 346.705 L 209.836 322.434 M 314.03 343.94 L 212.965 315.098 M 313.776 341.106 L 213.917 307.126 M 313.682 338.212 L 215.291 299.142 M 313.957 335.358 L 217.092 291.169" stroke="black" stroke-width="1" fill="none"></path><path d="M 313.264 360.031 L 248.851 348.558 M 314.487 358.013 L 251.505 343.514 M 315.799 356.097 L 254.387 338.686 M 317.194 354.288 L 257.484 334.084 M 318.668 352.589 L 260.06 329.433 M 320.224 351.01 L 261.147 324.182 M 321.84 349.547 L 262.519 318.944 M 323.507 348.202 L 264.176 313.736 M 325.217 346.978 L 266.118 308.572 M 326.964 345.873 L 268.346 303.468 M 328.359 344.586 L 270.052 297.793 M 329.675 343.265 L 271.439 291.538 M 331.05 342.018 L 273.239 285.252 M 332.48 340.846 L 275.928 279.47 M 333.962 339.752 L 279.916 274.869 M 335.489 338.738 L 284.162 270.447 M 337.06 337.807 L 288.658 266.219 M 338.668 336.959 L 293.394 262.198 M 340.311 336.196 L 298.361 258.399 M 342.049 335.662 L 303.55 254.833 M 343.855 335.355 L 309.41 252.625 M 345.652 335.147 L 315.67 251.595 M 347.435 335.037 L 321.913 250.9 M 349.2 335.021 L 328.119 250.535 M 350.941 335.099 L 334.197 250.111 M 352.654 335.268 L 340.195 249.666 M 354.293 335.101 L 346.18 249.525 M 355.919 334.61 L 352.135 249.685 M 357.587 334.153 L 358.047 250.144 M 359.3 333.709 L 363.899 250.896 M 361.058 333.354 L 369.678 251.937 M 362.857 333.09 L 375.369 253.263 M 364.491 333.881 L 380.959 254.866 M 366.024 334.88 L 386.489 256.527 M 367.476 335.946 L 392.317 257.174 M 368.844 337.073 L 398.152 258.128 M 370.124 338.255 L 403.977 259.391 M 371.316 339.487 L 409.691 261.143 M 372.587 340.454 L 415.299 263.278 M 373.82 341.44 L 420.824 265.708 M 374.993 342.48 L 425.961 268.849 M 376.103 343.57 L 429.715 273.842 M 377.149 344.707 L 433.145 278.96 M 378.128 345.888 L 436.247 284.182 M 379.038 347.108 L 439.02 289.488 M 379.879 348.364 L 440.921 295.329 M 380.718 349.597 L 442.32 301.26 M 382.001 350.504 L 443.34 307.146 M 383.251 351.495 L 445.157 312.222 M 384.462 352.567 L 448.547 316.272 M 385.629 353.72 L 451.749 320.522 M 386.748 354.952 L 454.752 324.964 M 387.485 356.386 L 457.545 329.589 M 387.493 358.077 L 460.117 334.387 M 387.408 359.739 L 461.735 339.543 M 387.234 361.368 L 461.942 345.029 M 386.92 362.968 L 461.864 350.464 M 385.577 364.629 L 461.506 355.834 M 384.147 366.143 L 463.768 360.935 M 382.695 367.505 L 465.971 366.229 M 381.903 368.743 L 466.917 371.692 M 381.052 369.9 L 465.744 377.089 M 380.149 370.975 L 464.307 382.379 M 379.405 372.003 L 462.615 387.548 M 379.648 373.212 L 460.675 392.584 M 379.824 374.454 L 458.497 397.476 M 379.929 375.727 L 456.028 402.191 M 379.963 377.027 L 453.299 406.717 M 379.922 378.349 L 450.366 411.056 M 379.804 379.689 L 447.241 415.2 M 379.607 381.043 L 443.937 419.141 M 379.329 382.406 L 440.465 422.871 M 379.005 383.799 L 436.839 426.383 M 378.607 385.205 L 432.998 429.612 M 378.121 386.61 L 429.017 432.589 M 377.546 388.009 L 424.93 435.324 M 376.883 389.396 L 420.794 437.862 M 376.131 390.766 L 417.473 441.256 M 375.289 392.113 L 413.972 444.491 M 374.359 393.433 L 410.296 447.56 M 373.328 394.698 L 406.455 450.451 M 372.099 395.707 L 402.456 453.157 M 370.809 396.66 L 398.309 455.669 M 369.459 397.553 L 393.139 455.803 M 368.054 398.383 L 387.638 454.438 M 366.596 399.145 L 382.704 453.9 M 365.088 399.837 L 378.563 455.842 M 363.494 400.25 L 374.29 457.583" stroke="black" stroke-width="1" fill="none"></path></svg>
