<svg version="1.1" xmlns:xlink="http://www.w3.org/1999/xlink" xmlns="http://www.w3.org/2000/svg"><polyline points="0,0 490,0 490,400 0,400 0,0" stroke="black" stroke-width="1" fill="none"></polyline><path d="M 20.0025 37.2178 L 136.191 45.3818 M 22.0736 45.9217 L 137.682 54.8589 M 24.1448 54.6255 L 139.172 64.3361 M 26.216 63.3294 L 140.662 73.8132 M 28.2872 72.0333 L 142.152 83.2903 M 30.3583 80.7372 L 143.643 92.7675 M 32.4295 89.441 L 145.133 102.245 M 34.5007 98.1449 L 146.623 111.722 M 36.5719 106.849 L 148.114 121.199 M 38.643 115.553 L 149.604 130.676 M 40.7142 124.257 L 151.094 140.153 M 42.7854 132.96 L 152.585 149.63 M 44.8566 141.664 L 154.075 159.107 M 46.9278 150.368 L 155.565 168.585 M 48.9989 159.072 L 157.055 178.062 M 20.0025 37.2178 L 48.9989 159.072 M 28.3017 37.8009 L 56.7173 160.428 M 36.6009 38.3841 L 64.4356 161.785 M 44.9001 38.9672 L 72.1539 163.141 M 53.1992 39.5504 L 79.8722 164.498 M 61.4984 40.1335 L 87.5905 165.854 M 69.7976 40.7166 L 95.3089 167.21 M 78.0968 41.2998 L 103.027 168.567 M 86.396 41.8829 L 110.746 169.923 M 94.6952 42.4661 L 118.464 171.28 M 102.994 43.0492 L 126.182 172.636 M 111.294 43.6323 L 133.9 173.993 M 119.593 44.2155 L 141.619 175.349 M 127.892 44.7986 L 149.337 176.705 M 136.191 45.3818 L 157.055 178.062" stroke="black" stroke-width="1" fill="none"></path><path d="M 48.9989 159.072 L 157.055 178.062 M 49.8373 168.991 L 154.709 183.725 M 50.6757 178.91 L 152.362 189.389 M 51.514 188.829 L 150.016 195.052 M 52.3524 198.748 L 147.669 200.715 M 53.1907 208.668 L 145.322 206.379 M 54.0291 218.587 L 142.976 212.042 M 54.8675 228.506 L 140.629 217.705 M 55.7058 238.425 L 138.282 223.369 M 56.5442 248.344 L 135.936 229.032 M 57.3825 258.263 L 133.589 234.696 M 58.2209 268.182 L 131.243 240.359 M 59.0593 278.101 L 128.896 246.022 M 48.9989 159.072 L 59.0593 278.101 M 58.0036 160.655 L 64.879 275.428 M 67.0083 162.237 L 70.6987 272.755 M 76.0131 163.819 L 76.5184 270.082 M 85.0178 165.402 L 82.3382 267.408 M 94.0225 166.984 L 88.1579 264.735 M 103.027 168.567 L 93.9776 262.062 M 112.032 170.149 L 99.7973 259.389 M 121.037 171.732 L 105.617 256.715 M 130.041 173.314 L 111.437 254.042 M 139.046 174.897 L 117.257 251.369 M 148.051 176.479 L 123.076 248.696 M 157.055 178.062 L 128.896 246.022" stroke="black" stroke-width="1" fill="none"></path><path d="M 59.0593 278.101 L 128.896 246.022 M 58.7052 280.5 L 129.775 248.557 M 58.3511 282.898 L 130.655 251.091 M 57.997 285.297 L 131.534 253.625 M 57.643 287.696 L 132.414 256.159 M 57.2889 290.094 L 133.293 258.694 M 56.9348 292.493 L 134.173 261.228 M 56.5807 294.892 L 135.052 263.762 M 56.2267 297.29 L 135.931 266.297 M 55.8726 299.689 L 136.811 268.831 M 55.5185 302.087 L 137.69 271.365 M 55.1644 304.486 L 138.57 273.899 M 54.8104 306.885 L 139.449 276.434 M 54.4563 309.283 L 140.329 278.968 M 54.1022 311.682 L 141.208 281.502 M 53.7481 314.081 L 142.087 284.036 M 53.3941 316.479 L 142.967 286.571 M 53.04 318.878 L 143.846 289.105 M 52.6859 321.276 L 144.726 291.639 M 52.3318 323.675 L 145.605 294.174 M 51.9778 326.074 L 146.485 296.708 M 51.6237 328.472 L 147.364 299.242 M 51.2696 330.871 L 148.243 301.776 M 50.9155 333.27 L 149.123 304.311 M 50.5615 335.668 L 150.002 306.845 M 50.2074 338.067 L 150.882 309.379 M 49.8533 340.465 L 151.761 311.913 M 49.4992 342.864 L 152.641 314.448 M 49.1452 345.263 L 153.52 316.982 M 48.7911 347.661 L 154.4 319.516 M 48.437 350.06 L 155.279 322.051 M 48.0829 352.459 L 156.158 324.585 M 47.7289 354.857 L 157.038 327.119 M 47.3748 357.256 L 157.917 329.653 M 47.0207 359.655 L 158.797 332.188 M 46.6666 362.053 L 159.676 334.722 M 46.3126 364.452 L 160.556 337.256 M 45.9585 366.85 L 161.435 339.79 M 59.0593 278.101 L 45.9585 366.85 M 60.9467 277.234 L 49.0795 366.119 M 62.8342 276.367 L 52.2005 365.388 M 64.7217 275.5 L 55.3214 364.656 M 66.6092 274.633 L 58.4424 363.925 M 68.4967 273.766 L 61.5634 363.194 M 70.3841 272.899 L 64.6844 362.462 M 72.2716 272.032 L 67.8054 361.731 M 74.1591 271.165 L 70.9264 361 M 76.0466 270.298 L 74.0474 360.268 M 77.934 269.431 L 77.1683 359.537 M 79.8215 268.564 L 80.2893 358.806 M 81.709 267.697 L 83.4103 358.074 M 83.5965 266.83 L 86.5313 357.343 M 85.484 265.963 L 89.6523 356.611 M 87.3714 265.096 L 92.7733 355.88 M 89.2589 264.229 L 95.8943 355.149 M 91.1464 263.362 L 99.0152 354.417 M 93.0339 262.495 L 102.136 353.686 M 94.9213 261.628 L 105.257 352.955 M 96.8088 260.761 L 108.378 352.223 M 98.6963 259.894 L 111.499 351.492 M 100.584 259.027 L 114.62 350.761 M 102.471 258.16 L 117.741 350.029 M 104.359 257.293 L 120.862 349.298 M 106.246 256.426 L 123.983 348.567 M 108.134 255.559 L 127.104 347.835 M 110.021 254.692 L 130.225 347.104 M 111.909 253.825 L 133.346 346.373 M 113.796 252.958 L 136.467 345.641 M 115.684 252.091 L 139.588 344.91 M 117.571 251.224 L 142.709 344.179 M 119.459 250.357 L 145.83 343.447 M 121.346 249.49 L 148.951 342.716 M 123.234 248.623 L 152.072 341.984 M 125.121 247.756 L 155.193 341.253 M 127.008 246.889 L 158.314 340.522 M 128.896 246.022 L 161.435 339.79" stroke="black" stroke-width="1" fill="none"></path><path d="M 136.191 45.3818 L 266.268 45.7002 M 137.026 50.689 L 266.089 50.1101 M 137.86 55.9962 L 265.909 54.5199 M 138.695 61.3034 L 265.729 58.9297 M 139.53 66.6106 L 265.549 63.3395 M 140.364 71.9178 L 265.37 67.7494 M 141.199 77.225 L 265.19 72.1592 M 142.033 82.5322 L 265.01 76.569 M 142.868 87.8394 L 264.83 80.9789 M 143.702 93.1466 L 264.651 85.3887 M 144.537 98.4538 L 264.471 89.7985 M 145.371 103.761 L 264.291 94.2083 M 146.206 109.068 L 264.111 98.6182 M 147.041 114.375 L 263.932 103.028 M 147.875 119.683 L 263.752 107.438 M 148.71 124.99 L 263.572 111.848 M 149.544 130.297 L 263.392 116.257 M 150.379 135.604 L 263.213 120.667 M 151.213 140.911 L 263.033 125.077 M 152.048 146.219 L 262.853 129.487 M 152.883 151.526 L 262.673 133.897 M 153.717 156.833 L 262.494 138.307 M 154.552 162.14 L 262.314 142.716 M 155.386 167.447 L 262.134 147.126 M 156.221 172.755 L 261.954 151.536 M 157.055 178.062 L 261.775 155.946 M 136.191 45.3818 L 157.055 178.062 M 141.394 45.3945 L 161.244 177.177 M 146.597 45.4072 L 165.433 176.292 M 151.801 45.42 L 169.622 175.408 M 157.004 45.4327 L 173.811 174.523 M 162.207 45.4455 L 177.999 173.639 M 167.41 45.4582 L 182.188 172.754 M 172.613 45.4709 L 186.377 171.869 M 177.816 45.4837 L 190.566 170.985 M 183.019 45.4964 L 194.754 170.1 M 188.222 45.5092 L 198.943 169.215 M 193.425 45.5219 L 203.132 168.331 M 198.628 45.5346 L 207.321 167.446 M 203.831 45.5474 L 211.509 166.562 M 209.034 45.5601 L 215.698 165.677 M 214.238 45.5728 L 219.887 164.792 M 219.441 45.5856 L 224.076 163.908 M 224.644 45.5983 L 228.265 163.023 M 229.847 45.6111 L 232.453 162.138 M 235.05 45.6238 L 236.642 161.254 M 240.253 45.6365 L 240.831 160.369 M 245.456 45.6493 L 245.02 159.484 M 250.659 45.662 L 249.208 158.6 M 255.862 45.6748 L 253.397 157.715 M 261.065 45.6875 L 257.586 156.831 M 266.268 45.7002 L 261.775 155.946" stroke="black" stroke-width="1" fill="none"></path><path d="M 157.055 178.062 L 261.775 155.946 M 155.929 180.78 L 260.297 160.337 M 154.803 183.499 L 258.819 164.728 M 153.676 186.217 L 257.342 169.12 M 152.55 188.935 L 255.864 173.511 M 151.424 191.654 L 254.386 177.902 M 150.297 194.372 L 252.909 182.293 M 149.171 197.091 L 251.431 186.684 M 148.044 199.809 L 249.953 191.076 M 146.918 202.528 L 248.476 195.467 M 145.792 205.246 L 246.998 199.858 M 144.665 207.964 L 245.52 204.249 M 143.539 210.683 L 244.043 208.641 M 142.413 213.401 L 242.565 213.032 M 141.286 216.12 L 241.087 217.423 M 140.16 218.838 L 239.61 221.814 M 139.033 221.557 L 238.132 226.205 M 137.907 224.275 L 236.654 230.597 M 136.781 226.993 L 235.177 234.988 M 135.654 229.712 L 233.699 239.379 M 134.528 232.43 L 232.221 243.77 M 133.401 235.149 L 230.744 248.161 M 132.275 237.867 L 229.266 252.553 M 131.149 240.586 L 227.788 256.944 M 130.022 243.304 L 226.311 261.335 M 128.896 246.022 L 224.833 265.726 M 157.055 178.062 L 128.896 246.022 M 161.244 177.177 L 132.733 246.811 M 165.433 176.292 L 136.571 247.599 M 169.622 175.408 L 140.408 248.387 M 173.811 174.523 L 144.246 249.175 M 177.999 173.639 L 148.083 249.963 M 182.188 172.754 L 151.921 250.751 M 186.377 171.869 L 155.758 251.539 M 190.566 170.985 L 159.596 252.328 M 194.754 170.1 L 163.433 253.116 M 198.943 169.215 L 167.271 253.904 M 203.132 168.331 L 171.108 254.692 M 207.321 167.446 L 174.946 255.48 M 211.509 166.562 L 178.783 256.268 M 215.698 165.677 L 182.621 257.057 M 219.887 164.792 L 186.458 257.845 M 224.076 163.908 L 190.296 258.633 M 228.265 163.023 L 194.133 259.421 M 232.453 162.138 L 197.971 260.209 M 236.642 161.254 L 201.808 260.997 M 240.831 160.369 L 205.646 261.786 M 245.02 159.484 L 209.483 262.574 M 249.208 158.6 L 213.321 263.362 M 253.397 157.715 L 217.158 264.15 M 257.586 156.831 L 220.996 264.938 M 261.775 155.946 L 224.833 265.726" stroke="black" stroke-width="1" fill="none"></path><path d="M 128.896 246.022 L 224.833 265.726 M 129.775 248.557 L 225.308 267.622 M 130.655 251.091 L 225.783 269.518 M 131.534 253.625 L 226.258 271.413 M 132.414 256.159 L 226.733 273.309 M 133.293 258.694 L 227.208 275.204 M 134.173 261.228 L 227.683 277.1 M 135.052 263.762 L 228.158 278.995 M 135.931 266.297 L 228.633 280.891 M 136.811 268.831 L 229.108 282.787 M 137.69 271.365 L 229.583 284.682 M 138.57 273.899 L 230.058 286.578 M 139.449 276.434 L 230.533 288.473 M 140.329 278.968 L 231.009 290.369 M 141.208 281.502 L 231.484 292.265 M 142.087 284.036 L 231.959 294.16 M 142.967 286.571 L 232.434 296.056 M 143.846 289.105 L 232.909 297.951 M 144.726 291.639 L 233.384 299.847 M 145.605 294.174 L 233.859 301.743 M 146.485 296.708 L 234.334 303.638 M 147.364 299.242 L 234.809 305.534 M 148.243 301.776 L 235.284 307.429 M 149.123 304.311 L 235.759 309.325 M 150.002 306.845 L 236.234 311.221 M 150.882 309.379 L 236.709 313.116 M 151.761 311.913 L 237.184 315.012 M 152.641 314.448 L 237.659 316.907 M 153.52 316.982 L 238.134 318.803 M 154.4 319.516 L 238.609 320.699 M 155.279 322.051 L 239.084 322.594 M 156.158 324.585 L 239.559 324.49 M 157.038 327.119 L 240.034 326.385 M 157.917 329.653 L 240.509 328.281 M 158.797 332.188 L 240.984 330.177 M 159.676 334.722 L 241.459 332.072 M 160.556 337.256 L 241.934 333.968 M 161.435 339.79 L 242.409 335.863 M 128.896 246.022 L 161.435 339.79 M 131.489 246.555 L 163.623 339.684 M 134.082 247.087 L 165.812 339.578 M 136.675 247.62 L 168 339.472 M 139.268 248.153 L 170.189 339.366 M 141.86 248.685 L 172.377 339.26 M 144.453 249.218 L 174.566 339.154 M 147.046 249.75 L 176.754 339.047 M 149.639 250.283 L 178.943 338.941 M 152.232 250.815 L 181.131 338.835 M 154.825 251.348 L 183.32 338.729 M 157.418 251.88 L 185.508 338.623 M 160.011 252.413 L 187.697 338.517 M 162.604 252.945 L 189.885 338.411 M 165.196 253.478 L 192.074 338.304 M 167.789 254.01 L 194.262 338.198 M 170.382 254.543 L 196.451 338.092 M 172.975 255.076 L 198.639 337.986 M 175.568 255.608 L 200.828 337.88 M 178.161 256.141 L 203.016 337.774 M 180.754 256.673 L 205.205 337.668 M 183.347 257.206 L 207.393 337.562 M 185.94 257.738 L 209.582 337.455 M 188.533 258.271 L 211.77 337.349 M 191.125 258.803 L 213.959 337.243 M 193.718 259.336 L 216.147 337.137 M 196.311 259.868 L 218.336 337.031 M 198.904 260.401 L 220.524 336.925 M 201.497 260.933 L 222.713 336.819 M 204.09 261.466 L 224.901 336.712 M 206.683 261.999 L 227.09 336.606 M 209.276 262.531 L 229.278 336.5 M 211.869 263.064 L 231.467 336.394 M 214.461 263.596 L 233.655 336.288 M 217.054 264.129 L 235.844 336.182 M 219.647 264.661 L 238.032 336.076 M 222.24 265.194 L 240.221 335.969 M 224.833 265.726 L 242.409 335.863" stroke="black" stroke-width="1" fill="none"></path><path d="M 266.268 45.7002 L 333.958 60.641 M 266.044 51.2125 L 333.786 64.7845 M 265.819 56.7248 L 333.615 68.928 M 265.594 62.2371 L 333.443 73.0715 M 265.37 67.7494 L 333.271 77.215 M 265.145 73.2617 L 333.1 81.3585 M 264.92 78.7739 L 332.928 85.502 M 264.696 84.2862 L 332.757 89.6455 M 264.471 89.7985 L 332.585 93.789 M 264.246 95.3108 L 332.414 97.9325 M 264.022 100.823 L 332.242 102.076 M 263.797 106.335 L 332.07 106.219 M 263.572 111.848 L 331.899 110.363 M 263.348 117.36 L 331.727 114.506 M 263.123 122.872 L 331.556 118.65 M 262.898 128.385 L 331.384 122.793 M 262.673 133.897 L 331.213 126.937 M 262.449 139.409 L 331.041 131.08 M 262.224 144.921 L 330.869 135.224 M 261.999 150.434 L 330.698 139.367 M 261.775 155.946 L 330.526 143.511 M 266.268 45.7002 L 261.775 155.946 M 269.653 46.4473 L 265.212 155.324 M 273.037 47.1943 L 268.65 154.702 M 276.422 47.9413 L 272.087 154.081 M 279.806 48.6884 L 275.525 153.459 M 283.191 49.4354 L 278.963 152.837 M 286.575 50.1825 L 282.4 152.215 M 289.96 50.9295 L 285.838 151.594 M 293.344 51.6765 L 289.275 150.972 M 296.729 52.4236 L 292.713 150.35 M 300.113 53.1706 L 296.151 149.728 M 303.498 53.9176 L 299.588 149.107 M 306.882 54.6647 L 303.026 148.485 M 310.266 55.4117 L 306.463 147.863 M 313.651 56.1588 L 309.901 147.241 M 317.035 56.9058 L 313.338 146.62 M 320.42 57.6528 L 316.776 145.998 M 323.804 58.3999 L 320.214 145.376 M 327.189 59.1469 L 323.651 144.754 M 330.573 59.8939 L 327.089 144.133 M 333.958 60.641 L 330.526 143.511" stroke="black" stroke-width="1" fill="none"></path><path d="M 261.775 155.946 L 330.526 143.511 M 260.62 159.377 L 330.64 146.914 M 259.466 162.807 L 330.754 150.317 M 258.311 166.238 L 330.868 153.72 M 257.157 169.668 L 330.982 157.123 M 256.003 173.099 L 331.095 160.526 M 254.848 176.53 L 331.209 163.929 M 253.694 179.96 L 331.323 167.332 M 252.539 183.391 L 331.437 170.734 M 251.385 186.822 L 331.551 174.137 M 250.23 190.252 L 331.665 177.54 M 249.076 193.683 L 331.778 180.943 M 247.922 197.114 L 331.892 184.346 M 246.767 200.544 L 332.006 187.749 M 245.613 203.975 L 332.12 191.152 M 244.458 207.405 L 332.234 194.555 M 243.304 210.836 L 332.347 197.958 M 242.149 214.267 L 332.461 201.361 M 240.995 217.697 L 332.575 204.764 M 239.841 221.128 L 332.689 208.167 M 238.686 224.559 L 332.803 211.57 M 237.532 227.989 L 332.917 214.973 M 236.377 231.42 L 333.03 218.376 M 235.223 234.851 L 333.144 221.779 M 234.068 238.281 L 333.258 225.182 M 232.914 241.712 L 333.372 228.584 M 231.76 245.142 L 333.486 231.987 M 230.605 248.573 L 333.599 235.39 M 229.451 252.004 L 333.713 238.793 M 228.296 255.434 L 333.827 242.196 M 227.142 258.865 L 333.941 245.599 M 225.987 262.296 L 334.055 249.002 M 224.833 265.726 L 334.169 252.405 M 261.775 155.946 L 224.833 265.726 M 263.923 155.557 L 228.25 265.31 M 266.072 155.169 L 231.667 264.894 M 268.22 154.78 L 235.083 264.477 M 270.369 154.392 L 238.5 264.061 M 272.517 154.003 L 241.917 263.645 M 274.666 153.614 L 245.333 263.229 M 276.814 153.226 L 248.75 262.812 M 278.963 152.837 L 252.167 262.396 M 281.111 152.449 L 255.584 261.98 M 283.26 152.06 L 259 261.563 M 285.408 151.671 L 262.417 261.147 M 287.557 151.283 L 265.834 260.731 M 289.705 150.894 L 269.251 260.315 M 291.854 150.506 L 272.667 259.898 M 294.002 150.117 L 276.084 259.482 M 296.151 149.728 L 279.501 259.066 M 298.299 149.34 L 282.918 258.649 M 300.448 148.951 L 286.334 258.233 M 302.596 148.563 L 289.751 257.817 M 304.744 148.174 L 293.168 257.4 M 306.893 147.786 L 296.585 256.984 M 309.041 147.397 L 300.001 256.568 M 311.19 147.008 L 303.418 256.152 M 313.338 146.62 L 306.835 255.735 M 315.487 146.231 L 310.251 255.319 M 317.635 145.843 L 313.668 254.903 M 319.784 145.454 L 317.085 254.486 M 321.932 145.065 L 320.502 254.07 M 324.081 144.677 L 323.918 253.654 M 326.229 144.288 L 327.335 253.238 M 328.378 143.9 L 330.752 252.821 M 330.526 143.511 L 334.169 252.405" stroke="black" stroke-width="1" fill="none"></path><path d="M 224.833 265.726 L 334.169 252.405 M 225.439 268.145 L 335.032 255.532 M 226.045 270.563 L 335.896 258.659 M 226.651 272.982 L 336.76 261.785 M 227.257 275.4 L 337.623 264.912 M 227.863 277.819 L 338.487 268.039 M 228.47 280.237 L 339.351 271.166 M 229.076 282.656 L 340.214 274.292 M 229.682 285.074 L 341.078 277.419 M 230.288 287.493 L 341.942 280.546 M 230.894 289.911 L 342.805 283.672 M 231.5 292.33 L 343.669 286.799 M 232.106 294.749 L 344.533 289.926 M 232.712 297.167 L 345.396 293.053 M 233.318 299.586 L 346.26 296.179 M 233.924 302.004 L 347.123 299.306 M 234.53 304.423 L 347.987 302.433 M 235.136 306.841 L 348.851 305.56 M 235.742 309.26 L 349.714 308.686 M 236.349 311.678 L 350.578 311.813 M 236.955 314.097 L 351.442 314.94 M 237.561 316.515 L 352.305 318.067 M 238.167 318.934 L 353.169 321.193 M 238.773 321.352 L 354.033 324.32 M 239.379 323.771 L 354.896 327.447 M 239.985 326.189 L 355.76 330.574 M 240.591 328.608 L 356.624 333.7 M 241.197 331.026 L 357.487 336.827 M 241.803 333.445 L 358.351 339.954 M 242.409 335.863 L 359.215 343.081 M 224.833 265.726 L 242.409 335.863 M 228.603 265.267 L 246.437 336.112 M 232.373 264.808 L 250.465 336.361 M 236.144 264.348 L 254.493 336.61 M 239.914 263.889 L 258.52 336.859 M 243.684 263.43 L 262.548 337.108 M 247.454 262.97 L 266.576 337.357 M 251.224 262.511 L 270.604 337.605 M 254.995 262.051 L 274.632 337.854 M 258.765 261.592 L 278.659 338.103 M 262.535 261.133 L 282.687 338.352 M 266.305 260.673 L 286.715 338.601 M 270.075 260.214 L 290.743 338.85 M 273.846 259.755 L 294.77 339.099 M 277.616 259.295 L 298.798 339.348 M 281.386 258.836 L 302.826 339.596 M 285.156 258.377 L 306.854 339.845 M 288.926 257.917 L 310.881 340.094 M 292.697 257.458 L 314.909 340.343 M 296.467 256.999 L 318.937 340.592 M 300.237 256.539 L 322.965 340.841 M 304.007 256.08 L 326.993 341.09 M 307.777 255.62 L 331.02 341.339 M 311.547 255.161 L 335.048 341.587 M 315.318 254.702 L 339.076 341.836 M 319.088 254.242 L 343.104 342.085 M 322.858 253.783 L 347.131 342.334 M 326.628 253.324 L 351.159 342.583 M 330.398 252.864 L 355.187 342.832 M 334.169 252.405 L 359.215 343.081" stroke="black" stroke-width="1" fill="none"></path><path d="M 333.958 60.641 L 460.524 48.9902 M 333.839 63.4986 L 460.086 53.4567 M 333.721 66.3562 L 459.648 57.9232 M 333.603 69.2137 L 459.21 62.3897 M 333.484 72.0713 L 458.772 66.8562 M 333.366 74.9289 L 458.333 71.3226 M 333.248 77.7865 L 457.895 75.7891 M 333.129 80.6441 L 457.457 80.2556 M 333.011 83.5017 L 457.019 84.7221 M 332.893 86.3593 L 456.581 89.1885 M 332.775 89.2168 L 456.143 93.655 M 332.656 92.0744 L 455.705 98.1215 M 332.538 94.932 L 455.267 102.588 M 332.42 97.7896 L 454.829 107.054 M 332.301 100.647 L 454.391 111.521 M 332.183 103.505 L 453.953 115.987 M 332.065 106.362 L 453.515 120.454 M 331.946 109.22 L 453.077 124.92 M 331.828 112.078 L 452.639 129.387 M 331.71 114.935 L 452.201 133.853 M 331.591 117.793 L 451.763 138.32 M 331.473 120.65 L 451.325 142.786 M 331.355 123.508 L 450.887 147.253 M 331.236 126.365 L 450.449 151.719 M 331.118 129.223 L 450.011 156.186 M 331 132.081 L 449.573 160.652 M 330.881 134.938 L 449.135 165.119 M 330.763 137.796 L 448.697 169.585 M 330.645 140.653 L 448.259 174.052 M 330.526 143.511 L 447.821 178.518 M 333.958 60.641 L 330.526 143.511 M 338.322 60.2392 L 334.571 144.718 M 342.686 59.8375 L 338.616 145.925 M 347.051 59.4357 L 342.66 147.132 M 351.415 59.034 L 346.705 148.34 M 355.779 58.6322 L 350.75 149.547 M 360.144 58.2305 L 354.794 150.754 M 364.508 57.8287 L 358.839 151.961 M 368.872 57.427 L 362.883 153.168 M 373.237 57.0252 L 366.928 154.375 M 377.601 56.6235 L 370.973 155.582 M 381.965 56.2217 L 375.017 156.79 M 386.33 55.82 L 379.062 157.997 M 390.694 55.4182 L 383.107 159.204 M 395.059 55.0165 L 387.151 160.411 M 399.423 54.6147 L 391.196 161.618 M 403.787 54.213 L 395.241 162.825 M 408.152 53.8112 L 399.285 164.032 M 412.516 53.4095 L 403.33 165.24 M 416.88 53.0077 L 407.374 166.447 M 421.245 52.606 L 411.419 167.654 M 425.609 52.2042 L 415.464 168.861 M 429.973 51.8025 L 419.508 170.068 M 434.338 51.4007 L 423.553 171.275 M 438.702 50.999 L 427.598 172.482 M 443.066 50.5972 L 431.642 173.689 M 447.431 50.1955 L 435.687 174.897 M 451.795 49.7937 L 439.732 176.104 M 456.159 49.392 L 443.776 177.311 M 460.524 48.9902 L 447.821 178.518" stroke="black" stroke-width="1" fill="none"></path><path d="M 330.526 143.511 L 447.821 178.518 M 330.787 151.289 L 446.688 184.304 M 331.047 159.067 L 445.556 190.09 M 331.307 166.845 L 444.423 195.876 M 331.567 174.624 L 443.291 201.662 M 331.827 182.402 L 442.158 207.448 M 332.087 190.18 L 441.025 213.234 M 332.347 197.958 L 439.893 219.02 M 332.608 205.736 L 438.76 224.806 M 332.868 213.514 L 437.628 230.592 M 333.128 221.292 L 436.495 236.378 M 333.388 229.071 L 435.363 242.164 M 333.648 236.849 L 434.23 247.95 M 333.908 244.627 L 433.097 253.736 M 334.169 252.405 L 431.965 259.522 M 330.526 143.511 L 334.169 252.405 M 338.905 146.011 L 341.154 252.913 M 347.283 148.512 L 348.139 253.422 M 355.661 151.013 L 355.125 253.93 M 364.039 153.513 L 362.11 254.438 M 372.417 156.014 L 369.096 254.947 M 380.795 158.514 L 376.081 255.455 M 389.174 161.015 L 383.067 255.963 M 397.552 163.515 L 390.052 256.472 M 405.93 166.016 L 397.038 256.98 M 414.308 168.516 L 404.023 257.488 M 422.686 171.017 L 411.009 257.997 M 431.065 173.517 L 417.994 258.505 M 439.443 176.018 L 424.979 259.013 M 447.821 178.518 L 431.965 259.522" stroke="black" stroke-width="1" fill="none"></path><path d="M 334.169 252.405 L 431.965 259.522 M 335.307 256.527 L 433.401 264.125 M 336.446 260.648 L 434.836 268.727 M 337.584 264.77 L 436.272 273.33 M 338.722 268.892 L 437.708 277.933 M 339.861 273.013 L 439.144 282.536 M 340.999 277.135 L 440.579 287.139 M 342.138 281.256 L 442.015 291.741 M 343.276 285.378 L 443.451 296.344 M 344.415 289.5 L 444.886 300.947 M 345.553 293.621 L 446.322 305.55 M 346.692 297.743 L 447.758 310.153 M 347.83 301.864 L 449.194 314.755 M 348.969 305.986 L 450.629 319.358 M 350.107 310.108 L 452.065 323.961 M 351.245 314.229 L 453.501 328.564 M 352.384 318.351 L 454.937 333.167 M 353.522 322.473 L 456.372 337.769 M 354.661 326.594 L 457.808 342.372 M 355.799 330.716 L 459.244 346.975 M 356.938 334.837 L 460.68 351.578 M 358.076 338.959 L 462.115 356.181 M 359.215 343.081 L 463.551 360.783 M 334.169 252.405 L 359.215 343.081 M 338.614 252.728 L 363.957 343.885 M 343.059 253.052 L 368.7 344.69 M 347.504 253.375 L 373.442 345.495 M 351.95 253.699 L 378.185 346.299 M 356.395 254.022 L 382.928 347.104 M 360.84 254.346 L 387.67 347.909 M 365.286 254.669 L 392.413 348.713 M 369.731 254.993 L 397.155 349.518 M 374.176 255.316 L 401.898 350.323 M 378.621 255.64 L 406.64 351.127 M 383.067 255.963 L 411.383 351.932 M 387.512 256.287 L 416.125 352.737 M 391.957 256.61 L 420.868 353.541 M 396.403 256.934 L 425.611 354.346 M 400.848 257.257 L 430.353 355.151 M 405.293 257.581 L 435.096 355.955 M 409.738 257.904 L 439.838 356.76 M 414.184 258.228 L 444.581 357.565 M 418.629 258.551 L 449.323 358.369 M 423.074 258.875 L 454.066 359.174 M 427.52 259.198 L 458.809 359.979 M 431.965 259.522 L 463.551 360.783" stroke="black" stroke-width="1" fill="none"></path></svg>
