<svg version="1.1" xmlns:xlink="http://www.w3.org/1999/xlink" xmlns="http://www.w3.org/2000/svg"><path d="M 100 110 L 110 110 M 100 120 L 120 120 M 100 130 L 130 130 M 100 140 L 140 140 M 100 150 L 150 150" stroke="black" stroke-width="1" fill="none"></path><path d="M 300 100 L 400 100 L 400 200 L 300 200 L 300 100 M 300 100.004 L 328.696 100 L 400 148.332 L 365.12 200 L 300 100.004 M 300 165.099 L 396.835 100 L 400 143.264 L 378.084 200 L 300 165.099 M 300 126.985 L 342.303 100 L 400 161.759 L 396.77 200 L 300 126.985 M 300 114.827 L 343.371 100 L 400 169.058 L 332.984 200 L 300 114.827 M 300 177.114 L 342.834 100 L 400 169.625 L 359.91 200 L 300 177.114 M 300 108.055 L 376.211 100 L 400 137.349 L 326.439 200 L 300 108.055 M 300 123.263 L 367.735 100 L 400 117.544 L 339.185 200 L 300 123.263 M 300 123.614 L 354.008 100 L 400 165.358 L 338.468 200 L 300 123.614 M 300 167.539 L 348.317 100 L 400 146.368 L 397.53 200 L 300 167.539 M 300 119.941 L 365.87 100 L 400 172.585 L 367.972 200 L 300 119.941 M 300 116.411 L 307.027 100 L 400 192.321 L 352.352 200 L 300 116.411 M 300 152.886 L 391.17 100 L 400 133.499 L 374.854 200 L 300 152.886 M 300 163.457 L 364.65 100 L 400 114.26 L 341.67 200 L 300 163.457 M 300 145.308 L 358.515 100 L 400 171.676 L 382.884 200 L 300 145.308 M 300 146.362 L 391.633 100 L 400 106.111 L 371.227 200 L 300 146.362 M 300 129.992 L 393.788 100 L 400 120.353 L 351.393 200 L 300 129.992 M 300 141.143 L 390.749 100 L 400 165.612 L 382.849 200 L 300 141.143 M 300 102.493 L 356.48 100 L 400 148.578 L 319.682 200 L 300 102.493 M 300 155.545 L 303.155 100 L 400 157 L 398.952 200 L 300 155.545" stroke="black" stroke-width="1" fill="none"></path><path d="M 500 100 L 500 300 L 673.205 200 L 500 100 M 500 120 L 517.321 290 L 655.885 190 L 500 120 M 501.732 137 L 531.177 280 L 640.296 183 L 501.732 137 M 504.677 151.3 L 542.089 270.3 L 626.44 178.4 L 504.677 151.3 M 508.418 163.2 L 550.524 261.11 L 614.263 175.69 L 508.418 163.2 M 512.628 172.991 L 556.898 252.568 L 603.679 174.441 L 512.628 172.991 M 517.055 180.949 L 561.576 244.755 L 594.574 174.296 L 517.055 180.949 M 521.507 187.329 L 564.876 237.709 L 586.822 174.961 L 521.507 187.329 M 525.844 192.367 L 567.07 231.435 L 580.29 176.198 L 525.844 192.367 M 529.967 196.274 L 568.392 225.911 L 574.846 177.815 L 529.967 196.274 M 533.809 199.238 L 569.038 221.101 L 570.358 179.661 L 533.809 199.238 M 537.332 201.424 L 569.17 216.957 L 566.703 181.619 L 537.332 201.424 M 540.516 202.977 L 568.923 213.423 L 563.766 183.599 L 540.516 202.977 M 543.357 204.022 L 568.407 210.441 L 561.441 185.537 L 543.357 204.022 M 545.862 204.664 L 567.711 207.951 L 559.633 187.385 L 545.862 204.664 M 548.047 204.993 L 566.903 205.894 L 558.255 189.113 L 548.047 204.993 M 549.932 205.083 L 566.038 204.216 L 557.235 190.701 L 549.932 205.083 M 551.543 204.996 L 565.158 202.865 L 556.504 192.139 L 551.543 204.996 M 552.904 204.783 L 564.292 201.792 L 556.008 193.425 L 552.904 204.783 M 554.043 204.484 L 563.464 200.955 L 555.698 194.561 L 554.043 204.484 M 554.985 204.131 L 562.687 200.316 L 555.532 195.553 L 554.985 204.131" stroke="black" stroke-width="1" fill="none"></path><path d="M 100 350 L 100 380 M 110 350 L 100 380 M 119.988 350 L 100.5 380 M 129.938 350 L 101.498 380 M 139.825 350 L 102.993 380 M 149.626 350 L 104.979 380 M 159.315 350 L 107.453 380 M 168.868 350 L 110.408 380 M 178.262 350 L 113.837 380 M 187.473 350 L 117.732 380 M 196.477 350 L 122.081 380 M 205.253 350 L 126.876 380 M 213.778 350 L 132.102 380 M 222.032 350 L 137.749 380 M 229.992 350 L 143.801 380 M 237.641 350 L 150.243 380 M 244.958 350 L 157.059 380 M 251.925 350 L 164.233 380 M 258.525 350 L 171.746 380 M 264.741 350 L 179.579 380 M 270.558 350 L 187.713 380 M 275.961 350 L 196.128 380 M 280.936 350 L 204.802 380 M 285.472 350 L 213.714 380 M 289.557 350 L 222.842 380 M 293.181 350 L 232.162 380 M 296.334 350 L 241.652 380 M 299.009 350 L 251.288 380 M 301.199 350 L 261.045 380 M 302.899 350 L 270.899 380 M 304.104 350 L 280.826 380 M 304.811 350 L 290.801 380 M 305.019 350 L 300.799 380 M 305.311 350 L 310.795 380 M 306.102 350 L 320.764 380 M 307.391 350 L 330.68 380 M 309.173 350 L 340.52 380 M 311.445 350 L 350.259 380 M 314.201 350 L 359.871 380 M 317.434 350 L 369.334 380 M 321.136 350 L 378.624 380 M 325.297 350 L 387.717 380 M 329.908 350 L 396.59 380 M 334.956 350 L 405.223 380 M 340.43 350 L 413.592 380 M 346.315 350 L 421.677 380 M 352.597 350 L 429.457 380 M 359.26 350 L 436.914 380 M 366.287 350 L 444.029 380 M 373.661 350 L 450.784 380 M 381.363 350 L 457.161 380 M 389.374 350 L 463.146 380 M 397.675 350 L 468.723 380 M 406.244 350 L 473.878 380 M 415.06 350 L 478.598 380 M 424.1 350 L 482.872 380 M 433.343 350 L 486.689 380 M 442.766 350 L 490.038 380 M 452.343 350 L 492.913 380 M 462.053 350 L 495.306 380 M 471.87 350 L 497.21 380 M 481.77 350 L 498.621 380 M 491.728 350 L 499.536 380 M 501.719 350 L 499.952 380 M 511.719 350 L 500.036 380 M 521.702 350 L 500.619 380 M 531.643 350 L 501.701 380 M 541.518 350 L 503.279 380 M 551.302 350 L 505.348 380 M 560.97 350 L 507.903 380 M 570.498 350 L 510.939 380 M 579.862 350 L 514.447 380 M 589.04 350 L 518.418 380 M 598.008 350 L 522.843 380 M 606.743 350 L 527.711 380 M 615.224 350 L 533.009 380 M 623.429 350 L 538.725 380 M 631.339 350 L 544.844 380 M 638.933 350 L 551.35 380 M 646.192 350 L 558.228 380 M 653.099 350 L 565.459 380 M 659.635 350 L 573.027 380 M 665.785 350 L 580.913 380 M 671.534 350 L 589.095 380 M 676.866 350 L 597.555 380 M 681.768 350 L 606.271 380 M 686.229 350 L 615.221 380 M 690.237 350 L 624.383 380 M 693.782 350 L 633.733 380 M 696.856 350 L 643.249 380" stroke="black" stroke-width="1" fill="none"></path><path d="M 100 400 L 100 430 M 110 400 L 100 430 M 119.95 400 L 100.998 430 M 129.751 400 L 102.985 430 M 139.304 400 L 105.94 430 M 148.515 400 L 109.834 430 M 157.291 400 L 114.629 430 M 165.544 400 L 120.275 430 M 173.192 400 L 126.717 430 M 180.159 400 L 133.891 430 M 186.375 400 L 141.724 430 M 191.778 400 L 150.139 430 M 196.314 400 L 159.051 430 M 199.938 400 L 168.371 430 M 202.613 400 L 178.007 430 M 204.313 400 L 187.861 430 M 205.02 400 L 197.836 430 M 205.312 400 L 207.832 430 M 206.6 400 L 217.749 430 M 208.873 400 L 227.487 430 M 212.105 400 L 236.95 430 M 216.267 400 L 246.043 430 M 221.315 400 L 254.675 430 M 227.2 400 L 262.76 430 M 233.863 400 L 270.217 430 M 241.237 400 L 276.972 430 M 249.248 400 L 282.957 430 M 257.817 400 L 288.112 430 M 266.858 400 L 292.385 430 M 276.28 400 L 295.735 430 M 285.99 400 L 298.128 430 M 295.89 400 L 299.539 430 M 305.881 400 L 299.955 430 M 315.864 400 L 300.539 430 M 325.739 400 L 302.116 430 M 335.407 400 L 304.671 430 M 344.771 400 L 308.179 430 M 353.739 400 L 312.604 430 M 362.22 400 L 317.903 430 M 370.13 400 L 324.021 430 M 377.389 400 L 330.899 430 M 383.925 400 L 338.467 430 M 389.674 400 L 346.65 430 M 394.576 400 L 355.366 430 M 398.584 400 L 364.527 430 M 401.658 400 L 374.043 430 M 403.766 400 L 383.819 430 M 404.887 400 L 393.755 430 M 405.011 400 L 403.755 430 M 405.886 400 L 413.716 430 M 407.751 400 L 423.541 430 M 410.588 400 L 433.13 430 M 414.368 400 L 442.388 430 M 419.053 400 L 451.223 430 M 424.596 400 L 459.546 430 M 430.943 400 L 467.273 430 M 438.03 400 L 474.329 430 M 445.786 400 L 480.641 430 M 454.133 400 L 486.148 430 M 462.988 400 L 490.794 430 M 472.263 400 L 494.533 430 M 481.865 400 L 497.327 430 M 491.697 400 L 499.149 430 M 501.663 400 L 499.98 430 M 511.661 400 L 500.148 430 M 521.593 400 L 501.313 430 M 531.359 400 L 503.464 430 M 540.861 400 L 506.58 430 M 550.005 400 L 510.628 430 M 558.699 400 L 515.569 430 M 566.856 400 L 521.354 430 M 574.395 400 L 527.924 430 M 581.241 400 L 535.213 430 M 587.324 400 L 543.15 430 M 592.585 400 L 551.654 430 M 596.971 400 L 560.641 430 M 600.437 400 L 570.021 430 M 602.95 400 L 579.701 430 M 604.483 400 L 589.582 430 M 605.023 400 L 599.568 430 M 605.483 400 L 609.557 430 M 606.938 400 L 619.451 430 M 609.373 400 L 629.15 430 M 612.765 400 L 638.557 430 M 617.079 400 L 647.579 430 M 622.272 400 L 656.125 430 M 628.292 400 L 664.11 430 M 635.079 400 L 671.454 430 M 642.565 400 L 678.083 430 M 650.676 400 L 683.932 430" stroke="black" stroke-width="1" fill="none"></path><polyline points="50,50 750,50 750,500 50,500 50,50" stroke="black" stroke-width="1" fill="none"></polyline></svg>
